# This file uses meters as units for non-parametric coordinates.

mtllib bagmesh.mtl
g default
v 35.761897 40.755909 41.954907
v 34.182547 79.138366 30.786026
v -7.397281 80.496993 43.875120
v -7.663420 44.054943 57.028918
v 56.101762 32.628124 10.114701
v 44.931823 67.735756 3.717215
v 49.339635 35.182400 -51.536228
v 36.925881 68.796158 -39.566692
v 6.335805 34.812766 -70.926148
v 2.550072 67.317742 -57.360739
v -64.054330 41.188716 -43.562766
v -43.741586 78.101768 -39.783225
v -30.683847 34.472390 -67.905916
v -23.096830 71.455932 -54.258492
v -69.937275 43.430634 0.417675
v -56.171218 84.017365 -6.171664
v -49.342422 46.645782 43.950870
v -40.339561 84.693619 33.889978
v -9.365732 6.573369 74.421343
v 42.918159 0.824339 54.615908
v 69.361205 -6.082070 15.426601
v 62.673659 -2.385013 -59.348308
v 3.532773 -4.392096 -82.473242
v -38.073478 -4.384955 -76.145102
v -80.313726 -0.090499 -47.651180
v -81.157879 3.494411 3.969794
v -59.769941 7.107250 55.788932
v -12.021131 -74.630312 75.678739
v 43.380194 -77.995257 57.905593
v 66.534582 -79.169876 6.999475
v 56.458156 -82.069485 -59.819921
v 1.159980 -79.800172 -77.191147
v -36.362451 -84.684974 -66.115370
v -65.397392 -86.382535 -33.922081
v -83.511831 -78.725494 10.138087
v -62.762353 -76.046817 57.356754
v 21.939723 -105.729708 0.249775
v -27.613418 -105.301063 -17.115292
v 70.903722 -81.676890 -21.719706
v 70.523412 -6.984531 -23.466808
v 53.965804 29.066871 -20.842548
v 41.291985 65.632461 -16.472427
v 33.577457 -96.684626 -50.334419
v 4.692047 -96.615367 -61.357820
v -44.104277 -95.041892 47.072523
v -15.671880 -92.299285 57.585384
v 31.483991 -102.245826 -30.312479
v -8.906455 -102.406436 -46.571167
v -41.461268 -104.655528 19.017483
v 4.498786 -100.489997 35.617644
v -10.731512 -36.754553 84.329576
v 46.337385 -44.372574 61.405338
v 72.434159 -48.895242 14.063604
v 79.781136 -49.712385 -25.578531
v 68.859565 -46.424934 -64.634453
v 0.153966 -46.371474 -88.464225
v -42.459095 -49.805496 -79.614082
v -82.749088 -51.656095 -47.073288
v -93.753087 -44.403130 7.352865
v -68.733222 -38.664218 64.266235
v 36.941005 84.167069 31.766124
v -5.400282 86.106172 47.387837
v 49.182894 72.623557 4.422898
v 40.219948 72.211457 -41.142650
v 49.393214 70.393302 -20.721699
v 3.231781 75.052802 -59.141233
v -41.985457 83.383644 -40.347595
v -21.485774 76.961236 -54.232277
v -54.487104 89.666337 -7.257202
v -39.312322 91.553010 34.183319
v 30.503343 102.634050 33.862920
v -3.240142 104.134421 39.972027
v 45.484037 98.516188 6.902080
v 41.948901 92.256751 -40.121727
v 47.687331 91.612870 -13.642960
v 9.980641 92.621017 -54.694301
v -34.455696 99.404007 -40.955482
v -13.872729 92.905641 -53.791168
v -47.669021 107.253532 -8.906003
v -32.294952 107.609153 28.588405
v 75.756405 125.859237 -47.471009
v 79.549846 130.648558 -17.052902
v 23.081201 128.515933 -78.941923
v -9.209736 133.584415 -76.201827
v -45.603551 142.499546 -56.760334
v -60.371126 142.404224 -9.815599
v -52.763993 146.960416 41.791849
v 12.101755 103.740278 38.690124
v 14.170257 84.787263 43.233731
v 11.750318 79.428886 42.660037
v 15.238722 44.521282 56.872801
v 19.004006 4.815665 71.442732
v 19.522501 -39.724037 80.572368
v 14.538973 -77.528152 69.860793
v -6.207255 -96.382845 47.323726
v -42.704444 -100.830024 33.669267
v -74.287032 -78.245212 35.966087
v -84.597373 -42.332981 41.052414
v -72.309963 6.299404 34.048732
v -61.810367 46.679222 26.045712
v -47.107238 85.302842 15.895388
v -49.664617 91.989595 17.219334
v -34.317158 107.440643 10.398737
v -48.159228 148.541842 13.890258
v -5.524581 141.974520 58.652869
v 16.594987 138.020967 53.749837
v 40.927229 138.259647 54.455077
v 69.626122 136.390012 23.066082
v 26.569021 91.845033 -49.132089
v 23.509700 72.778678 -54.252440
v 21.254693 68.060074 -51.993519
v 28.852877 36.757343 -68.246393
v 34.208808 -2.981521 -79.473144
v 34.830538 -44.818527 -83.022148
v 29.932021 -82.383251 -72.506295
v 19.083989 -97.039954 -56.120192
v 11.156415 -102.964568 -38.629353
v -3.038149 -106.307089 -8.511201
v -18.678266 -104.716670 27.640884
v -24.781513 -100.587332 40.302311
v -30.209942 -95.177852 52.833037
v -38.286731 -75.434712 72.022687
v -41.113026 -36.580781 80.228733
v -35.811070 6.973654 68.578338
v -28.491433 43.640885 50.382113
v -24.447374 81.388680 40.517313
v -23.704938 89.253984 44.009525
v -18.824715 105.792283 36.837757
v -28.304667 143.146605 53.421132
v 66.180726 139.439912 21.301394
v 76.609141 133.756624 -17.721699
v 73.195536 127.612697 -47.250206
v 54.959790 128.886507 -74.509300
v 52.291208 128.223026 -71.342477
v 23.722949 129.344517 -77.969717
v -7.805908 133.916105 -73.710190
v -43.456840 142.825637 -54.546028
v -58.663337 143.835264 -10.090084
v -47.150407 150.007520 15.774571
v -50.612529 148.289920 40.788357
v -25.969053 144.505646 50.468466
v -4.099001 142.280423 54.279426
v 16.324100 139.133069 51.182944
v 39.474346 138.813358 50.377573
v -50.976633 143.446530 -30.215365
v -53.625327 143.439914 -30.246536
v -40.957919 103.367659 -24.692490
v -50.178009 87.160362 -24.473160
v -50.725632 81.329774 -23.049591
v -64.124884 41.212203 -20.812012
v -84.856337 2.711633 -22.021425
v -91.542076 -48.434556 -20.142159
v -76.397566 -84.260513 -12.067314
v -34.832421 -105.824660 1.105419
v -10.919728 -106.894498 9.851134
v 13.687358 -105.262280 18.566935
v 57.708232 -80.944252 34.297298
v 62.453900 -46.797735 39.753164
v 59.038688 -1.840813 37.000001
v 47.883652 37.418800 27.235431
v 43.355249 72.739921 19.628223
v 47.089805 77.450629 20.634202
v 43.716266 99.105254 24.058410
v 55.535261 137.478547 39.269163
v 52.796211 139.426821 36.083351
v 32.624466 103.433874 11.941491
v 38.116062 103.386505 3.047222
v 41.828846 101.877165 -15.744554
v 41.366984 100.361907 -28.979666
v 30.328132 99.908035 -43.547103
v 14.435558 100.463854 -49.239524
v -4.724365 100.278136 -47.504281
v -20.935417 105.272066 -36.903923
v -34.258928 108.083146 -23.848366
v -37.883192 108.103599 -11.034905
v -32.868867 115.504617 9.879297
v -23.475002 112.130387 23.185115
v -12.603841 114.409715 31.395964
v -3.638487 113.140184 32.444236
v 9.191521 109.881876 31.410847
v 22.621083 104.435488 21.032348
v 17.015102 106.937196 -23.598219
v 30.657243 104.313242 -13.214778
v -0.009038 107.010691 -31.256649
v -19.337417 109.921724 3.636166
v -5.068906 110.706610 12.394309
v 6.859376 108.908919 18.811656
v -12.065499 109.507918 -14.009819
v 4.748127 109.367051 -5.494109
v 18.746173 106.841400 3.262899
vt 0.247301 0.912472
vt 0.283849 0.906078
vt 0.284432 0.954035
vt 0.247181 0.960883
vt 0.243259 0.873088
vt 0.055090 0.663369
vt 0.244279 0.809860
vt 0.279324 0.811465
vt 0.063677 0.741703
vt 0.245287 0.761463
vt 0.247213 0.684260
vt 0.283883 0.691515
vt 0.244262 0.725191
vt 0.066041 0.766455
vt 0.246730 0.639523
vt 0.286798 0.647788
vt 0.246933 0.591839
vt 0.286115 0.600912
vt 0.205590 0.967524
vt 0.208311 0.915925
vt 0.206297 0.874396
vt 0.207781 0.810929
vt 0.206834 0.758298
vt 0.207627 0.724063
vt 0.208751 0.681354
vt 0.208798 0.636367
vt 0.202945 0.585758
vt 0.122502 0.951888
vt 0.138452 0.907489
vt 0.140180 0.864140
vt 0.133686 0.807937
vt 0.131367 0.755079
vt 0.132954 0.721148
vt 0.131173 0.685448
vt 0.133823 0.646015
vt 0.119299 0.607103
vt 0.094185 0.865445
vt 0.092428 0.693322
vt 0.139519 0.841183
vt 0.206276 0.841612
vt 0.242672 0.841636
vt 0.058380 0.682774
vt 0.108729 0.812396
vt 0.109892 0.749304
vt 0.093713 0.622253
vt 0.099417 0.937948
vt 0.100732 0.833000
vt 0.101370 0.729044
vt 0.090148 0.653198
vt 0.095423 0.906163
vt 0.160282 0.965606
vt 0.167245 0.913857
vt 0.168257 0.870549
vt 0.167313 0.839864
vt 0.168205 0.810104
vt 0.166296 0.755603
vt 0.166521 0.723221
vt 0.165248 0.683821
vt 0.164607 0.640594
vt 0.154732 0.590326
vt 0.042780 0.633174
vt 0.050963 0.591813
vt 0.048965 0.662756
vt 0.049427 0.705435
vt 0.049100 0.685263
vt 0.056262 0.743088
vt 0.059324 0.790430
vt 0.060584 0.766311
vt 0.055185 0.824260
vt 0.045812 0.864925
vt 0.026926 0.623331
vt 0.801758 0.587307
vt 0.746582 0.616429
vt 0.030179 0.706240
vt 0.737456 0.634973
vt 0.729506 0.690506
vt 0.042747 0.787560
vt 0.738949 0.711090
vt 0.770513 0.758567
vt 0.806679 0.774465
vt 0.684594 0.635490
vt 0.967716 0.610563
vt 0.986528 0.695414
vt 0.974257 0.724819
vt 0.714154 0.761279
vt 0.904806 0.771919
vt 0.852771 0.776187
vt 0.787341 0.589682
vt 0.047789 0.610050
vt 0.282811 0.934286
vt 0.247074 0.938411
vt 0.207233 0.942059
vt 0.165037 0.940477
vt 0.129625 0.930112
vt 0.096850 0.922884
vt 0.090746 0.637673
vt 0.125704 0.626167
vt 0.158785 0.613151
vt 0.206586 0.608243
vt 0.247541 0.613193
vt 0.056220 0.847796
vt 0.049447 0.846942
vt 0.791480 0.766070
vt 0.878900 0.770273
vt 0.852883 0.593233
vt 0.874557 0.590000
vt 0.756309 0.556494
vt 0.935322 0.587605
vt 0.726377 0.674188
vt 0.053194 0.724202
vt 0.279644 0.784901
vt 0.244899 0.783846
vt 0.206838 0.782948
vt 0.165462 0.781436
vt 0.123975 0.782969
vt 0.098160 0.803318
vt 0.082448 0.823987
vt 0.070537 0.863375
vt 0.067932 0.651824
vt 0.079293 0.928655
vt 0.087230 0.944628
vt 0.109478 0.970966
vt 0.151732 0.991784
vt 0.204948 0.993161
vt 0.249827 0.981367
vt 0.059985 0.574772
vt 0.051727 0.574234
vt 0.816833 0.585681
vt 0.833467 0.603945
vt 0.964954 0.613608
vt 0.933143 0.591754
vt 0.983425 0.636229
vt 0.995726 0.665624
vt 0.991864 0.666374
vt 0.985575 0.694444
vt 0.972230 0.723004
vt 0.947876 0.755276
vt 0.904587 0.769888
vt 0.876801 0.769148
vt 0.853438 0.773718
vt 0.836479 0.606279
vt 0.855512 0.596748
vt 0.875234 0.592564
vt 0.896237 0.584282
vt 0.924247 0.762507
vt 0.734933 0.777392
vt 0.039720 0.804550
vt 0.057183 0.807482
vt 0.285922 0.669047
vt 0.248398 0.661628
vt 0.209807 0.659213
vt 0.165137 0.662036
vt 0.131521 0.665527
vt 0.089551 0.673116
vt 0.070003 0.888216
vt 0.093088 0.885855
vt 0.138634 0.886051
vt 0.168603 0.892179
vt 0.208408 0.894991
vt 0.246306 0.892674
vt 0.051659 0.647557
vt 0.045994 0.647627
vt 0.756959 0.603766
vt 0.915154 0.583565
vt 0.914659 0.587901
vt 0.912532 0.801255
vt 0.908733 0.810408
vt 0.935099 0.646389
vt 0.935048 0.780361
vt 0.952426 0.780343
vt 0.965901 0.789070
vt 0.937826 0.701260
vt 0.976805 0.823257
vt 0.974556 0.840968
vt 0.967108 0.851150
vt 0.881034 0.734907
vt 0.932394 0.860322
vt 0.919787 0.857012
vt 0.913957 0.850691
vt 0.881997 0.626038
vt 0.907379 0.823177
vt 0.944774 0.802734
vt 0.929146 0.797896
vt 0.960249 0.811108
vt 0.945067 0.846007
vt 0.930094 0.840156
vt 0.918322 0.834493
vt 0.954151 0.830245
vt 0.938069 0.822481
vt 0.923387 0.816504
vt 0.026785 0.640126
vt 0.769891 0.594406
vt 0.279538 0.888830
vt 0.048323 0.632777
vt 0.062771 0.808643
vt 0.064591 0.791173
vt 0.759794 0.745779
vt 0.748756 0.732803
vt 0.033766 0.574775
vt 0.028952 0.860295
vt 0.287728 0.970417
vt 0.052327 0.865894
vt 0.058554 0.723871
vt 0.054213 0.705438
vt 0.034162 0.723814
vt 0.724791 0.657348
vt 0.028581 0.842362
vt 0.037226 0.821256
vt 0.287471 0.621410
vt 0.060750 0.825543
vt 0.053397 0.609349
vt 0.057393 0.591231
vt 0.029938 0.604958
vt 0.032508 0.590121
vt 0.029261 0.678634
vt 0.024423 0.657431
vt 0.043909 0.763521
vt 0.037894 0.740931
vt 0.277952 0.842213
vt 0.277188 0.868463
vt 0.281349 0.724524
vt 0.278983 0.758684
vt 0.853511 0.724224
vt 0.949566 0.670982
vt 0.835506 0.755655
vt 0.066693 0.676663
vt 0.073981 0.911717
vt 0.822026 0.812812
vt 0.676501 0.666954
vt 0.024389 0.874964
vt 0.821693 0.773010
vt 0.041159 0.881707
vt 0.286944 0.583548
vt 0.049466 0.882400
vt 0.248378 0.570834
vt 0.202084 0.561470
vt 0.148250 0.563277
vt 0.103976 0.586130
vt 0.081951 0.616198
vt 0.073838 0.633732
vt 0.070355 0.701905
vt 0.085808 0.740591
vt 0.102072 0.760778
vt 0.910468 0.632999
vt 0.897895 0.630590
vt 0.907429 0.840005
vt 0.869821 0.628025
vt 0.861897 0.631247
vt 0.865806 0.728885
vt 0.948013 0.860885
vt 0.901216 0.730049
vt 0.913205 0.726910
vt 0.926798 0.715954
vt 0.976082 0.804265
vt 0.947081 0.686216
vt 0.944080 0.655218
vt 0.924722 0.787699
vt 0.919952 0.636116
vt 0.739318 0.567051
vt 0.895569 0.580256
vt 0.924267 0.765002
vt 0.949824 0.757457
vt 0.686885 0.695670
vt 0.985567 0.634238
vt 0.821991 0.546214
vt 0.833466 0.758848
vt 0.796445 0.817161
vt 0.697249 0.608915
vt 0.722257 0.578231
vt 0.779343 0.554811
vt 0.799814 0.547261
vt 0.773478 0.803215
vt 0.751911 0.788765
vt 0.696947 0.725116
vn 0.648658 0.310301 0.694950
vn 0.628152 0.177196 0.757646
vn 0.313182 0.264662 0.912069
vn 0.333749 0.359686 0.871342
vn 0.845965 0.298897 0.441593
vn 0.884025 0.130638 0.448814
vn 0.938422 0.337453 0.074088
vn 0.928038 0.361702 -0.088975
vn 0.973138 0.194533 -0.123121
vn 0.988750 0.148837 0.014887
vn 0.006651 0.329481 -0.944139
vn 0.396936 0.363425 -0.842831
vn 0.366347 0.376225 -0.851025
vn -0.008920 0.321204 -0.946968
vn -0.327252 0.313223 -0.891514
vn -0.319613 0.342816 -0.883360
vn -0.703685 0.376671 -0.602450
vn -0.686742 0.379154 -0.620183
vn -0.912800 0.312364 -0.263105
vn -0.913873 0.371900 -0.162868
vn -0.937881 0.337901 0.078750
vn -0.950332 0.310287 0.024329
vn -0.868487 0.340687 0.360087
vn -0.880138 0.314997 0.355154
vn -0.592851 0.374327 0.713027
vn -0.273570 0.374493 0.885954
vn -0.279540 0.217447 0.935187
vn -0.643560 0.286678 0.709681
vn 0.369192 0.271805 0.888718
vn 0.670294 0.231389 0.705099
vn 0.842064 0.209672 0.496956
vn 0.964367 0.256148 -0.066216
vn 0.958904 0.218742 0.180709
vn 0.354190 0.204772 -0.912479
vn -0.041674 0.184143 -0.982016
vn -0.396618 0.171154 -0.901887
vn -0.757387 0.191514 -0.624250
vn -0.961279 0.252787 -0.109735
vn -0.952836 0.275055 0.128252
vn -0.886675 0.287018 0.362530
vn -0.310484 0.332946 0.890363
vn -0.636077 0.322223 0.701126
vn 0.354427 -0.002920 0.935079
vn 0.663354 -0.013099 0.748191
vn 0.871009 -0.030922 0.490293
vn 0.972215 -0.028307 0.232370
vn 0.995243 -0.038891 -0.089319
vn 0.331582 -0.062076 -0.941382
vn -0.055179 -0.081225 -0.995167
vn -0.446027 -0.131014 -0.885378
vn -0.766907 -0.169009 -0.619104
vn -0.980191 -0.104384 -0.168314
vn -0.991234 0.015903 0.131157
vn -0.918625 0.039384 0.393164
vn -0.335826 0.042726 0.940955
vn -0.685182 0.045024 0.726979
vn -0.051099 -0.466791 -0.882890
vn 0.279382 -0.442867 -0.851948
vn 0.153067 -0.858909 -0.488719
vn -0.033367 -0.811239 -0.583762
vn -0.162826 -0.789808 0.591347
vn -0.297582 -0.387328 0.872595
vn -0.617932 -0.423710 0.662291
vn -0.409977 -0.782910 0.467943
vn 0.815654 0.266627 -0.513439
vn 0.805606 -0.047099 -0.590576
vn 0.805277 0.402306 -0.435522
vn 0.862601 0.283622 -0.418901
vn 0.057370 -0.986643 -0.152457
vn -0.180562 -0.922446 -0.341306
vn -0.006445 -0.977277 0.211868
vn -0.027215 -0.939281 0.342067
vn -0.439835 -0.859645 0.259913
vn -0.407258 -0.908625 0.092416
vn 0.021438 -0.997790 -0.062885
vn -0.255285 -0.945307 -0.203039
vn -0.322121 -0.945070 -0.055505
vn 0.002280 -0.997854 0.065433
vn 0.369431 -0.876841 -0.307687
vn 0.654562 -0.526709 -0.542334
vn 0.787191 -0.614807 -0.048407
vn 0.367004 -0.928866 -0.050168
vn 0.272254 -0.513615 0.813682
vn 0.145750 -0.854458 0.498656
vn 0.220357 -0.896618 0.384081
vn 0.525448 -0.552735 0.646830
vn 0.750689 -0.632920 0.189417
vn 0.345390 -0.935747 0.071300
vn 0.300103 -0.929269 0.215402
vn 0.668615 -0.647725 0.365249
vn -0.777863 -0.520043 0.352824
vn -0.819211 -0.565098 0.097762
vn -0.398172 -0.630997 -0.665809
vn -0.573421 -0.701208 -0.423670
vn -0.703072 -0.694894 -0.151038
vn 0.300482 0.066454 0.951470
vn 0.548683 -0.005406 0.836013
vn 0.939285 -0.025803 0.342166
vn 0.816280 -0.133571 -0.562002
vn 0.970545 -0.163678 -0.176780
vn 0.418512 -0.026432 -0.907826
vn 0.030349 0.078011 -0.996490
vn -0.662516 0.266251 -0.700130
vn -0.336582 0.149418 -0.929724
vn -0.854823 0.328077 -0.402050
vn -0.910669 0.412379 0.025010
vn -0.836091 0.451447 0.311686
vn -0.307863 0.234480 0.922084
vn -0.687240 0.388768 0.613645
vn 0.992420 -0.095179 0.077741
vn 0.152333 -0.250606 0.956029
vn 0.376967 -0.331944 0.864702
vn 0.774771 -0.356349 0.522251
vn 0.712217 -0.572458 -0.406250
vn 0.884497 -0.464337 0.045355
vn 0.364620 -0.503942 -0.783004
vn 0.032224 -0.406247 -0.913195
vn -0.713503 -0.237121 -0.659308
vn -0.354917 -0.292109 -0.888091
vn -0.931136 -0.143810 -0.335119
vn -0.986488 -0.085250 0.139907
vn -0.957893 -0.083611 0.274682
vn -0.350390 -0.233981 0.906907
vn -0.853478 -0.224961 0.470072
vn 0.859548 -0.438837 0.261916
vn 0.698833 -0.651386 -0.295516
vn 0.820621 -0.562085 0.103157
vn -0.335379 -0.395251 -0.855159
vn 0.040827 -0.529048 -0.847609
vn -0.723978 -0.315790 -0.613296
vn -0.918343 -0.267634 -0.291580
vn -0.932720 -0.305472 0.191626
vn -0.923584 -0.313894 0.220141
vn 0.003731 0.153045 0.988212
vn -0.035774 -0.207136 0.977658
vn -0.107589 0.234019 0.966261
vn -0.086262 0.383817 0.919371
vn -0.043602 0.313648 0.948537
vn -0.007465 0.021520 0.999741
vn 0.013560 -0.406702 0.913460
vn 0.034344 -0.780685 0.623980
vn -0.830119 -0.419046 0.367835
vn -0.370427 -0.379868 0.847634
vn 0.097274 -0.361326 0.927352
vn -0.078789 -0.344658 0.935416
vn 0.329797 -0.414820 0.848032
vn 0.695429 -0.412681 0.588279
vn 0.823753 -0.456753 0.335868
vn -0.567519 0.803429 -0.180067
vn -0.530512 0.793676 -0.297718
vn -0.497364 0.853051 0.157902
vn 0.385288 -0.624644 -0.679244
vn -0.304771 0.825121 0.475700
vn -0.007929 0.742768 0.669502
vn 0.355996 0.675828 0.645386
vn 0.600551 0.648325 0.467988
vn 0.831236 0.533402 -0.156618
vn 0.764267 0.558865 0.321816
vn 0.811847 0.531765 -0.241104
vn 0.601230 0.727457 -0.330648
vn 0.301504 0.699356 -0.648071
vn 0.115462 0.694470 -0.710197
vn -0.061449 0.682757 -0.728057
vn -0.296927 0.763625 -0.573333
vn -0.488441 0.748942 -0.447785
vn -0.564184 0.774129 -0.287090
vn -0.421635 0.808846 -0.409869
vn -0.606050 0.776009 -0.174679
vn -0.469124 0.874845 0.120701
vn -0.237583 0.885526 0.399247
vn 0.032867 0.842610 0.537521
vn 0.328689 0.763621 0.555739
vn 0.516259 0.750116 0.413282
vn 0.645351 0.722368 0.248408
vn 0.708806 0.698509 -0.098381
vn 0.766518 0.585110 -0.264757
vn 0.520701 0.757837 -0.393133
vn 0.261887 0.715473 -0.647698
vn 0.124064 0.715728 -0.687271
vn -0.026859 0.704067 -0.709625
vn -0.246591 0.811612 -0.529603
vn 0.149028 0.979303 -0.136953
vn 0.202198 0.977389 -0.061855
vn 0.039826 0.972345 -0.230130
vn 0.188885 0.981770 0.021202
vn 0.098339 0.994205 -0.043418
vn -0.002961 0.995228 -0.097533
vn 0.071593 0.994277 -0.079297
vn 0.068007 0.990709 -0.117778
vn 0.207405 0.977313 -0.042914
s 1
g baglp group8 group5
usemtl initialShadingGroup
f 1/1/1 2/2/2 90/90/3 91/91/4
f 2/2/2 1/1/1 160/160/5 161/193/6
f 5/5/7 41/41/8 42/219/9 6/220/10
f 10/222/11 111/111/12 112/112/13 9/10/14
f 9/10/14 13/13/15 14/221/16 10/222/11
f 14/221/16 13/13/15 11/11/17 12/12/18
f 149/149/19 150/150/20 15/15/21 16/16/22
f 15/15/21 100/100/23 101/209/24 16/16/22
f 17/17/25 125/235/26 126/233/27 18/18/28
f 1/1/1 91/91/4 92/92/29 20/20/30
f 159/159/31 160/160/5 1/1/1 20/20/30
f 40/40/32 41/41/8 5/5/7 21/21/33
f 9/10/14 112/112/13 113/113/34 23/23/35
f 13/13/15 9/10/14 23/23/35 24/24/36
f 11/11/17 13/13/15 24/24/36 25/25/37
f 15/15/21 150/150/20 151/151/38 26/26/39
f 99/99/40 100/100/23 15/15/21 26/26/39
f 124/236/41 125/235/26 17/17/25 27/27/42
f 20/20/30 92/92/29 93/93/43 52/52/44
f 158/158/45 159/159/31 20/20/30 52/52/44
f 53/53/46 54/54/47 40/40/32 21/21/33
f 23/23/35 113/113/34 114/114/48 56/56/49
f 24/24/36 23/23/35 56/56/49 57/57/50
f 25/25/37 24/24/36 57/57/50 58/58/51
f 26/26/39 151/151/38 152/152/52 59/59/53
f 98/98/54 99/99/40 26/26/39 59/59/53
f 123/237/55 124/236/41 27/27/42 60/60/56
f 32/32/57 115/115/58 116/243/59 44/44/60
f 121/239/61 122/238/62 36/36/63 45/45/64
f 22/22/65 40/40/32 54/54/47 55/55/66
f 7/7/67 41/41/8 40/40/32 22/22/65
f 42/219/9 41/41/8 7/7/67 8/8/68
f 44/44/60 116/243/59 117/242/69 48/48/70
f 119/119/71 120/240/72 96/96/73 49/49/74
f 48/48/70 117/242/69 118/241/75 38/38/76
f 154/154/77 155/226/78 119/119/71 49/49/74
f 43/43/79 31/31/80 39/39/81 47/47/82
f 94/94/83 95/95/84 50/50/85 29/29/86
f 30/30/87 37/37/88 47/47/82 39/39/81
f 156/156/89 157/157/90 29/29/86 50/50/85
f 96/96/73 97/97/91 35/35/92 49/49/74
f 32/32/57 44/44/60 48/48/70 33/33/93
f 33/33/93 48/48/70 38/38/76 34/34/94
f 49/49/74 35/35/92 153/153/95 154/154/77
f 52/52/44 93/93/43 94/94/83 29/29/86
f 157/157/90 158/158/45 52/52/44 29/29/86
f 39/39/81 54/54/47 53/53/46 30/30/87
f 55/55/66 54/54/47 39/39/81 31/31/80
f 56/56/49 114/114/48 115/115/58 32/32/57
f 57/57/50 56/56/49 32/32/57 33/33/93
f 58/58/51 57/57/50 33/33/93 34/34/94
f 59/59/53 152/152/52 153/153/95 35/35/92
f 97/97/91 98/98/54 59/59/53 35/35/92
f 122/238/62 123/237/55 60/60/56 36/36/63
f 89/89/96 90/211/3 2/194/2 61/61/97
f 2/194/2 161/161/6 162/162/98 61/61/97
f 42/42/9 8/204/68 64/64/99 65/65/100
f 110/110/101 111/203/12 10/9/11 66/66/102
f 14/14/16 12/196/18 67/67/103 68/68/104
f 10/9/11 14/14/16 68/68/104 66/66/102
f 148/148/105 149/195/19 16/210/22 69/69/106
f 16/210/22 101/101/24 102/102/107 69/69/106
f 18/202/28 126/234/27 127/232/108 70/70/109
f 6/6/10 42/42/9 65/65/100 63/63/110
f 88/213/111 89/89/96 61/61/97 71/71/112
f 61/61/97 162/162/98 163/191/113 71/71/112
f 65/65/100 64/64/99 74/74/114 75/215/115
f 109/205/116 110/110/101 66/66/102 76/218/117
f 68/68/104 67/67/103 77/77/118 78/217/119
f 66/66/102 68/68/104 78/217/119 76/218/117
f 147/147/120 148/148/105 69/69/106 79/208/121
f 69/69/106 102/102/107 103/207/122 79/208/121
f 70/70/109 127/232/108 128/230/123 80/200/124
f 63/63/110 65/65/100 75/215/115 73/216/125
f 75/75/115 74/206/114 81/81/126 82/268/127
f 76/76/117 78/78/119 84/274/128 83/263/129
f 78/78/119 77/198/118 85/85/130 84/274/128
f 146/146/131 147/197/120 79/79/121 86/273/132
f 79/79/121 103/103/122 104/272/133 86/273/132
f 62/62/134 89/89/96 88/213/111 72/214/135
f 3/212/136 90/211/3 89/89/96 62/62/134
f 91/91/4 90/90/3 3/3/136 4/4/137
f 92/92/29 91/91/4 4/4/137 19/19/138
f 93/93/43 92/92/29 19/19/138 51/51/139
f 94/94/83 93/93/43 51/51/139 28/28/140
f 46/46/141 95/95/84 94/94/83 28/28/140
f 120/240/72 121/239/61 45/45/64 96/96/73
f 45/45/64 36/36/63 97/97/91 96/96/73
f 60/60/56 98/98/54 97/97/91 36/36/63
f 27/27/42 99/99/40 98/98/54 60/60/56
f 17/17/25 100/100/23 99/99/40 27/27/42
f 101/209/24 100/100/23 17/17/25 18/18/28
f 102/102/107 101/101/24 18/202/28 70/70/109
f 103/207/122 102/102/107 70/70/109 80/200/124
f 103/103/122 80/80/124 87/267/142 104/272/133
f 80/80/124 128/231/123 129/228/143 87/267/142
f 72/72/135 88/88/111 106/270/144 105/271/145
f 88/88/111 71/192/112 107/107/146 106/270/144
f 71/192/112 163/163/113 164/259/147 107/107/146
f 73/73/125 75/75/115 82/268/127 108/269/148
f 64/64/99 110/110/101 109/205/116 74/74/114
f 8/204/68 111/203/12 110/110/101 64/64/99
f 112/112/13 111/111/12 8/8/68 7/7/67
f 113/113/34 112/112/13 7/7/67 22/22/65
f 114/114/48 113/113/34 22/22/65 55/55/66
f 115/115/58 114/114/48 55/55/66 31/31/80
f 116/116/59 115/115/58 31/31/80 43/43/79
f 117/117/69 116/116/59 43/43/79 47/47/82
f 118/118/75 117/117/69 47/47/82 37/37/88
f 50/50/85 119/227/71 155/155/78 156/156/89
f 95/95/84 120/120/72 119/227/71 50/50/85
f 46/46/141 121/121/61 120/120/72 95/95/84
f 28/28/140 122/122/62 121/121/61 46/46/141
f 51/51/139 123/123/55 122/122/62 28/28/140
f 19/19/138 124/124/41 123/123/55 51/51/139
f 4/4/137 125/125/26 124/124/41 19/19/138
f 126/201/27 125/125/26 4/4/137 3/3/136
f 127/127/108 126/126/27 3/212/136 62/62/134
f 128/199/123 127/127/108 62/62/134 72/214/135
f 128/128/123 72/72/135 105/271/145 129/265/143
f 131/130/149 130/131/150 108/108/148 82/82/127
f 132/132/151 131/130/149 82/82/127 81/264/126
f 81/81/126 74/206/114 109/109/116 133/229/152
f 76/76/117 83/263/129 133/229/152 109/109/116
f 134/134/153 132/132/151 81/264/126 133/133/152
f 135/135/154 134/134/153 133/133/152 83/83/129
f 136/136/155 135/135/154 83/83/129 84/84/128
f 137/137/156 136/136/155 84/84/128 85/262/130
f 138/138/157 145/145/158 146/261/131 86/86/132
f 86/86/132 104/104/133 139/139/159 138/138/157
f 139/139/159 104/104/133 87/87/142 140/140/160
f 140/140/160 87/87/142 129/266/143 141/225/161
f 142/142/162 141/141/161 129/129/143 105/105/145
f 143/143/163 142/142/162 105/105/145 106/106/144
f 144/144/164 143/143/163 106/106/144 107/260/146
f 164/164/147 165/165/165 144/144/164 107/260/146
f 146/261/131 145/145/158 137/137/156 85/262/130
f 77/198/118 147/197/120 146/146/131 85/85/130
f 67/67/103 148/148/105 147/147/120 77/77/118
f 12/196/18 149/195/19 148/148/105 67/67/103
f 11/11/17 150/150/20 149/149/19 12/12/18
f 151/151/38 150/150/20 11/11/17 25/25/37
f 152/152/52 151/151/38 25/25/37 58/58/51
f 153/153/95 152/152/52 58/58/51 34/34/94
f 154/154/77 153/153/95 34/34/94 38/38/76
f 118/241/75 155/226/78 154/154/77 38/38/76
f 156/156/89 155/155/78 118/118/75 37/37/88
f 37/37/88 30/30/87 157/157/90 156/156/89
f 53/53/46 158/158/45 157/157/90 30/30/87
f 21/21/33 159/159/31 158/158/45 53/53/46
f 5/5/7 160/160/5 159/159/31 21/21/33
f 161/193/6 160/160/5 5/5/7 6/220/10
f 162/162/98 161/161/6 6/6/10 63/63/110
f 163/191/113 162/162/98 63/63/110 73/216/125
f 164/259/147 163/163/113 73/73/125 108/269/148
f 130/131/150 165/165/165 164/164/147 108/108/148
f 167/258/166 166/244/167 165/165/165 130/131/150
f 168/168/168 167/258/166 130/131/150 131/130/149
f 169/256/169 168/168/168 131/130/149 132/132/151
f 170/224/170 169/256/169 132/132/151 134/134/153
f 171/255/171 170/224/170 134/134/153 135/135/154
f 172/172/172 171/255/171 135/135/154 136/136/155
f 173/253/173 172/172/172 136/136/155 137/137/156
f 174/252/174 173/253/173 137/137/156 145/145/158
f 175/251/175 174/252/174 145/145/158 138/138/157
f 176/176/176 175/251/175 138/138/157 139/139/159
f 177/249/177 176/176/176 139/139/159 140/140/160
f 178/223/178 177/249/177 140/140/160 141/225/161
f 179/247/179 178/248/178 141/141/161 142/142/162
f 180/180/180 179/247/179 142/142/162 143/143/163
f 181/245/181 180/180/180 143/143/163 144/144/164
f 165/165/165 166/244/167 181/245/181 144/144/164
f 169/169/169 170/170/170 182/182/182 183/183/183
f 184/184/184 182/182/182 170/170/170 171/171/171
f 190/190/185 183/183/183 182/182/182 189/189/186
f 182/182/182 184/184/184 188/188/187 189/189/186
f 186/186/188 185/185/189 177/177/177 178/178/178
f 187/187/190 186/186/188 178/178/178 179/179/179
f 189/189/186 188/188/187 185/185/189 186/186/188
f 190/190/185 189/189/186 186/186/188 187/187/190
f 171/171/171 172/254/172 173/173/173 184/184/184
f 169/169/169 183/183/183 167/166/166 168/257/168
f 175/175/175 176/250/176 177/177/177 185/185/189
f 180/246/180 181/181/181 187/187/190 179/179/179
f 187/187/190 181/181/181 166/167/167 190/190/185
f 190/190/185 166/167/167 167/166/166 183/183/183
f 188/188/187 174/174/174 175/175/175 185/185/189
f 184/184/184 173/173/173 174/174/174 188/188/187
