# This file uses meters as units for non-parametric coordinates.

mtllib firewood1.mtl
g default
v -11.675497 -5.636209 15.147284
v -9.949809 -5.246866 14.941141
v -8.645758 -4.041008 14.809210
v -8.112736 -2.341782 14.786848
v -8.493576 -0.604446 14.880026
v -9.686225 0.705467 15.063782
v -11.371114 1.236942 15.288898
v -13.096821 0.847610 15.495039
v -14.400873 -0.358231 15.626965
v -14.933884 -2.057491 15.649342
v -14.553047 -3.794806 15.556152
v -13.360401 -5.104700 15.372381
v -11.523314 -2.199629 15.218090
v -16.130997 -4.706562 -20.396088
v -17.815886 -4.175089 -20.170975
v -19.008541 -2.865177 -19.987209
v -19.389385 -1.127844 -19.894032
v -18.856373 0.571419 -19.916410
v -17.552303 1.777246 -20.048336
v -15.826633 2.166603 -20.254480
v -14.141720 1.635094 -20.479580
v -12.949076 0.325205 -20.663349
v -12.568235 -1.412134 -20.756529
v -13.101255 -3.111380 -20.734154
v -14.405317 -4.317223 -20.602222
v -15.978809 -1.269987 -20.325279
v -17.889835 -8.165221 -25.743803
v -19.718742 -9.458564 -25.654600
v -21.948053 -9.663125 -25.536669
v -23.980434 -8.724089 -25.421621
v -25.271309 -6.893069 -25.340265
v -25.474777 -4.660686 -25.314398
v -24.536335 -2.625109 -25.350977
v -22.707424 -1.331764 -25.440172
v -20.478115 -1.127206 -25.558100
v -18.445734 -2.066241 -25.673159
v -17.154861 -3.897260 -25.754515
v -16.951385 -6.129642 -25.780371
v -21.213081 -5.395165 -25.547384
v -15.155556 -8.507811 25.350973
v -14.217112 -6.472233 25.314404
v -14.420586 -4.239852 25.340260
v -15.711451 -2.408834 25.421618
v -17.743834 -1.469795 25.536673
v -19.973148 -1.674355 25.654600
v -21.802059 -2.967699 25.743803
v -22.740503 -5.003279 25.780371
v -22.537024 -7.235660 25.754515
v -21.246155 -9.066678 25.673159
v -19.213779 -10.005716 25.558104
v -16.984463 -9.801156 25.440176
v -18.478809 -5.737756 25.547388
v 21.914112 -9.953450 14.497093
v 23.639151 -9.570258 14.274626
v 24.942432 -8.368749 14.101774
v 25.474777 -6.670902 14.024874
v 25.093529 -4.931612 14.064497
v 23.900850 -3.616928 14.210039
v 22.216322 -3.079148 14.422520
v 20.491266 -3.462328 14.644985
v 19.187981 -4.663822 14.817829
v 18.655649 -6.361702 14.894749
v 19.036894 -8.100974 14.855110
v 20.229568 -9.415637 14.709553
v 22.065208 -6.516295 14.459806
v 17.371559 -10.139348 -21.046928
v 15.687029 -9.601569 -20.834454
v 14.494343 -8.286890 -20.688902
v 14.113093 -6.547597 -20.649279
v 14.645426 -4.849717 -20.726198
v 15.948729 -3.648236 -20.899040
v 17.673744 -3.265032 -21.121511
v 19.358299 -3.802845 -21.333973
v 20.550972 -5.117504 -21.479528
v 20.932220 -6.856799 -21.519156
v 20.399879 -8.554665 -21.442240
v 19.096586 -9.756159 -21.269390
v 17.522657 -6.702197 -21.084217
v -2.402156 -8.732027 21.708599
v -3.271573 -8.665657 21.317341
v -2.754161 -9.416175 21.141586
v -0.284247 -1.873388 20.914301
v -1.061585 -1.520628 20.482912
v -1.519635 -2.318010 20.651188
v -0.746147 -2.677128 21.082386
v 4.951815 3.077757 19.039742
v 4.417300 3.677992 18.521309
v 3.643864 3.231389 18.797565
v 4.172004 2.627425 19.316673
v 11.829199 4.584994 16.616053
v 11.622040 5.270555 15.982208
v 10.740594 5.294416 16.292746
v 10.940418 4.608730 16.927704
v 17.933830 2.530897 13.793977
v 17.626434 3.395084 13.902389
v 17.538109 2.783232 14.626604
v -15.650389 -9.699700 -15.630242
v -16.172148 -8.956797 -15.460201
v -15.732872 -9.025085 -16.302227
v -14.077305 -2.970207 -16.929539
v -14.413551 -2.602519 -16.113106
v -13.955986 -1.804842 -16.281319
v -13.615442 -2.166462 -17.097689
v -9.159178 2.334368 -18.695349
v -9.250517 2.947179 -17.966673
v -8.477343 3.394264 -18.242842
v -8.379375 2.784694 -18.972305
v -2.390739 4.315673 -21.084272
v -2.154032 5.010692 -20.471357
v -1.272563 4.987390 -20.781855
v -1.501925 4.291918 -21.395807
v 4.207352 2.490138 -23.384211
v 4.720823 3.113742 -22.873409
v 5.037644 2.247374 -22.977842
v 11.122155 -9.325733 16.278975
v 10.486205 -8.933846 17.273621
v 10.358793 -9.766555 16.550041
v -2.540312 -10.050143 -20.229952
v -2.820630 -9.213055 -20.745693
v -1.776978 -9.609322 -20.501083
v -3.577913 4.921934 -21.265047
v -2.577860 5.475172 -20.475256
v -2.768309 4.139412 -20.451153
v -7.087976 8.107595 -20.588140
v -6.404093 8.960661 -19.729382
v -5.256013 8.268013 -19.950197
v -5.930746 7.409224 -20.808493
v -12.010635 9.143742 -19.666477
v -11.817845 10.139349 -18.715433
v -10.482224 10.124033 -18.965420
v -10.664229 9.127874 -19.916290
v -16.786945 7.537140 -18.794254
v -17.089901 8.406324 -17.752377
v -15.924719 9.072449 -17.965122
v -15.612095 8.208033 -19.006588
v -19.684391 4.338737 -17.312584
v -19.850201 5.670652 -17.280682
v -19.202988 5.106050 -18.366005
v 4.399607 3.810501 18.202961
v 4.599737 5.137978 18.187187
v 3.937910 4.577063 19.265631
v 1.585326 7.064360 19.723061
v 1.910754 7.938082 18.691750
v 0.763111 8.631428 18.912651
v 0.428155 7.762768 19.943583
v -3.148086 8.783079 20.615435
v -3.314961 9.794813 19.676594
v -4.650569 9.810944 19.926588
v -4.494486 8.798943 20.865246
v -8.096010 7.863214 21.525148
v -8.757467 8.744026 20.676905
v -9.923067 8.078623 20.889576
v -9.270873 7.192282 21.737305
v -11.686988 4.761177 22.164661
v -12.672354 5.349682 21.381861
v -12.516457 4.009836 21.341549
v -11.945654 -0.332573 -18.793814
v -11.379076 0.111839 -19.802750
v -10.627674 -0.348101 -19.038351
v -3.457428 -0.677113 19.628199
v -4.148390 0.075710 20.546619
v -4.775406 -0.661585 19.872732
vt 0.556873 0.926687
vt 0.556874 0.934669
vt 0.541980 0.930679
vt 0.552883 0.941581
vt 0.545972 0.945572
vt 0.537990 0.945573
vt 0.531078 0.941583
vt 0.527086 0.934671
vt 0.527086 0.926690
vt 0.531076 0.919777
vt 0.537988 0.915786
vt 0.545969 0.915785
vt 0.552881 0.919775
vt 0.850756 0.606521
vt 0.858737 0.606520
vt 0.858740 0.767105
vt 0.850758 0.767105
vt 0.842774 0.606521
vt 0.842777 0.767105
vt 0.834793 0.606521
vt 0.834796 0.767106
vt 0.826811 0.606521
vt 0.826814 0.767106
vt 0.818830 0.606521
vt 0.818833 0.767106
vt 0.810848 0.606521
vt 0.810851 0.767106
vt 0.802867 0.606521
vt 0.802869 0.767106
vt 0.794886 0.606521
vt 0.794888 0.767106
vt 0.786904 0.606522
vt 0.786907 0.767106
vt 0.778923 0.606522
vt 0.778925 0.767106
vt 0.770941 0.606522
vt 0.770944 0.767106
vt 0.762960 0.606522
vt 0.762962 0.767107
vt 0.545962 0.915783
vt 0.552876 0.919770
vt 0.541980 0.930679
vt 0.556871 0.926680
vt 0.556876 0.934661
vt 0.552889 0.941576
vt 0.545979 0.945570
vt 0.537997 0.945575
vt 0.531083 0.941588
vt 0.527088 0.934678
vt 0.527084 0.926697
vt 0.531070 0.919782
vt 0.537981 0.915788
vt 0.556873 0.926687
vt 0.556874 0.934668
vt 0.541980 0.930679
vt 0.552884 0.941581
vt 0.545972 0.945572
vt 0.537991 0.945573
vt 0.531078 0.941583
vt 0.527086 0.934672
vt 0.527086 0.926690
vt 0.531075 0.919778
vt 0.537987 0.915786
vt 0.545969 0.915785
vt 0.552881 0.919775
vt 0.958335 0.607997
vt 0.968381 0.607996
vt 0.968403 0.837305
vt 0.958357 0.837306
vt 0.948289 0.607998
vt 0.948311 0.837307
vt 0.938242 0.607999
vt 0.938264 0.837308
vt 0.928196 0.608000
vt 0.928218 0.837309
vt 0.918150 0.608001
vt 0.918172 0.837310
vt 0.908103 0.608002
vt 0.908125 0.837311
vt 0.898057 0.608003
vt 0.898079 0.837312
vt 0.888011 0.608004
vt 0.888033 0.837313
vt 0.877964 0.608005
vt 0.877986 0.837314
vt 0.867918 0.608006
vt 0.867940 0.837315
vt 0.978428 0.607995
vt 0.988474 0.607994
vt 0.988496 0.837303
vt 0.978449 0.837304
vt 0.545969 0.915785
vt 0.552881 0.919775
vt 0.541980 0.930679
vt 0.556873 0.926687
vt 0.556874 0.934668
vt 0.552884 0.941581
vt 0.545972 0.945572
vt 0.537991 0.945573
vt 0.531078 0.941583
vt 0.527086 0.934672
vt 0.527086 0.926690
vt 0.531075 0.919777
vt 0.537987 0.915786
vt 0.556873 0.926687
vt 0.556874 0.934669
vt 0.541979 0.930679
vt 0.552883 0.941581
vt 0.545972 0.945572
vt 0.537990 0.945573
vt 0.531078 0.941583
vt 0.527086 0.934671
vt 0.527086 0.926690
vt 0.531075 0.919777
vt 0.537988 0.915786
vt 0.545969 0.915785
vt 0.552881 0.919775
vt 0.850763 0.606524
vt 0.858745 0.606525
vt 0.858733 0.767109
vt 0.850751 0.767109
vt 0.842782 0.606524
vt 0.842770 0.767108
vt 0.834800 0.606523
vt 0.834788 0.767108
vt 0.826819 0.606523
vt 0.826807 0.767107
vt 0.818838 0.606522
vt 0.818825 0.767106
vt 0.810856 0.606521
vt 0.810844 0.767106
vt 0.802875 0.606521
vt 0.802862 0.767105
vt 0.794893 0.606520
vt 0.794881 0.767105
vt 0.786911 0.606520
vt 0.786899 0.767104
vt 0.778930 0.606519
vt 0.778918 0.767104
vt 0.770949 0.606518
vt 0.770936 0.767103
vt 0.762967 0.606518
vt 0.762955 0.767102
vt 0.545969 0.915785
vt 0.552882 0.919775
vt 0.541980 0.930679
vt 0.556873 0.926687
vt 0.556873 0.934669
vt 0.552883 0.941581
vt 0.545971 0.945572
vt 0.537990 0.945573
vt 0.531077 0.941583
vt 0.527086 0.934671
vt 0.527086 0.926689
vt 0.531076 0.919777
vt 0.537988 0.915786
vt 0.511276 0.905848
vt 0.515376 0.907262
vt 0.481398 0.959010
vt 0.477789 0.955591
vt 0.513814 0.902373
vt 0.484695 0.896085
vt 0.485234 0.891832
vt 0.760343 0.425091
vt 0.764503 0.425090
vt 0.764477 0.599756
vt 0.760338 0.599725
vt 0.480454 0.895840
vt 0.480602 0.891547
vt 0.451455 0.902167
vt 0.449581 0.898264
vt 0.794164 0.425101
vt 0.798353 0.425107
vt 0.798357 0.599707
vt 0.794168 0.599700
vt 0.447670 0.904130
vt 0.445545 0.900404
vt 0.425946 0.924329
vt 0.422296 0.921980
vt 0.829260 0.425099
vt 0.833449 0.425105
vt 0.833453 0.599705
vt 0.829264 0.599698
vt 0.423709 0.927935
vt 0.419915 0.925972
vt 0.416498 0.955294
vt 0.412212 0.955403
vt 0.864356 0.425097
vt 0.868545 0.425104
vt 0.868549 0.599703
vt 0.864359 0.599697
vt 0.415307 0.959419
vt 0.477207 0.961133
vt 0.898236 0.425054
vt 0.902375 0.425085
vt 0.902370 0.599719
vt 0.898209 0.599719
vt 0.415134 0.959398
vt 0.416350 0.955274
vt 0.476725 0.956624
vt 0.477230 0.961219
vt 0.412058 0.955355
vt 0.419973 0.925993
vt 0.423761 0.927983
vt 0.426013 0.924395
vt 0.422369 0.922026
vt 0.445625 0.900570
vt 0.447747 0.904305
vt 0.451523 0.902348
vt 0.449644 0.898442
vt 0.480565 0.891686
vt 0.480435 0.895986
vt 0.484668 0.896211
vt 0.485180 0.891949
vt 0.513784 0.902261
vt 0.511281 0.905765
vt 0.515357 0.907133
vt 0.481252 0.959073
vt 0.964658 0.425067
vt 0.968791 0.425067
vt 0.968785 0.599740
vt 0.964652 0.599740
vt 0.546385 0.763115
vt 0.548167 0.757204
vt 0.583358 0.778497
vt 0.581376 0.783278
vt 0.541364 0.759547
vt 0.541098 0.777642
vt 0.534928 0.776968
vt 0.906739 0.420046
vt 0.900691 0.420047
vt 0.900713 0.243819
vt 0.906730 0.243863
vt 0.540837 0.783808
vt 0.534632 0.783644
vt 0.544934 0.800545
vt 0.539329 0.803448
vt 0.883192 0.420030
vt 0.877102 0.420022
vt 0.877080 0.243892
vt 0.883170 0.243900
vt 0.547957 0.805983
vt 0.542644 0.809198
vt 0.560179 0.818121
vt 0.557018 0.823608
vt 0.857791 0.420035
vt 0.851702 0.420026
vt 0.851680 0.243896
vt 0.857770 0.243905
vt 0.565557 0.821136
vt 0.562961 0.826733
vt 0.580716 0.824155
vt 0.581206 0.830273
vt 0.832391 0.420039
vt 0.826301 0.420029
vt 0.826279 0.243900
vt 0.832369 0.243909
vt 0.586697 0.825691
vt 0.586694 0.784559
vt 0.808758 0.420107
vt 0.802741 0.420062
vt 0.802732 0.243878
vt 0.808780 0.243878
vt 0.812574 0.769472
vt 0.810969 0.775430
vt 0.769908 0.775513
vt 0.771220 0.769477
vt 0.817092 0.775024
vt 0.813285 0.793097
vt 0.807723 0.790420
vt 0.804668 0.795717
vt 0.810114 0.798937
vt 0.795773 0.813071
vt 0.792568 0.807749
vt 0.787186 0.810750
vt 0.790103 0.816341
vt 0.770552 0.821146
vt 0.770637 0.814937
vt 0.764520 0.814770
vt 0.763943 0.820949
vt 0.746517 0.814875
vt 0.750006 0.809801
vt 0.744074 0.808104
vt 0.765385 0.772667
vt 0.953795 0.420072
vt 0.947788 0.420073
vt 0.947779 0.243832
vt 0.953786 0.243832
vt 0.761683 0.243852
vt 0.761692 0.420093
vn 0.124335 -0.025943 0.991901
vn 0.124342 -0.025942 0.991900
vn 0.124339 -0.025944 0.991901
vn 0.124342 -0.025942 0.991900
vn 0.124341 -0.025947 0.991900
vn 0.124339 -0.025944 0.991901
vn 0.124341 -0.025947 0.991900
vn 0.124338 -0.025948 0.991901
vn 0.124339 -0.025944 0.991901
vn 0.124338 -0.025948 0.991901
vn 0.124336 -0.025941 0.991901
vn 0.124339 -0.025944 0.991901
vn 0.124336 -0.025941 0.991901
vn 0.124339 -0.025941 0.991901
vn 0.124339 -0.025944 0.991901
vn 0.124339 -0.025941 0.991901
vn 0.124341 -0.025944 0.991900
vn 0.124339 -0.025944 0.991901
vn 0.124341 -0.025944 0.991900
vn 0.124337 -0.025944 0.991901
vn 0.124339 -0.025944 0.991901
vn 0.124337 -0.025944 0.991901
vn 0.124338 -0.025943 0.991901
vn 0.124339 -0.025944 0.991901
vn 0.124338 -0.025943 0.991901
vn 0.124341 -0.025944 0.991900
vn 0.124339 -0.025944 0.991901
vn 0.124341 -0.025944 0.991900
vn 0.124339 -0.025947 0.991900
vn 0.124339 -0.025944 0.991901
vn 0.124339 -0.025947 0.991900
vn 0.124335 -0.025945 0.991901
vn 0.124339 -0.025944 0.991901
vn 0.124335 -0.025945 0.991901
vn 0.124335 -0.025943 0.991901
vn 0.124339 -0.025944 0.991901
vn -0.299282 -0.954082 0.012562
vn -0.299282 -0.954082 0.012562
vn -0.299282 -0.954082 0.012562
vn -0.299282 -0.954082 0.012562
vn -0.732198 -0.677051 0.074076
vn -0.732198 -0.677051 0.074076
vn -0.732198 -0.677051 0.074076
vn -0.732198 -0.677051 0.074076
vn -0.968925 -0.218605 0.115741
vn -0.968925 -0.218605 0.115741
vn -0.968925 -0.218605 0.115741
vn -0.968925 -0.218605 0.115741
vn -0.946033 0.298407 0.126394
vn -0.946033 0.298407 0.126394
vn -0.946033 0.298407 0.126394
vn -0.946033 0.298407 0.126394
vn -0.669643 0.735481 0.103179
vn -0.669643 0.735481 0.103179
vn -0.669643 0.735481 0.103179
vn -0.669643 0.735481 0.103179
vn -0.213832 0.975468 0.052319
vn -0.213832 0.975468 0.052319
vn -0.213832 0.975468 0.052319
vn -0.213832 0.975468 0.052319
vn 0.299280 0.954083 -0.012562
vn 0.299280 0.954083 -0.012562
vn 0.299280 0.954083 -0.012562
vn 0.299280 0.954083 -0.012562
vn 0.732199 0.677050 -0.074076
vn 0.732199 0.677050 -0.074076
vn 0.732199 0.677050 -0.074076
vn 0.732199 0.677050 -0.074076
vn 0.968925 0.218604 -0.115741
vn 0.968925 0.218604 -0.115741
vn 0.968925 0.218604 -0.115741
vn 0.968925 0.218604 -0.115741
vn 0.946029 -0.298417 -0.126394
vn 0.946029 -0.298417 -0.126394
vn 0.946029 -0.298417 -0.126394
vn 0.946030 -0.298417 -0.126394
vn 0.669649 -0.735475 -0.103180
vn 0.669649 -0.735475 -0.103180
vn 0.669649 -0.735475 -0.103180
vn 0.669649 -0.735475 -0.103180
vn 0.213832 -0.975469 -0.052318
vn 0.213832 -0.975469 -0.052318
vn 0.213832 -0.975469 -0.052318
vn 0.213832 -0.975469 -0.052318
vn -0.124342 0.025944 -0.991900
vn -0.124343 0.025944 -0.991900
vn -0.124342 0.025944 -0.991900
vn -0.124339 0.025943 -0.991901
vn -0.124339 0.025943 -0.991901
vn -0.124339 0.025943 -0.991901
vn -0.124339 0.025942 -0.991901
vn -0.124339 0.025942 -0.991901
vn -0.124339 0.025942 -0.991901
vn -0.124340 0.025939 -0.991901
vn -0.124340 0.025939 -0.991901
vn -0.124340 0.025939 -0.991901
vn -0.124335 0.025945 -0.991901
vn -0.124335 0.025945 -0.991901
vn -0.124335 0.025945 -0.991901
vn -0.124340 0.025941 -0.991901
vn -0.124340 0.025941 -0.991900
vn -0.124340 0.025941 -0.991901
vn -0.124335 0.025940 -0.991901
vn -0.124335 0.025940 -0.991901
vn -0.124335 0.025940 -0.991901
vn -0.124340 0.025946 -0.991900
vn -0.124340 0.025946 -0.991900
vn -0.124340 0.025946 -0.991900
vn -0.124339 0.025943 -0.991901
vn -0.124339 0.025943 -0.991901
vn -0.124339 0.025943 -0.991901
vn -0.124340 0.025942 -0.991901
vn -0.124340 0.025942 -0.991901
vn -0.124340 0.025942 -0.991901
vn -0.124338 0.025943 -0.991901
vn -0.124338 0.025943 -0.991901
vn -0.124338 0.025943 -0.991901
vn -0.124337 0.025944 -0.991901
vn -0.124337 0.025944 -0.991901
vn -0.124337 0.025944 -0.991901
vn -0.053436 0.006697 -0.998549
vn -0.053436 0.006695 -0.998549
vn -0.053436 0.006695 -0.998549
vn -0.053436 0.006695 -0.998549
vn -0.053437 0.006695 -0.998549
vn -0.053436 0.006695 -0.998549
vn -0.053437 0.006695 -0.998549
vn -0.053436 0.006695 -0.998549
vn -0.053436 0.006695 -0.998549
vn -0.053436 0.006695 -0.998549
vn -0.053436 0.006693 -0.998549
vn -0.053436 0.006695 -0.998549
vn -0.053436 0.006693 -0.998549
vn -0.053436 0.006694 -0.998549
vn -0.053436 0.006695 -0.998549
vn -0.053436 0.006694 -0.998549
vn -0.053436 0.006696 -0.998549
vn -0.053436 0.006695 -0.998549
vn -0.053436 0.006696 -0.998549
vn -0.053436 0.006695 -0.998549
vn -0.053436 0.006695 -0.998549
vn -0.053436 0.006695 -0.998549
vn -0.053436 0.006696 -0.998549
vn -0.053436 0.006695 -0.998549
vn -0.053436 0.006696 -0.998549
vn -0.053436 0.006695 -0.998549
vn -0.053436 0.006695 -0.998549
vn -0.053436 0.006695 -0.998549
vn -0.053436 0.006693 -0.998549
vn -0.053436 0.006695 -0.998549
vn -0.053436 0.006693 -0.998549
vn -0.053436 0.006696 -0.998549
vn -0.053436 0.006695 -0.998549
vn -0.053436 0.006696 -0.998549
vn -0.053436 0.006697 -0.998549
vn -0.053436 0.006695 -0.998549
vn 0.906590 -0.418880 -0.051324
vn 0.906590 -0.418880 -0.051324
vn 0.906590 -0.418880 -0.051324
vn 0.906590 -0.418880 -0.051324
vn 0.994438 0.091249 -0.052604
vn 0.994438 0.091249 -0.052604
vn 0.994438 0.091249 -0.052604
vn 0.994438 0.091249 -0.052604
vn 0.815827 0.576926 -0.039790
vn 0.815826 0.576926 -0.039790
vn 0.815826 0.576926 -0.039790
vn 0.815826 0.576926 -0.039790
vn 0.418615 0.908017 -0.016313
vn 0.418615 0.908017 -0.016313
vn 0.418615 0.908017 -0.016313
vn 0.418615 0.908017 -0.016313
vn -0.090764 0.995806 0.011534
vn -0.090764 0.995806 0.011534
vn -0.090764 0.995806 0.011534
vn -0.090764 0.995806 0.011534
vn -0.575823 0.816769 0.036291
vn -0.575823 0.816769 0.036291
vn -0.575823 0.816769 0.036291
vn -0.575823 0.816769 0.036291
vn -0.906590 0.418880 0.051324
vn -0.906590 0.418880 0.051324
vn -0.906590 0.418880 0.051324
vn -0.906590 0.418880 0.051324
vn -0.994438 -0.091249 0.052604
vn -0.994438 -0.091249 0.052604
vn -0.994438 -0.091249 0.052604
vn -0.994438 -0.091249 0.052604
vn -0.815827 -0.576926 0.039790
vn -0.815827 -0.576926 0.039790
vn -0.815827 -0.576926 0.039790
vn -0.815827 -0.576926 0.039790
vn -0.418615 -0.908017 0.016313
vn -0.418615 -0.908017 0.016313
vn -0.418615 -0.908017 0.016313
vn -0.418615 -0.908017 0.016313
vn 0.090764 -0.995806 -0.011534
vn 0.090764 -0.995806 -0.011534
vn 0.090764 -0.995806 -0.011534
vn 0.090764 -0.995806 -0.011534
vn 0.575823 -0.816769 -0.036291
vn 0.575823 -0.816769 -0.036291
vn 0.575823 -0.816769 -0.036291
vn 0.575823 -0.816769 -0.036291
vn 0.053437 -0.006696 0.998549
vn 0.053437 -0.006696 0.998549
vn 0.053437 -0.006696 0.998549
vn 0.053437 -0.006695 0.998549
vn 0.053437 -0.006695 0.998549
vn 0.053437 -0.006695 0.998549
vn 0.053436 -0.006696 0.998549
vn 0.053436 -0.006696 0.998549
vn 0.053436 -0.006696 0.998549
vn 0.053436 -0.006695 0.998549
vn 0.053436 -0.006695 0.998549
vn 0.053436 -0.006695 0.998549
vn 0.053436 -0.006695 0.998549
vn 0.053436 -0.006695 0.998549
vn 0.053436 -0.006695 0.998549
vn 0.053439 -0.006695 0.998549
vn 0.053439 -0.006695 0.998549
vn 0.053439 -0.006695 0.998549
vn 0.053436 -0.006697 0.998549
vn 0.053436 -0.006697 0.998549
vn 0.053436 -0.006697 0.998549
vn 0.053436 -0.006695 0.998549
vn 0.053436 -0.006695 0.998549
vn 0.053436 -0.006695 0.998549
vn 0.053436 -0.006695 0.998549
vn 0.053436 -0.006695 0.998549
vn 0.053436 -0.006695 0.998549
vn 0.053434 -0.006695 0.998549
vn 0.053434 -0.006695 0.998549
vn 0.053434 -0.006695 0.998549
vn 0.053437 -0.006695 0.998549
vn 0.053437 -0.006695 0.998549
vn 0.053437 -0.006695 0.998549
vn 0.053436 -0.006695 0.998549
vn 0.053436 -0.006695 0.998549
vn 0.053436 -0.006695 0.998549
vn 0.126764 0.005188 0.991919
vn 0.126771 0.005189 0.991919
vn 0.126768 0.005187 0.991919
vn 0.126771 0.005189 0.991919
vn 0.126771 0.005184 0.991919
vn 0.126768 0.005187 0.991919
vn 0.126771 0.005184 0.991919
vn 0.126767 0.005183 0.991919
vn 0.126768 0.005187 0.991919
vn 0.126767 0.005183 0.991919
vn 0.126766 0.005191 0.991919
vn 0.126768 0.005187 0.991919
vn 0.126766 0.005191 0.991919
vn 0.126768 0.005190 0.991919
vn 0.126768 0.005187 0.991919
vn 0.126768 0.005190 0.991919
vn 0.126770 0.005188 0.991919
vn 0.126768 0.005187 0.991919
vn 0.126770 0.005188 0.991919
vn 0.126767 0.005187 0.991919
vn 0.126768 0.005187 0.991919
vn 0.126767 0.005187 0.991919
vn 0.126768 0.005188 0.991919
vn 0.126768 0.005187 0.991919
vn 0.126768 0.005188 0.991919
vn 0.126770 0.005187 0.991919
vn 0.126768 0.005187 0.991919
vn 0.126770 0.005187 0.991919
vn 0.126769 0.005184 0.991919
vn 0.126768 0.005187 0.991919
vn 0.126769 0.005184 0.991919
vn 0.126764 0.005187 0.991919
vn 0.126768 0.005187 0.991919
vn 0.126764 0.005187 0.991919
vn 0.126764 0.005188 0.991919
vn 0.126768 0.005187 0.991919
vn -0.298901 -0.953307 0.043186
vn -0.298901 -0.953307 0.043186
vn -0.298901 -0.953307 0.043186
vn -0.298901 -0.953307 0.043186
vn -0.731767 -0.674610 0.097049
vn -0.731767 -0.674610 0.097049
vn -0.731767 -0.674610 0.097049
vn -0.731767 -0.674610 0.097049
vn -0.968560 -0.215152 0.124908
vn -0.968560 -0.215152 0.124908
vn -0.968560 -0.215152 0.124908
vn -0.968560 -0.215152 0.124908
vn -0.945831 0.301947 0.119299
vn -0.945831 0.301947 0.119299
vn -0.945831 0.301947 0.119299
vn -0.945831 0.301947 0.119299
vn -0.669659 0.738159 0.081722
vn -0.669659 0.738159 0.081722
vn -0.669659 0.738159 0.081722
vn -0.669659 0.738159 0.081722
vn -0.214061 0.976567 0.022250
vn -0.214061 0.976567 0.022250
vn -0.214061 0.976567 0.022250
vn -0.214061 0.976567 0.022250
vn 0.298899 0.953307 -0.043185
vn 0.298899 0.953307 -0.043185
vn 0.298899 0.953307 -0.043185
vn 0.298899 0.953307 -0.043185
vn 0.731768 0.674609 -0.097049
vn 0.731768 0.674609 -0.097049
vn 0.731768 0.674609 -0.097049
vn 0.731768 0.674609 -0.097049
vn 0.968560 0.215151 -0.124908
vn 0.968560 0.215151 -0.124908
vn 0.968560 0.215151 -0.124908
vn 0.968560 0.215151 -0.124908
vn 0.945828 -0.301957 -0.119298
vn 0.945828 -0.301957 -0.119298
vn 0.945828 -0.301957 -0.119298
vn 0.945828 -0.301957 -0.119298
vn 0.669665 -0.738153 -0.081723
vn 0.669665 -0.738153 -0.081723
vn 0.669665 -0.738153 -0.081723
vn 0.669665 -0.738153 -0.081723
vn 0.214061 -0.976567 -0.022250
vn 0.214061 -0.976567 -0.022250
vn 0.214061 -0.976567 -0.022250
vn 0.214061 -0.976567 -0.022250
vn -0.126771 -0.005188 -0.991919
vn -0.126771 -0.005188 -0.991919
vn -0.126771 -0.005188 -0.991919
vn -0.126769 -0.005189 -0.991919
vn -0.126769 -0.005189 -0.991919
vn -0.126769 -0.005189 -0.991919
vn -0.126769 -0.005190 -0.991919
vn -0.126769 -0.005190 -0.991919
vn -0.126769 -0.005190 -0.991919
vn -0.126770 -0.005192 -0.991919
vn -0.126770 -0.005192 -0.991919
vn -0.126770 -0.005192 -0.991919
vn -0.126764 -0.005186 -0.991919
vn -0.126764 -0.005186 -0.991919
vn -0.126764 -0.005186 -0.991919
vn -0.126773 -0.005190 -0.991918
vn -0.126773 -0.005190 -0.991918
vn -0.126773 -0.005190 -0.991918
vn -0.126761 -0.005191 -0.991920
vn -0.126761 -0.005191 -0.991920
vn -0.126761 -0.005191 -0.991920
vn -0.126769 -0.005185 -0.991919
vn -0.126769 -0.005185 -0.991919
vn -0.126769 -0.005185 -0.991919
vn -0.126770 -0.005188 -0.991919
vn -0.126770 -0.005188 -0.991919
vn -0.126770 -0.005188 -0.991919
vn -0.126768 -0.005189 -0.991919
vn -0.126768 -0.005189 -0.991919
vn -0.126768 -0.005189 -0.991919
vn -0.126771 -0.005190 -0.991918
vn -0.126771 -0.005190 -0.991918
vn -0.126771 -0.005190 -0.991918
vn -0.126765 -0.005188 -0.991919
vn -0.126765 -0.005188 -0.991919
vn -0.126765 -0.005188 -0.991919
vn 0.230157 -0.671793 0.704075
vn 0.230157 -0.671793 0.704075
vn 0.240455 -0.670625 0.701743
vn 0.513848 -0.540011 0.666594
vn -0.396043 0.202158 0.895702
vn -0.396043 0.202158 0.895702
vn -0.387699 0.221532 0.894770
vn -0.385607 0.226311 0.894478
vn -0.759558 -0.591283 0.271028
vn -0.759558 -0.591283 0.271028
vn -0.759558 -0.591283 0.271028
vn -0.759558 -0.591283 0.271028
vn 0.326910 0.011411 0.944987
vn 0.325595 0.008972 0.945467
vn 0.328680 0.011597 0.944370
vn -0.237896 0.495695 0.835279
vn -0.235253 0.499599 0.833701
vn -0.207753 0.527344 0.823861
vn -0.203643 0.530232 0.823033
vn -0.896762 0.313723 0.312084
vn -0.672823 0.702964 0.230545
vn -0.672793 0.702996 0.230534
vn -0.896753 0.313750 0.312081
vn 0.329410 0.012962 0.944098
vn 0.327216 0.011735 0.944877
vn 0.328680 0.011597 0.944370
vn 0.056427 0.680444 0.730625
vn 0.060534 0.682315 0.728548
vn 0.097475 0.691742 0.715536
vn 0.102430 0.692168 0.714431
vn -0.630518 0.745694 0.215379
vn -0.251857 0.964378 0.080893
vn -0.251816 0.964390 0.080878
vn -0.630486 0.745724 0.215367
vn 0.332446 0.012844 0.943035
vn 0.329844 0.013048 0.943945
vn 0.328680 0.011597 0.944370
vn 0.398864 0.678281 0.617124
vn 0.403459 0.677406 0.615095
vn 0.422212 0.673627 0.606600
vn 0.422212 0.673627 0.606600
vn -0.195004 0.978914 0.060842
vn 0.235592 0.967668 -0.090085
vn 0.235625 0.967659 -0.090097
vn -0.194962 0.978923 0.060827
vn 0.766829 -0.331288 0.549747
vn 0.766829 -0.331288 0.549748
vn 0.513848 -0.540011 0.666594
vn 0.763454 -0.336816 0.551084
vn 0.880907 0.356093 -0.311772
vn 0.880907 0.356093 -0.311772
vn 0.880906 0.356093 -0.311772
vn 0.880907 0.356093 -0.311772
vn -0.265468 -0.634230 -0.726140
vn -0.265468 -0.634230 -0.726140
vn -0.039622 -0.509445 -0.859591
vn -0.258432 -0.632023 -0.730589
vn -0.868697 0.191894 -0.456664
vn -0.868697 0.191894 -0.456664
vn -0.860096 0.215813 -0.462233
vn -0.861828 0.211136 -0.461166
vn -0.325599 -0.009151 -0.945464
vn -0.326855 -0.011488 -0.945005
vn -0.328624 -0.011713 -0.944388
vn -0.706827 0.489263 -0.510899
vn -0.709932 0.485256 -0.510415
vn -0.675728 0.519843 -0.522641
vn -0.679351 0.517034 -0.520729
vn -0.327162 -0.011810 -0.944895
vn -0.329378 -0.013057 -0.944108
vn -0.328624 -0.011713 -0.944388
vn -0.411012 0.671979 -0.616047
vn -0.415619 0.670054 -0.615051
vn -0.369632 0.681839 -0.631243
vn -0.374077 0.681433 -0.629059
vn -0.329797 -0.013145 -0.943960
vn -0.332305 -0.012951 -0.943083
vn -0.328624 -0.011713 -0.944388
vn -0.071408 0.668145 -0.740597
vn -0.076408 0.668996 -0.739328
vn -0.051207 0.664521 -0.745513
vn -0.051207 0.664521 -0.745513
vn 0.210080 -0.323730 -0.922532
vn 0.210080 -0.323730 -0.922532
vn 0.206379 -0.327698 -0.921966
vn -0.039622 -0.509445 -0.859591
vn 0.453185 -0.878333 -0.152164
vn 0.453185 -0.878333 -0.152164
vn 0.453185 -0.878333 -0.152164
vn 0.453185 -0.878333 -0.152164
vn -0.905729 0.283084 0.315465
vn -0.896762 0.313723 0.312084
vn -0.896753 0.313750 0.312081
vn -0.905729 0.283084 0.315465
vn -0.672823 0.702964 0.230545
vn -0.630518 0.745694 0.215379
vn -0.630486 0.745724 0.215367
vn -0.672793 0.702996 0.230534
vn -0.251857 0.964378 0.080893
vn -0.195004 0.978914 0.060842
vn -0.194962 0.978923 0.060827
vn -0.251816 0.964390 0.080878
vn 0.235592 0.967668 -0.090085
vn 0.264831 0.959067 -0.100273
vn 0.264831 0.959067 -0.100273
vn 0.235625 0.967659 -0.090097
vn 0.325595 0.008972 0.945467
vn 0.325492 0.008764 0.945504
vn 0.328680 0.011597 0.944370
vn 0.327216 0.011735 0.944877
vn 0.326910 0.011411 0.944987
vn 0.328680 0.011597 0.944370
vn 0.329844 0.013048 0.943945
vn 0.329410 0.012962 0.944098
vn 0.328680 0.011597 0.944370
vn 0.332651 0.012820 0.942963
vn 0.332446 0.012844 0.943035
vn 0.328680 0.011597 0.944370
vn -0.325503 -0.008956 -0.945499
vn -0.325599 -0.009151 -0.945464
vn -0.328624 -0.011713 -0.944388
vn -0.326855 -0.011488 -0.945005
vn -0.327162 -0.011810 -0.944895
vn -0.328624 -0.011713 -0.944388
vn -0.329378 -0.013057 -0.944108
vn -0.329797 -0.013145 -0.943960
vn -0.328624 -0.011713 -0.944388
vn -0.332305 -0.012951 -0.943083
vn -0.332508 -0.012927 -0.943012
vn -0.328624 -0.011713 -0.944388
vn 0.806324 -0.521663 -0.278763
vn 0.806324 -0.521663 -0.278763
vn 0.806324 -0.521663 -0.278763
vn 0.806324 -0.521663 -0.278763
vn -0.393646 -0.458028 0.797028
vn -0.393646 -0.458028 0.797028
vn -0.393645 -0.458028 0.797028
vn -0.235253 0.499599 0.833701
vn -0.237896 0.495695 0.835279
vn -0.385607 0.226311 0.894478
vn -0.387699 0.221532 0.894770
vn 0.060534 0.682315 0.728548
vn 0.056427 0.680444 0.730625
vn -0.203643 0.530232 0.823033
vn -0.207753 0.527344 0.823861
vn 0.403459 0.677406 0.615095
vn 0.398864 0.678281 0.617124
vn 0.102430 0.692168 0.714431
vn 0.097475 0.691742 0.715536
vn 0.897792 0.276326 0.342947
vn 0.897792 0.276326 0.342947
vn 0.897792 0.276326 0.342947
vn -0.796315 -0.472965 -0.377076
vn -0.796315 -0.472965 -0.377076
vn -0.796315 -0.472966 -0.377076
vn -0.861828 0.211136 -0.461166
vn -0.860096 0.215813 -0.462233
vn -0.709932 0.485256 -0.510415
vn -0.706827 0.489263 -0.510899
vn -0.679351 0.517034 -0.520729
vn -0.675728 0.519843 -0.522641
vn -0.415619 0.670054 -0.615051
vn -0.411012 0.671979 -0.616047
vn -0.374077 0.681433 -0.629059
vn -0.369632 0.681839 -0.631243
vn -0.076408 0.668996 -0.739328
vn -0.071408 0.668145 -0.740597
vn 0.486604 0.277786 -0.828282
vn 0.486604 0.277786 -0.828282
vn 0.486604 0.277786 -0.828282
vn 0.763454 -0.336816 0.551084
vn 0.513848 -0.540011 0.666594
vn 0.240455 -0.670625 0.701743
vn -0.258432 -0.632023 -0.730589
vn -0.039622 -0.509445 -0.859591
vn 0.206379 -0.327698 -0.921966
vn 0.240543 -0.632765 -0.736035
vn 0.240543 -0.632766 -0.736035
vn 0.230989 -0.643454 -0.729803
vn -0.129021 -0.679604 -0.722144
vn 0.362845 0.492758 -0.790906
vn 0.362845 0.492758 -0.790906
vn 0.327030 0.521484 -0.788103
vn 0.319626 0.527219 -0.787324
vn 0.972552 -0.145351 -0.181702
vn 0.972552 -0.145351 -0.181702
vn 0.972552 -0.145351 -0.181702
vn 0.972552 -0.145351 -0.181702
vn -0.184415 0.002430 -0.982845
vn -0.186192 0.003602 -0.982507
vn -0.182402 0.002922 -0.983220
vn 0.103202 0.662886 -0.741574
vn 0.095705 0.666582 -0.739263
vn 0.016186 0.689234 -0.724358
vn 0.007387 0.690154 -0.723625
vn 0.656708 0.745257 -0.115437
vn 0.325526 0.944084 -0.052332
vn 0.325473 0.944103 -0.052322
vn 0.656718 0.745248 -0.115439
vn -0.181237 0.002165 -0.983437
vn -0.183560 0.002175 -0.983006
vn -0.182402 0.002922 -0.983220
vn -0.250903 0.693216 -0.675647
vn -0.259193 0.692520 -0.673227
vn -0.339258 0.671681 -0.658596
vn -0.347362 0.668082 -0.658031
vn 0.207353 0.977802 -0.030131
vn -0.181975 0.982401 0.042104
vn -0.182034 0.982390 0.042115
vn 0.207294 0.977815 -0.030120
vn -0.178601 0.003558 -0.983915
vn -0.180381 0.002413 -0.983594
vn -0.182402 0.002922 -0.983220
vn -0.567853 0.537265 -0.623610
vn -0.574967 0.531789 -0.621782
vn -0.609480 0.504018 -0.611963
vn -0.609480 0.504018 -0.611963
vn -0.300984 0.951485 0.063910
vn -0.637258 0.760504 0.124643
vn -0.637266 0.760497 0.124644
vn -0.301045 0.951465 0.063921
vn -0.496521 -0.614323 -0.613249
vn -0.496521 -0.614323 -0.613249
vn -0.129021 -0.679604 -0.722144
vn -0.487370 -0.623960 -0.610855
vn -0.976011 -0.122388 0.180066
vn -0.976011 -0.122388 0.180066
vn -0.976011 -0.122388 0.180066
vn -0.976011 -0.122388 0.180066
vn 0.439546 -0.570812 0.693522
vn 0.439546 -0.570812 0.693522
vn 0.107867 -0.616065 0.780275
vn 0.431450 -0.575953 0.694355
vn 0.622084 0.480722 0.617995
vn 0.622084 0.480722 0.617995
vn 0.581339 0.514876 0.630038
vn 0.588317 0.509235 0.628142
vn 0.169463 -0.022926 0.985270
vn 0.175423 -0.027236 0.984116
vn 0.182191 -0.025686 0.982928
vn 0.356384 0.654648 0.666654
vn 0.364385 0.650852 0.666045
vn 0.268620 0.678243 0.683981
vn 0.276890 0.677362 0.681552
vn 0.178256 -0.028251 0.983579
vn 0.185768 -0.028505 0.982180
vn 0.182191 -0.025686 0.982928
vn 0.001486 0.680568 0.732683
vn 0.010307 0.681269 0.731961
vn -0.086170 0.656276 0.749584
vn -0.078587 0.659802 0.747319
vn 0.188700 -0.027692 0.981644
vn 0.195037 -0.023663 0.980510
vn 0.182191 -0.025686 0.982928
vn -0.313484 0.520201 0.794429
vn -0.305928 0.525757 0.793718
vn -0.350006 0.492395 0.796896
vn -0.350006 0.492395 0.796896
vn -0.202480 -0.588798 0.782508
vn -0.202480 -0.588798 0.782508
vn -0.189429 -0.596046 0.780286
vn 0.107867 -0.616065 0.780275
vn -0.012915 -0.999898 -0.006113
vn 0.423752 -0.901662 -0.086252
vn 0.423752 -0.901662 -0.086252
vn -0.012915 -0.999898 -0.006113
vn 0.704329 0.698842 -0.124662
vn 0.656708 0.745257 -0.115437
vn 0.656718 0.745248 -0.115439
vn 0.704329 0.698842 -0.124662
vn 0.325526 0.944084 -0.052332
vn 0.207353 0.977802 -0.030131
vn 0.207294 0.977815 -0.030120
vn 0.325473 0.944103 -0.052322
vn -0.181975 0.982401 0.042104
vn -0.300984 0.951485 0.063910
vn -0.301045 0.951465 0.063921
vn -0.182034 0.982390 0.042115
vn -0.637258 0.760504 0.124643
vn -0.686063 0.715225 0.133308
vn -0.686063 0.715225 0.133308
vn -0.637266 0.760497 0.124644
vn -0.186192 0.003602 -0.982507
vn -0.186542 0.003872 -0.982439
vn -0.182402 0.002922 -0.983220
vn -0.183560 0.002175 -0.983006
vn -0.184415 0.002430 -0.982845
vn -0.182402 0.002922 -0.983220
vn -0.180381 0.002413 -0.983594
vn -0.181237 0.002165 -0.983437
vn -0.182402 0.002922 -0.983220
vn -0.178255 0.003819 -0.983977
vn -0.178601 0.003558 -0.983915
vn -0.182402 0.002922 -0.983220
vn 0.168359 -0.021996 0.985480
vn 0.169463 -0.022926 0.985270
vn 0.182191 -0.025686 0.982928
vn 0.175423 -0.027236 0.984116
vn 0.178256 -0.028251 0.983579
vn 0.182191 -0.025686 0.982928
vn 0.185768 -0.028505 0.982180
vn 0.188700 -0.027692 0.981644
vn 0.182191 -0.025686 0.982928
vn 0.195037 -0.023663 0.980510
vn 0.196270 -0.022738 0.980286
vn 0.182191 -0.025686 0.982928
vn 0.480391 -0.871730 -0.096500
vn 0.423752 -0.901662 -0.086252
vn 0.423752 -0.901662 -0.086252
vn 0.480391 -0.871730 -0.096500
vn -0.502762 -0.860145 0.085912
vn -0.502762 -0.860145 0.085912
vn -0.502762 -0.860145 0.085912
vn -0.502762 -0.860145 0.085912
vn 0.651869 -0.106488 -0.750817
vn 0.651869 -0.106488 -0.750817
vn 0.651869 -0.106488 -0.750817
vn 0.095705 0.666582 -0.739263
vn 0.103202 0.662886 -0.741574
vn 0.319626 0.527219 -0.787324
vn 0.327030 0.521484 -0.788103
vn -0.259193 0.692520 -0.673227
vn -0.250903 0.693216 -0.675647
vn 0.007387 0.690154 -0.723625
vn 0.016186 0.689234 -0.724358
vn -0.574967 0.531789 -0.621782
vn -0.567853 0.537265 -0.623610
vn -0.347362 0.668082 -0.658031
vn -0.339258 0.671681 -0.658596
vn -0.876317 -0.097794 -0.471704
vn -0.876317 -0.097794 -0.471704
vn -0.876317 -0.097794 -0.471704
vn 0.873393 -0.126083 0.470413
vn 0.873393 -0.126083 0.470413
vn 0.873393 -0.126083 0.470413
vn 0.588317 0.509235 0.628142
vn 0.581339 0.514876 0.630038
vn 0.364385 0.650852 0.666045
vn 0.356384 0.654648 0.666654
vn 0.276890 0.677362 0.681552
vn 0.268620 0.678243 0.683981
vn 0.010307 0.681269 0.731961
vn 0.001486 0.680568 0.732683
vn -0.078587 0.659802 0.747319
vn -0.086170 0.656276 0.749584
vn -0.305928 0.525757 0.793718
vn -0.313484 0.520201 0.794429
vn -0.654468 -0.098704 0.749619
vn -0.654468 -0.098704 0.749619
vn -0.654468 -0.098704 0.749619
vn -0.487370 -0.623960 -0.610855
vn -0.129021 -0.679604 -0.722144
vn 0.230989 -0.643454 -0.729803
vn 0.431450 -0.575953 0.694355
vn 0.107867 -0.616065 0.780275
vn -0.189429 -0.596046 0.780286
s off
g polySurface152 group11_pCylinder5
usemtl lambert4SG
f 1/1/1 2/2/2 13/3/3
f 2/2/4 3/4/5 13/3/6
f 3/4/7 4/5/8 13/3/9
f 4/5/10 5/6/11 13/3/12
f 5/6/13 6/7/14 13/3/15
f 6/7/16 7/8/17 13/3/18
f 7/8/19 8/9/20 13/3/21
f 8/9/22 9/10/23 13/3/24
f 9/10/25 10/11/26 13/3/27
f 10/11/28 11/12/29 13/3/30
f 11/12/31 12/13/32 13/3/33
f 12/13/34 1/1/35 13/3/36
f 15/14/37 14/15/38 1/16/39 12/17/40
f 16/18/41 15/14/42 12/17/43 11/19/44
f 17/20/45 16/18/46 11/19/47 10/21/48
f 18/22/49 17/20/50 10/21/51 9/23/52
f 19/24/53 18/22/54 9/23/55 8/25/56
f 20/26/57 19/24/58 8/25/59 7/27/60
f 21/28/61 20/26/62 7/27/63 6/29/64
f 22/30/65 21/28/66 6/29/67 5/31/68
f 23/32/69 22/30/70 5/31/71 4/33/72
f 24/34/73 23/32/74 4/33/75 3/35/76
f 25/36/77 24/34/78 3/35/79 2/37/80
f 14/38/81 25/36/82 2/37/83 1/39/84
f 14/40/85 15/41/86 26/42/87
f 15/41/88 16/43/89 26/42/90
f 16/43/91 17/44/92 26/42/93
f 17/44/94 18/45/95 26/42/96
f 18/45/97 19/46/98 26/42/99
f 19/46/100 20/47/101 26/42/102
f 20/47/103 21/48/104 26/42/105
f 21/48/106 22/49/107 26/42/108
f 22/49/109 23/50/110 26/42/111
f 23/50/112 24/51/113 26/42/114
f 24/51/115 25/52/116 26/42/117
f 25/52/118 14/40/119 26/42/120
f 27/53/121 28/54/122 39/55/123
f 28/54/124 29/56/125 39/55/126
f 29/56/127 30/57/128 39/55/129
f 30/57/130 31/58/131 39/55/132
f 31/58/133 32/59/134 39/55/135
f 32/59/136 33/60/137 39/55/138
f 33/60/139 34/61/140 39/55/141
f 34/61/142 35/62/143 39/55/144
f 35/62/145 36/63/146 39/55/147
f 36/63/148 37/64/149 39/55/150
f 37/64/151 38/65/152 39/55/153
f 38/65/154 27/53/155 39/55/156
f 41/66/157 40/67/158 27/68/159 38/69/160
f 42/70/161 41/66/162 38/69/163 37/71/164
f 43/72/165 42/70/166 37/71/167 36/73/168
f 44/74/169 43/72/170 36/73/171 35/75/172
f 45/76/173 44/74/174 35/75/175 34/77/176
f 46/78/177 45/76/178 34/77/179 33/79/180
f 47/80/181 46/78/182 33/79/183 32/81/184
f 48/82/185 47/80/186 32/81/187 31/83/188
f 49/84/189 48/82/190 31/83/191 30/85/192
f 50/86/193 49/84/194 30/85/195 29/87/196
f 51/88/197 50/89/198 29/90/199 28/91/200
f 40/67/201 51/88/202 28/91/203 27/68/204
f 40/92/205 41/93/206 52/94/207
f 41/93/208 42/95/209 52/94/210
f 42/95/211 43/96/212 52/94/213
f 43/96/214 44/97/215 52/94/216
f 44/97/217 45/98/218 52/94/219
f 45/98/220 46/99/221 52/94/222
f 46/99/223 47/100/224 52/94/225
f 47/100/226 48/101/227 52/94/228
f 48/101/229 49/102/230 52/94/231
f 49/102/232 50/103/233 52/94/234
f 50/103/235 51/104/236 52/94/237
f 51/104/238 40/92/239 52/94/240
f 53/105/241 54/106/242 65/107/243
f 54/106/244 55/108/245 65/107/246
f 55/108/247 56/109/248 65/107/249
f 56/109/250 57/110/251 65/107/252
f 57/110/253 58/111/254 65/107/255
f 58/111/256 59/112/257 65/107/258
f 59/112/259 60/113/260 65/107/261
f 60/113/262 61/114/263 65/107/264
f 61/114/265 62/115/266 65/107/267
f 62/115/268 63/116/269 65/107/270
f 63/116/271 64/117/272 65/107/273
f 64/117/274 53/105/275 65/107/276
f 67/118/277 66/119/278 53/120/279 64/121/280
f 68/122/281 67/118/282 64/121/283 63/123/284
f 69/124/285 68/122/286 63/123/287 62/125/288
f 70/126/289 69/124/290 62/125/291 61/127/292
f 71/128/293 70/126/294 61/127/295 60/129/296
f 72/130/297 71/128/298 60/129/299 59/131/300
f 73/132/301 72/130/302 59/131/303 58/133/304
f 74/134/305 73/132/306 58/133/307 57/135/308
f 75/136/309 74/134/310 57/135/311 56/137/312
f 76/138/313 75/136/314 56/137/315 55/139/316
f 77/140/317 76/138/318 55/139/319 54/141/320
f 66/142/321 77/140/322 54/141/323 53/143/324
f 66/144/325 67/145/326 78/146/327
f 67/145/328 68/147/329 78/146/330
f 68/147/331 69/148/332 78/146/333
f 69/148/334 70/149/335 78/146/336
f 70/149/337 71/150/338 78/146/339
f 71/150/340 72/151/341 78/146/342
f 72/151/343 73/152/344 78/146/345
f 73/152/346 74/153/347 78/146/348
f 74/153/349 75/154/350 78/146/351
f 75/154/352 76/155/353 78/146/354
f 76/155/355 77/156/356 78/146/357
f 77/156/358 66/144/359 78/146/360
f 79/157/361 81/158/362 117/159/363 116/160/364
f 80/161/365 79/157/366 85/162/367 84/163/368
f 81/164/369 80/165/370 98/166/371 97/167/372
f 82/168/373 85/162/374 116/160/375
f 83/169/376 82/168/377 89/170/378 88/171/379
f 84/172/380 83/173/381 102/174/382 101/175/383
f 86/176/384 89/170/385 116/160/386
f 87/177/387 86/176/388 93/178/389 92/179/390
f 88/180/391 87/181/392 106/182/393 105/183/394
f 90/184/395 93/178/396 116/160/397
f 91/185/398 90/184/399 96/186/400 95/187/401
f 92/188/402 91/189/403 110/190/404 109/191/405
f 94/192/406 96/186/407 116/160/408 115/193/409
f 95/194/410 94/195/411 114/196/412 113/197/413
f 97/198/414 99/199/415 119/200/416 118/201/417
f 99/199/418 98/202/419 101/203/420 100/204/421
f 100/204/422 103/205/423 119/200/424
f 103/205/425 102/206/426 105/207/427 104/208/428
f 104/208/429 107/209/430 119/200/431
f 107/209/432 106/210/433 109/211/434 108/212/435
f 108/212/436 111/213/437 119/200/438
f 111/213/439 110/214/440 113/215/441 112/216/442
f 112/216/443 114/217/444 120/218/445 119/200/446
f 115/219/447 117/220/448 118/221/449 120/222/450
f 80/165/451 84/172/452 101/175/453 98/166/454
f 83/173/455 88/180/456 105/183/457 102/174/458
f 87/181/459 92/188/460 109/191/461 106/182/462
f 91/189/463 95/194/464 113/197/465 110/190/466
f 85/162/467 79/157/468 116/160/469
f 89/170/470 82/168/471 116/160/472
f 93/178/473 86/176/474 116/160/475
f 96/186/476 90/184/477 116/160/478
f 99/199/479 100/204/480 119/200/481
f 103/205/482 104/208/483 119/200/484
f 107/209/485 108/212/486 119/200/487
f 111/213/488 112/216/489 119/200/490
f 120/222/491 114/196/492 94/195/493 115/219/494
f 79/157/495 80/161/496 81/158/497
f 82/168/498 83/169/499 84/163/500 85/162/501
f 86/176/502 87/177/503 88/171/504 89/170/505
f 90/184/506 91/185/507 92/179/508 93/178/509
f 94/192/510 95/187/511 96/186/512
f 97/198/513 98/202/514 99/199/515
f 100/204/516 101/203/517 102/206/518 103/205/519
f 104/208/520 105/207/521 106/210/522 107/209/523
f 108/212/524 109/211/525 110/214/526 111/213/527
f 112/216/528 113/215/529 114/217/530
f 115/193/531 116/160/532 117/159/533
f 118/201/534 119/200/535 120/218/536
f 121/223/537 123/224/538 159/225/539 158/226/540
f 122/227/541 121/223/542 127/228/543 126/229/544
f 123/230/545 122/231/546 140/232/547 139/233/548
f 124/234/549 127/228/550 158/226/551
f 125/235/552 124/234/553 131/236/554 130/237/555
f 126/238/556 125/239/557 144/240/558 143/241/559
f 128/242/560 131/236/561 158/226/562
f 129/243/563 128/242/564 135/244/565 134/245/566
f 130/246/567 129/247/568 148/248/569 147/249/570
f 132/250/571 135/244/572 158/226/573
f 133/251/574 132/250/575 138/252/576 137/253/577
f 134/254/578 133/255/579 152/256/580 151/257/581
f 136/258/582 138/252/583 158/226/584 157/259/585
f 137/260/586 136/261/587 156/262/588 155/263/589
f 139/264/590 141/265/591 161/266/592 160/267/593
f 141/265/594 140/268/595 143/269/596 142/270/597
f 142/270/598 145/271/599 161/266/600
f 145/271/601 144/272/602 147/273/603 146/274/604
f 146/274/605 149/275/606 161/266/607
f 149/275/608 148/276/609 151/277/610 150/278/611
f 150/278/612 153/279/613 161/266/614
f 153/279/615 152/280/616 155/281/617 154/282/618
f 154/282/619 156/283/620 162/284/621 161/266/622
f 157/285/623 159/286/624 160/287/625 162/288/626
f 122/231/627 126/238/628 143/241/629 140/232/630
f 125/239/631 130/246/632 147/249/633 144/240/634
f 129/247/635 134/254/636 151/257/637 148/248/638
f 133/255/639 137/260/640 155/263/641 152/256/642
f 127/228/643 121/223/644 158/226/645
f 131/236/646 124/234/647 158/226/648
f 135/244/649 128/242/650 158/226/651
f 138/252/652 132/250/653 158/226/654
f 141/265/655 142/270/656 161/266/657
f 145/271/658 146/274/659 161/266/660
f 149/275/661 150/278/662 161/266/663
f 153/279/664 154/282/665 161/266/666
f 139/233/667 160/287/668 159/286/669 123/230/670
f 162/289/671 156/262/672 136/261/673 157/290/674
f 121/223/675 122/227/676 123/224/677
f 124/234/678 125/235/679 126/229/680 127/228/681
f 128/242/682 129/243/683 130/237/684 131/236/685
f 132/250/686 133/251/687 134/245/688 135/244/689
f 136/258/690 137/253/691 138/252/692
f 139/264/693 140/268/694 141/265/695
f 142/270/696 143/269/697 144/272/698 145/271/699
f 146/274/700 147/273/701 148/276/702 149/275/703
f 150/278/704 151/277/705 152/280/706 153/279/707
f 154/282/708 155/281/709 156/283/710
f 157/259/711 158/226/712 159/225/713
f 160/267/714 161/266/715 162/284/716
