# This file uses meters as units for non-parametric coordinates.

mtllib firewood2.mtl
g default
v 1.898434 3.711055 -25.704895
v 3.693836 5.017988 -25.398218
v 5.901989 5.240424 -25.081751
v 7.931232 4.318759 -24.840305
v 9.237835 2.499952 -24.738569
v 9.471668 0.271350 -24.803791
v 8.570103 -1.769890 -25.018520
v 6.774700 -3.076825 -25.325193
v 4.566547 -3.299260 -25.641655
v 2.537304 -2.377595 -25.883108
v 1.230709 -0.558789 -25.984846
v 0.996861 1.669813 -25.919615
v 5.234272 0.970582 -25.361700
v -5.134632 1.491024 24.929848
v -6.036198 -0.550218 24.715130
v -5.802349 -2.778818 24.649897
v -4.495762 -4.597624 24.751637
v -2.466518 -5.519291 24.993086
v -0.258358 -5.296856 25.309546
v 1.537052 -3.989920 25.616230
v 2.438618 -1.948679 25.830952
v 2.204762 0.279921 25.896179
v 0.898182 2.098728 25.794437
v -1.131069 3.020394 25.552994
v -3.339222 2.797959 25.236530
v -1.798794 -1.249447 25.273039
v 24.912258 -4.877753 26.779869
v 25.454357 -4.831964 25.900951
v 25.015224 -5.414774 25.905823
v 23.223461 0.541954 26.770340
v 23.690517 0.814146 25.883911
v 24.063702 0.181141 25.886024
v 23.599377 -0.096085 26.770454
v 18.916538 4.505086 26.780724
v 19.184055 4.975111 25.894760
v 19.823757 4.613497 25.894272
v 19.561092 4.140468 26.778236
v 13.205082 5.783840 26.810238
v 13.200909 6.325404 25.925697
v 13.935688 6.332086 25.923203
v 13.945606 5.790333 26.805870
v 7.915371 4.258415 25.971359
v 8.182705 4.933386 25.976200
v 8.430454 4.445812 26.843079
v 24.905529 -5.486371 -26.061848
v 25.346279 -4.909547 -26.075903
v 24.798832 -4.951746 -26.938824
v 23.485981 -0.170091 -26.949800
v 23.954250 0.108737 -26.071190
v 23.581448 0.741967 -26.073427
v 23.110081 0.467954 -26.950020
v 19.447697 4.066478 -26.942165
v 19.714672 4.541319 -26.063068
v 19.075191 4.903313 -26.062588
v 18.803143 4.431094 -26.939699
v 13.832211 5.716345 -26.914454
v 13.826839 6.260291 -26.034071
v 13.092045 6.254048 -26.031511
v 13.091686 5.709835 -26.909933
v 8.317066 4.371788 -26.875605
v 8.078938 4.863434 -26.000647
v 7.805637 4.186822 -25.996298
v 13.460491 -5.153874 25.980858
v 14.197880 -4.860707 26.950020
v 14.091442 -5.510793 25.978371
v 13.981724 -5.582406 -26.000868
v 14.064724 -4.923486 -26.768591
v 13.350780 -5.225486 -25.998484
v -10.441639 -4.144616 22.551949
v -10.555027 -4.208926 21.875404
v -10.360806 -4.330325 21.893303
v -10.505634 -3.697895 21.856133
v -10.627445 -3.892688 21.856773
v -10.514057 -3.828351 22.533348
v -7.188770 -6.332086 -25.700310
v -7.401722 -6.198958 -25.719994
v -7.197880 -6.177649 -26.168236
v -7.277294 -5.830912 -26.188591
v -7.481129 -5.852206 -25.740456
v -7.347569 -5.638625 -25.741127
v -6.842175 -6.251577 -25.681450
v -6.851299 -6.097159 -26.149178
v -6.708614 -6.038014 -25.682106
v -6.788013 -5.691244 -25.702599
v -6.930698 -5.750394 -26.169701
v -7.000973 -5.558139 -25.722237
v -10.044712 -4.256934 21.910545
v -9.922901 -4.062149 21.909920
v -10.125546 -4.071233 22.569191
v -10.197964 -3.754968 22.550591
v -9.995319 -3.745880 21.891273
v -10.189541 -3.624494 21.873375
v -9.049732 -5.257902 -1.871620
v -8.799061 -5.414579 -1.848488
v -8.391094 -5.319837 -1.826225
v -8.233875 -5.068437 -1.827034
v -8.327335 -4.660277 -1.851204
v -8.578007 -4.503599 -1.874352
v -8.985973 -4.598342 -1.896629
v -9.143192 -4.849742 -1.895744
v -7.685055 -5.765568 -13.782021
v -7.895123 -5.634296 -13.801216
v -7.973438 -5.292256 -13.821510
v -7.841686 -5.081597 -13.822243
v -7.499821 -5.002209 -13.803566
v -7.289768 -5.133490 -13.784096
v -7.211437 -5.475529 -13.764122
v -7.343197 -5.686194 -13.763191
v -10.285183 -4.995477 10.087822
v -10.034519 -5.152130 10.111061
v -9.626545 -5.057400 10.133278
v -9.469334 -4.805993 10.132484
v -9.562809 -4.397846 10.108482
v -9.813457 -4.241150 10.085152
v -10.221439 -4.335890 10.063072
v -10.378643 -4.587298 10.063698
v -22.038174 1.269643 23.028019
v -23.702412 0.886302 22.522614
v -24.952808 -0.314961 22.115765
v -25.454357 -2.012234 21.916496
v -25.072628 -3.750779 21.978180
v -23.909939 -5.064741 22.284286
v -22.277813 -5.602021 22.752827
v -20.613567 -5.218695 23.258228
v -19.363163 -4.017447 23.665073
v -18.861637 -2.320142 23.864357
v -19.243351 -0.581615 23.802662
v -20.406040 0.732330 23.496536
v -22.157993 -2.166195 22.890423
v -11.845135 2.289329 -11.310139
v -10.213017 1.752049 -10.841606
v -9.050327 0.438090 -10.535488
v -8.668598 -1.300456 -10.473807
v -9.170124 -2.997764 -10.673091
v -10.420544 -4.198997 -11.079931
v -12.084759 -4.582348 -11.585338
v -13.716900 -4.045035 -12.053859
v -14.879589 -2.731096 -12.359982
v -15.261303 -0.992547 -12.421665
v -14.759769 0.704746 -12.222384
v -13.509373 1.905992 -11.815536
v -11.964962 -1.146503 -11.447737
v -8.168682 -5.748765 23.858879
v -8.308025 -5.796693 23.156242
v -8.010036 -5.975937 23.211769
v -8.245365 -5.013805 23.128456
v -8.425701 -5.315592 23.114555
v -8.286358 -5.267677 23.817299
v -0.908939 -5.077102 -24.387459
v -1.235714 -4.880580 -24.448082
v -0.905087 -4.804273 -24.867714
v -1.034061 -4.276759 -24.913719
v -1.364727 -4.353025 -24.493828
v -1.166988 -4.022159 -24.478630
v -0.384350 -4.942727 -24.311394
v -0.380474 -4.669878 -24.791862
v -0.186604 -4.611890 -24.296288
v -0.315624 -4.084339 -24.342018
v -0.509502 -4.142373 -24.837563
v -0.642406 -3.887840 -24.402611
v -7.531605 -5.853432 23.281044
v -7.351254 -5.551633 23.294823
v -7.690258 -5.626260 23.928276
v -7.807911 -5.145133 23.886497
v -7.468929 -5.070551 23.253166
v -7.766933 -4.891273 23.197716
v -4.881420 -5.427686 -0.605171
v -4.496830 -5.659041 -0.533470
v -3.879314 -5.500893 -0.444206
v -3.646572 -5.111434 -0.426201
v -3.798450 -4.490491 -0.479988
v -4.183041 -4.259138 -0.551643
v -4.800564 -4.417285 -0.640923
v -5.033298 -4.806743 -0.658913
v -2.235195 -5.191437 -12.418709
v -2.557507 -4.997581 -12.478676
v -2.684788 -4.477232 -12.523643
v -2.489727 -4.150866 -12.508781
v -1.972286 -4.018357 -12.433739
v -1.649975 -4.212217 -12.373833
v -1.522686 -4.732562 -12.328880
v -1.717754 -5.058938 -12.343727
v -7.326809 -6.037062 11.288536
v -6.942211 -6.268398 11.360161
v -6.324726 -6.110263 11.449623
v -6.091938 -5.720794 11.467354
v -6.243793 -5.099840 11.413414
v -6.628429 -4.868512 11.342003
v -7.245914 -5.026651 11.252525
v -7.478725 -5.416116 11.234947
vt 0.556873 0.926687
vt 0.556874 0.934668
vt 0.541979 0.930679
vt 0.552883 0.941581
vt 0.545972 0.945572
vt 0.537990 0.945573
vt 0.531078 0.941583
vt 0.527086 0.934672
vt 0.527086 0.926690
vt 0.531075 0.919777
vt 0.537987 0.915786
vt 0.545969 0.915785
vt 0.552881 0.919775
vt 0.898025 0.608011
vt 0.908071 0.608007
vt 0.908157 0.837316
vt 0.898111 0.837320
vt 0.887978 0.608015
vt 0.888064 0.837324
vt 0.877932 0.608019
vt 0.878018 0.837328
vt 0.867886 0.608023
vt 0.867972 0.837332
vt 0.978395 0.607981
vt 0.988442 0.607977
vt 0.988528 0.837286
vt 0.978482 0.837290
vt 0.968349 0.607985
vt 0.968435 0.837294
vt 0.958303 0.607989
vt 0.958389 0.837297
vt 0.948257 0.607992
vt 0.948343 0.837301
vt 0.938210 0.607996
vt 0.938296 0.837305
vt 0.928164 0.608000
vt 0.928250 0.837309
vt 0.918118 0.608004
vt 0.918204 0.837313
vt 0.545969 0.915785
vt 0.552881 0.919775
vt 0.541980 0.930679
vt 0.556873 0.926687
vt 0.556874 0.934668
vt 0.552884 0.941581
vt 0.545972 0.945572
vt 0.537990 0.945573
vt 0.531078 0.941583
vt 0.527086 0.934671
vt 0.527086 0.926690
vt 0.531076 0.919777
vt 0.537987 0.915786
vt 0.597078 0.813073
vt 0.643527 0.812176
vt 0.644604 0.817406
vt 0.595601 0.817401
vt 0.592568 0.813837
vt 0.597110 0.789462
vt 0.601379 0.791269
vt 0.926976 0.005978
vt 0.927035 0.238867
vt 0.923782 0.238923
vt 0.923705 0.005993
vt 0.603012 0.788357
vt 0.599010 0.785991
vt 0.617216 0.767817
vt 0.619759 0.771776
vt 0.900391 0.006047
vt 0.900444 0.238889
vt 0.897151 0.238899
vt 0.897098 0.006057
vt 0.622700 0.770132
vt 0.620605 0.765947
vt 0.645650 0.759901
vt 0.645619 0.764611
vt 0.872805 0.006029
vt 0.872857 0.238871
vt 0.869564 0.238873
vt 0.869511 0.006031
vt 0.648955 0.764750
vt 0.649630 0.760144
vt 0.672762 0.769212
vt 0.669749 0.772608
vt 0.845218 0.005950
vt 0.845270 0.238792
vt 0.841977 0.238788
vt 0.841925 0.005946
vt 0.674190 0.773664
vt 0.648235 0.815270
vt 0.818586 0.005781
vt 0.818663 0.238710
vt 0.815392 0.238699
vt 0.815333 0.005810
vt 0.668092 0.806644
vt 0.694317 0.765257
vt 0.697764 0.768355
vt 0.672536 0.807725
vt 0.693263 0.815491
vt 0.692531 0.820035
vt 0.669504 0.811088
vt 0.696582 0.815609
vt 0.719396 0.810210
vt 0.721443 0.814397
vt 0.696498 0.820340
vt 0.722330 0.808589
vt 0.739129 0.792244
vt 0.743124 0.794650
vt 0.724827 0.812559
vt 0.740797 0.789372
vt 0.745366 0.767736
vt 0.749869 0.766998
vt 0.745015 0.791178
vt 0.697849 0.763404
vt 0.746855 0.763404
vt 0.766377 0.005786
vt 0.766436 0.238727
vt 0.763188 0.238734
vt 0.763129 0.005794
vt 0.241408 0.987642
vt 0.241405 0.990730
vt 0.239949 0.990732
vt 0.239952 0.987644
vt 0.244496 0.987632
vt 0.241407 0.986185
vt 0.244495 0.986175
vt 0.236820 0.980188
vt 0.236775 0.981216
vt 0.183913 0.980087
vt 0.183929 0.978759
vt 0.241395 0.983094
vt 0.239950 0.986187
vt 0.239938 0.983096
vt 0.236762 0.982673
vt 0.236785 0.983703
vt 0.183883 0.983294
vt 0.183893 0.981966
vt 0.016733 0.983676
vt 0.018941 0.983631
vt 0.018977 0.985227
vt 0.016770 0.985273
vt 0.018887 0.981422
vt 0.020484 0.981387
vt 0.020538 0.983595
vt 0.022743 0.983540
vt 0.022779 0.985136
vt 0.020574 0.985191
vt 0.183905 0.989715
vt 0.183890 0.988386
vt 0.236861 0.987641
vt 0.236844 0.988670
vt 0.019022 0.987431
vt 0.020619 0.987396
vt 0.183877 0.986504
vt 0.183874 0.985174
vt 0.236834 0.985157
vt 0.236859 0.986186
vt 0.236824 0.990125
vt 0.183931 0.991594
vt 0.242420 0.990559
vt 0.242410 0.983265
vt 0.017803 0.981737
vt 0.021581 0.981652
vt 0.017924 0.987168
vt 0.021704 0.987085
vt 0.238933 0.990562
vt 0.238924 0.983271
vt 0.076274 0.979765
vt 0.076284 0.980879
vt 0.022731 0.980815
vt 0.022753 0.979686
vt 0.076280 0.988946
vt 0.076271 0.990521
vt 0.022752 0.990588
vt 0.022787 0.988991
vt 0.022803 0.987862
vt 0.076282 0.987833
vt 0.022799 0.986264
vt 0.076285 0.986258
vt 0.076286 0.985144
vt 0.076288 0.983569
vt 0.076289 0.982455
vt 0.022726 0.982411
vt 0.130042 0.978756
vt 0.130079 0.980084
vt 0.130076 0.981963
vt 0.130040 0.983291
vt 0.129977 0.985168
vt 0.129949 0.986495
vt 0.129957 0.988373
vt 0.129988 0.989701
vt 0.130038 0.991579
vt 0.556873 0.926687
vt 0.556874 0.934668
vt 0.541980 0.930679
vt 0.552884 0.941581
vt 0.545972 0.945572
vt 0.537991 0.945573
vt 0.531078 0.941583
vt 0.527086 0.934671
vt 0.527086 0.926690
vt 0.531075 0.919777
vt 0.537987 0.915786
vt 0.545969 0.915785
vt 0.552881 0.919775
vt 0.818819 0.767107
vt 0.810838 0.767106
vt 0.810862 0.606521
vt 0.818844 0.606522
vt 0.826801 0.767108
vt 0.826825 0.606524
vt 0.834782 0.767110
vt 0.834806 0.606525
vt 0.842764 0.767111
vt 0.842788 0.606526
vt 0.850745 0.767112
vt 0.850770 0.606527
vt 0.858727 0.767113
vt 0.858751 0.606529
vt 0.770930 0.767100
vt 0.762949 0.767099
vt 0.762973 0.606514
vt 0.770955 0.606515
vt 0.778912 0.767101
vt 0.778936 0.606516
vt 0.786893 0.767102
vt 0.786918 0.606517
vt 0.794875 0.767103
vt 0.794899 0.606519
vt 0.802856 0.767105
vt 0.802880 0.606520
vt 0.545969 0.915785
vt 0.552881 0.919775
vt 0.541980 0.930679
vt 0.556873 0.926687
vt 0.556874 0.934668
vt 0.552884 0.941581
vt 0.545972 0.945572
vt 0.537990 0.945573
vt 0.531078 0.941583
vt 0.527086 0.934671
vt 0.527086 0.926690
vt 0.531076 0.919777
vt 0.537988 0.915786
vt 0.244911 0.968519
vt 0.245095 0.971669
vt 0.242865 0.971820
vt 0.242681 0.968670
vt 0.248102 0.968103
vt 0.244763 0.966296
vt 0.247954 0.965880
vt 0.239438 0.957291
vt 0.239266 0.958860
vt 0.186104 0.957144
vt 0.186223 0.955113
vt 0.244514 0.963010
vt 0.242532 0.966447
vt 0.242283 0.963161
vt 0.239094 0.961083
vt 0.239071 0.962662
vt 0.185752 0.962036
vt 0.185877 0.960008
vt 0.015861 0.962662
vt 0.018336 0.962606
vt 0.018409 0.965056
vt 0.015933 0.965112
vt 0.018123 0.960197
vt 0.020565 0.960121
vt 0.020778 0.962532
vt 0.023114 0.962443
vt 0.023185 0.964892
vt 0.020851 0.964981
vt 0.186157 0.971867
vt 0.186022 0.969835
vt 0.239443 0.968680
vt 0.239482 0.970254
vt 0.018343 0.967455
vt 0.020784 0.967380
vt 0.185807 0.966960
vt 0.185719 0.964921
vt 0.239174 0.964891
vt 0.239295 0.966462
vt 0.239447 0.972487
vt 0.186233 0.974750
vt 0.246617 0.971248
vt 0.246054 0.963348
vt 0.016542 0.960901
vt 0.022202 0.960679
vt 0.016718 0.966865
vt 0.022392 0.966738
vt 0.241303 0.971600
vt 0.240803 0.963710
vt 0.077423 0.956658
vt 0.077374 0.958364
vt 0.023328 0.958280
vt 0.023449 0.956555
vt 0.077423 0.970709
vt 0.077417 0.973126
vt 0.023446 0.973238
vt 0.023515 0.970788
vt 0.023467 0.969058
vt 0.077345 0.969006
vt 0.023302 0.966619
vt 0.077197 0.966602
vt 0.077130 0.964896
vt 0.077148 0.962478
vt 0.077232 0.960772
vt 0.023161 0.960715
vt 0.131765 0.955115
vt 0.131768 0.957153
vt 0.131580 0.960021
vt 0.131400 0.962045
vt 0.131237 0.964919
vt 0.131258 0.966953
vt 0.131458 0.969816
vt 0.131630 0.971840
vt 0.131763 0.974719
vn 0.137447 0.043385 -0.989559
vn 0.137448 0.043386 -0.989558
vn 0.137448 0.043386 -0.989558
vn 0.137448 0.043386 -0.989558
vn 0.137448 0.043386 -0.989558
vn 0.137448 0.043386 -0.989558
vn 0.137448 0.043386 -0.989558
vn 0.137448 0.043387 -0.989558
vn 0.137448 0.043386 -0.989558
vn 0.137448 0.043387 -0.989558
vn 0.137448 0.043388 -0.989558
vn 0.137448 0.043386 -0.989558
vn 0.137448 0.043388 -0.989558
vn 0.137448 0.043387 -0.989558
vn 0.137448 0.043386 -0.989558
vn 0.137448 0.043387 -0.989558
vn 0.137447 0.043386 -0.989559
vn 0.137448 0.043386 -0.989558
vn 0.137447 0.043386 -0.989559
vn 0.137448 0.043386 -0.989558
vn 0.137448 0.043386 -0.989558
vn 0.137448 0.043386 -0.989558
vn 0.137448 0.043386 -0.989558
vn 0.137448 0.043386 -0.989558
vn 0.137448 0.043386 -0.989558
vn 0.137448 0.043386 -0.989558
vn 0.137448 0.043386 -0.989558
vn 0.137448 0.043386 -0.989558
vn 0.137448 0.043388 -0.989558
vn 0.137448 0.043386 -0.989558
vn 0.137448 0.043388 -0.989558
vn 0.137448 0.043386 -0.989558
vn 0.137448 0.043386 -0.989558
vn 0.137448 0.043386 -0.989558
vn 0.137447 0.043385 -0.989559
vn 0.137448 0.043386 -0.989558
vn -0.905191 0.411131 -0.107704
vn -0.905191 0.411131 -0.107704
vn -0.905191 0.411131 -0.107704
vn -0.905191 0.411131 -0.107704
vn -0.985001 -0.099223 -0.141165
vn -0.985001 -0.099223 -0.141165
vn -0.985001 -0.099223 -0.141165
vn -0.985001 -0.099223 -0.141165
vn -0.800881 -0.582989 -0.136801
vn -0.800881 -0.582989 -0.136801
vn -0.800881 -0.582989 -0.136801
vn -0.800881 -0.582989 -0.136801
vn -0.402165 -0.910544 -0.095782
vn -0.402165 -0.910544 -0.095782
vn -0.402165 -0.910544 -0.095782
vn -0.402165 -0.910544 -0.095782
vn 0.104311 -0.994119 -0.029098
vn 0.104311 -0.994119 -0.029098
vn 0.104311 -0.994119 -0.029098
vn 0.104311 -0.994119 -0.029098
vn 0.582837 -0.811321 0.045383
vn 0.582837 -0.811321 0.045383
vn 0.582837 -0.811321 0.045383
vn 0.582837 -0.811321 0.045383
vn 0.905191 -0.411131 0.107704
vn 0.905191 -0.411131 0.107704
vn 0.905191 -0.411131 0.107704
vn 0.905191 -0.411131 0.107704
vn 0.985001 0.099223 0.141165
vn 0.985001 0.099223 0.141165
vn 0.985001 0.099223 0.141165
vn 0.985001 0.099223 0.141165
vn 0.800881 0.582989 0.136801
vn 0.800881 0.582989 0.136801
vn 0.800881 0.582989 0.136801
vn 0.800881 0.582989 0.136801
vn 0.402165 0.910544 0.095782
vn 0.402165 0.910544 0.095782
vn 0.402165 0.910544 0.095782
vn 0.402165 0.910544 0.095782
vn -0.104311 0.994119 0.029098
vn -0.104311 0.994119 0.029098
vn -0.104311 0.994119 0.029098
vn -0.104311 0.994119 0.029098
vn -0.582837 0.811321 -0.045383
vn -0.582837 0.811321 -0.045383
vn -0.582837 0.811321 -0.045383
vn -0.582837 0.811321 -0.045383
vn -0.137448 -0.043385 0.989558
vn -0.137448 -0.043385 0.989558
vn -0.137448 -0.043385 0.989558
vn -0.137447 -0.043388 0.989558
vn -0.137447 -0.043388 0.989558
vn -0.137447 -0.043388 0.989558
vn -0.137447 -0.043387 0.989559
vn -0.137447 -0.043387 0.989559
vn -0.137447 -0.043387 0.989559
vn -0.137451 -0.043386 0.989558
vn -0.137451 -0.043386 0.989558
vn -0.137451 -0.043386 0.989558
vn -0.137448 -0.043387 0.989558
vn -0.137448 -0.043387 0.989558
vn -0.137448 -0.043387 0.989558
vn -0.137447 -0.043387 0.989558
vn -0.137447 -0.043387 0.989558
vn -0.137447 -0.043387 0.989558
vn -0.137448 -0.043386 0.989558
vn -0.137448 -0.043386 0.989558
vn -0.137448 -0.043386 0.989558
vn -0.137447 -0.043386 0.989558
vn -0.137447 -0.043386 0.989559
vn -0.137447 -0.043386 0.989559
vn -0.137448 -0.043384 0.989558
vn -0.137448 -0.043384 0.989558
vn -0.137448 -0.043384 0.989558
vn -0.137444 -0.043387 0.989559
vn -0.137444 -0.043387 0.989559
vn -0.137444 -0.043387 0.989559
vn -0.137448 -0.043387 0.989558
vn -0.137448 -0.043387 0.989558
vn -0.137448 -0.043387 0.989558
vn -0.137448 -0.043386 0.989558
vn -0.137447 -0.043386 0.989558
vn -0.137448 -0.043386 0.989558
vn -0.564441 -0.687923 0.456255
vn -0.780675 -0.567737 0.261191
vn -0.571590 -0.687162 0.448434
vn -0.564441 -0.687923 0.456255
vn -0.196107 0.209443 0.957954
vn -0.204923 0.233151 0.950604
vn -0.203185 0.228460 0.952114
vn -0.196107 0.209443 0.957954
vn 0.490855 -0.561745 0.665961
vn 0.490855 -0.561745 0.665961
vn 0.490855 -0.561745 0.665961
vn 0.490855 -0.561745 0.665961
vn -0.808901 -0.011834 0.587826
vn -0.810005 -0.011715 0.586306
vn -0.808000 -0.014221 0.589011
vn -0.302851 0.496714 0.813361
vn -0.325288 0.529911 0.783187
vn -0.322280 0.527189 0.786261
vn -0.304270 0.500519 0.810494
vn 0.543506 0.347741 0.763988
vn 0.543500 0.347767 0.763980
vn 0.391093 0.728122 0.562926
vn 0.391112 0.728091 0.562952
vn -0.810502 -0.010380 0.585643
vn -0.810005 -0.011715 0.586306
vn -0.809102 -0.011522 0.587556
vn -0.491485 0.670054 0.556300
vn -0.520376 0.680009 0.516523
vn -0.516932 0.679780 0.520270
vn -0.493737 0.671773 0.552218
vn 0.363421 0.769167 0.525649
vn 0.363400 0.769196 0.525621
vn 0.121379 0.973200 0.195317
vn 0.121405 0.973190 0.195353
vn -0.812377 -0.010614 0.583036
vn -0.810005 -0.011715 0.586306
vn -0.810774 -0.010310 0.585269
vn -0.706987 0.654735 0.267380
vn -0.719906 0.649216 0.245466
vn -0.719906 0.649216 0.245466
vn -0.709555 0.653689 0.263101
vn 0.085720 0.985540 0.146162
vn 0.085694 0.985548 0.146126
vn -0.180244 0.957832 -0.223765
vn -0.180224 0.957842 -0.223737
vn -0.929428 -0.368592 0.017404
vn -0.927207 -0.373988 0.020517
vn -0.780675 -0.567737 0.261191
vn -0.929428 -0.368592 0.017404
vn -0.557531 0.322115 -0.765115
vn -0.557531 0.322115 -0.765115
vn -0.557530 0.322115 -0.765115
vn -0.557531 0.322115 -0.765115
vn 0.658314 -0.615194 -0.433773
vn 0.655007 -0.613238 -0.441481
vn 0.544652 -0.498609 -0.674347
vn 0.658314 -0.615194 -0.433773
vn 0.965208 0.232641 0.119378
vn 0.961386 0.251623 0.111456
vn 0.960391 0.256234 0.109517
vn 0.965208 0.232641 0.119378
vn 0.808009 0.014042 -0.589002
vn 0.809974 0.011598 -0.586351
vn 0.808869 0.011755 -0.587872
vn 0.851720 0.523521 -0.022329
vn 0.833724 0.550217 -0.046540
vn 0.831738 0.552892 -0.050225
vn 0.854147 0.519643 -0.020094
vn 0.809070 0.011445 -0.587601
vn 0.809974 0.011598 -0.586351
vn 0.810486 0.010283 -0.585668
vn 0.662227 0.694773 -0.280618
vn 0.639036 0.702807 -0.312563
vn 0.636628 0.703049 -0.316903
vn 0.665509 0.693032 -0.277136
vn 0.810748 0.010212 -0.585307
vn 0.809974 0.011598 -0.586351
vn 0.812293 0.010502 -0.583155
vn 0.455436 0.678015 -0.576953
vn 0.441845 0.673601 -0.592482
vn 0.441845 0.673601 -0.592482
vn 0.458772 0.679062 -0.573066
vn 0.368667 -0.322861 -0.871691
vn 0.544652 -0.498609 -0.674347
vn 0.371534 -0.326676 -0.869049
vn 0.368667 -0.322861 -0.871691
vn -0.249003 -0.894915 -0.370303
vn -0.249003 -0.894915 -0.370303
vn -0.249003 -0.894915 -0.370303
vn -0.249003 -0.894915 -0.370303
vn 0.550145 0.317470 0.772368
vn 0.550145 0.317470 0.772368
vn 0.543500 0.347767 0.763980
vn 0.543506 0.347741 0.763988
vn 0.391112 0.728091 0.562952
vn 0.391093 0.728122 0.562926
vn 0.363400 0.769196 0.525621
vn 0.363421 0.769167 0.525649
vn 0.121405 0.973190 0.195353
vn 0.121379 0.973200 0.195317
vn 0.085694 0.985548 0.146126
vn 0.085720 0.985540 0.146162
vn -0.180224 0.957842 -0.223737
vn -0.180244 0.957832 -0.223765
vn -0.198003 0.948131 -0.248682
vn -0.198003 0.948131 -0.248682
vn -0.808000 -0.014221 0.589011
vn -0.810005 -0.011715 0.586306
vn -0.807929 -0.014424 0.589103
vn -0.809102 -0.011522 0.587556
vn -0.810005 -0.011715 0.586306
vn -0.808901 -0.011834 0.587826
vn -0.810774 -0.010310 0.585269
vn -0.810005 -0.011715 0.586306
vn -0.810502 -0.010380 0.585643
vn -0.812502 -0.010646 0.582861
vn -0.810005 -0.011715 0.586306
vn -0.812377 -0.010614 0.583036
vn 0.807943 0.014233 -0.589089
vn 0.809974 0.011598 -0.586351
vn 0.808009 0.014042 -0.589002
vn 0.808869 0.011755 -0.587872
vn 0.809974 0.011598 -0.586351
vn 0.809070 0.011445 -0.587601
vn 0.810486 0.010283 -0.585668
vn 0.809974 0.011598 -0.586351
vn 0.810748 0.010212 -0.585307
vn 0.812293 0.010502 -0.583155
vn 0.809974 0.011598 -0.586351
vn 0.812417 0.010533 -0.582982
vn -0.480153 -0.552047 -0.681687
vn -0.480153 -0.552047 -0.681687
vn -0.480153 -0.552047 -0.681687
vn -0.480153 -0.552047 -0.681687
vn -0.115169 -0.449233 0.885960
vn -0.115169 -0.449233 0.885961
vn -0.115169 -0.449233 0.885961
vn -0.304270 0.500519 0.810494
vn -0.203185 0.228460 0.952114
vn -0.204923 0.233151 0.950604
vn -0.302851 0.496714 0.813361
vn -0.493737 0.671773 0.552218
vn -0.322280 0.527189 0.786261
vn -0.325288 0.529911 0.783187
vn -0.491485 0.670054 0.556300
vn -0.709555 0.653689 0.263101
vn -0.516932 0.679780 0.520270
vn -0.520376 0.680009 0.516523
vn -0.706987 0.654735 0.267380
vn -0.942742 0.235083 -0.236587
vn -0.942742 0.235083 -0.236587
vn -0.942742 0.235083 -0.236587
vn 0.887016 -0.435435 0.153621
vn 0.887016 -0.435435 0.153621
vn 0.887016 -0.435435 0.153621
vn 0.961386 0.251623 0.111456
vn 0.851720 0.523521 -0.022329
vn 0.854147 0.519643 -0.020094
vn 0.960391 0.256234 0.109517
vn 0.833724 0.550217 -0.046540
vn 0.662227 0.694773 -0.280618
vn 0.665509 0.693032 -0.277136
vn 0.831738 0.552892 -0.050225
vn 0.639036 0.702807 -0.312563
vn 0.455436 0.678015 -0.576953
vn 0.458772 0.679062 -0.573066
vn 0.636628 0.703049 -0.316903
vn 0.064120 0.265590 -0.961951
vn 0.064120 0.265590 -0.961951
vn 0.064120 0.265590 -0.961951
vn -0.927207 -0.373988 0.020517
vn -0.571590 -0.687162 0.448434
vn -0.780675 -0.567737 0.261191
vn 0.655007 -0.613238 -0.441481
vn 0.371534 -0.326676 -0.869049
vn 0.544652 -0.498609 -0.674347
vn 0.201554 -0.935986 0.288629
vn 0.201554 -0.935986 0.288629
vn 0.201554 -0.935986 0.288629
vn 0.201553 -0.935986 0.288629
vn -0.960941 -0.209396 0.180957
vn -0.960941 -0.209396 0.180957
vn -0.960941 -0.209396 0.180957
vn -0.960941 -0.209396 0.180957
vn -0.532420 -0.845325 0.044218
vn -0.532420 -0.845325 0.044218
vn -0.530091 -0.847940 0.001409
vn -0.530092 -0.847939 0.001421
vn -0.231787 0.955735 0.181235
vn -0.231787 0.955735 0.181235
vn -0.231787 0.955735 0.181235
vn -0.231787 0.955735 0.181235
vn -0.846926 0.529443 -0.049053
vn -0.846926 0.529443 -0.049053
vn -0.845545 0.528514 -0.075677
vn -0.845549 0.528517 -0.075610
vn 0.231177 -0.922527 -0.309031
vn 0.231177 -0.922527 -0.309031
vn 0.231177 -0.922527 -0.309031
vn 0.231177 -0.922527 -0.309031
vn -0.882546 -0.226380 -0.412146
vn -0.882546 -0.226380 -0.412146
vn -0.882546 -0.226380 -0.412146
vn -0.882546 -0.226380 -0.412146
vn -0.184731 0.892105 -0.412339
vn -0.184731 0.892105 -0.412339
vn -0.184731 0.892105 -0.412339
vn -0.184731 0.892105 -0.412339
vn 0.845027 -0.528166 0.083489
vn 0.845023 -0.528164 0.083545
vn 0.846105 -0.528915 0.065989
vn 0.846105 -0.528915 0.065989
vn 0.930874 0.194855 -0.309038
vn 0.930874 0.194855 -0.309038
vn 0.930874 0.194855 -0.309038
vn 0.930874 0.194855 -0.309038
vn 0.529620 0.848211 0.006453
vn 0.529618 0.848211 0.006476
vn 0.531685 0.846502 -0.027322
vn 0.531685 0.846502 -0.027322
vn 0.929386 0.229826 0.288829
vn 0.929386 0.229826 0.288829
vn 0.929386 0.229826 0.288829
vn 0.929386 0.229826 0.288829
vn -0.974645 -0.223634 -0.007391
vn -0.974645 -0.223634 -0.007391
vn -0.972617 -0.225952 -0.054426
vn -0.972625 -0.225947 -0.054299
vn 0.064784 -0.043928 -0.996932
vn 0.064784 -0.043928 -0.996932
vn 0.064784 -0.043928 -0.996932
vn 0.064784 -0.043928 -0.996932
vn 0.972110 0.226256 0.061735
vn 0.972103 0.226260 0.061825
vn 0.974202 0.224470 0.023340
vn 0.974202 0.224470 0.023340
vn -0.064566 0.043851 0.996950
vn -0.064566 0.043851 0.996949
vn -0.064566 0.043851 0.996949
vn -0.064566 0.043851 0.996950
vn -0.222831 0.973129 -0.058017
vn -0.222831 0.973129 -0.058017
vn -0.223294 0.973428 -0.050763
vn -0.223293 0.973428 -0.050785
vn 0.221730 -0.972300 0.073958
vn 0.221730 -0.972300 0.073958
vn 0.222790 -0.973127 0.058215
vn 0.222793 -0.973129 0.058173
vn -0.533595 -0.828842 0.168221
vn -0.533595 -0.828841 0.168221
vn -0.533595 -0.828842 0.168221
vn -0.844213 0.528182 0.091254
vn -0.844213 0.528182 0.091254
vn -0.844213 0.528182 0.091254
vn -0.493656 -0.828654 -0.263889
vn -0.493656 -0.828654 -0.263889
vn -0.493656 -0.828654 -0.263889
vn -0.798046 0.497974 -0.339329
vn -0.798046 0.497974 -0.339329
vn -0.798046 0.497974 -0.339329
vn 0.832417 -0.521177 -0.188300
vn 0.832417 -0.521177 -0.188300
vn 0.832417 -0.521177 -0.188300
vn 0.528639 0.806861 -0.263659
vn 0.528639 0.806861 -0.263659
vn 0.528639 0.806861 -0.263659
vn 0.822262 -0.513354 0.245667
vn 0.822262 -0.513354 0.245667
vn 0.822262 -0.513354 0.245667
vn 0.511178 0.842749 0.168731
vn 0.511178 0.842749 0.168731
vn 0.511178 0.842749 0.168731
vn -0.529734 -0.848154 -0.004048
vn -0.529732 -0.848155 -0.004076
vn -0.531147 -0.847086 0.018147
vn -0.531147 -0.847086 0.018147
vn 0.223169 -0.973371 0.052380
vn 0.223169 -0.973372 0.052372
vn 0.222976 -0.973240 0.055544
vn 0.222976 -0.973240 0.055544
vn 0.846392 -0.529092 0.060682
vn 0.846392 -0.529092 0.060682
vn 0.845497 -0.528523 0.076147
vn 0.845492 -0.528520 0.076223
vn 0.973927 0.224804 0.030480
vn 0.973927 0.224804 0.030480
vn 0.972652 0.225910 0.053968
vn 0.972649 0.225912 0.054016
vn 0.531092 0.847138 -0.017287
vn 0.531092 0.847138 -0.017287
vn 0.530124 0.847918 -0.001793
vn 0.530124 0.847918 -0.001792
vn -0.222821 0.973138 -0.057903
vn -0.222822 0.973139 -0.057894
vn -0.223026 0.973275 -0.054731
vn -0.223026 0.973275 -0.054731
vn -0.845111 0.528252 -0.082085
vn -0.845117 0.528256 -0.081996
vn -0.846417 0.529150 -0.059819
vn -0.846417 0.529150 -0.059819
vn -0.972269 -0.226156 -0.059560
vn -0.972275 -0.226152 -0.059466
vn -0.973954 -0.224798 -0.029669
vn -0.973954 -0.224798 -0.029669
vn -0.527734 -0.848870 -0.030276
vn -0.527723 -0.848872 -0.030419
vn -0.969530 -0.227396 -0.091123
vn -0.969534 -0.227394 -0.091082
vn -0.843718 0.527312 -0.100413
vn -0.843712 0.527308 -0.100481
vn -0.223202 0.973379 -0.052090
vn -0.223178 0.973365 -0.052455
vn 0.528213 0.848750 0.024773
vn 0.528236 0.848745 0.024482
vn 0.970072 0.227201 0.085672
vn 0.970063 0.227204 0.085770
vn 0.844184 -0.527633 0.094647
vn 0.844172 -0.527623 0.094807
vn 0.223511 -0.973571 0.046923
vn 0.223518 -0.973575 0.046811
vn -0.284451 -0.028457 0.958268
vn -0.284458 -0.028457 0.958266
vn -0.284455 -0.028456 0.958267
vn -0.284458 -0.028457 0.958266
vn -0.284457 -0.028452 0.958266
vn -0.284455 -0.028456 0.958267
vn -0.284457 -0.028452 0.958266
vn -0.284454 -0.028452 0.958267
vn -0.284455 -0.028456 0.958267
vn -0.284454 -0.028452 0.958267
vn -0.284453 -0.028459 0.958268
vn -0.284455 -0.028456 0.958267
vn -0.284453 -0.028459 0.958268
vn -0.284455 -0.028458 0.958267
vn -0.284455 -0.028456 0.958267
vn -0.284455 -0.028458 0.958267
vn -0.284457 -0.028456 0.958267
vn -0.284455 -0.028456 0.958267
vn -0.284457 -0.028456 0.958267
vn -0.284453 -0.028455 0.958267
vn -0.284455 -0.028456 0.958267
vn -0.284453 -0.028455 0.958267
vn -0.284455 -0.028457 0.958267
vn -0.284455 -0.028456 0.958267
vn -0.284455 -0.028457 0.958267
vn -0.284457 -0.028455 0.958267
vn -0.284455 -0.028456 0.958267
vn -0.284457 -0.028455 0.958267
vn -0.284456 -0.028452 0.958267
vn -0.284455 -0.028456 0.958267
vn -0.284456 -0.028452 0.958267
vn -0.284451 -0.028455 0.958268
vn -0.284455 -0.028456 0.958267
vn -0.284451 -0.028455 0.958268
vn -0.284451 -0.028457 0.958268
vn -0.284455 -0.028456 0.958267
vn 0.281603 0.952985 0.111891
vn 0.281603 0.952985 0.111891
vn 0.281603 0.952985 0.111891
vn 0.281603 0.952985 0.111891
vn 0.702073 0.674471 0.228435
vn 0.702073 0.674471 0.228435
vn 0.702073 0.674471 0.228435
vn 0.702073 0.674471 0.228435
vn 0.934425 0.215234 0.283769
vn 0.934425 0.215234 0.283769
vn 0.934425 0.215234 0.283769
vn 0.934425 0.215234 0.283769
vn 0.916402 -0.301667 0.263069
vn 0.916402 -0.301667 0.263069
vn 0.916402 -0.301667 0.263069
vn 0.916402 -0.301667 0.263069
vn 0.652821 -0.737755 0.171877
vn 0.652821 -0.737755 0.171877
vn 0.652821 -0.737755 0.171877
vn 0.652821 -0.737755 0.171877
vn 0.214327 -0.976148 0.034635
vn 0.214327 -0.976148 0.034635
vn 0.214327 -0.976148 0.034635
vn 0.214327 -0.976148 0.034635
vn -0.281602 -0.952985 -0.111891
vn -0.281602 -0.952985 -0.111891
vn -0.281602 -0.952985 -0.111891
vn -0.281602 -0.952985 -0.111891
vn -0.702074 -0.674470 -0.228434
vn -0.702074 -0.674470 -0.228434
vn -0.702074 -0.674470 -0.228434
vn -0.702074 -0.674470 -0.228434
vn -0.934425 -0.215233 -0.283769
vn -0.934425 -0.215233 -0.283769
vn -0.934425 -0.215233 -0.283769
vn -0.934425 -0.215233 -0.283769
vn -0.916399 0.301677 -0.263068
vn -0.916399 0.301677 -0.263068
vn -0.916399 0.301677 -0.263068
vn -0.916399 0.301676 -0.263068
vn -0.652827 0.737749 -0.171879
vn -0.652827 0.737749 -0.171879
vn -0.652827 0.737749 -0.171879
vn -0.652827 0.737749 -0.171879
vn -0.214327 0.976148 -0.034634
vn -0.214327 0.976148 -0.034634
vn -0.214327 0.976148 -0.034634
vn -0.214327 0.976148 -0.034634
vn 0.284457 0.028457 -0.958266
vn 0.284457 0.028457 -0.958266
vn 0.284457 0.028457 -0.958266
vn 0.284456 0.028457 -0.958267
vn 0.284456 0.028457 -0.958267
vn 0.284456 0.028457 -0.958267
vn 0.284455 0.028457 -0.958267
vn 0.284455 0.028457 -0.958267
vn 0.284455 0.028457 -0.958267
vn 0.284454 0.028460 -0.958267
vn 0.284454 0.028460 -0.958267
vn 0.284454 0.028460 -0.958267
vn 0.284451 0.028455 -0.958268
vn 0.284451 0.028455 -0.958268
vn 0.284451 0.028455 -0.958268
vn 0.284460 0.028459 -0.958265
vn 0.284460 0.028459 -0.958265
vn 0.284460 0.028459 -0.958265
vn 0.284449 0.028459 -0.958269
vn 0.284449 0.028459 -0.958269
vn 0.284449 0.028459 -0.958269
vn 0.284457 0.028454 -0.958266
vn 0.284457 0.028454 -0.958266
vn 0.284457 0.028454 -0.958267
vn 0.284456 0.028455 -0.958267
vn 0.284456 0.028455 -0.958267
vn 0.284456 0.028455 -0.958267
vn 0.284456 0.028455 -0.958267
vn 0.284456 0.028455 -0.958267
vn 0.284456 0.028455 -0.958267
vn 0.284457 0.028460 -0.958266
vn 0.284457 0.028460 -0.958266
vn 0.284457 0.028460 -0.958266
vn 0.284453 0.028458 -0.958268
vn 0.284453 0.028458 -0.958268
vn 0.284453 0.028458 -0.958268
vn 0.180962 -0.913275 0.364939
vn 0.180962 -0.913276 0.364939
vn 0.180962 -0.913275 0.364939
vn 0.180962 -0.913276 0.364939
vn -0.954854 -0.215893 0.204071
vn -0.954854 -0.215893 0.204071
vn -0.954854 -0.215893 0.204071
vn -0.954854 -0.215893 0.204071
vn -0.511867 -0.858703 -0.024929
vn -0.511867 -0.858703 -0.024929
vn -0.500809 -0.860763 -0.090984
vn -0.501387 -0.860752 -0.087847
vn -0.278132 0.906531 0.317559
vn -0.278132 0.906531 0.317559
vn -0.278132 0.906531 0.317559
vn -0.278132 0.906531 0.317559
vn -0.854663 0.514099 -0.072481
vn -0.854663 0.514099 -0.072481
vn -0.850484 0.513509 -0.113958
vn -0.850786 0.513571 -0.111388
vn 0.282292 -0.835133 -0.472084
vn 0.282292 -0.835133 -0.472084
vn 0.282292 -0.835133 -0.472084
vn 0.282292 -0.835133 -0.472084
vn -0.742058 -0.236026 -0.627408
vn -0.742058 -0.236026 -0.627408
vn -0.742058 -0.236026 -0.627408
vn -0.742058 -0.236026 -0.627408
vn -0.137097 0.836104 -0.531163
vn -0.137097 0.836104 -0.531163
vn -0.137097 0.836104 -0.531163
vn -0.137097 0.836104 -0.531163
vn 0.849282 -0.513228 0.123763
vn 0.849066 -0.513176 0.125448
vn 0.852267 -0.513828 0.098092
vn 0.852267 -0.513828 0.098092
vn 0.906749 0.189126 -0.376878
vn 0.906749 0.189126 -0.376878
vn 0.906749 0.189126 -0.376878
vn 0.906749 0.189126 -0.376878
vn 0.499139 0.860737 0.099964
vn 0.498675 0.860719 0.102401
vn 0.507890 0.859945 0.050425
vn 0.507890 0.859945 0.050425
vn 0.841814 0.247479 0.479690
vn 0.841814 0.247479 0.479690
vn 0.841814 0.247479 0.479690
vn 0.841814 0.247479 0.479690
vn -0.967106 -0.243056 -0.075036
vn -0.967106 -0.243056 -0.075036
vn -0.957484 -0.247089 -0.148904
vn -0.958402 -0.246831 -0.143317
vn 0.155210 -0.047811 -0.986724
vn 0.155210 -0.047811 -0.986724
vn 0.155210 -0.047811 -0.986724
vn 0.155210 -0.047811 -0.986724
vn 0.956446 0.247364 0.154990
vn 0.955637 0.247565 0.159591
vn 0.964557 0.244518 0.099204
vn 0.964557 0.244518 0.099203
vn -0.155103 0.047551 0.986753
vn -0.155103 0.047551 0.986753
vn -0.155103 0.047551 0.986753
vn -0.155103 0.047551 0.986753
vn -0.245094 0.969257 -0.021675
vn -0.245094 0.969257 -0.021675
vn -0.246624 0.969052 -0.010730
vn -0.246609 0.969055 -0.010839
vn 0.241602 -0.969299 0.045687
vn 0.241602 -0.969299 0.045687
vn 0.245025 -0.969266 0.022049
vn 0.245059 -0.969263 0.021812
vn -0.530637 -0.831977 0.161985
vn -0.530637 -0.831977 0.161985
vn -0.530637 -0.831977 0.161985
vn -0.853308 0.503666 0.134855
vn -0.853308 0.503666 0.134855
vn -0.853308 0.503666 0.134855
vn -0.394940 -0.797448 -0.456179
vn -0.394940 -0.797448 -0.456179
vn -0.394940 -0.797448 -0.456179
vn -0.735497 0.462372 -0.495234
vn -0.735497 0.462372 -0.495234
vn -0.735497 0.462372 -0.495234
vn 0.832112 -0.485136 -0.268762
vn 0.832112 -0.485136 -0.268762
vn 0.832112 -0.485136 -0.268762
vn 0.531813 0.791646 -0.300785
vn 0.531813 0.791646 -0.300785
vn 0.531813 0.791646 -0.300785
vn 0.791455 -0.489625 0.365877
vn 0.791455 -0.489625 0.365877
vn 0.791455 -0.489625 0.365877
vn 0.439650 0.833948 0.333526
vn 0.439650 0.833948 0.333526
vn 0.439650 0.833948 0.333526
vn -0.499409 -0.860761 -0.098398
vn -0.499718 -0.860768 -0.096754
vn -0.505536 -0.860411 -0.064237
vn -0.505536 -0.860411 -0.064237
vn 0.246273 -0.969110 0.013222
vn 0.246280 -0.969109 0.013170
vn 0.245621 -0.969200 0.017957
vn 0.245621 -0.969200 0.017957
vn 0.853053 -0.513995 0.090055
vn 0.853053 -0.513995 0.090055
vn 0.850615 -0.513559 0.112746
vn 0.850433 -0.513520 0.114286
vn 0.963228 0.245134 0.110010
vn 0.963228 0.245134 0.110010
vn 0.958272 0.246869 0.144118
vn 0.957801 0.247002 0.146994
vn 0.505303 0.860451 0.065529
vn 0.505302 0.860451 0.065529
vn 0.501302 0.860762 0.088234
vn 0.501093 0.860765 0.089380
vn -0.245091 0.969261 -0.021524
vn -0.245099 0.969260 -0.021473
vn -0.245750 0.969189 -0.016736
vn -0.245750 0.969189 -0.016736
vn -0.849310 0.513248 -0.123483
vn -0.849588 0.513314 -0.121277
vn -0.853191 0.513992 -0.088756
vn -0.853191 0.513992 -0.088756
vn -0.956326 -0.247381 -0.155705
vn -0.956954 -0.247219 -0.152060
vn -0.963388 -0.245051 -0.108784
vn -0.963388 -0.245051 -0.108784
vn -0.491781 -0.859915 -0.136742
vn -0.491807 -0.859920 -0.136617
vn -0.947258 -0.249137 -0.201576
vn -0.947391 -0.249117 -0.200977
vn -0.845616 0.512255 -0.150099
vn -0.845567 0.512240 -0.150422
vn -0.246363 0.969096 -0.012576
vn -0.246235 0.969116 -0.013496
vn 0.493590 0.860213 0.128072
vn 0.493538 0.860205 0.128326
vn 0.949215 0.248842 0.192530
vn 0.948916 0.248891 0.193936
vn 0.846917 -0.512629 0.141219
vn 0.846808 -0.512598 0.141982
vn 0.247394 -0.968902 0.005068
vn 0.247433 -0.968893 0.004786
s off
g polySurface162 group11_pCylinder5
usemtl lambert4SG
f 1/1/1 2/2/2 13/3/3
f 2/2/4 3/4/5 13/3/6
f 3/4/7 4/5/8 13/3/9
f 4/5/10 5/6/11 13/3/12
f 5/6/13 6/7/14 13/3/15
f 6/7/16 7/8/17 13/3/18
f 7/8/19 8/9/20 13/3/21
f 8/9/22 9/10/23 13/3/24
f 9/10/25 10/11/26 13/3/27
f 10/11/28 11/12/29 13/3/30
f 11/12/31 12/13/32 13/3/33
f 12/13/34 1/1/35 13/3/36
f 15/14/37 14/15/38 1/16/39 12/17/40
f 16/18/41 15/14/42 12/17/43 11/19/44
f 17/20/45 16/18/46 11/19/47 10/21/48
f 18/22/49 17/20/50 10/21/51 9/23/52
f 19/24/53 18/25/54 9/26/55 8/27/56
f 20/28/57 19/24/58 8/27/59 7/29/60
f 21/30/61 20/28/62 7/29/63 6/31/64
f 22/32/65 21/30/66 6/31/67 5/33/68
f 23/34/69 22/32/70 5/33/71 4/35/72
f 24/36/73 23/34/74 4/35/75 3/37/76
f 25/38/77 24/36/78 3/37/79 2/39/80
f 14/15/81 25/38/82 2/39/83 1/16/84
f 14/40/85 15/41/86 26/42/87
f 15/41/88 16/43/89 26/42/90
f 16/43/91 17/44/92 26/42/93
f 17/44/94 18/45/95 26/42/96
f 18/45/97 19/46/98 26/42/99
f 19/46/100 20/47/101 26/42/102
f 20/47/103 21/48/104 26/42/105
f 21/48/106 22/49/107 26/42/108
f 22/49/109 23/50/110 26/42/111
f 23/50/112 24/51/113 26/42/114
f 24/51/115 25/52/116 26/42/117
f 25/52/118 14/40/119 26/42/120
f 27/53/121 64/54/122 65/55/123 29/56/124
f 28/57/125 32/58/126 33/59/127 27/53/128
f 29/60/129 45/61/130 46/62/131 28/63/132
f 30/64/133 64/54/134 33/59/135
f 31/65/136 36/66/137 37/67/138 30/64/139
f 32/68/140 49/69/141 50/70/142 31/71/143
f 34/72/144 64/54/145 37/67/146
f 35/73/147 40/74/148 41/75/149 34/72/150
f 36/76/151 53/77/152 54/78/153 35/79/154
f 38/80/155 64/54/156 41/75/157
f 39/81/158 43/82/159 44/83/160 38/80/161
f 40/84/162 57/85/163 58/86/164 39/87/165
f 42/88/166 63/89/167 64/54/168 44/83/169
f 43/90/170 61/91/171 62/92/172 42/93/173
f 45/94/174 66/95/175 67/96/176 47/97/177
f 47/97/178 48/98/179 49/99/180 46/100/181
f 48/98/182 67/96/183 51/101/184
f 51/101/185 52/102/186 53/103/187 50/104/188
f 52/102/189 67/96/190 55/105/191
f 55/105/192 56/106/193 57/107/194 54/108/195
f 56/106/196 67/96/197 59/109/198
f 59/109/199 60/110/200 61/111/201 58/112/202
f 60/110/203 67/96/204 68/113/205 62/114/206
f 63/115/207 68/116/208 66/117/209 65/118/210
f 28/63/211 46/62/212 49/69/213 32/68/214
f 31/71/215 50/70/216 53/77/217 36/76/218
f 35/79/219 54/78/220 57/85/221 40/84/222
f 39/87/223 58/86/224 61/91/225 43/90/226
f 33/59/227 64/54/228 27/53/229
f 37/67/230 64/54/231 30/64/232
f 41/75/233 64/54/234 34/72/235
f 44/83/236 64/54/237 38/80/238
f 47/97/239 67/96/240 48/98/241
f 51/101/242 67/96/243 52/102/244
f 55/105/245 67/96/246 56/106/247
f 59/109/248 67/96/249 60/110/250
f 68/116/251 63/115/252 42/93/253 62/92/254
f 27/53/255 29/56/256 28/57/257
f 30/64/258 33/59/259 32/58/260 31/65/261
f 34/72/262 37/67/263 36/66/264 35/73/265
f 38/80/266 41/75/267 40/74/268 39/81/269
f 42/88/270 44/83/271 43/82/272
f 45/94/273 47/97/274 46/100/275
f 48/98/276 51/101/277 50/104/278 49/99/279
f 52/102/280 55/105/281 54/108/282 53/103/283
f 56/106/284 59/109/285 58/112/286 57/107/287
f 60/110/288 62/114/289 61/111/290
f 63/89/291 65/55/292 64/54/293
f 66/95/294 68/113/295 67/96/296
f 69/119/297 71/120/298 87/121/299 89/122/300
f 70/123/301 69/119/302 74/124/303 73/125/304
s 1
f 71/126/305 70/127/306 109/128/307 110/129/308
s off
f 72/130/309 74/124/310 90/131/311 92/132/312
s 2
f 73/133/313 72/134/314 115/135/315 116/136/316
s off
f 75/137/317 77/138/318 82/139/319 81/140/320
f 77/138/321 76/141/322 79/142/323 78/143/324
f 78/143/325 80/144/326 86/145/327 85/146/328
s 3
f 111/147/329 112/148/330 88/149/331 87/150/332
s off
f 83/151/333 82/139/334 85/146/335 84/152/336
s 4
f 113/153/337 114/154/338 92/155/339 91/156/340
s off
f 89/122/341 88/149/342 91/156/343 90/131/344
s 5
f 70/127/345 73/133/346 116/136/347 109/128/348
s off
f 77/138/349 78/143/350 85/146/351 82/139/352
s 6
f 112/148/353 113/153/354 91/156/355 88/149/356
s off
f 89/122/357 90/131/358 74/124/359 69/119/360
s 7
f 72/134/361 92/155/362 114/154/363 115/135/364
s 8
f 87/150/365 71/157/366 110/158/367 111/147/368
s off
f 69/119/369 70/159/370 71/120/371
f 72/130/372 73/160/373 74/124/374
f 75/161/375 76/141/376 77/138/377
f 78/143/378 79/142/379 80/162/380
f 81/163/381 82/139/382 83/151/383
f 84/152/384 85/146/385 86/164/386
f 87/121/387 88/165/388 89/122/389
f 90/131/390 91/166/391 92/132/392
s 1
f 101/167/393 102/168/394 76/169/395 75/170/396
s 8
f 108/171/397 101/172/398 75/173/399 81/174/400
s 3
f 81/174/401 83/175/402 107/176/403 108/171/404
s 6
f 83/175/405 84/177/406 106/178/407 107/176/408
s 4
f 84/177/409 86/145/410 105/179/411 106/178/412
s 7
f 104/180/413 105/179/414 86/145/415 80/144/416
s 2
f 103/181/417 104/180/418 80/144/419 79/182/420
s 5
f 102/168/421 103/181/422 79/182/423 76/169/424
s 1
f 94/183/425 93/184/426 102/168/394 101/167/393
s 5
f 93/184/427 100/185/428 103/181/422 102/168/421
s 2
f 100/185/429 99/186/430 104/180/418 103/181/417
s 7
f 99/186/431 98/187/432 105/179/414 104/180/413
s 4
f 106/178/412 105/179/411 98/187/433 97/188/434
s 6
f 107/176/408 106/178/407 97/188/435 96/189/436
s 3
f 108/171/404 107/176/403 96/189/437 95/190/438
s 8
f 95/190/439 94/191/440 101/172/398 108/171/397
s 1
f 110/129/308 109/128/307 93/184/426 94/183/425
s 8
f 111/147/368 110/158/367 94/191/440 95/190/439
s 3
f 95/190/438 96/189/437 112/148/330 111/147/329
s 6
f 96/189/436 97/188/435 113/153/354 112/148/353
s 4
f 97/188/434 98/187/433 114/154/338 113/153/337
s 7
f 115/135/364 114/154/363 98/187/432 99/186/431
s 2
f 116/136/316 115/135/315 99/186/430 100/185/429
s 5
f 109/128/348 116/136/347 100/185/428 93/184/427
s off
f 117/192/441 118/193/442 129/194/443
f 118/193/444 119/195/445 129/194/446
f 119/195/447 120/196/448 129/194/449
f 120/196/450 121/197/451 129/194/452
f 121/197/453 122/198/454 129/194/455
f 122/198/456 123/199/457 129/194/458
f 123/199/459 124/200/460 129/194/461
f 124/200/462 125/201/463 129/194/464
f 125/201/465 126/202/466 129/194/467
f 126/202/468 127/203/469 129/194/470
f 127/203/471 128/204/472 129/194/473
f 128/204/474 117/192/475 129/194/476
f 131/205/477 130/206/478 117/207/479 128/208/480
f 132/209/481 131/205/482 128/208/483 127/210/484
f 133/211/485 132/209/486 127/210/487 126/212/488
f 134/213/489 133/211/490 126/212/491 125/214/492
f 135/215/493 134/213/494 125/214/495 124/216/496
f 136/217/497 135/215/498 124/216/499 123/218/500
f 137/219/501 136/220/502 123/221/503 122/222/504
f 138/223/505 137/219/506 122/222/507 121/224/508
f 139/225/509 138/223/510 121/224/511 120/226/512
f 140/227/513 139/225/514 120/226/515 119/228/516
f 141/229/517 140/227/518 119/228/519 118/230/520
f 130/206/521 141/229/522 118/230/523 117/207/524
f 130/231/525 131/232/526 142/233/527
f 131/232/528 132/234/529 142/233/530
f 132/234/531 133/235/532 142/233/533
f 133/235/534 134/236/535 142/233/536
f 134/236/537 135/237/538 142/233/539
f 135/237/540 136/238/541 142/233/542
f 136/238/543 137/239/544 142/233/545
f 137/239/546 138/240/547 142/233/548
f 138/240/549 139/241/550 142/233/551
f 139/241/552 140/242/553 142/233/554
f 140/242/555 141/243/556 142/233/557
f 141/243/558 130/231/559 142/233/560
f 143/244/561 145/245/562 161/246/563 163/247/564
f 144/248/565 143/244/566 148/249/567 147/250/568
s 17
f 145/251/569 144/252/570 183/253/571 184/254/572
s off
f 146/255/573 148/249/574 164/256/575 166/257/576
s 18
f 147/258/577 146/259/578 189/260/579 190/261/580
s off
f 149/262/581 151/263/582 156/264/583 155/265/584
f 151/263/585 150/266/586 153/267/587 152/268/588
f 152/268/589 154/269/590 160/270/591 159/271/592
s 19
f 185/272/593 186/273/594 162/274/595 161/275/596
s off
f 157/276/597 156/264/598 159/271/599 158/277/600
s 20
f 187/278/601 188/279/602 166/280/603 165/281/604
s off
f 163/247/605 162/274/606 165/281/607 164/256/608
s 21
f 144/252/609 147/258/610 190/261/611 183/253/612
s off
f 151/263/613 152/268/614 159/271/615 156/264/616
s 22
f 186/273/617 187/278/618 165/281/619 162/274/620
s off
f 163/247/621 164/256/622 148/249/623 143/244/624
s 23
f 146/259/625 166/280/626 188/279/627 189/260/628
s 24
f 161/275/629 145/282/630 184/283/631 185/272/632
s off
f 143/244/633 144/284/634 145/245/635
f 146/255/636 147/285/637 148/249/638
f 149/286/639 150/266/640 151/263/641
f 152/268/642 153/267/643 154/287/644
f 155/288/645 156/264/646 157/276/647
f 158/277/648 159/271/649 160/289/650
f 161/246/651 162/290/652 163/247/653
f 164/256/654 165/291/655 166/257/656
s 17
f 175/292/657 176/293/658 150/294/659 149/295/660
s 24
f 182/296/661 175/297/662 149/298/663 155/299/664
s 19
f 155/299/665 157/300/666 181/301/667 182/296/668
s 22
f 157/300/669 158/302/670 180/303/671 181/301/672
s 20
f 158/302/673 160/270/674 179/304/675 180/303/676
s 23
f 178/305/677 179/304/678 160/270/679 154/269/680
s 18
f 177/306/681 178/305/682 154/269/683 153/307/684
s 21
f 176/293/685 177/306/686 153/307/687 150/294/688
s 17
f 168/308/689 167/309/690 176/293/658 175/292/657
s 21
f 167/309/691 174/310/692 177/306/686 176/293/685
s 18
f 174/310/693 173/311/694 178/305/682 177/306/681
s 23
f 173/311/695 172/312/696 179/304/678 178/305/677
s 20
f 180/303/676 179/304/675 172/312/697 171/313/698
s 22
f 181/301/672 180/303/671 171/313/699 170/314/700
s 19
f 182/296/668 181/301/667 170/314/701 169/315/702
s 24
f 169/315/703 168/316/704 175/297/662 182/296/661
s 17
f 184/254/572 183/253/571 167/309/690 168/308/689
s 24
f 185/272/632 184/283/631 168/316/704 169/315/703
s 19
f 169/315/702 170/314/701 186/273/594 185/272/593
s 22
f 170/314/700 171/313/699 187/278/618 186/273/617
s 20
f 171/313/698 172/312/697 188/279/602 187/278/601
s 23
f 189/260/628 188/279/627 172/312/696 173/311/695
s 18
f 190/261/580 189/260/579 173/311/694 174/310/693
s 21
f 183/253/612 190/261/611 174/310/692 167/309/691
