# This file uses meters as units for non-parametric coordinates.

mtllib honeyjar.mtl
g default
v -60.446808 82.384552 60.446804
v 60.446808 82.384583 60.446796
v -46.485657 117.267212 46.485641
v 46.485657 117.267212 46.485641
v -46.485657 117.267212 -46.485649
v 46.485657 117.267212 -46.485638
v -60.446808 82.384552 -60.446804
v 60.446808 82.384552 -60.446808
v -65.740631 117.267212 -0.000004
v 68.459351 101.200729 -68.459366
v 0.000000 82.384552 -85.484695
v -68.459351 101.200729 -68.459358
v 85.484680 82.384567 -0.000004
v -85.484680 82.384552 0.000000
v 0.000000 82.384567 85.484695
v 68.459351 101.200729 68.459366
v 0.000000 117.267212 65.740631
v -68.459351 101.200729 68.459366
v 65.740631 117.267212 0.000002
v 0.000000 117.267212 -65.740631
v 0.000000 101.200729 93.496452
v 0.000000 117.267212 0.000001
v 0.000000 101.200729 -93.496452
v 93.496460 101.200729 0.000001
v -93.496460 101.200729 -0.000001
v -37.095215 91.828613 86.818573
v 37.095215 91.828613 86.818573
v 34.737823 111.501389 81.301262
v -34.737823 111.501389 81.301262
v -32.148865 117.267212 32.148865
v 32.148865 117.267212 32.148865
v 32.148865 117.267212 -32.148865
v -32.148865 117.267212 -32.148865
v -34.737823 111.501389 -81.301270
v 34.737823 111.501389 -81.301262
v 37.095215 91.828613 -86.818573
v -37.095215 91.828613 -86.818573
v 86.818573 91.828613 37.095196
v 86.818573 91.828613 -37.095207
v 81.301270 111.501389 -34.737812
v 81.301270 111.501389 34.737812
v -86.818604 91.828613 -37.095196
v -86.818604 91.828613 37.095200
v -81.301270 111.501389 34.737812
v -81.301270 111.501389 -34.737812
v 0.000000 91.009460 93.132622
v 37.324677 101.200729 87.214088
v 0.000000 112.268433 87.214088
v -37.324677 101.200729 87.214066
v 0.000000 117.267212 33.557701
v 33.557709 117.267212 0.000002
v 0.000000 117.267212 -33.557697
v -33.557709 117.267212 -0.000001
v 0.000000 112.268433 -87.214066
v 37.324677 101.200729 -87.214088
v 0.000000 91.009460 -93.132629
v -37.324677 101.200729 -87.214066
v 93.132629 91.009460 0.000001
v 87.214081 101.200729 -37.324669
v 87.214081 112.268433 -0.000002
v 87.214050 101.200729 37.324669
v -93.132629 91.009460 -0.000001
v -87.214111 101.200729 37.324669
v -87.214111 112.268433 0.000002
v -87.214050 101.200729 -37.324669
v -32.713562 82.384552 78.977554
v 32.713562 82.384567 78.977554
v 68.073639 92.647720 68.073639
v 63.747589 110.734329 63.747578
v 25.157837 117.267212 60.736423
v -25.157837 117.267212 60.736423
v -63.747589 110.734329 63.747578
v -68.073639 92.647720 68.073639
v 60.736420 117.267212 25.157854
v 60.736420 117.267212 -25.157843
v 25.157837 117.267212 -60.736423
v -25.157837 117.267212 -60.736423
v -60.736420 117.267212 -25.157852
v -60.736420 117.267212 25.157848
v 63.747589 110.734329 -63.747578
v 68.073639 92.647720 -68.073639
v 32.713562 82.384552 -78.977554
v -32.713562 82.384552 -78.977547
v -68.073639 92.647720 -68.073639
v -63.747589 110.734329 -63.747578
v 78.977539 82.384552 -32.713570
v 78.977539 82.384567 32.713577
v -78.977539 82.384552 32.713577
v -78.977539 82.384552 -32.713570
v -51.328522 73.609085 51.328537
v -27.778809 73.609100 67.063965
v 0.000000 73.609116 72.589508
v 27.778809 73.609116 67.063965
v 51.328552 73.609116 51.328533
v -51.328522 73.609085 -51.328537
v -27.778809 73.609085 -67.063957
v 0.000000 73.609085 -72.589508
v 27.778809 73.609085 -67.063965
v 51.328522 73.609085 -51.328541
v -67.063965 73.609085 -27.778801
v -72.589478 73.609085 0.000000
v -67.063965 73.609085 27.778803
v 67.063965 73.609100 -27.778801
v 72.589508 73.609116 -0.000003
v 67.063965 73.609116 27.778803
v -61.574005 75.165512 59.618328
v 59.618622 75.276337 61.574013
v -59.618622 75.439148 -61.574013
v 61.574005 75.549973 -59.618324
v -85.310852 75.279388 -1.382882
v 75.852112 59.448566 -75.852112
v -75.852112 59.448566 -75.852097
v 75.852112 59.448566 75.852112
v -1.382660 75.164261 85.310631
v -75.852112 59.448566 75.852112
v 85.310852 75.436111 1.382884
v 1.382660 75.551224 -85.310646
v 0.000000 59.448566 104.208275
v 0.000000 59.448566 -104.208267
v 104.208252 59.448566 0.000002
v -104.208252 59.448559 0.000000
v 41.434570 59.448566 97.099594
v -41.434570 59.448566 97.099579
v 41.434570 59.448566 -97.099594
v -41.434570 59.448566 -97.099579
v 97.099609 59.448566 -41.434570
v 97.099579 59.448566 41.434574
v -97.099609 59.448566 41.434574
v -97.099609 59.448566 -41.434570
v 31.565338 75.208969 79.449585
v -34.120178 75.149002 78.391167
v 78.391449 75.356094 34.120289
v 79.449707 75.504196 -31.565050
v 34.120178 75.566498 -78.391182
v -31.565338 75.506516 -79.449585
v -78.391479 75.359390 -34.120296
v -79.449707 75.211288 31.565058
v -61.254852 83.977066 58.952530
v -34.031799 83.957611 77.906258
v -79.152405 84.030960 31.023823
v -1.627747 83.975571 84.999451
v -84.999695 84.111115 -1.627985
v 31.024139 84.028214 79.152260
v 58.952881 84.107529 61.254845
v 77.906586 84.201416 34.031940
v 84.999695 84.295609 1.627987
v 79.152405 84.375763 -31.023815
v 61.254852 84.429657 -58.952530
v 34.031799 84.449097 -77.906258
v 1.627747 84.431137 -84.999451
v -77.906555 84.205307 -34.031948
v -31.024139 84.378494 -79.152260
v -58.952881 84.299179 -61.254852
v -48.567566 83.962769 69.756874
v -71.565552 84.000137 45.860912
v -18.175659 83.962006 83.032974
v -83.668274 84.068466 14.983048
v 14.983337 83.997986 83.668068
v 45.861267 84.065247 71.565453
v 69.757233 84.153519 48.567638
v 83.033264 84.249390 18.175852
v 83.668274 84.338257 -14.983041
v 71.565521 84.406570 -45.860912
v 48.567566 84.443954 -69.756874
v 18.175659 84.444717 -83.032982
v -83.033264 84.157333 -18.175856
v -14.983337 84.408722 -83.668068
v -45.861267 84.341461 -71.565453
v -69.757233 84.253189 -48.567650
v 21.155853 59.448566 102.427841
v 15.388702 75.183289 83.955742
v 59.959045 59.448566 88.236664
v 46.498840 75.240417 71.890144
v -59.959045 59.448566 88.236656
v -48.797699 75.153366 70.353859
v -21.155853 59.448566 102.427826
v -18.100403 75.152725 83.416267
v -46.498840 75.475067 -71.890144
v -59.959045 59.448566 -88.236656
v -15.388702 75.532181 -83.955742
v -21.155853 59.448566 -102.427826
v 18.100403 75.562759 -83.416267
v 21.155853 59.448566 -102.427834
v 48.797699 75.562119 -70.353859
v 59.959045 59.448566 -88.236664
v 102.427826 59.448566 -21.155848
v 83.955933 75.472321 -15.388451
v 88.236664 59.448566 -59.959034
v 71.890198 75.530365 -46.498524
v 88.236664 59.448566 59.959042
v 70.354156 75.315414 48.797745
v 102.427826 59.448566 21.155853
v 83.416534 75.396835 18.100565
v -102.427856 59.448559 21.155853
v -83.955933 75.243164 15.388456
v -88.236633 59.448566 59.959042
v -71.890198 75.185120 46.498535
v -88.236633 59.448566 -59.959030
v -70.354156 75.400070 -48.797749
v -102.427856 59.448559 -21.155848
v -83.416504 75.318649 -18.100569
v -62.929230 77.271973 60.820953
v -73.487183 77.293106 47.400162
v -81.233521 77.321320 32.143837
v -85.849060 77.355667 15.627153
v -87.228760 77.394730 -1.490787
v -85.267578 77.437042 -18.550888
v -80.092712 77.480972 -34.898453
v -71.831299 77.524826 -49.878788
v -60.821259 77.566956 -62.929241
v -47.400482 77.605667 -73.487137
v -32.144135 77.639572 -81.233406
v -15.627411 77.667252 -85.848877
v 1.490570 77.687775 -87.228531
v 18.550690 77.700211 -85.267311
v 34.898315 77.704224 -80.092407
v 49.878723 77.699509 -71.830994
v 62.929230 77.686417 -60.820946
v 73.487213 77.665283 -47.400158
v 81.233521 77.637070 -32.143826
v 85.849060 77.602722 -15.627146
v 87.228760 77.563675 1.490789
v 85.267578 77.521347 18.550882
v 80.092712 77.477417 34.898445
v 71.831299 77.433563 49.878780
v 60.821259 77.391434 62.929237
v 47.400482 77.352722 73.487144
v 32.144135 77.318817 81.233406
v 15.627411 77.291138 85.848877
v -1.490570 77.270615 87.228523
v -18.550690 77.258179 85.267311
v -34.898315 77.254166 80.092400
v -49.878723 77.258865 71.830994
v -49.812775 79.988647 71.659889
v -34.872986 79.983719 79.953423
v -18.572266 79.987930 85.157455
v -1.560791 80.000946 87.139336
v 15.511230 80.022430 85.766426
v 31.989014 80.051422 81.148193
v 47.217743 80.086914 73.394081
v 60.630463 80.127472 62.837761
v 71.660217 80.171570 49.812828
v 79.953735 80.217499 34.873127
v 85.157745 80.263489 18.572460
v 87.139587 80.307816 1.561037
v 85.766632 80.348694 -15.510951
v 81.148315 80.384674 -31.988707
v 73.394165 80.414215 -47.217415
v 62.837769 80.436340 -60.630127
v 49.812775 80.450058 -71.659889
v 34.872986 80.455002 -79.953423
v 18.572266 80.450790 -85.157455
v 1.560791 80.437775 -87.139336
v -15.511230 80.416275 -85.766426
v -31.989014 80.387299 -81.148193
v -47.217743 80.351791 -73.394081
v -60.630463 80.311249 -62.837765
v -71.660217 80.267136 -49.812836
v -79.953735 80.221222 -34.873135
v -85.157715 80.175217 -18.572464
v -87.139587 80.130905 -1.561035
v -85.766602 80.090012 15.510959
v -81.148315 80.054047 31.988714
v -73.394165 80.024490 47.217415
v -62.837769 80.002365 60.630131
v 0.000000 56.216946 101.695343
v -20.645691 56.216946 99.957832
v -40.435394 56.216946 94.758064
v -58.513153 56.216946 86.108871
v -74.022949 56.216946 74.022980
v 74.022980 56.216946 74.022980
v 58.513153 56.216946 86.108879
v 40.435394 56.216946 94.758087
v 20.645691 56.216946 99.957848
v 0.000000 56.216946 -101.695335
v -20.645691 56.216946 -99.957832
v -40.435394 56.216946 -94.758072
v -58.513153 56.216946 -86.108871
v -74.022949 56.216946 -74.022964
v 74.022980 56.216946 -74.022980
v 58.513153 56.216946 -86.108879
v 40.435394 56.216946 -94.758087
v 20.645691 56.216946 -99.957840
v 101.695312 56.216946 0.000002
v 99.957825 56.216946 20.645691
v 94.758057 56.216946 40.435402
v 86.108887 56.216946 58.513161
v 86.108887 56.216946 -58.513153
v 94.758087 56.216946 -40.435394
v 99.957825 56.216946 -20.645685
v -101.695312 56.216938 0.000000
v -99.957886 56.216938 -20.645685
v -94.758118 56.216946 -40.435394
v -86.108826 56.216946 -58.513149
v -86.108826 56.216946 58.513161
v -94.758118 56.216946 40.435402
v -99.957886 56.216938 20.645691
v 0.000000 68.482712 85.012787
v -17.258881 68.482712 83.560303
v -33.802185 68.482712 79.213539
v -48.914398 68.482712 71.983200
v -61.879913 68.482712 61.879929
v 61.879944 68.482712 61.879929
v 48.914398 68.482712 71.983200
v 33.802185 68.482712 79.213562
v 17.258881 68.482712 83.560310
v 0.000000 68.482712 -85.012779
v -17.258881 68.482712 -83.560303
v -33.802185 68.482712 -79.213547
v -48.914398 68.482712 -71.983200
v -61.879913 68.482712 -61.879913
v 61.879944 68.482712 -61.879929
v 48.914398 68.482712 -71.983200
v 33.802185 68.482712 -79.213562
v 17.258881 68.482712 -83.560303
v 85.012756 68.482712 0.000002
v 83.560303 68.482712 17.258883
v 79.213531 68.482712 33.802204
v 71.983215 68.482712 48.914406
v 71.983215 68.482712 -48.914398
v 79.213562 68.482712 -33.802197
v 83.560303 68.482712 -17.258877
v -85.012756 68.482712 0.000001
v -83.560364 68.482712 -17.258877
v -79.213562 68.482712 -33.802197
v -71.983154 68.482712 -48.914394
v -71.983154 68.482712 48.914406
v -79.213562 68.482712 33.802204
v -83.560364 68.482712 17.258883
v 45.000519 -117.267212 -83.015694
v 47.138367 -113.762421 -86.602531
v 51.419434 -113.790329 -84.144012
v 49.393494 -117.267212 -80.479424
v -49.393433 -117.267212 -80.479439
v -51.430817 -113.762421 -84.124290
v -47.161133 -113.790329 -86.602554
v -45.000488 -117.267212 -83.015717
v -94.393982 -117.267212 2.536262
v -98.569153 -113.762421 2.478248
v -98.580566 -113.790329 -2.458535
v -94.393982 -117.267212 -2.536290
v -45.000519 -117.267212 83.015701
v -47.138367 -113.762421 86.602539
v -51.419434 -113.790329 84.144020
v -49.393463 -117.267212 80.479424
v 49.393463 -117.267212 80.479431
v 51.430817 -113.762421 84.124283
v 47.161133 -113.790329 86.602547
v 45.000488 -117.267212 83.015709
v 94.393951 -117.267212 -2.536276
v 98.569183 -113.762421 -2.478262
v 98.580566 -113.790329 2.458521
v 94.393951 -117.267212 2.536276
v 49.393494 63.740665 -80.479424
v 51.430847 60.235874 -84.124268
v 47.161163 60.263783 -86.602531
v 45.000519 63.740665 -83.015694
v -45.000488 63.740665 -83.015717
v -47.138336 60.235874 -86.602554
v -51.419403 60.263783 -84.144035
v -49.393433 63.740665 -80.479439
v -94.393982 63.740665 -2.536290
v -98.569153 60.235874 -2.478277
v -98.580566 60.263783 2.458506
v -94.393982 63.740665 2.536262
v -49.393463 63.740665 80.479424
v -51.430847 60.235874 84.124275
v -47.161163 60.263783 86.602539
v -45.000519 63.740665 83.015701
v 45.000488 63.740665 83.015709
v 47.138336 60.235874 86.602547
v 51.419434 60.263783 84.144028
v 49.393463 63.740665 80.479431
v 94.393951 63.740665 2.536276
v 98.569183 60.235874 2.478262
v 98.580566 60.263783 -2.458521
v 94.393951 63.740665 -2.536276
v 0.000000 -117.267212 -0.000000
v 30.072998 82.019760 -48.999512
v 27.398315 82.019760 -50.543686
v -27.398315 82.019760 -50.543697
v -30.072968 82.019760 -48.999512
v -57.471283 82.019760 -1.544208
v -57.471283 82.019760 1.544188
v -30.072968 82.019760 48.999504
v -27.398315 82.019760 50.543686
v 27.398315 82.019760 50.543690
v 30.072968 82.019760 48.999504
v 57.471283 82.019760 1.544197
v 57.471283 82.019760 -1.544200
vt 0.663013 0.940599
vt 0.695472 0.941744
vt 0.694452 0.954484
vt 0.662938 0.955250
vt 0.727881 0.942416
vt 0.727957 0.953623
vt 0.727984 0.963862
vt 0.694375 0.963850
vt 0.662858 0.963567
vt 0.760280 0.941749
vt 0.761460 0.954493
vt 0.792735 0.940593
vt 0.792972 0.955243
vt 0.793068 0.963560
vt 0.761570 0.963862
vt 0.761362 0.975896
vt 0.727943 0.976401
vt 0.793179 0.974937
vt 0.793263 0.994238
vt 0.760019 0.992717
vt 0.727802 0.991434
vt 0.694538 0.975884
vt 0.662727 0.974944
vt 0.695617 0.992714
vt 0.662402 0.994242
vt 0.759556 0.629464
vt 0.779762 0.615904
vt 0.775832 0.645675
vt 0.746077 0.649724
vt 0.803620 0.611109
vt 0.803686 0.644398
vt 0.803745 0.673476
vt 0.774667 0.673534
vt 0.741377 0.673601
vt 0.827496 0.615809
vt 0.831546 0.645564
vt 0.847757 0.629288
vt 0.861317 0.649494
vt 0.866112 0.673352
vt 0.832822 0.673418
vt 0.831658 0.701278
vt 0.803803 0.702554
vt 0.861412 0.697228
vt 0.847933 0.717489
vt 0.827727 0.731049
vt 0.803869 0.735844
vt 0.775943 0.701389
vt 0.746172 0.697459
vt 0.779993 0.731144
vt 0.759732 0.717665
vt 0.531782 0.991106
vt 0.499263 0.988055
vt 0.500107 0.971438
vt 0.532201 0.971976
vt 0.469719 0.987659
vt 0.465899 0.971743
vt 0.464518 0.958298
vt 0.500476 0.959649
vt 0.532502 0.960742
vt 0.985626 0.988419
vt 0.956186 0.988390
vt 0.955643 0.971710
vt 0.989732 0.972514
vt 0.923778 0.991227
vt 0.923636 0.972063
vt 0.923398 0.960806
vt 0.955402 0.959873
vt 0.991298 0.959021
vt 0.955167 0.950661
vt 0.990678 0.948053
vt 0.923174 0.952579
vt 0.922573 0.938095
vt 0.955291 0.938103
vt 0.987985 0.936133
vt 0.500766 0.950471
vt 0.532746 0.952531
vt 0.465255 0.947380
vt 0.468058 0.935511
vt 0.500640 0.937933
vt 0.533258 0.938067
vt 0.825215 0.941055
vt 0.824464 0.953809
vt 0.857639 0.941056
vt 0.857952 0.952244
vt 0.858191 0.962466
vt 0.824585 0.963172
vt 0.890047 0.939761
vt 0.891505 0.952425
vt 0.891797 0.961749
vt 0.891796 0.973738
vt 0.858403 0.974989
vt 0.890746 0.990557
vt 0.858569 0.990015
vt 0.825001 0.975196
vt 0.826433 0.991996
vt 0.565737 0.939758
vt 0.564414 0.952415
vt 0.598133 0.941065
vt 0.597966 0.952256
vt 0.597774 0.962477
vt 0.564137 0.961729
vt 0.630540 0.941071
vt 0.631449 0.953832
vt 0.631360 0.963198
vt 0.630895 0.975220
vt 0.597472 0.974994
vt 0.629197 0.992004
vt 0.597020 0.990009
vt 0.564073 0.973706
vt 0.564847 0.990519
vt 0.663208 0.925495
vt 0.695787 0.926452
vt 0.727917 0.927089
vt 0.760049 0.926508
vt 0.792609 0.925489
vt 0.502149 0.922912
vt 0.534031 0.923090
vt 0.472819 0.920360
vt 0.953891 0.922751
vt 0.983456 0.920429
vt 0.921896 0.923036
vt 0.566428 0.924524
vt 0.598506 0.925757
vt 0.630636 0.925831
vt 0.889455 0.924556
vt 0.857345 0.925742
vt 0.825204 0.925762
vt 0.931148 0.290616
vt 0.931151 0.309057
vt 0.907465 0.306982
vt 0.907596 0.289105
vt 0.931569 0.327107
vt 0.907326 0.324946
vt 0.932165 0.344545
vt 0.907277 0.342956
vt 0.932653 0.361466
vt 0.907547 0.360988
vt 0.932801 0.219706
vt 0.932391 0.236627
vt 0.907485 0.235508
vt 0.907850 0.217488
vt 0.931799 0.254098
vt 0.907484 0.253402
vt 0.931296 0.272175
vt 0.907546 0.271251
vt 0.917787 0.074512
vt 0.919901 0.056762
vt 0.944423 0.061386
vt 0.942661 0.078264
vt 0.922279 0.039236
vt 0.946079 0.043887
vt 0.924485 0.022110
vt 0.947874 0.025506
vt 0.925365 0.005766
vt 0.949773 0.005878
vt 0.947665 0.555817
vt 0.949731 0.575354
vt 0.924720 0.573053
vt 0.923463 0.556401
vt 0.921297 0.539271
vt 0.945797 0.537377
vt 0.918976 0.521805
vt 0.944055 0.519823
vt 0.916939 0.504032
vt 0.942180 0.502942
vt 0.935889 0.432322
vt 0.937150 0.450719
vt 0.913200 0.450271
vt 0.912120 0.432437
vt 0.938792 0.468701
vt 0.914281 0.468186
vt 0.940561 0.486067
vt 0.915455 0.486124
vt 0.908399 0.378987
vt 0.933414 0.378376
vt 0.934029 0.395847
vt 0.909602 0.396835
vt 0.934771 0.413915
vt 0.910866 0.414634
vt 0.936211 0.148921
vt 0.934935 0.167319
vt 0.911414 0.163600
vt 0.912748 0.145781
vt 0.934100 0.185355
vt 0.910064 0.181511
vt 0.933486 0.202792
vt 0.908799 0.199477
vt 0.916233 0.092383
vt 0.941137 0.095137
vt 0.939369 0.112534
vt 0.915037 0.110191
vt 0.937630 0.130535
vt 0.913900 0.127978
vt 0.658943 0.905083
vt 0.674924 0.905394
vt 0.674825 0.908035
vt 0.658813 0.907711
vt 0.690951 0.905644
vt 0.690872 0.908311
vt 0.626934 0.904277
vt 0.642960 0.904713
vt 0.642800 0.907354
vt 0.626753 0.906944
vt 0.706961 0.908504
vt 0.707032 0.905815
vt 0.723148 0.905884
vt 0.723077 0.908583
vt 0.594754 0.903121
vt 0.610858 0.903753
vt 0.610669 0.906443
vt 0.594563 0.905820
vt 0.739195 0.908534
vt 0.739265 0.905841
vt 0.755349 0.905694
vt 0.755286 0.908367
vt 0.771337 0.908110
vt 0.771379 0.905461
vt 0.787364 0.905164
vt 0.787350 0.907801
vt 0.803362 0.907456
vt 0.803345 0.904804
vt 0.819369 0.904380
vt 0.819407 0.907058
vt 0.835491 0.906570
vt 0.835443 0.903867
vt 0.851547 0.903247
vt 0.851596 0.905961
vt 0.867697 0.905216
vt 0.867648 0.902507
vt 0.883711 0.901658
vt 0.883767 0.904347
vt 0.899791 0.903384
vt 0.899716 0.900718
vt 0.915672 0.899709
vt 0.915776 0.902360
vt 0.931756 0.901294
vt 0.931622 0.898632
vt 0.947611 0.897481
vt 0.947767 0.900166
vt 0.963817 0.898945
vt 0.963645 0.896245
vt 0.979623 0.894876
vt 0.979970 0.897584
vt 0.562595 0.901522
vt 0.578655 0.902373
vt 0.578464 0.905066
vt 0.562397 0.904194
vt 0.482342 0.898851
vt 0.466176 0.897535
vt 0.466659 0.894834
vt 0.482655 0.896157
vt 0.498694 0.897383
vt 0.498394 0.900056
vt 0.514409 0.901171
vt 0.514687 0.898523
vt 0.530639 0.899589
vt 0.530392 0.902223
vt 0.546375 0.903235
vt 0.546593 0.900588
vt 0.642636 0.909950
vt 0.658685 0.910308
vt 0.658486 0.914659
vt 0.642376 0.914286
vt 0.626568 0.909537
vt 0.626272 0.913843
vt 0.610478 0.909036
vt 0.610175 0.913319
vt 0.594378 0.908414
vt 0.594085 0.912689
vt 0.578285 0.907662
vt 0.578000 0.911949
vt 0.562212 0.906792
vt 0.561919 0.911103
vt 0.546168 0.905837
vt 0.545837 0.910176
vt 0.529754 0.909174
vt 0.530148 0.904825
vt 0.514129 0.903771
vt 0.513676 0.908102
vt 0.497608 0.906952
vt 0.498094 0.902653
vt 0.482039 0.901439
vt 0.481560 0.905704
vt 0.465666 0.904446
vt 0.465901 0.900149
vt 0.963982 0.901546
vt 0.980119 0.900210
vt 0.980166 0.904540
vt 0.964255 0.905845
vt 0.948208 0.907096
vt 0.947929 0.902776
vt 0.931896 0.903908
vt 0.932142 0.908259
vt 0.916065 0.909344
vt 0.915879 0.904976
vt 0.899859 0.906000
vt 0.899983 0.910356
vt 0.883901 0.911288
vt 0.883813 0.906961
vt 0.867739 0.907827
vt 0.867818 0.912130
vt 0.851732 0.912859
vt 0.851644 0.908568
vt 0.835544 0.909176
vt 0.835643 0.913474
vt 0.819547 0.913982
vt 0.819456 0.909663
vt 0.803388 0.910062
vt 0.803445 0.914410
vt 0.787335 0.914766
vt 0.787340 0.910406
vt 0.771290 0.910714
vt 0.771223 0.915059
vt 0.755115 0.915280
vt 0.755218 0.910966
vt 0.739121 0.911130
vt 0.739010 0.915420
vt 0.722908 0.915456
vt 0.723010 0.911177
vt 0.706899 0.911098
vt 0.706807 0.915386
vt 0.690704 0.915216
vt 0.690804 0.910905
vt 0.674734 0.910631
vt 0.674597 0.914970
vt 0.935216 0.272301
vt 0.935080 0.290623
vt 0.935718 0.254303
vt 0.936308 0.236818
vt 0.936678 0.219840
vt 0.936089 0.344362
vt 0.936530 0.361333
vt 0.935496 0.326910
vt 0.935076 0.308940
vt 0.953939 0.006577
vt 0.951712 0.025831
vt 0.949955 0.044163
vt 0.948318 0.061704
vt 0.946516 0.078641
vt 0.946032 0.502559
vt 0.947942 0.519498
vt 0.949664 0.537080
vt 0.951504 0.555442
vt 0.953902 0.574636
vt 0.938691 0.413772
vt 0.939811 0.432061
vt 0.937953 0.395782
vt 0.937335 0.378296
vt 0.944460 0.485625
vt 0.942696 0.468240
vt 0.941058 0.450337
vt 0.941532 0.130928
vt 0.940132 0.149199
vt 0.943264 0.113001
vt 0.945030 0.095583
vt 0.937413 0.202881
vt 0.938032 0.185429
vt 0.938859 0.167473
vt 0.954938 0.272999
vt 0.954387 0.290656
vt 0.955531 0.255409
vt 0.956251 0.237931
vt 0.957231 0.220547
vt 0.956050 0.343259
vt 0.957083 0.360618
vt 0.955335 0.325836
vt 0.954817 0.308297
vt 0.973624 0.011787
vt 0.971108 0.028426
vt 0.969563 0.045784
vt 0.968163 0.063234
vt 0.966950 0.080665
vt 0.966454 0.500479
vt 0.967759 0.517889
vt 0.969246 0.535330
vt 0.970893 0.552660
vt 0.973561 0.569250
vt 0.958414 0.413115
vt 0.959074 0.430776
vt 0.957795 0.395522
vt 0.957307 0.378031
vt 0.964291 0.483196
vt 0.962413 0.465836
vt 0.960707 0.448357
vt 0.961157 0.132969
vt 0.959390 0.150560
vt 0.962952 0.115437
vt 0.964844 0.098006
vt 0.957403 0.203161
vt 0.957897 0.185730
vt 0.958597 0.168196
vt 0.377512 0.569258
vt 0.382325 0.569258
vt 0.379921 0.658810
vt 0.484508 0.570390
vt 0.479750 0.568363
vt 0.479725 0.482979
vt 0.484464 0.480928
vt 0.484370 0.010203
vt 0.484396 0.005520
vt 0.649494 0.005509
vt 0.649468 0.010192
vt 0.479632 0.012255
vt 0.484415 0.099665
vt 0.479656 0.097638
vt 0.301163 0.616120
vt 0.303569 0.611952
vt 0.484490 0.476245
vt 0.479731 0.474218
vt 0.479707 0.388834
vt 0.484445 0.386783
vt 0.649587 0.476233
vt 0.649562 0.480917
vt 0.303572 0.705671
vt 0.301166 0.701503
vt 0.484471 0.382100
vt 0.479713 0.380073
vt 0.479688 0.294689
vt 0.484426 0.292638
vt 0.649569 0.382088
vt 0.649543 0.386772
vt 0.382330 0.748361
vt 0.377517 0.748361
vt 0.484452 0.287955
vt 0.479694 0.285928
vt 0.479669 0.200544
vt 0.484408 0.198493
vt 0.649550 0.287943
vt 0.649524 0.292627
vt 0.458679 0.701499
vt 0.456273 0.705667
vt 0.484433 0.193810
vt 0.479675 0.191783
vt 0.479650 0.106400
vt 0.484389 0.104348
vt 0.649531 0.193798
vt 0.649505 0.198482
vt 0.456270 0.611948
vt 0.458676 0.616116
vt 0.649512 0.099654
vt 0.649487 0.104337
vt 0.654226 0.012219
vt 0.654251 0.097602
vt 0.654345 0.568327
vt 0.649606 0.570378
vt 0.654320 0.482944
vt 0.654326 0.474182
vt 0.654301 0.388799
vt 0.654307 0.380037
vt 0.654283 0.294654
vt 0.654288 0.285892
vt 0.654264 0.200509
vt 0.654270 0.191747
vt 0.654245 0.106364
vt 0.479225 0.005446
vt 0.479207 0.010258
vt 0.479318 0.476171
vt 0.479301 0.480983
vt 0.479299 0.382026
vt 0.479282 0.386838
vt 0.479281 0.287881
vt 0.479263 0.292693
vt 0.479262 0.193736
vt 0.479245 0.198548
vt 0.479243 0.099591
vt 0.479226 0.104403
vt 0.654639 0.010266
vt 0.654657 0.005453
vt 0.654733 0.480990
vt 0.654750 0.476178
vt 0.654714 0.386846
vt 0.654732 0.382033
vt 0.654696 0.292701
vt 0.654713 0.287888
vt 0.654677 0.198556
vt 0.654694 0.193743
vt 0.654658 0.104411
vt 0.654676 0.099598
vt 0.693739 0.006536
vt 0.693728 0.009466
vt 0.693833 0.477261
vt 0.693822 0.480191
vt 0.693814 0.383116
vt 0.693803 0.386046
vt 0.693795 0.288971
vt 0.693785 0.291901
vt 0.693777 0.194826
vt 0.693766 0.197756
vt 0.693758 0.100681
vt 0.693747 0.103611
vt 0.689676 0.499633
vt 0.689691 0.551618
vt 0.689658 0.405488
vt 0.689672 0.457473
vt 0.689639 0.311343
vt 0.689654 0.363328
vt 0.689620 0.217198
vt 0.689635 0.269183
vt 0.689601 0.123053
vt 0.689617 0.175038
vt 0.689583 0.028908
vt 0.689598 0.080893
vn -0.454334 -0.766264 0.454334
vn -0.245633 -0.758245 0.603928
vn -0.328005 -0.428560 0.841873
vn -0.629381 -0.455806 0.629381
vn 0.000000 -0.750864 0.660457
vn -0.000000 -0.394904 0.918722
vn -0.000000 0.266390 0.963865
vn -0.329374 0.277780 0.902414
vn -0.676699 0.290099 0.676699
vn 0.245633 -0.758245 0.603928
vn 0.328005 -0.428560 0.841872
vn 0.454334 -0.766265 0.454334
vn 0.629381 -0.455807 0.629381
vn 0.676699 0.290099 0.676699
vn 0.329374 0.277780 0.902414
vn 0.196822 0.841704 0.502788
vn -0.000000 0.835480 0.549520
vn 0.376982 0.846031 0.376982
vn 0.115494 0.986571 0.115494
vn 0.055002 0.991161 0.120724
vn -0.000000 0.992857 0.119313
vn -0.196822 0.841704 0.502788
vn -0.376982 0.846031 0.376982
vn -0.055002 0.991161 0.120724
vn -0.115494 0.986571 0.115494
vn 0.000000 1.000000 -0.000000
vn -0.120724 0.991161 0.055002
vn 0.000000 1.000000 -0.000000
vn 0.000000 1.000000 -0.000000
vn 0.000000 1.000000 -0.000000
vn -0.119313 0.992857 -0.000000
vn 0.000000 1.000000 0.000000
vn 0.120724 0.991161 0.055002
vn 0.119313 0.992857 0.000000
vn 0.000000 1.000000 -0.000000
vn 0.000000 1.000000 -0.000000
vn 0.000000 1.000000 0.000000
vn 0.120724 0.991161 -0.055002
vn 0.115494 0.986571 -0.115494
vn 0.055002 0.991161 -0.120724
vn -0.000000 0.992857 -0.119313
vn 0.000000 1.000000 0.000000
vn -0.120724 0.991161 -0.055002
vn -0.055002 0.991161 -0.120724
vn -0.115494 0.986571 -0.115494
vn -0.196821 0.841704 -0.502788
vn -0.376983 0.846031 -0.376982
vn -0.000000 0.835480 -0.549520
vn -0.000000 0.266391 -0.963865
vn -0.329374 0.277781 -0.902414
vn -0.676699 0.290099 -0.676699
vn 0.196821 0.841704 -0.502788
vn 0.376982 0.846031 -0.376982
vn 0.676699 0.290099 -0.676699
vn 0.329374 0.277781 -0.902414
vn 0.328005 -0.428560 -0.841872
vn -0.000000 -0.394904 -0.918722
vn 0.629381 -0.455806 -0.629381
vn 0.454334 -0.766264 -0.454334
vn 0.245634 -0.758245 -0.603928
vn -0.000000 -0.750863 -0.660458
vn -0.328005 -0.428559 -0.841873
vn -0.629381 -0.455806 -0.629381
vn -0.245634 -0.758245 -0.603928
vn -0.454334 -0.766264 -0.454334
vn 0.603927 -0.758245 0.245634
vn 0.841872 -0.428560 0.328005
vn 0.660457 -0.750864 0.000000
vn 0.918722 -0.394905 0.000000
vn 0.963865 0.266390 0.000000
vn 0.902414 0.277780 0.329374
vn 0.603928 -0.758245 -0.245633
vn 0.841872 -0.428560 -0.328005
vn 0.902414 0.277780 -0.329374
vn 0.502788 0.841704 -0.196821
vn 0.549520 0.835480 0.000000
vn 0.502788 0.841704 0.196822
vn -0.603928 -0.758245 -0.245634
vn -0.841873 -0.428559 -0.328005
vn -0.660457 -0.750864 -0.000000
vn -0.918722 -0.394905 -0.000000
vn -0.963865 0.266390 -0.000000
vn -0.902414 0.277780 -0.329374
vn -0.603928 -0.758245 0.245634
vn -0.841872 -0.428560 0.328005
vn -0.902414 0.277780 0.329374
vn -0.502788 0.841704 0.196822
vn -0.549520 0.835481 -0.000000
vn -0.502789 0.841704 -0.196822
vn -0.397822 -0.826726 0.397822
vn -0.215299 -0.826726 0.519780
vn 0.000000 -0.826726 0.562605
vn 0.215300 -0.826726 0.519780
vn 0.397822 -0.826725 0.397822
vn -0.215300 -0.826725 -0.519780
vn -0.397822 -0.826725 -0.397822
vn -0.000000 -0.826726 -0.562606
vn 0.215300 -0.826725 -0.519780
vn 0.397822 -0.826726 -0.397822
vn -0.519780 -0.826725 -0.215300
vn -0.562606 -0.826725 -0.000000
vn -0.519780 -0.826726 0.215300
vn 0.519780 -0.826726 -0.215300
vn 0.562606 -0.826725 0.000000
vn 0.519780 -0.826725 0.215300
vn -0.002626 0.642913 0.765935
vn 0.133811 0.649125 0.748820
vn 0.118398 0.706114 0.698130
vn -0.008240 0.701449 0.712673
vn 0.265537 0.665817 0.697265
vn 0.240807 0.720063 0.650785
vn 0.390134 0.683594 0.616842
vn 0.356597 0.735677 0.575862
vn 0.508935 0.691411 0.512773
vn 0.466908 0.743214 0.479197
vn -0.510614 0.693499 0.508264
vn -0.392863 0.686239 0.612156
vn -0.368227 0.739342 0.563722
vn -0.476871 0.745458 0.465711
vn -0.269474 0.668262 0.693404
vn -0.254699 0.723748 0.641341
vn -0.138747 0.650604 0.746635
vn -0.134126 0.708416 0.692934
vn -0.470158 0.740012 -0.480972
vn -0.360089 0.730979 -0.579660
vn -0.393316 0.679409 -0.619440
vn -0.511898 0.688527 -0.513703
vn -0.243738 0.713919 -0.656438
vn -0.268254 0.660373 -0.701389
vn -0.120206 0.698727 -0.705217
vn -0.135573 0.642594 -0.754117
vn 0.007924 0.693182 -0.720719
vn 0.002129 0.635587 -0.772027
vn 0.139728 0.642842 -0.753147
vn 0.135549 0.699724 -0.701436
vn 0.257997 0.715097 -0.649672
vn 0.272059 0.660457 -0.699843
vn 0.373303 0.731096 -0.571089
vn 0.396971 0.678724 -0.617858
vn 0.483248 0.737789 -0.471316
vn 0.515821 0.686465 -0.512537
vn 0.770280 0.637699 0.003055
vn 0.753454 0.643613 -0.134427
vn 0.704154 0.699956 -0.119284
vn 0.718374 0.695604 0.008575
vn 0.701840 0.660287 -0.267286
vn 0.656701 0.713926 -0.243009
vn 0.620896 0.678286 -0.392958
vn 0.581127 0.729828 -0.360059
vn 0.566363 0.736045 0.370771
vn 0.614016 0.683235 0.395189
vn 0.696355 0.664372 0.271477
vn 0.645322 0.719427 0.256874
vn 0.750421 0.645947 0.140073
vn 0.697951 0.703207 0.135513
vn -0.767734 0.640767 -0.001692
vn -0.749509 0.648089 0.134972
vn -0.699228 0.704868 0.119335
vn -0.715087 0.698995 -0.007583
vn -0.696807 0.665905 0.266517
vn -0.650518 0.720057 0.241548
vn -0.615355 0.684732 0.390486
vn -0.574360 0.736841 0.356618
vn -0.568516 0.734364 -0.370809
vn -0.616050 0.681694 -0.394685
vn -0.696959 0.664306 -0.270084
vn -0.645777 0.719382 -0.255857
vn -0.749428 0.647457 -0.138409
vn -0.696506 0.704895 -0.134174
vn -0.537880 -0.315210 0.781875
vn -0.683859 -0.309711 0.660618
vn -0.372622 -0.327339 0.868333
vn -0.799891 -0.315519 0.510512
vn -0.880571 -0.327559 0.342490
vn -0.196473 -0.338447 0.920246
vn -0.015505 -0.342724 0.939308
vn -0.926531 -0.338204 0.164799
vn -0.939613 -0.341834 -0.016626
vn 0.165926 -0.338639 0.926171
vn 0.343574 -0.327532 0.880159
vn 0.511519 -0.315063 0.799427
vn 0.661542 -0.308862 0.683350
vn 0.782739 -0.313978 0.537344
vn 0.869168 -0.325731 0.372084
vn 0.921065 -0.336508 0.195962
vn 0.940107 -0.340548 0.015049
vn 0.926937 -0.336349 -0.166306
vn 0.880889 -0.325258 -0.343863
vn 0.800144 -0.312903 -0.511723
vn 0.684105 -0.306857 -0.661694
vn 0.538191 -0.312145 -0.782889
vn 0.373047 -0.324125 -0.869356
vn 0.197025 -0.335218 -0.921309
vn 0.016169 -0.339660 -0.940409
vn -0.920493 -0.337153 -0.197537
vn -0.868524 -0.325729 -0.373587
vn -0.165179 -0.335916 -0.927295
vn -0.342780 -0.325283 -0.881302
vn -0.510719 -0.313352 -0.800610
vn -0.660773 -0.307701 -0.684616
vn -0.782027 -0.313374 -0.538731
vn -0.792815 0.336767 0.507968
vn -0.676054 0.341888 0.652736
vn -0.624453 0.499333 0.600604
vn -0.732396 0.495031 0.467482
vn -0.880393 0.325607 0.344802
vn -0.814306 0.486081 0.317225
vn -0.933958 0.315503 0.167868
vn -0.864850 0.477866 0.153883
vn -0.950095 0.311540 -0.016184
vn -0.879964 0.474755 -0.016489
vn -0.927683 0.315534 -0.199609
vn -0.858468 0.477892 -0.186152
vn -0.868135 0.325488 -0.374699
vn -0.801860 0.485956 -0.347661
vn -0.775063 0.336233 -0.535000
vn -0.714471 0.494475 -0.495001
vn -0.601555 0.498116 -0.624509
vn -0.653378 0.340741 -0.676013
vn -0.508402 0.335567 -0.793047
vn -0.468144 0.493743 -0.732843
vn -0.317471 0.484774 -0.814988
vn -0.344940 0.324413 -0.880780
vn -0.167690 0.314354 -0.934378
vn -0.153670 0.476586 -0.865593
vn 0.017141 0.473548 -0.880601
vn 0.016660 0.310468 -0.950438
vn 0.200347 0.314560 -0.927854
vn 0.187187 0.476802 -0.858848
vn 0.348969 0.485021 -0.801857
vn 0.375635 0.324643 -0.868047
vn 0.536030 0.335548 -0.774648
vn 0.496425 0.493730 -0.713998
vn 0.625839 0.497589 -0.600608
vn 0.676984 0.340250 -0.652628
vn 0.793811 0.335294 -0.507387
vn 0.733887 0.493455 -0.466811
vn 0.815614 0.484736 -0.315920
vn 0.881246 0.324372 -0.343785
vn 0.934523 0.314547 -0.166514
vn 0.865756 0.476804 -0.152066
vn 0.880317 0.474020 0.018632
vn 0.950281 0.310888 0.017758
vn 0.927434 0.315200 0.201282
vn 0.858183 0.477508 0.188434
vn 0.800924 0.485932 0.349845
vn 0.867432 0.325485 0.376327
vn 0.773944 0.336563 0.536411
vn 0.712953 0.494811 0.496851
vn 0.599655 0.498797 0.625792
vn 0.651982 0.341387 0.677033
vn 0.506945 0.336493 0.793586
vn 0.466141 0.494738 0.733448
vn 0.315662 0.486047 0.814933
vn 0.343635 0.325572 0.880862
vn 0.166681 0.315704 0.934103
vn 0.152268 0.478091 0.865011
vn -0.017988 0.475231 0.879677
vn -0.017288 0.311968 0.949935
vn -0.200547 0.316181 0.927260
vn -0.187402 0.478603 0.857799
vn -0.348537 0.486875 0.800922
vn -0.375389 0.326340 0.867517
vn -0.535375 0.337260 0.774358
vn -0.495420 0.495566 0.713424
vn 0.067328 -0.920016 -0.386053
vn 0.000000 -0.919348 -0.393446
vn 0.134788 -0.921912 -0.363195
vn 0.201768 -0.924457 -0.323527
vn 0.266049 -0.926518 -0.266049
vn -0.201768 -0.924457 -0.323527
vn -0.266049 -0.926518 -0.266050
vn -0.134788 -0.921912 -0.363194
vn -0.067328 -0.920016 -0.386053
vn 0.000000 -0.919348 0.393446
vn 0.067328 -0.920016 0.386053
vn 0.134788 -0.921912 0.363194
vn 0.201768 -0.924457 0.323526
vn 0.266050 -0.926518 0.266049
vn -0.266049 -0.926518 0.266050
vn -0.201768 -0.924457 0.323527
vn -0.134788 -0.921912 0.363194
vn -0.067328 -0.920016 0.386053
vn -0.386053 -0.920016 -0.067328
vn -0.393446 -0.919348 0.000000
vn -0.363195 -0.921912 -0.134788
vn -0.323527 -0.924457 -0.201767
vn -0.323527 -0.924457 0.201768
vn -0.363195 -0.921912 0.134788
vn -0.386053 -0.920016 0.067328
vn 0.386053 -0.920016 0.067327
vn 0.393447 -0.919347 -0.000000
vn 0.363194 -0.921912 0.134789
vn 0.323527 -0.924457 0.201768
vn 0.323527 -0.924457 -0.201768
vn 0.363194 -0.921912 -0.134789
vn 0.386053 -0.920016 -0.067328
vn 0.099143 -0.806527 -0.582825
vn 0.000000 -0.805670 -0.592365
vn 0.200616 -0.808894 -0.552669
vn 0.305525 -0.811932 -0.497414
vn 0.410985 -0.813746 -0.410985
vn -0.305524 -0.811932 -0.497414
vn -0.410985 -0.813746 -0.410985
vn -0.200616 -0.808895 -0.552669
vn -0.099143 -0.806527 -0.582825
vn 0.000000 -0.805670 0.592365
vn 0.099143 -0.806527 0.582825
vn 0.200616 -0.808894 0.552669
vn 0.305525 -0.811932 0.497414
vn 0.410985 -0.813746 0.410985
vn -0.410985 -0.813746 0.410985
vn -0.305525 -0.811932 0.497414
vn -0.200616 -0.808894 0.552669
vn -0.099143 -0.806527 0.582825
vn -0.582825 -0.806527 -0.099143
vn -0.592365 -0.805670 0.000000
vn -0.552669 -0.808894 -0.200616
vn -0.497415 -0.811932 -0.305524
vn -0.497415 -0.811932 0.305525
vn -0.552670 -0.808894 0.200616
vn -0.582825 -0.806527 0.099143
vn 0.582825 -0.806527 0.099142
vn 0.592365 -0.805670 -0.000000
vn 0.552669 -0.808894 0.200617
vn 0.497414 -0.811932 0.305525
vn 0.497414 -0.811932 -0.305525
vn 0.552669 -0.808894 -0.200617
vn 0.582825 -0.806527 -0.099142
vn 0.002666 -0.991655 -0.128890
vn 0.110508 -0.991623 -0.066874
vn 0.000000 -1.000000 -0.000000
vn 0.025244 -0.015309 -0.999564
vn -0.002661 -0.991623 -0.129139
vn -0.025097 -0.015269 -0.999568
vn 0.853103 -0.015269 -0.521519
vn 0.025098 0.015269 -0.999568
vn 0.853026 0.015309 -0.521643
vn 0.878270 -0.015309 -0.477921
vn 0.112955 -0.991655 -0.062136
vn -0.110289 -0.991655 -0.066753
vn -0.853026 -0.015309 -0.521644
vn -0.113169 -0.991623 -0.062265
vn -0.878200 -0.015269 -0.478049
vn -0.853103 0.015269 -0.521519
vn -0.025243 0.015309 -0.999564
vn -0.112955 -0.991655 0.062136
vn -0.878270 -0.015309 0.477920
vn -0.110508 -0.991623 0.066874
vn -0.853103 -0.015269 0.521519
vn -0.878201 0.015269 0.478049
vn -0.878270 0.015309 -0.477921
vn -0.002666 -0.991655 0.128890
vn -0.025244 -0.015309 0.999564
vn 0.002661 -0.991623 0.129139
vn 0.025097 -0.015269 0.999568
vn -0.025098 0.015269 0.999568
vn -0.853026 0.015309 0.521643
vn 0.110289 -0.991655 0.066753
vn 0.853026 -0.015309 0.521644
vn 0.113169 -0.991623 0.062265
vn 0.878200 -0.015269 0.478049
vn 0.853103 0.015269 0.521519
vn 0.025243 0.015309 0.999564
vn 0.878200 0.015269 -0.478049
vn 0.878270 0.015309 0.477921
vn 0.453413 0.845758 -0.281265
vn 0.470351 0.845708 -0.252085
vn 0.016863 0.845708 -0.533379
vn -0.016876 0.845758 -0.533300
vn -0.453488 0.845708 -0.281294
vn -0.470290 0.845758 -0.252035
vn -0.470351 0.845708 0.252086
vn -0.453413 0.845758 0.281265
vn -0.016863 0.845708 0.533379
vn 0.016876 0.845758 0.533300
vn 0.453488 0.845709 0.281293
vn 0.470289 0.845758 0.252034
vn 0.010456 0.873784 -0.486202
vn 0.415835 0.873784 -0.252156
vn -0.415835 0.873784 -0.252156
vn -0.010456 0.873784 -0.486201
vn -0.426291 0.873784 0.234046
vn -0.426291 0.873784 -0.234046
vn -0.010456 0.873784 0.486202
vn -0.415835 0.873784 0.252156
vn 0.415835 0.873784 0.252156
vn 0.010456 0.873784 0.486201
vn 0.426291 0.873784 -0.234046
vn 0.426291 0.873784 0.234046
s 1
g this_video_is_sponsored_by_honey_pCylinder13_polySurface82
usemtl initialShadingGroup
f 1/1/1 66/2/2 26/3/3 73/4/4
f 66/2/2 15/5/5 46/6/6 26/3/3
f 26/3/3 46/6/6 21/7/7 49/8/8
f 73/4/4 26/3/3 49/8/8 18/9/9
f 15/5/5 67/10/10 27/11/11 46/6/6
f 67/10/10 2/12/12 68/13/13 27/11/11
f 27/11/11 68/13/13 16/14/14 47/15/15
f 46/6/6 27/11/11 47/15/15 21/7/7
f 21/7/7 47/15/15 28/16/16 48/17/17
f 47/15/15 16/14/14 69/18/18 28/16/16
f 28/16/16 69/18/18 4/19/19 70/20/20
f 48/17/17 28/16/16 70/20/20 17/21/21
f 18/9/9 49/8/8 29/22/22 72/23/23
f 49/8/8 21/7/7 48/17/17 29/22/22
f 29/22/22 48/17/17 17/21/21 71/24/24
f 72/23/23 29/22/22 71/24/24 3/25/25
f 3/26/25 71/27/24 30/28/26 79/29/27
f 71/27/24 17/30/21 50/31/28 30/28/26
f 30/28/26 50/31/28 22/32/29 53/33/30
f 79/29/27 30/28/26 53/33/30 9/34/31
f 17/30/21 70/35/20 31/36/32 50/31/28
f 70/35/20 4/37/19 74/38/33 31/36/32
f 31/36/32 74/38/33 19/39/34 51/40/35
f 50/31/28 31/36/32 51/40/35 22/32/29
f 22/32/29 51/40/35 32/41/36 52/42/37
f 51/40/35 19/39/34 75/43/38 32/41/36
f 32/41/36 75/43/38 6/44/39 76/45/40
f 52/42/37 32/41/36 76/45/40 20/46/41
f 9/34/31 53/33/30 33/47/42 78/48/43
f 53/33/30 22/32/29 52/42/37 33/47/42
f 33/47/42 52/42/37 20/46/41 77/49/44
f 78/48/43 33/47/42 77/49/44 5/50/45
f 5/51/45 77/52/44 34/53/46 85/54/47
f 77/52/44 20/55/41 54/56/48 34/53/46
f 34/53/46 54/56/48 23/57/49 57/58/50
f 85/54/47 34/53/46 57/58/50 12/59/51
f 20/60/41 76/61/40 35/62/52 54/63/48
f 76/61/40 6/64/39 80/65/53 35/62/52
f 35/62/52 80/65/53 10/66/54 55/67/55
f 54/63/48 35/62/52 55/67/55 23/68/49
f 23/68/49 55/67/55 36/69/56 56/70/57
f 55/67/55 10/66/54 81/71/58 36/69/56
f 36/69/56 81/71/58 8/72/59 82/73/60
f 56/70/57 36/69/56 82/73/60 11/74/61
f 12/59/51 57/58/50 37/75/62 84/76/63
f 57/58/50 23/57/49 56/77/57 37/75/62
f 37/75/62 56/77/57 11/78/61 83/79/64
f 84/76/63 37/75/62 83/79/64 7/80/65
f 2/12/12 87/81/66 38/82/67 68/13/13
f 87/81/66 13/83/68 58/84/69 38/82/67
f 38/82/67 58/84/69 24/85/70 61/86/71
f 68/13/13 38/82/67 61/86/71 16/14/14
f 13/83/68 86/87/72 39/88/73 58/84/69
f 86/87/72 8/72/59 81/71/58 39/88/73
f 39/88/73 81/71/58 10/66/54 59/89/74
f 58/84/69 39/88/73 59/89/74 24/85/70
f 24/85/70 59/89/74 40/90/75 60/91/76
f 59/89/74 10/66/54 80/65/53 40/90/75
f 40/90/75 80/65/53 6/64/39 75/92/38
f 60/91/76 40/90/75 75/92/38 19/93/34
f 16/14/14 61/86/71 41/94/77 69/18/18
f 61/86/71 24/85/70 60/91/76 41/94/77
f 41/94/77 60/91/76 19/93/34 74/95/33
f 69/18/18 41/94/77 74/95/33 4/19/19
f 7/80/65 89/96/78 42/97/79 84/76/63
f 89/96/78 14/98/80 62/99/81 42/97/79
f 42/97/79 62/99/81 25/100/82 65/101/83
f 84/76/63 42/97/79 65/101/83 12/59/51
f 14/98/80 88/102/84 43/103/85 62/99/81
f 88/102/84 1/1/1 73/4/4 43/103/85
f 43/103/85 73/4/4 18/9/9 63/104/86
f 62/99/81 43/103/85 63/104/86 25/100/82
f 25/100/82 63/104/86 44/105/87 64/106/88
f 63/104/86 18/9/9 72/23/23 44/105/87
f 44/105/87 72/23/23 3/25/25 79/107/27
f 64/106/88 44/105/87 79/107/27 9/108/31
f 12/59/51 65/101/83 45/109/89 85/54/47
f 65/101/83 25/100/82 64/106/88 45/109/89
f 45/109/89 64/106/88 9/108/31 78/110/43
f 85/54/47 45/109/89 78/110/43 5/51/45
f 66/2/2 1/1/1 90/111/90 91/112/91
f 15/5/5 66/2/2 91/112/91 92/113/92
f 67/10/10 15/5/5 92/113/92 93/114/93
f 2/12/12 67/10/10 93/114/93 94/115/94
f 7/80/65 83/79/64 96/116/95 95/117/96
f 83/79/64 11/78/61 97/118/97 96/116/95
f 11/74/61 82/73/60 98/119/98 97/120/97
f 82/73/60 8/72/59 99/121/99 98/119/98
f 89/96/78 7/80/65 95/117/96 100/122/100
f 14/98/80 89/96/78 100/122/100 101/123/101
f 88/102/84 14/98/80 101/123/101 102/124/102
f 1/1/1 88/102/84 102/124/102 90/111/90
f 8/72/59 86/87/72 103/125/103 99/121/99
f 86/87/72 13/83/68 104/126/104 103/125/103
f 13/83/68 87/81/66 105/127/105 104/126/104
f 87/81/66 2/12/12 94/115/94 105/127/105
s 2
f 118/128/106 170/129/107 171/130/108 114/131/109
f 170/129/107 122/132/110 130/133/111 171/130/108
f 130/133/111 122/132/110 172/134/112 173/135/113
f 172/134/112 113/136/114 107/137/115 173/135/113
f 115/138/116 174/139/117 175/140/118 106/141/119
f 174/139/117 123/142/120 131/143/121 175/140/118
f 131/143/121 123/142/120 176/144/122 177/145/123
f 176/144/122 118/128/106 114/131/109 177/145/123
f 108/146/124 178/147/125 179/148/126 112/149/127
f 178/147/125 135/150/128 125/151/129 179/148/126
f 125/151/129 135/150/128 180/152/130 181/153/131
f 180/152/130 117/154/132 119/155/133 181/153/131
f 183/156/134 119/157/133 117/158/132 182/159/135
f 183/156/134 182/159/135 134/160/136 124/161/137
f 124/161/137 134/160/136 184/162/138 185/163/139
f 184/162/138 109/164/140 111/165/141 185/163/139
f 120/166/142 186/167/143 187/168/144 116/169/145
f 186/167/143 126/170/146 133/171/147 187/168/144
f 133/171/147 126/170/146 188/172/148 189/173/149
f 188/172/148 111/165/141 109/164/140 189/173/149
f 191/174/150 107/137/115 113/136/114 190/175/151
f 191/174/150 190/175/151 127/176/152 132/177/153
f 132/177/153 127/176/152 192/178/154 193/179/155
f 192/178/154 120/166/142 116/169/145 193/179/155
f 121/180/156 194/181/157 195/182/158 110/183/159
f 194/181/157 128/184/160 137/185/161 195/182/158
f 137/185/161 128/184/160 196/186/162 197/187/163
f 196/186/162 115/138/116 106/141/119 197/187/163
f 199/188/164 108/146/124 112/149/127 198/189/165
f 199/188/164 198/189/165 129/190/166 136/191/167
f 136/191/167 129/190/166 200/192/168 201/193/169
f 200/192/168 121/180/156 110/183/159 201/193/169
f 106/194/119 175/195/118 233/196/170 202/197/171
f 175/195/118 131/198/121 232/199/172 233/196/170
f 137/200/161 197/201/163 203/202/173 204/203/174
f 197/201/163 106/194/119 202/197/171 203/202/173
f 231/204/175 232/199/172 131/198/121 177/205/123
f 177/205/123 114/206/109 230/207/176 231/204/175
f 110/208/159 195/209/158 205/210/177 206/211/178
f 195/209/158 137/200/161 204/203/174 205/210/177
f 229/212/179 230/207/176 114/206/109 171/213/108
f 171/213/108 130/214/111 228/215/180 229/212/179
f 227/216/181 228/215/180 130/214/111 173/217/113
f 173/217/113 107/218/115 226/219/182 227/216/181
f 225/220/183 226/219/182 107/218/115 191/221/150
f 191/221/150 132/222/153 224/223/184 225/220/183
f 223/224/185 224/223/184 132/222/153 193/225/155
f 193/225/155 116/226/145 222/227/186 223/224/185
f 221/228/187 222/227/186 116/226/145 187/229/144
f 187/229/144 133/230/147 220/231/188 221/228/187
f 219/232/189 220/231/188 133/230/147 189/233/149
f 189/233/149 109/234/140 218/235/190 219/232/189
f 217/236/191 218/235/190 109/234/140 184/237/138
f 184/237/138 134/238/136 216/239/192 217/236/191
f 215/240/193 216/239/192 134/238/136 182/241/135
f 182/241/135 117/242/132 214/243/194 215/240/193
f 136/244/167 201/245/169 207/246/195 208/247/196
f 201/245/169 110/208/159 206/211/178 207/246/195
f 213/248/197 214/249/194 117/250/132 180/251/130
f 180/251/130 135/252/128 212/253/198 213/248/197
f 211/254/199 212/253/198 135/252/128 178/255/125
f 178/255/125 108/256/124 210/257/200 211/254/199
f 209/258/201 210/257/200 108/256/124 199/259/164
f 199/259/164 136/244/167 208/247/196 209/258/201
f 264/260/202 265/261/203 138/262/204 155/263/205
f 263/264/206 264/260/202 155/263/205 140/265/207
f 262/266/208 263/264/206 140/265/207 157/267/209
f 261/268/210 262/266/208 157/267/209 142/269/211
f 260/270/212 261/268/210 142/269/211 166/271/213
f 259/272/214 260/270/212 166/271/213 151/273/215
f 258/274/216 259/272/214 151/273/215 169/275/217
f 153/276/218 257/277/219 258/274/216 169/275/217
f 256/278/220 257/277/219 153/276/218 168/279/221
f 152/280/222 255/281/223 256/278/220 168/279/221
f 254/282/224 255/281/223 152/280/222 167/283/225
f 150/284/226 253/285/227 254/282/224 167/283/225
f 252/286/228 253/287/227 150/288/226 165/289/229
f 149/290/230 251/291/231 252/286/228 165/289/229
f 250/292/232 251/291/231 149/290/230 164/293/233
f 148/294/234 249/295/235 250/292/232 164/293/233
f 248/296/236 249/295/235 148/294/234 163/297/237
f 147/298/238 247/299/239 248/296/236 163/297/237
f 246/300/240 247/299/239 147/298/238 162/301/241
f 146/302/242 245/303/243 246/300/240 162/301/241
f 244/304/244 245/303/243 146/302/242 161/305/245
f 145/306/246 243/307/247 244/304/244 161/305/245
f 242/308/248 243/307/247 145/306/246 160/309/249
f 144/310/250 241/311/251 242/308/248 160/309/249
f 240/312/252 241/311/251 144/310/250 159/313/253
f 143/314/254 239/315/255 240/312/252 159/313/253
f 238/316/256 239/315/255 143/314/254 158/317/257
f 141/318/258 237/319/259 238/316/256 158/317/257
f 236/320/260 237/319/259 141/318/258 156/321/261
f 139/322/262 235/323/263 236/320/260 156/321/261
f 234/324/264 235/323/263 139/322/262 154/325/265
f 265/261/203 234/324/264 154/325/265 138/262/204
f 233/196/170 232/199/172 235/323/263 234/324/264
f 236/320/260 235/323/263 232/199/172 231/204/175
f 231/204/175 230/207/176 237/319/259 236/320/260
f 238/316/256 237/319/259 230/207/176 229/212/179
f 229/212/179 228/215/180 239/315/255 238/316/256
f 240/312/252 239/315/255 228/215/180 227/216/181
f 227/216/181 226/219/182 241/311/251 240/312/252
f 242/308/248 241/311/251 226/219/182 225/220/183
f 225/220/183 224/223/184 243/307/247 242/308/248
f 244/304/244 243/307/247 224/223/184 223/224/185
f 223/224/185 222/227/186 245/303/243 244/304/244
f 246/300/240 245/303/243 222/227/186 221/228/187
f 221/228/187 220/231/188 247/299/239 246/300/240
f 248/296/236 247/299/239 220/231/188 219/232/189
f 219/232/189 218/235/190 249/295/235 248/296/236
f 250/292/232 249/295/235 218/235/190 217/236/191
f 217/236/191 216/239/192 251/291/231 250/292/232
f 252/286/228 251/291/231 216/239/192 215/240/193
f 215/240/193 214/243/194 253/287/227 252/286/228
f 254/282/224 253/285/227 214/249/194 213/248/197
f 213/248/197 212/253/198 255/281/223 254/282/224
f 256/278/220 255/281/223 212/253/198 211/254/199
f 211/254/199 210/257/200 257/277/219 256/278/220
f 258/274/216 257/277/219 210/257/200 209/258/201
f 209/258/201 208/247/196 259/272/214 258/274/216
f 208/247/196 207/246/195 260/270/212 259/272/214
f 207/246/195 206/211/178 261/268/210 260/270/212
f 206/211/178 205/210/177 262/266/208 261/268/210
f 205/210/177 204/203/174 263/264/206 262/266/208
f 204/203/174 203/202/173 264/260/202 263/264/206
f 203/202/173 202/197/171 265/261/203 264/260/202
f 202/197/171 233/196/170 234/324/264 265/261/203
f 118/128/106 176/144/122 267/326/266 266/327/267
f 176/144/122 123/142/120 268/328/268 267/326/266
f 123/142/120 174/139/117 269/329/269 268/328/268
f 174/139/117 115/138/116 270/330/270 269/329/269
f 113/136/114 172/134/112 272/331/271 271/332/272
f 172/134/112 122/132/110 273/333/273 272/331/271
f 122/132/110 170/129/107 274/334/274 273/333/273
f 170/129/107 118/128/106 266/327/267 274/334/274
f 181/153/131 119/155/133 275/335/275 276/336/276
f 125/151/129 181/153/131 276/336/276 277/337/277
f 179/148/126 125/151/129 277/337/277 278/338/278
f 112/149/127 179/148/126 278/338/278 279/339/279
f 185/163/139 111/165/141 280/340/280 281/341/281
f 124/161/137 185/163/139 281/341/281 282/342/282
f 183/156/134 124/161/137 282/342/282 283/343/283
f 119/157/133 183/156/134 283/343/283 275/344/275
f 120/166/142 192/178/154 285/345/284 284/346/285
f 192/178/154 127/176/152 286/347/286 285/345/284
f 127/176/152 190/175/151 287/348/287 286/347/286
f 190/175/151 113/136/114 271/332/272 287/348/287
f 111/165/141 188/172/148 288/349/288 280/340/280
f 188/172/148 126/170/146 289/350/289 288/349/288
f 126/170/146 186/167/143 290/351/290 289/350/289
f 186/167/143 120/166/142 284/346/285 290/351/290
f 121/180/156 200/192/168 292/352/291 291/353/292
f 200/192/168 129/190/166 293/354/293 292/352/291
f 129/190/166 198/189/165 294/355/294 293/354/293
f 198/189/165 112/149/127 279/339/279 294/355/294
f 115/138/116 196/186/162 295/356/295 270/330/270
f 196/186/162 128/184/160 296/357/296 295/356/295
f 128/184/160 194/181/157 297/358/297 296/357/296
f 194/181/157 121/180/156 291/353/292 297/358/297
f 266/327/267 267/326/266 299/359/298 298/360/299
f 267/326/266 268/328/268 300/361/300 299/359/298
f 268/328/268 269/329/269 301/362/301 300/361/300
f 269/329/269 270/330/270 302/363/302 301/362/301
f 271/332/272 272/331/271 304/364/303 303/365/304
f 272/331/271 273/333/273 305/366/305 304/364/303
f 273/333/273 274/334/274 306/367/306 305/366/305
f 274/334/274 266/327/267 298/360/299 306/367/306
f 276/336/276 275/335/275 307/368/307 308/369/308
f 277/337/277 276/336/276 308/369/308 309/370/309
f 278/338/278 277/337/277 309/370/309 310/371/310
f 279/339/279 278/338/278 310/371/310 311/372/311
f 281/341/281 280/340/280 312/373/312 313/374/313
f 282/342/282 281/341/281 313/374/313 314/375/314
f 283/343/283 282/342/282 314/375/314 315/376/315
f 275/344/275 283/343/283 315/376/315 307/377/307
f 284/346/285 285/345/284 317/378/316 316/379/317
f 285/345/284 286/347/286 318/380/318 317/378/316
f 286/347/286 287/348/287 319/381/319 318/380/318
f 287/348/287 271/332/272 303/365/304 319/381/319
f 280/340/280 288/349/288 320/382/320 312/373/312
f 288/349/288 289/350/289 321/383/321 320/382/320
f 289/350/289 290/351/290 322/384/322 321/383/321
f 290/351/290 284/346/285 316/379/317 322/384/322
f 291/353/292 292/352/291 324/385/323 323/386/324
f 292/352/291 293/354/293 325/387/325 324/385/323
f 293/354/293 294/355/294 326/388/326 325/387/325
f 294/355/294 279/339/279 311/372/311 326/388/326
f 270/330/270 295/356/295 327/389/327 302/363/302
f 295/356/295 296/357/296 328/390/328 327/389/327
f 296/357/296 297/358/297 329/391/329 328/390/328
f 297/358/297 291/353/292 323/386/324 329/391/329
s 7
f 330/392/330 333/393/331 378/394/332
f 331/395/333 330/396/330 337/397/334 336/398/335
f 332/399/336 331/400/333 356/401/337 355/402/338
f 333/403/331 332/399/336 351/404/339 350/405/340
f 334/406/341 337/407/334 378/394/332
f 335/408/342 334/409/341 341/410/343 340/411/344
f 336/398/335 335/408/342 360/412/345 359/413/346
f 338/414/347 341/415/343 378/394/332
f 339/416/348 338/417/347 345/418/349 344/419/350
f 340/411/344 339/416/348 364/420/351 363/421/352
f 342/422/353 345/423/349 378/394/332
f 343/424/354 342/425/353 349/426/355 348/427/356
f 344/419/350 343/424/354 368/428/357 367/429/358
f 346/430/359 349/431/355 378/394/332
f 347/432/360 346/433/359 353/434/361 352/435/362
f 348/427/356 347/432/360 372/436/363 371/437/364
f 350/438/340 353/439/361 378/394/332
f 352/435/362 351/404/339 376/440/365 375/441/366
f 355/402/338 354/442/367 377/443/368 376/440/365
f 357/444/369 356/445/337 359/413/346 358/446/370
f 361/447/371 360/412/345 363/421/352 362/448/372
f 365/449/373 364/420/351 367/429/358 366/450/374
f 369/451/375 368/428/357 371/437/364 370/452/376
f 373/453/377 372/436/363 375/441/366 374/454/378
f 331/395/333 336/398/335 359/413/346 356/445/337
f 335/408/342 340/411/344 363/421/352 360/412/345
f 339/416/348 344/419/350 367/429/358 364/420/351
f 343/424/354 348/427/356 371/437/364 368/428/357
f 347/432/360 352/435/362 375/441/366 372/436/363
f 351/404/339 332/399/336 355/402/338 376/440/365
f 337/407/334 330/392/330 378/394/332
f 341/415/343 334/406/341 378/394/332
f 345/423/349 338/414/347 378/394/332
f 349/431/355 342/422/353 378/394/332
f 353/439/361 346/430/359 378/394/332
f 333/393/331 350/438/340 378/394/332
f 330/455/330 331/400/333 332/399/336 333/456/331
f 334/457/341 335/408/342 336/398/335 337/458/334
f 338/459/347 339/416/348 340/411/344 341/460/343
f 342/461/353 343/424/354 344/419/350 345/462/349
f 346/463/359 347/432/360 348/427/356 349/464/355
f 350/465/340 351/404/339 352/435/362 353/466/361
f 354/467/367 355/402/338 356/401/337 357/468/369
f 358/469/370 359/413/346 360/412/345 361/470/371
f 362/471/372 363/421/352 364/420/351 365/472/373
f 366/473/374 367/429/358 368/428/357 369/474/375
f 370/475/376 371/437/364 372/436/363 373/476/377
f 374/477/378 375/441/366 376/440/365 377/478/368
f 354/467/367 357/468/369 380/479/379 379/480/380
f 358/469/370 361/470/371 382/481/381 381/482/382
f 362/471/372 365/472/373 384/483/383 383/484/384
f 366/473/374 369/474/375 386/485/385 385/486/386
f 370/475/376 373/476/377 388/487/387 387/488/388
f 374/477/378 377/478/368 390/489/389 389/490/390
f 357/444/369 358/446/370 381/491/382 380/492/379
f 361/447/371 362/448/372 383/493/384 382/494/381
f 365/449/373 366/450/374 385/495/386 384/496/383
f 369/451/375 370/452/376 387/497/388 386/498/385
f 373/453/377 374/454/378 389/499/390 388/500/387
f 377/443/368 354/442/367 379/501/380 390/502/389
