# This file uses meters as units for non-parametric coordinates.

mtllib incense.mtl
g default
v 74.956116 -38.399414 -63.686554
v 86.445251 -38.727539 -63.653099
v 85.227356 -52.507477 -46.982571
v 75.096436 -52.273697 -47.478680
v 85.781921 -50.390663 58.604290
v 75.857178 -50.306778 58.833275
v 75.813721 41.848816 -69.063011
v 86.053711 41.739365 -69.081352
v 75.724731 54.238083 -63.883034
v 86.185852 54.391724 -63.702728
v 75.649780 60.085220 8.224651
v 86.561340 60.085152 8.221330
v 75.937622 50.572227 55.971603
v 86.001221 49.945679 56.716999
v 75.300476 34.521118 65.868187
v 85.552979 34.122112 66.130814
v 75.841736 -40.914398 73.352890
v 85.256042 -41.206215 73.196785
v 75.718628 55.615929 42.167088
v 85.484131 55.854576 41.131470
v 86.797424 57.876709 -48.408543
v 75.796021 57.881828 -48.277695
v 75.641052 -2.894757 -67.306496
v 86.148438 -3.418790 -67.253067
v 75.477295 10.877978 66.756554
v 85.469421 10.499697 66.757401
v 89.328430 -37.772079 -59.792202
v 89.285034 -50.270264 -45.302017
v 89.355896 -48.257317 57.286766
v 89.280579 41.454170 -65.286743
v 89.271729 -2.531331 -63.612347
v 89.270630 51.693657 -61.141411
v 89.135864 58.331978 14.081160
v 89.308044 55.024910 -48.645218
v 89.262512 46.847061 54.088120
v 89.344116 52.260315 43.346874
v 89.313843 29.814142 63.505997
v 89.361328 -40.493660 71.648895
v 89.304688 8.882983 63.679131
v 72.199097 -49.348541 -46.042694
v 72.118286 -38.046432 -60.157322
v 72.170044 -47.378448 57.165051
v 72.205688 -2.317472 -63.523811
v 72.203247 39.368065 -65.621735
v 72.229309 51.569023 -60.559265
v 72.158875 54.743721 -50.975986
v 72.124390 57.822662 9.739624
v 72.105103 55.607918 29.101349
v 72.173340 47.633720 53.986885
v 72.100647 33.888680 63.856728
v 72.097290 10.301609 64.851051
v 72.163269 -39.213097 70.707947
v 185.733582 -50.389359 58.608498
v 188.402710 -50.541275 58.193142
v 188.919983 -39.872070 70.460770
v 185.311768 -39.888863 70.452248
v 183.374939 -47.277550 57.829681
v 183.381470 -36.886520 67.778175
v 190.752014 -38.970848 67.944801
v 190.763062 -46.977562 59.131580
v 88.770874 -15.288801 68.398483
v 85.610779 -15.687872 70.758553
v 75.474854 -15.363657 70.778160
v 72.163574 -14.871189 67.775444
v 189.258850 -14.692404 70.558868
v 185.778259 -14.719843 70.817108
v 183.403748 -14.404869 67.269547
v 190.717896 -15.167633 67.396103
v 188.978943 7.076700 67.298859
v 185.664429 7.297928 67.311348
v 183.311279 10.480665 65.724907
v 190.681458 6.682531 63.185928
v 188.899658 34.027298 70.507362
v 185.591309 34.333710 70.381126
v 183.379456 33.809250 66.878227
v 191.045044 33.220299 67.500824
v 188.688721 51.754211 58.212917
v 185.561890 51.539490 58.480381
v 183.422974 47.897163 56.748722
v 190.705994 48.635994 56.436691
v 189.233093 57.776970 41.361847
v 185.347107 57.948730 41.746708
v 183.416626 54.252693 40.414856
v 190.724121 54.727272 40.131027
v 188.749939 60.115944 9.926365
v 184.844299 59.836983 10.319061
v 183.378967 57.263214 9.628752
v 190.734680 57.130424 9.281433
v 188.413818 58.012276 -48.700130
v 185.084351 57.987808 -48.417381
v 183.390747 54.937721 -47.969124
v 190.710144 54.565361 -48.063858
v 185.293945 55.062485 -60.501133
v 183.377869 52.544220 -58.864857
v 188.989807 54.970688 -60.586983
v 190.724182 52.297539 -58.536968
v 188.788757 41.683937 -66.248886
v 184.823853 41.572426 -65.970871
v 190.727905 40.894981 -62.894875
v 183.412354 40.806976 -62.550175
v 189.187927 1.563895 -71.780174
v 185.140869 1.539343 -71.985466
v 183.362122 1.769442 -69.230675
v 190.734253 1.736517 -68.805298
v 189.137451 -39.392876 -63.701576
v 185.331116 -39.591011 -63.720463
v 190.738770 -38.823715 -59.885509
v 183.360168 -38.934959 -60.267292
v 190.727722 -47.260033 -46.699776
v 189.396179 -49.580811 -48.378002
v 185.153625 -49.841736 -48.629757
v 183.405945 -46.864838 -47.177750
v 189.235168 -52.585060 -36.470596
v 184.941162 -52.673027 -37.037411
v 183.400146 -50.073944 -36.695873
v 190.723328 -50.076546 -36.359558
v 89.271667 -44.820015 -51.562916
v 85.923340 -46.885872 -54.504883
v 74.836731 -46.624710 -54.815086
v 72.195679 -44.422142 -52.144257
v 183.826721 -44.183189 -35.410263
v 182.484314 -42.038589 58.009182
v 182.010742 -37.485428 65.540154
v 182.817993 18.099205 61.243881
v 181.045715 30.798035 67.039764
v 182.365906 46.327766 52.717937
v 182.201233 50.018234 44.622120
v 180.427979 56.249557 5.006841
v 180.977600 53.616959 -51.335510
v 181.076355 50.339760 -56.935265
v 181.328125 43.315178 -57.526291
v 181.166870 1.774741 -66.328629
v 181.150757 -37.314148 -57.879944
v 181.452576 -42.268456 -48.067909
v 90.998169 -48.035934 -35.630322
v 90.798706 -43.415482 58.535309
v 91.364502 -38.273743 67.526024
v 91.072388 -15.272518 68.357903
v 91.536499 8.662769 59.173271
v 91.550354 29.689476 62.746712
v 90.168335 44.594337 52.405319
v 90.230530 47.501472 45.466953
v 91.604980 56.329132 23.153618
v 91.507629 53.647408 -48.421253
v 91.371826 49.703667 -59.205761
v 91.269958 37.067436 -63.141045
v 90.105103 1.740418 -60.496258
v 91.375244 -37.061920 -58.575390
v 90.461670 -40.984123 -50.498627
v 181.511353 -13.883137 64.625969
v 72.191284 -48.694557 6.300075
v 75.595093 -51.815384 6.242951
v 85.768005 -51.829430 6.391169
v 88.893066 -50.428635 5.909833
v 89.508667 -43.496689 5.636318
v 181.209473 -45.292381 7.833858
v 183.407959 -48.773941 7.032088
v 185.201721 -51.813751 7.214147
v 188.943726 -51.811935 7.325991
v 190.697388 -48.614815 7.814273
v -103.825958 -51.700996 5.035530
v -92.819794 -51.622108 4.202846
v -92.618988 -58.433945 48.694672
v -102.966583 -58.465622 48.534199
v -92.927704 -51.124138 60.394634
v -103.260071 -51.038063 60.449135
v -92.791962 -9.702263 66.267189
v -104.107239 -9.691395 66.267357
v -93.214386 13.477587 64.178391
v -103.935486 12.613383 64.244118
v -93.067810 41.898277 64.417381
v -103.706726 40.939117 64.589882
v -92.901398 56.365723 58.366386
v -102.929352 56.187477 58.581665
v -93.358398 59.867767 43.868359
v -104.102722 59.804817 44.449566
v -93.210663 57.449234 5.657723
v -103.647125 57.490013 6.233042
v -93.119598 57.822365 -48.769463
v -104.104401 57.826263 -48.976547
v -93.036652 54.127655 -64.015839
v -103.761902 54.189606 -63.938980
v -93.181976 42.628334 -68.932365
v -104.011658 42.697899 -68.920708
v -93.085510 2.355057 -67.678223
v -103.792847 2.105371 -67.690575
v -92.631165 -32.706528 -72.398880
v -103.810608 -32.358620 -72.405975
v -93.422363 -46.565483 -68.958694
v -103.383087 -46.739502 -68.799400
v -103.575073 -50.052452 -57.409214
v -93.831512 -50.055283 -57.390633
v -89.660339 -44.607468 -67.563522
v -89.637360 -47.788452 -58.009674
v -89.668579 -32.293144 -69.559959
v -89.675110 2.318034 -64.846199
v -89.825287 -49.769859 -4.948018
v -89.659332 -55.575287 48.616447
v -89.727386 -48.900459 57.322189
v -89.709473 -9.799241 62.929268
v -89.697662 12.896601 60.952621
v -89.763916 37.600800 62.893295
v -89.627808 54.700325 57.463650
v -89.656067 57.242096 44.193665
v -89.663849 54.920624 6.142812
v -89.664398 55.294624 -48.348824
v -89.675446 51.810120 -62.110966
v -89.507446 42.805588 -67.113403
v -106.832062 51.928680 -61.871632
v -106.919220 42.797333 -67.179855
v -106.823669 1.789698 -64.574226
v -106.803833 -32.206192 -68.738625
v -106.823303 -44.009010 -67.026947
v -106.827362 -47.068954 -57.464767
v -106.827118 -48.899033 5.344781
v -106.961670 -56.147514 48.210419
v -106.822815 -49.330116 57.928761
v -106.842346 -9.179096 63.544106
v -106.839203 12.739389 61.323578
v -106.874481 37.048691 62.282570
v -106.276398 56.148491 57.020512
v -106.616211 58.334732 39.839520
v -106.825195 54.540268 6.177770
v -106.828064 54.951752 -48.719234
v 69.994263 55.428299 9.607450
v 70.030212 53.639442 -50.753426
v 70.081421 50.183128 -59.348919
v 70.007446 38.287804 -59.578396
v 69.070740 2.086570 -60.473701
v 69.958313 -37.733116 -59.649296
v 69.886169 -41.539459 -49.779984
v 69.890503 -47.377174 -37.473293
v 70.862244 -42.428215 5.962212
v 69.706726 -44.281105 62.866325
v 70.122375 -37.737030 67.490921
v 70.048828 -14.836267 67.273857
v 70.089600 9.949409 59.183472
v 68.937378 28.029867 63.475357
v 69.223022 47.927879 50.870598
v 68.612732 57.523491 20.294405
v -85.500336 53.416397 6.204249
v -86.461761 56.034462 -42.637348
v -86.002319 47.136833 -64.642487
v -85.307831 42.712685 -67.077469
v -85.738647 2.048122 -59.454319
v -86.882233 -37.296661 -67.500336
v -87.929138 -43.688904 -65.601974
v -88.118988 -45.815445 -58.410938
v -89.854187 -42.397842 -11.944530
v -87.414154 -55.150635 49.366436
v -87.404755 -47.010391 55.405853
v -86.553192 -6.022773 63.692085
v -88.693298 10.387573 54.761616
v -86.717804 31.615891 61.920158
v -87.325562 54.018280 56.290154
v -86.183533 57.451698 31.941574
v 295.667236 58.301315 51.024323
v 295.583313 60.573387 43.199802
v 288.396545 43.020592 72.244820
v 287.888977 6.552309 58.083706
v 306.068359 -14.643564 63.231628
v 267.264648 -43.371269 53.809776
v 268.795349 -38.941803 59.720856
v 303.371460 -43.456566 5.214642
v 295.086243 -32.900246 -33.902100
v 293.925293 -22.613569 -63.680679
v 286.526001 -42.132019 -55.287041
v 279.250183 -4.029873 -73.136948
v 289.858398 44.555260 -57.869301
v 288.776611 51.371025 -53.631470
v 297.509705 58.944199 -38.491859
v 282.315857 62.823219 -7.726598
v 306.536072 51.363724 5.460349
v 311.149231 42.589897 27.512402
v 306.398682 45.032471 55.081062
v 305.394470 39.439987 63.812798
v 304.274719 15.901711 56.108982
v 304.792053 3.901479 49.145336
v 304.101074 -24.175882 55.469830
v 307.624023 -17.149233 27.676188
v 307.528015 -17.549812 -9.442213
v 307.396912 -18.719307 -43.749779
v 305.633911 -11.925991 -48.478745
v 304.074829 11.156293 -58.162365
v 307.045471 38.715866 -24.943497
v 306.585876 31.639980 -26.815405
v 302.942993 18.458706 -54.330406
v 307.314453 11.951562 -0.599209
v 307.262878 7.139593 -17.011410
v 318.432739 8.214378 -36.805092
v 193.566345 50.790611 49.179817
v 191.356812 48.468666 40.697624
v 192.596741 55.301712 8.947847
v 192.831116 51.835098 -47.369835
v 192.547302 50.496658 -56.846130
v 191.062866 42.104599 -57.789806
v 192.453552 1.688502 -67.065773
v 192.194397 -38.521652 -58.315514
v 190.941223 -42.656059 -48.733665
v 190.050842 -43.613197 -35.919449
v 192.601013 -45.058350 7.785596
v 191.895569 -42.105980 57.144043
v 192.015625 -37.618599 64.996223
v 192.724182 -15.479673 63.436150
v 192.230652 6.758033 51.854565
v 192.913818 33.413361 67.611122
v 266.600220 -43.868958 -54.378807
v 265.773438 -40.271912 -59.182446
v 263.786865 -2.473199 -72.259842
v 269.448608 43.943726 -59.593124
v 268.697937 51.454903 -54.609470
v 275.712341 56.692665 -40.150887
v 263.748413 59.677513 -4.263167
v 274.074707 58.878983 42.422867
v 274.090149 56.636574 52.020473
v 268.408264 41.227890 72.037231
v 267.930237 6.586555 56.945332
v 282.425720 -14.746134 63.942146
v 252.798340 -39.042404 61.450157
v 251.543091 -43.089615 54.499641
v 280.276794 -44.169754 5.719882
v 273.240356 -36.220818 -34.283264
v -190.941162 -62.743904 48.041134
v -187.577911 -62.823219 47.542118
v -187.333435 -55.149704 57.152786
v -191.349243 -55.169998 57.286118
v -191.516418 -51.773041 6.638888
v -187.928497 -51.816933 6.258783
v -191.723358 -47.832153 -58.326656
v -187.906769 -48.151031 -58.394356
v -191.438599 -44.447792 -70.589005
v -187.541138 -44.732643 -70.372864
v -191.501801 -30.634718 -73.208458
v -187.544678 -30.447443 -73.286407
v -191.369598 1.839522 -67.703712
v -187.526337 1.873535 -67.677475
v -191.561554 40.228607 -73.235130
v -187.791229 40.790985 -73.352890
v -191.389008 53.541466 -68.813858
v -187.672455 53.692680 -68.682487
v -191.214752 57.330353 -54.034969
v -188.124084 57.335320 -53.932255
v -191.859802 57.858810 -0.298126
v -187.754303 58.340416 0.051476
v -191.358276 61.755798 41.985546
v -187.988953 61.749115 42.288673
v -191.458771 57.846947 60.100880
v -187.858734 57.758354 60.321754
v -191.295654 42.148422 65.895569
v -187.262543 42.346909 65.621407
v -191.545166 14.922022 64.279625
v -187.089508 14.973714 63.949814
v -192.051086 -7.226071 67.911003
v -187.634430 -6.811155 68.490448
v -185.768066 -45.525024 -59.187870
v -185.788086 -42.291245 -68.747566
v -185.811554 -30.960276 -69.899132
v -185.786835 1.903215 -64.780197
v -185.781952 40.967270 -70.298569
v -185.805023 51.662880 -66.462433
v -185.766235 55.016617 -53.658478
v -185.776428 55.750565 0.548237
v -185.768707 59.166107 42.582920
v -185.812866 55.429741 57.552303
v -185.819275 42.412361 62.090973
v -185.834839 15.027942 60.584053
v -184.838837 -6.457213 66.040436
v -185.819824 -53.323509 54.709145
v -185.819366 -59.323753 46.225143
v -185.796753 -48.931282 5.650288
v -193.153809 -59.630035 46.666492
v -193.133545 -48.816681 6.797522
v -193.106415 -52.949791 54.355480
v -193.105438 -44.582138 -57.830940
v -193.084686 -41.728706 -67.264656
v -193.106659 -30.075361 -69.332764
v -193.132446 1.490322 -64.283875
v -193.101501 39.881477 -69.163322
v -196.337097 51.896912 -66.173279
v -193.123627 54.072014 -53.642746
v -193.153961 55.423157 -0.551777
v -193.189941 59.442902 41.442814
v -193.105377 54.561745 57.145947
v -193.143677 43.695488 62.079926
v -193.140808 15.648951 61.064240
v -194.415497 -5.709292 66.314278
v -109.974915 -7.439570 63.940849
v -107.861206 6.651569 54.678009
v -109.427094 33.535378 61.898651
v -109.191437 55.508316 55.152630
v -109.706238 57.811287 32.254704
v -110.250702 54.956497 11.504749
v -109.351044 55.998001 -42.182644
v -108.959961 48.533798 -64.486435
v -109.497040 40.278587 -66.661697
v -109.729553 9.119545 -61.908672
v -109.303345 -36.986343 -67.642593
v -109.565308 -42.830765 -65.744415
v -108.336487 -44.889656 -57.777130
v -107.807495 -43.617355 -13.743133
v -109.663300 -56.167084 47.335899
v -109.316772 -52.274254 53.605511
v -182.228088 -6.489697 66.006210
v -186.469391 8.450285 53.969051
v -183.919250 31.912626 60.384312
v -183.375031 52.457375 58.039833
v -182.426361 59.083260 31.629017
v -183.444153 53.406715 -15.046574
v -183.292847 55.409012 -45.252277
v -183.583710 52.804619 -64.621712
v -183.615051 47.333679 -67.102638
v -184.361664 9.526302 -63.141743
v -183.219452 -31.174776 -67.382050
v -183.245209 -38.989182 -64.715683
v -183.186737 -40.253433 -58.226967
v -182.830750 -45.807129 -14.441900
v -183.194397 -58.139252 46.064449
v -183.257904 -50.749985 50.975971
v -286.946167 17.588816 -62.002865
v -291.403442 33.637245 -60.060734
v -273.793854 60.567497 -62.556385
v -294.977234 53.263008 -38.986137
v -283.254822 52.706474 0.021109
v -299.982422 58.377792 32.030983
v -278.238464 49.703003 60.072697
v -255.730194 12.291336 -61.232616
v -258.576721 35.677841 -59.920734
v -250.312317 59.248001 -63.416359
v -255.047180 53.549561 -40.000767
v -254.479218 48.433907 -11.109547
v -262.273407 60.158195 29.021103
v -256.677979 49.711502 61.543739
v -275.579865 -24.715490 -64.415825
v -297.339874 -23.933737 -59.659435
v -298.038879 -28.279799 -55.882401
v -274.966125 -30.769888 -60.406265
v -268.984344 -39.169670 -45.826698
v -296.691406 -39.965462 -44.210487
v -268.118195 -47.652878 -13.891959
v -293.186218 -46.527336 -15.867387
v -268.594482 -56.945221 42.491837
v -305.170502 -56.816437 40.074749
v -268.696899 -52.199448 49.538940
v -305.789307 -51.697830 45.713245
v -312.462402 -19.783659 54.818352
v -286.625336 -23.199724 60.410645
v -280.069702 -5.990736 67.249802
v -293.786377 -5.485884 65.991631
v -256.818237 45.124519 64.240776
v -278.324554 45.377411 63.744293
v -313.095459 42.029182 49.707081
v -312.355347 36.681679 55.131603
v -313.477905 2.324539 34.300964
v -314.834015 -15.322208 48.654171
v -312.452820 -32.320549 34.938786
v -312.855042 -34.656372 29.489597
v -312.887939 -29.581560 -5.254066
v -312.453918 -28.044741 -35.169949
v -313.478394 -24.304893 -46.588192
v -312.884857 -18.935883 -46.782410
v -312.436005 -4.507818 -32.725021
v -312.867126 31.939976 -26.683487
v -295.469238 48.775841 -46.128174
v -313.199493 36.719505 -23.723425
v -312.838593 37.864037 -17.022612
v -312.991699 41.974670 9.860475
v -318.432739 36.980736 27.439596
v -313.446411 -10.413213 26.338285
v -315.077332 -14.917477 17.445211
v -312.624329 -7.654988 -0.122499
v -311.961853 -6.582252 -16.093058
v -313.177795 9.481998 4.486749
v -311.884949 13.611817 -3.805683
vt 0.085880 0.351987
vt 0.085824 0.363490
vt 0.069572 0.362453
vt 0.069768 0.352870
vt 0.379153 0.357454
vt 0.379014 0.366586
vt 0.159839 0.354768
vt 0.159779 0.363944
vt 0.169773 0.353436
vt 0.169907 0.363200
vt 0.235957 0.364844
vt 0.236044 0.354201
vt 0.280559 0.354911
vt 0.281078 0.364329
vt 0.296730 0.355079
vt 0.296656 0.365412
vt 0.366598 0.357471
vt 0.366699 0.366176
vt 0.267990 0.354471
vt 0.266954 0.363861
vt 0.181868 0.364250
vt 0.182054 0.353221
vt 0.118779 0.352989
vt 0.118150 0.362908
vt 0.318794 0.356579
vt 0.318952 0.365752
vt 0.085313 0.368361
vt 0.068650 0.366910
vt 0.379435 0.370478
vt 0.160181 0.368322
vt 0.118734 0.367449
vt 0.169846 0.367539
vt 0.241561 0.367889
vt 0.181165 0.367992
vt 0.280972 0.369074
vt 0.269981 0.368456
vt 0.299478 0.370766
vt 0.366884 0.370260
vt 0.320179 0.370166
vt 0.068841 0.348968
vt 0.084964 0.347520
vt 0.380035 0.353122
vt 0.119216 0.348181
vt 0.158193 0.350361
vt 0.170171 0.348479
vt 0.179022 0.348509
vt 0.237494 0.350235
vt 0.256209 0.349971
vt 0.281126 0.350111
vt 0.296735 0.351281
vt 0.319207 0.353081
vt 0.366504 0.353197
vt 0.366069 0.466465
vt 0.375775 0.467813
vt 0.376133 0.470129
vt 0.366169 0.470148
vt 0.364453 0.462654
vt 0.375887 0.464459
vt 0.374632 0.473484
vt 0.366339 0.473260
vt 0.344300 0.370713
vt 0.344789 0.366743
vt 0.344778 0.356378
vt 0.344261 0.351889
vt 0.344790 0.470023
vt 0.344626 0.466563
vt 0.343798 0.462448
vt 0.345343 0.473495
vt 0.322791 0.468321
vt 0.322469 0.465490
vt 0.319237 0.463184
vt 0.323312 0.471861
vt 0.296330 0.471359
vt 0.296082 0.467796
vt 0.295809 0.463430
vt 0.296447 0.475203
vt 0.278600 0.470474
vt 0.279005 0.467543
vt 0.280008 0.463451
vt 0.278835 0.474258
vt 0.264595 0.465510
vt 0.264005 0.468814
vt 0.264392 0.461832
vt 0.263233 0.471744
vt 0.234938 0.467550
vt 0.235481 0.463645
vt 0.235002 0.460668
vt 0.234188 0.471120
vt 0.179498 0.465617
vt 0.179820 0.462342
vt 0.179979 0.458927
vt 0.179614 0.469675
vt 0.170572 0.459526
vt 0.170929 0.462799
vt 0.170781 0.466426
vt 0.170549 0.469964
vt 0.159922 0.465960
vt 0.159826 0.462609
vt 0.159967 0.469182
vt 0.159884 0.459517
vt 0.122763 0.464055
vt 0.122846 0.468035
vt 0.122846 0.460847
vt 0.122999 0.471305
vt 0.084920 0.468372
vt 0.084805 0.464517
vt 0.083872 0.472207
vt 0.084030 0.460707
vt 0.070654 0.471240
vt 0.071397 0.468385
vt 0.071555 0.464157
vt 0.071506 0.460575
vt 0.062159 0.464381
vt 0.061500 0.467864
vt 0.062045 0.461952
vt 0.061462 0.470212
vt 0.075555 0.367235
vt 0.076700 0.362979
vt 0.076755 0.352294
vt 0.075631 0.348646
vt 0.061480 0.457155
vt 0.374335 0.460185
vt 0.365784 0.460291
vt 0.311880 0.459736
vt 0.298516 0.460548
vt 0.278037 0.459893
vt 0.269396 0.459116
vt 0.230789 0.457369
vt 0.176604 0.456278
vt 0.170262 0.455967
vt 0.163470 0.455464
vt 0.122730 0.457322
vt 0.084392 0.457137
vt 0.073800 0.456310
vt 0.060104 0.370335
vt 0.376977 0.374738
vt 0.366697 0.374317
vt 0.344331 0.373039
vt 0.319834 0.374393
vt 0.299206 0.373246
vt 0.281309 0.371740
vt 0.273864 0.371726
vt 0.250313 0.371037
vt 0.181107 0.370554
vt 0.169738 0.370716
vt 0.156426 0.370992
vt 0.122592 0.370663
vt 0.085390 0.370874
vt 0.076499 0.370611
vt 0.342997 0.459353
vt 0.428056 0.356125
vt 0.020100 0.356086
vt 0.020159 0.365030
vt 0.020660 0.368005
vt 0.020444 0.373662
vt 0.020785 0.457098
vt 0.021361 0.461022
vt 0.021033 0.464411
vt 0.020813 0.468025
vt 0.020244 0.471552
vt 0.395587 0.184451
vt 0.436409 0.184742
vt 0.010992 0.187263
vt 0.394769 0.194784
vt 0.384993 0.184906
vt 0.385019 0.194153
vt 0.346888 0.193390
vt 0.347090 0.182106
vt 0.324994 0.182233
vt 0.323698 0.191310
vt 0.298158 0.181148
vt 0.296818 0.191429
vt 0.284029 0.181194
vt 0.283466 0.190838
vt 0.270844 0.189991
vt 0.271574 0.179711
vt 0.235055 0.189704
vt 0.235788 0.179647
vt 0.183850 0.188899
vt 0.183793 0.178297
vt 0.170678 0.188171
vt 0.170824 0.178565
vt 0.160743 0.177801
vt 0.160565 0.188625
vt 0.122028 0.177801
vt 0.122405 0.187803
vt 0.089335 0.178528
vt 0.089104 0.188876
vt 0.078051 0.188506
vt 0.077894 0.179040
vt 0.068795 0.188305
vt 0.068916 0.178943
vt 0.078484 0.192603
vt 0.069803 0.192918
vt 0.089255 0.192596
vt 0.122480 0.191887
vt 0.019607 0.190695
vt 0.394281 0.198839
vt 0.384329 0.198293
vt 0.347162 0.197885
vt 0.324082 0.195210
vt 0.300211 0.195280
vt 0.283644 0.194389
vt 0.271308 0.194341
vt 0.235392 0.193908
vt 0.183862 0.193023
vt 0.170606 0.192098
vt 0.161193 0.192712
vt 0.161192 0.174464
vt 0.170996 0.174792
vt 0.121763 0.173763
vt 0.089199 0.174244
vt 0.078512 0.174672
vt 0.069469 0.174774
vt 0.436784 0.181024
vt 0.395663 0.179923
vt 0.384807 0.180835
vt 0.346973 0.178233
vt 0.324723 0.178868
vt 0.301522 0.177222
vt 0.283260 0.177742
vt 0.267477 0.176830
vt 0.235744 0.175495
vt 0.183822 0.174505
vt 0.237210 0.347236
vt 0.178981 0.346131
vt 0.169860 0.345706
vt 0.158206 0.344907
vt 0.123369 0.344047
vt 0.084857 0.345212
vt 0.074508 0.345147
vt 0.061141 0.346185
vt 0.428453 0.350568
vt 0.374233 0.349624
vt 0.366338 0.349975
vt 0.344288 0.349693
vt 0.319408 0.348232
vt 0.301742 0.347658
vt 0.278750 0.346934
vt 0.247706 0.346333
vt 0.235336 0.198123
vt 0.189041 0.196336
vt 0.166300 0.196346
vt 0.161447 0.196931
vt 0.122236 0.197918
vt 0.084281 0.196090
vt 0.077826 0.194987
vt 0.070577 0.195286
vt 0.453149 0.202875
vt 0.393322 0.201124
vt 0.383420 0.201221
vt 0.343497 0.200911
vt 0.326119 0.199312
vt 0.305245 0.198932
vt 0.283301 0.196904
vt 0.259910 0.197757
vt 0.534240 0.870078
vt 0.541265 0.871924
vt 0.511026 0.860830
vt 0.503651 0.822109
vt 0.513664 0.800960
vt 0.501694 0.757648
vt 0.497396 0.765044
vt 0.559287 0.767876
vt 0.598095 0.765856
vt 0.627644 0.777264
vt 0.619817 0.759492
vt 0.647909 0.789583
vt 0.639096 0.842326
vt 0.636778 0.850703
vt 0.618868 0.856721
vt 0.592657 0.878630
vt 0.553729 0.848759
vt 0.574848 0.855535
vt 0.531523 0.854958
vt 0.523869 0.852020
vt 0.521248 0.829746
vt 0.524176 0.817503
vt 0.519371 0.792283
vt 0.543727 0.795872
vt 0.577033 0.788923
vt 0.606793 0.784363
vt 0.613109 0.789671
vt 0.625788 0.809647
vt 0.600991 0.841118
vt 0.601591 0.834181
vt 0.624950 0.817453
vt 0.573447 0.818279
vt 0.586888 0.811642
vt 0.605344 0.810351
vt 0.272054 0.477542
vt 0.263948 0.476147
vt 0.233771 0.473724
vt 0.179849 0.473046
vt 0.170544 0.473070
vt 0.162406 0.472946
vt 0.122970 0.473696
vt 0.083533 0.474353
vt 0.073587 0.474584
vt 0.061439 0.475489
vt 0.422047 0.479277
vt 0.375319 0.477873
vt 0.366416 0.476676
vt 0.345786 0.477908
vt 0.323877 0.479932
vt 0.296188 0.477322
vt 0.629423 0.744555
vt 0.083284 0.545091
vt 0.119775 0.541811
vt 0.163959 0.546459
vt 0.172138 0.545597
vt 0.185939 0.552377
vt 0.218494 0.541118
vt 0.260102 0.554393
vt 0.269025 0.555003
vt 0.292063 0.550557
vt 0.326411 0.549725
vt 0.347759 0.563157
vt 0.369701 0.534730
vt 0.377214 0.533856
vt 0.018533 0.558220
vt 0.057379 0.553013
vt 0.392426 0.097104
vt 0.399576 0.097973
vt 0.399660 0.101192
vt 0.392467 0.100648
vt 0.012799 0.090756
vt 0.438726 0.098950
vt 0.072962 0.093465
vt 0.072835 0.089903
vt 0.081198 0.094266
vt 0.081587 0.090974
vt 0.091429 0.091139
vt 0.091220 0.094835
vt 0.121618 0.091588
vt 0.121565 0.095419
vt 0.158376 0.093556
vt 0.157767 0.090346
vt 0.168617 0.094101
vt 0.168607 0.090268
vt 0.181130 0.091605
vt 0.181134 0.094628
vt 0.232333 0.096500
vt 0.232080 0.092492
vt 0.272025 0.093400
vt 0.272209 0.096688
vt 0.287173 0.094168
vt 0.287184 0.097452
vt 0.299882 0.094127
vt 0.299392 0.097940
vt 0.325157 0.097626
vt 0.325669 0.093788
vt 0.347159 0.099313
vt 0.347415 0.094827
vt 0.081735 0.096807
vt 0.074113 0.096582
vt 0.090365 0.098331
vt 0.121552 0.098733
vt 0.158658 0.096665
vt 0.168682 0.097448
vt 0.181134 0.097833
vt 0.232616 0.099677
vt 0.272467 0.099955
vt 0.286498 0.100899
vt 0.298561 0.101406
vt 0.324429 0.100530
vt 0.347209 0.103044
vt 0.400571 0.104720
vt 0.391934 0.103393
vt 0.013473 0.094245
vt 0.401131 0.094609
vt 0.439561 0.095709
vt 0.391659 0.093805
vt 0.072699 0.086643
vt 0.081590 0.087440
vt 0.092318 0.087383
vt 0.121348 0.087815
vt 0.157438 0.086646
vt 0.169206 0.084453
vt 0.181430 0.087974
vt 0.231797 0.089836
vt 0.271629 0.090573
vt 0.287140 0.090382
vt 0.298378 0.090313
vt 0.324995 0.090736
vt 0.346074 0.091804
vt 0.345521 0.174999
vt 0.330189 0.174216
vt 0.304719 0.174650
vt 0.282554 0.174576
vt 0.260582 0.173502
vt 0.240870 0.172335
vt 0.189971 0.171983
vt 0.167306 0.172088
vt 0.159005 0.171740
vt 0.128805 0.170289
vt 0.084474 0.171645
vt 0.078389 0.171553
vt 0.070197 0.172279
vt 0.455651 0.180006
vt 0.396404 0.177262
vt 0.389214 0.177418
vt 0.347523 0.105811
vt 0.330173 0.104809
vt 0.308077 0.103784
vt 0.288331 0.104004
vt 0.262196 0.103341
vt 0.217646 0.101970
vt 0.188957 0.100760
vt 0.170422 0.099864
vt 0.164679 0.100134
vt 0.128816 0.100654
vt 0.089593 0.101620
vt 0.081277 0.101748
vt 0.074616 0.101788
vt 0.458767 0.109316
vt 0.400261 0.107464
vt 0.391437 0.107775
vt 0.375342 0.786230
vt 0.360005 0.791763
vt 0.332619 0.784470
vt 0.339032 0.811098
vt 0.317674 0.844488
vt 0.326851 0.877006
vt 0.317883 0.911408
vt 0.129628 0.027555
vt 0.350164 0.762142
vt 0.320237 0.769094
vt 0.304645 0.794965
vt 0.294063 0.825798
vt 0.294013 0.875775
vt 0.302770 0.925683
vt 0.093140 0.009829
vt 0.418566 0.797791
vt 0.086169 0.010379
vt 0.423989 0.802400
vt 0.069571 0.014805
vt 0.434596 0.817443
vt 0.442335 0.846176
vt 0.459222 0.024327
vt 0.404875 0.023359
vt 0.427511 0.897118
vt 0.396698 0.022996
vt 0.423358 0.901685
vt 0.368044 0.004798
vt 0.396884 0.906032
vt 0.350147 0.010231
vt 0.380284 0.923715
vt 0.299951 0.030062
vt 0.322343 0.916581
vt 0.347323 0.896313
vt 0.343849 0.891201
vt 0.379594 0.885654
vt 0.393512 0.899857
vt 0.408859 0.888974
vt 0.411546 0.884207
vt 0.414874 0.852834
vt 0.417470 0.826689
vt 0.415881 0.816751
vt 0.411742 0.815735
vt 0.395078 0.823489
vt 0.360880 0.826940
vt 0.345075 0.805520
vt 0.356096 0.829309
vt 0.353538 0.834892
vt 0.346549 0.857606
vt 0.350968 0.873371
vt 0.391523 0.878998
vt 0.397060 0.871272
vt 0.393372 0.854273
vt 0.394639 0.839444
vt 0.377262 0.856575
vt 0.374547 0.848620
vt 0.314976 0.935954
vt 0.294871 0.030205
vt 0.376951 0.935966
vt 0.403049 0.930763
vt 0.447617 0.922258
vt 0.454734 0.914145
vt 0.465091 0.849823
vt 0.460332 0.811855
vt 0.434815 0.782117
vt 0.417425 0.775075
vt 0.375887 0.756318
vt 0.262904 0.024535
vt 0.223746 0.030456
vt 0.196629 0.029562
vt 0.174208 0.032664
vt 0.151729 0.024467
vt 0.601992 0.744165
vt 0.077751 0.546101
vt 0.555021 0.748158
vt 0.489286 0.748852
vt 0.484013 0.757377
vt 0.496458 0.796297
vt 0.485066 0.826296
vt 0.495407 0.868437
vt 0.524585 0.886946
vt 0.537755 0.891209
vt 0.592066 0.896794
vt 0.629776 0.872832
vt 0.655665 0.855968
vt 0.660072 0.838025
vt 0.662003 0.785520
vt 0.636197 0.747888
vt 0.012619 0.083955
vt 0.037781 0.013263
vt 0.032419 0.098495
vt 0.028350 0.169173
vt 0.010153 0.173141
vt 0.439693 0.105836
vt 0.012517 0.087243
vt 0.438725 0.102504
vt 0.423003 0.561915
vt 0.020158 0.475441
vt 0.422223 0.475513
vt 0.026460 0.197469
vt 0.019478 0.346878
vt 0.019865 0.352086
vt 0.445515 0.197349
vt 0.010315 0.176977
vt 0.436712 0.194765
vt 0.422788 0.472087
vt 0.422883 0.468550
vt 0.422888 0.465230
vt 0.421926 0.461381
vt 0.427663 0.378268
vt 0.427848 0.372145
vt 0.427548 0.369116
vt 0.428014 0.360150
vt 0.448550 0.795507
vt 0.428579 0.778844
vt 0.306142 0.929597
vt 0.296911 0.914695
vt 0.495093 0.744198
vt 0.485219 0.755657
vt 0.646760 0.868456
vt 0.657706 0.847443
vn -0.239639 -0.254460 -0.936922
vn 0.242944 -0.268357 -0.932182
vn 0.212891 -0.750663 -0.625446
vn -0.209612 -0.748129 -0.629576
vn -0.200774 -0.966594 0.159327
vn -0.223173 -0.974585 0.019448
vn 0.124362 -0.992053 0.019126
vn 0.119254 -0.980253 0.157743
vn -0.242051 -0.063903 -0.968157
vn 0.259305 -0.066129 -0.963529
vn 0.246323 0.054764 -0.967639
vn -0.215501 0.068084 -0.974127
vn -0.210388 0.759528 -0.615511
vn 0.192650 0.778762 -0.597005
vn 0.204013 0.978906 0.011002
vn 0.191255 0.978430 -0.078075
vn -0.207055 0.975578 -0.073323
vn -0.174126 0.984629 0.013630
vn -0.217532 0.950616 0.221380
vn 0.156078 0.968550 0.193779
vn -0.234382 0.754764 0.612696
vn -0.171228 0.262283 0.949678
vn 0.224525 0.262123 0.938552
vn 0.243080 0.707856 0.663214
vn -0.164460 0.090174 0.982253
vn 0.196147 0.090600 0.976380
vn 0.148387 -0.331508 0.931710
vn -0.191121 -0.318148 0.928577
vn 0.170663 0.125896 0.977254
vn -0.179475 0.121664 0.976210
vn 0.853184 -0.418464 -0.311391
vn 0.816007 -0.174071 -0.551210
vn 0.823721 -0.566900 0.010441
vn 0.845966 -0.529490 0.063112
vn 0.788075 0.053555 -0.613246
vn 0.801956 -0.035908 -0.596302
vn 0.779326 0.466839 -0.417987
vn 0.604373 0.796160 0.029385
vn 0.672434 0.737177 -0.066347
vn 0.774790 0.442947 0.451108
vn 0.653278 0.724540 0.219706
vn 0.701496 0.112172 0.703791
vn 0.613348 0.119222 0.780762
vn 0.631332 -0.254230 0.732658
vn 0.668961 0.079707 0.739012
vn -0.799556 -0.493161 -0.342786
vn -0.726431 -0.180678 -0.663064
vn -0.813427 -0.581535 0.012376
vn -0.828602 -0.557803 0.047703
vn -0.721712 -0.036896 -0.691210
vn -0.784865 0.023104 -0.619236
vn -0.763138 0.472061 -0.441338
vn -0.617177 0.782593 -0.081491
vn -0.541037 0.840987 0.004362
vn -0.379633 0.904086 0.196235
vn -0.656355 0.588446 0.472154
vn -0.643720 0.277680 0.713105
vn -0.674300 0.055510 0.736368
vn -0.670275 -0.223151 0.707768
vn -0.671571 0.094706 0.734862
vn -0.434378 -0.305544 0.847324
vn -0.503706 -0.847061 0.169615
vn 0.511960 -0.850552 0.120241
vn 0.427751 -0.276539 0.860555
vn -0.850168 -0.091799 0.518448
vn -0.896604 -0.435718 0.079060
vn 0.895716 -0.434492 0.094392
vn 0.885544 -0.148433 0.440205
vn 0.541736 0.061432 0.838301
vn -0.406338 0.056387 0.911981
vn -0.830509 0.036962 0.555777
vn 0.931783 0.052597 0.359186
vn 0.592884 0.000290 0.805288
vn -0.397251 0.022087 0.917444
vn -0.853733 0.003867 0.520697
vn 0.948773 -0.008248 0.315850
vn 0.495010 0.156835 0.854616
vn -0.428499 0.183901 0.884629
vn -0.848666 0.178856 0.497771
vn 0.896880 0.073700 0.436090
vn 0.494802 0.686850 0.532361
vn -0.503327 0.673184 0.541743
vn -0.875340 0.360155 0.322596
vn 0.790276 0.445456 0.420754
vn -0.506549 0.847297 0.159673
vn 0.477336 0.866421 0.146506
vn -0.845593 0.524674 0.098434
vn 0.906748 0.416090 0.068389
vn 0.448436 0.893813 -0.001729
vn -0.486787 0.873478 0.008622
vn -0.807957 0.588468 0.030200
vn 0.854609 0.519272 0.000478
vn 0.458487 0.886429 -0.063513
vn -0.468115 0.881549 -0.061152
vn -0.634194 0.771708 -0.047584
vn 0.806799 0.589360 -0.041587
vn -0.859589 0.358581 -0.364041
vn -0.436025 0.662124 -0.609486
vn 0.434228 0.653399 -0.620094
vn 0.897811 0.335229 -0.285581
vn 0.451488 0.183949 -0.873111
vn -0.471407 0.180739 -0.863197
vn 0.916682 0.084723 -0.390533
vn -0.871396 0.098139 -0.480664
vn -0.452858 -0.031566 -0.891024
vn 0.488074 -0.023469 -0.872487
vn -0.857283 -0.013482 -0.514668
vn 0.892600 -0.010842 -0.450720
vn 0.508543 -0.334837 -0.793264
vn -0.430258 -0.362554 -0.826700
vn 0.872610 -0.192166 -0.449025
vn -0.846754 -0.232732 -0.478375
vn 0.974924 -0.206487 -0.082979
vn 0.439191 -0.808106 -0.392526
vn -0.363149 -0.836690 -0.409967
vn -0.926143 -0.355677 -0.125508
vn -0.424682 -0.904460 -0.039978
vn 0.428349 -0.903236 -0.026132
vn -0.944538 -0.328235 -0.010454
vn 0.965403 -0.260473 -0.012259
vn -0.478822 -0.877614 0.022882
vn 0.491753 -0.870433 0.022906
vn 0.933703 -0.358003 0.005802
vn -0.924854 -0.380274 0.006036
vn 0.060845 -0.997492 0.036156
vn 0.059467 -0.992655 0.105357
vn 0.113103 -0.989607 -0.088800
vn 0.688329 -0.720931 -0.080388
vn -0.202840 -0.975249 -0.088012
vn -0.775711 -0.627632 -0.065962
vn 0.050665 -0.928369 -0.368190
vn 0.086687 -0.995184 -0.045773
vn 0.006054 -0.314255 -0.949319
vn 0.012639 -0.028408 -0.999517
vn 0.043986 0.104013 -0.993603
vn 0.064201 0.608867 -0.790670
vn 0.019133 0.996163 -0.085404
vn 0.015288 0.997264 0.072330
vn 0.024123 0.961430 0.273988
vn 0.002842 0.732903 0.680327
vn 0.001943 0.241206 0.970472
vn 0.012955 0.052023 0.998562
vn 0.075702 -0.284890 0.955566
vn 0.034268 0.122172 0.991917
vn -0.043817 -0.993190 0.107956
vn -0.044365 -0.998366 0.036008
vn -0.004581 -0.292756 0.956176
vn -0.057670 0.220501 0.973680
vn -0.033398 0.023627 0.999163
vn -0.066019 0.734785 0.675080
vn -0.022785 0.962100 0.271744
vn -0.013602 0.999241 0.036494
vn -0.011183 0.995899 -0.089782
vn -0.018570 0.611218 -0.791244
vn -0.026717 0.113435 -0.993186
vn -0.056441 -0.026738 -0.998048
vn -0.066618 -0.315768 -0.946495
vn -0.031273 -0.932246 -0.360472
vn -0.045608 -0.998008 -0.043589
vn -0.020058 0.124082 0.992069
vn -0.161924 -0.986789 0.005336
vn -0.201215 -0.976171 -0.081256
vn 0.126451 -0.988333 -0.084899
vn 0.143438 -0.989647 0.004890
vn -0.166643 -0.331200 0.928729
vn 0.193193 -0.328152 0.924658
vn 0.219717 -0.055450 0.973987
vn -0.189892 -0.060364 0.979948
vn -0.181994 0.036512 0.982621
vn 0.189981 0.028727 0.981368
vn -0.153215 0.134973 0.978932
vn 0.140789 0.152825 0.978173
vn -0.162936 0.706755 0.688439
vn 0.156313 0.740291 0.653862
vn 0.164976 0.986201 0.013832
vn -0.093324 0.994956 0.036798
vn 0.178308 0.983778 -0.019687
vn -0.182661 0.982898 -0.023380
vn 0.169175 0.984505 -0.046154
vn -0.198399 0.979050 -0.045816
vn 0.153164 0.791390 -0.591813
vn -0.150818 0.791897 -0.591737
vn -0.170152 0.065650 -0.983229
vn 0.155463 0.064862 -0.985710
vn -0.206914 0.043162 -0.977407
vn 0.180574 0.043327 -0.982607
vn -0.210562 0.030485 -0.977105
vn 0.173722 0.026401 -0.984441
vn 0.142504 -0.633358 -0.760625
vn -0.186828 -0.637888 -0.747124
vn 0.134868 -0.988608 -0.066826
vn -0.208560 -0.975866 -0.064715
vn 0.598150 -0.499371 -0.626773
vn 0.814203 -0.579285 -0.038759
vn 0.719284 0.066690 -0.691508
vn 0.642313 0.009599 -0.766382
vn 0.769488 -0.636959 -0.046593
vn 0.796650 -0.604422 0.004862
vn 0.658568 -0.229315 0.716730
vn 0.613182 -0.069563 0.786873
vn 0.701837 -0.001298 0.712336
vn 0.588468 0.073120 0.805207
vn 0.589818 0.566340 0.575651
vn 0.501853 0.863664 0.047196
vn 0.365273 0.930670 -0.020714
vn 0.534515 0.840560 -0.088054
vn 0.577236 0.712858 -0.398288
vn 0.524905 0.017427 -0.850982
vn -0.574605 0.065639 -0.815794
vn -0.640948 0.673403 -0.368393
vn -0.625021 0.047716 -0.779148
vn -0.639279 0.055816 -0.766946
vn -0.686978 -0.447014 -0.572922
vn -0.812658 -0.581476 -0.038359
vn -0.572294 -0.813727 -0.101632
vn -0.510269 -0.859955 0.010130
vn -0.605503 -0.231753 0.761352
vn -0.658115 -0.063153 0.750264
vn -0.758468 -0.005466 0.651688
vn -0.630857 0.093566 0.770237
vn -0.553382 0.606442 0.570960
vn -0.473492 0.880781 -0.005459
vn -0.272676 0.962038 -0.011437
vn -0.613359 0.786433 -0.072903
vn -0.000318 0.999381 -0.035165
vn 0.003617 0.997156 -0.075273
vn 0.016762 0.996356 0.083623
vn 0.041535 0.793989 0.606512
vn 0.019537 0.076392 0.996886
vn -0.003899 0.065183 0.997866
vn -0.023919 0.101327 0.994566
vn -0.033464 -0.241723 0.969768
vn 0.054993 -0.998376 -0.014853
vn 0.042531 -0.998851 -0.022104
vn 0.024344 -0.999690 -0.005245
vn 0.062032 -0.863293 -0.500877
vn 0.018105 0.765825 -0.642794
vn 0.038089 -0.039707 -0.998485
vn 0.039474 0.004114 -0.999212
vn 0.043101 -0.066182 -0.996876
vn -0.011816 0.996112 -0.087298
vn -0.011775 0.999335 -0.034517
vn -0.011245 0.761634 -0.647910
vn -0.009249 -0.042338 -0.999061
vn -0.003693 0.002815 -0.999989
vn 0.013879 -0.061603 -0.998004
vn 0.022430 -0.869509 -0.493408
vn -0.044113 -0.998886 0.016762
vn -0.003985 -0.999307 -0.036998
vn 0.025450 -0.999519 0.017721
vn -0.055566 -0.220569 0.973787
vn -0.050136 0.076543 0.995805
vn -0.035506 0.076356 0.996448
vn -0.017096 0.071091 0.997323
vn 0.020103 0.799569 0.600238
vn 0.011704 0.998089 0.060682
vn -0.078828 0.880410 0.467616
vn -0.052080 0.994485 0.091038
vn -0.025946 0.054752 0.998163
vn 0.018086 -0.099396 0.994884
vn 0.068043 0.189168 0.979584
vn 0.076789 -0.991628 0.103819
vn 0.093523 -0.238325 0.966672
vn 0.083108 -0.995830 -0.037613
vn 0.107111 -0.993693 -0.033205
vn -0.020926 -0.398827 -0.916787
vn 0.065284 -0.997807 0.010943
vn -0.012440 0.016446 -0.999787
vn -0.001060 0.261270 -0.965265
vn 0.036359 0.779302 -0.625593
vn -0.014537 0.992686 -0.119849
vn -0.034483 0.999214 0.019564
vn 0.965176 0.261202 0.014443
vn 0.860689 0.506562 -0.051092
vn 0.211240 0.976736 -0.036934
vn 0.330241 0.941730 0.063924
vn 0.372912 0.834153 0.406357
vn 0.911415 0.297639 0.284136
vn 0.129715 0.142972 0.981190
vn 0.748705 -0.012436 0.662787
vn 0.886008 -0.167772 0.432252
vn 0.122813 -0.091338 0.988218
vn 0.712961 -0.085387 0.695986
vn 0.986381 -0.026875 0.162267
vn 0.181677 -0.961040 0.208315
vn 0.720071 -0.610455 0.329912
vn 0.177318 -0.458356 0.870901
vn 0.998304 -0.056883 0.012382
vn 0.613027 -0.787026 -0.069188
vn 0.556033 -0.827738 -0.075344
vn 0.989275 -0.136289 -0.052535
vn 0.417102 -0.888489 -0.191345
vn 0.883222 -0.464082 -0.067435
vn 0.476153 -0.303895 -0.825183
vn 0.854112 -0.251530 -0.455221
vn 0.215308 -0.037465 -0.975827
vn 0.645790 0.061658 -0.761022
vn 0.931147 0.329322 -0.156562
vn 0.523598 0.812177 -0.257322
vn 0.956315 0.240582 -0.166075
vn 0.576609 0.624352 -0.526979
vn 0.524907 0.382575 -0.760335
vn 0.755949 0.271899 -0.595494
vn 0.999998 -0.001983 -0.000398
vn 0.998617 0.047293 0.022983
vn 0.995224 0.082296 -0.052510
vn -0.095768 0.991742 0.085300
vn -0.091692 0.872066 0.480721
vn -0.080789 0.996719 -0.004939
vn -0.065872 0.987590 -0.142573
vn -0.011638 0.826678 -0.562555
vn -0.018894 0.277577 -0.960518
vn -0.033455 0.002085 -0.999438
vn -0.029056 -0.411624 -0.910891
vn 0.048480 -0.997965 -0.041429
vn 0.059056 -0.997314 -0.043317
vn 0.033197 -0.997346 -0.064796
vn 0.003125 -0.995867 0.090772
vn 0.023152 -0.201398 0.979236
vn 0.004492 0.141627 0.989910
vn -0.032521 -0.062474 0.997517
vn -0.072227 0.153929 0.985439
vn -0.375088 -0.315652 0.871592
vn -0.428075 -0.903498 -0.021056
vn 0.375117 -0.924033 -0.073825
vn 0.346353 -0.314881 0.883680
vn 0.414555 -0.901548 -0.123916
vn -0.527848 -0.840454 -0.122531
vn 0.413607 -0.907002 -0.079230
vn -0.523542 -0.848160 -0.080797
vn 0.339354 -0.640482 -0.688928
vn -0.479054 -0.542020 -0.690450
vn -0.508639 0.047324 -0.859679
vn 0.447687 0.062739 -0.891987
vn -0.575889 -0.000292 -0.817528
vn 0.498539 -0.001106 -0.866867
vn 0.445574 -0.013484 -0.895144
vn -0.483583 -0.028327 -0.874840
vn 0.367461 0.697543 -0.615147
vn -0.432465 0.648004 -0.626949
vn -0.459305 0.886450 -0.056972
vn 0.349016 0.935302 -0.058287
vn 0.376384 0.925465 -0.043006
vn -0.477950 0.877374 -0.042174
vn -0.426209 0.904614 0.004402
vn 0.387995 0.921652 0.004275
vn -0.449262 0.687607 0.570404
vn 0.415540 0.680146 0.603928
vn -0.483567 0.057454 0.873420
vn 0.521878 0.076413 0.849591
vn 0.499979 0.060734 0.863905
vn -0.415019 0.068124 0.907259
vn 0.358231 -0.085058 0.929750
vn -0.403092 -0.113384 0.908109
vn 0.868263 -0.303476 -0.392455
vn 0.790353 -0.609308 -0.063919
vn 0.791673 0.037581 -0.609788
vn 0.777552 0.037177 -0.627718
vn 0.863656 -0.033522 -0.502965
vn 0.705922 0.543093 -0.454669
vn 0.620103 0.781277 -0.071272
vn 0.443863 0.893590 -0.066956
vn 0.717105 0.692859 0.075544
vn 0.806963 0.510103 0.297667
vn 0.852941 0.079380 0.515936
vn 0.933084 0.020343 0.359084
vn 0.814806 -0.065128 0.576064
vn 0.638565 -0.764942 -0.084251
vn 0.758300 -0.227442 0.610943
vn 0.511425 -0.846938 -0.145400
vn -0.050103 -0.996165 -0.071734
vn -0.050107 -0.983657 -0.172940
vn -0.084026 -0.385008 0.919080
vn -0.117029 -0.973615 -0.195901
vn -0.199728 -0.720833 -0.663709
vn -0.110724 0.020685 -0.993636
vn -0.110407 0.055977 -0.992309
vn -0.166296 -0.040229 -0.985255
vn -0.077924 0.688112 -0.721408
vn -0.077073 0.995344 0.057876
vn -0.078212 0.992926 -0.089334
vn -0.068572 0.997337 0.024823
vn -0.089448 0.878578 0.469148
vn 0.007208 0.080690 0.996713
vn 0.010319 -0.004392 0.999937
vn -0.047469 -0.195530 0.979548
vn 0.038631 -0.007943 0.999222
vn 0.040307 0.073149 0.996506
vn 0.053136 -0.989403 -0.135126
vn 0.029879 -0.994241 -0.102919
vn 0.026387 -0.343485 0.938787
vn 0.037186 -0.996468 -0.075298
vn 0.048127 0.004506 -0.998831
vn 0.030641 0.059424 -0.997763
vn 0.049881 -0.738381 -0.672537
vn 0.030710 -0.038889 -0.998772
vn 0.035521 0.892433 -0.449780
vn 0.012663 0.998271 -0.057406
vn 0.006479 0.999830 -0.017279
vn 0.008507 0.999963 -0.001053
vn 0.029905 -0.067668 0.997260
vn 0.029815 0.722334 0.690901
vn -0.036527 0.091997 0.995089
vn -0.028789 -0.016044 0.999457
vn -0.041019 -0.053345 0.997733
vn -0.026905 0.761768 0.647292
vn 0.007550 0.999968 0.002825
vn 0.005662 0.998459 -0.055215
vn 0.009433 0.998650 -0.051084
vn 0.021857 0.883051 -0.468769
vn -0.021456 -0.054182 -0.998301
vn -0.012565 0.006117 -0.999902
vn -0.005323 0.048201 -0.998824
vn -0.072999 -0.758914 -0.647087
vn -0.072927 -0.994866 -0.070170
vn -0.034669 -0.990243 -0.134970
vn 0.016240 -0.994982 -0.098731
vn -0.021248 -0.344426 0.938573
vn -0.059842 0.049402 -0.996985
vn -0.062677 -0.038323 -0.997298
vn -0.011453 0.760862 -0.648813
vn -0.001477 0.995506 0.094688
vn -0.014840 0.998055 -0.060543
vn -0.022832 0.999541 -0.019937
vn -0.027279 0.889723 0.455686
vn -0.430519 0.078617 -0.899151
vn -0.567013 0.090460 -0.818727
vn -0.114311 0.809973 -0.575218
vn -0.260425 0.965485 -0.004200
vn -0.154290 0.982962 -0.099905
vn -0.325440 0.944545 0.043856
vn -0.149450 0.902472 0.403991
vn -0.067861 -0.005282 -0.997681
vn -0.426788 0.080903 -0.900726
vn -0.129279 -0.700671 -0.701674
vn -0.331817 -0.708073 -0.623322
vn -0.056493 -0.973052 -0.223560
vn -0.306639 -0.902178 -0.303392
vn -0.288879 -0.938404 -0.189597
vn -0.014537 -0.985439 -0.169406
vn -0.005715 -0.997229 -0.074167
vn -0.313090 -0.945218 -0.092405
vn -0.051092 -0.391539 0.918742
vn -0.346457 -0.469552 0.812089
vn -0.068157 -0.271204 0.960106
vn -0.580171 -0.155343 0.799544
vn 0.000496 -0.020638 0.999787
vn -0.411370 -0.040518 0.910567
vn 0.036446 0.079623 0.996159
vn -0.319714 0.110044 0.941102
vn -0.717254 0.005423 0.696791
vn -0.781654 0.495808 0.378407
vn -0.919194 -0.035217 0.392226
vn -0.931143 0.182354 0.315785
vn -0.982606 -0.156195 0.100441
vn -0.891701 -0.434042 -0.128365
vn -0.898850 -0.420074 -0.124925
vn -0.842614 -0.529211 -0.099687
vn -0.826193 -0.436466 -0.356234
vn -0.818185 0.209164 -0.535558
vn -0.910865 0.093962 -0.401865
vn -0.932146 0.053523 -0.358105
vn -0.749671 0.421416 -0.510296
vn -0.961581 0.201141 -0.186824
vn -0.780423 0.625089 0.014241
vn -0.732854 0.663419 -0.150999
vn -0.917366 0.397554 0.019751
vn -0.998756 -0.043002 -0.025250
vn -0.999613 -0.013751 -0.024197
vn -0.998996 0.009360 -0.043810
vn -0.999903 0.012595 -0.005918
vn -0.994627 -0.018629 -0.101830
vn -0.997768 0.001679 -0.066748
s 1
g polySurface88 group8 group5
usemtl initialShadingGroup
f 1/1/1 2/2/2 118/118/3 119/119/4
f 6/5/5 152/530/6 153/529/7 5/6/8
f 1/1/1 23/23/9 24/24/10 2/2/2
f 8/8/11 7/7/12 9/9/13 10/10/14
f 12/11/15 21/21/16 22/22/17 11/12/18
f 11/12/18 19/19/19 20/20/20 12/11/15
f 13/13/21 15/15/22 16/16/23 14/14/24
f 15/15/22 25/25/25 26/26/26 16/16/23
f 5/6/8 18/18/27 17/17/28 6/5/5
f 20/20/20 19/19/19 13/13/21 14/14/24
f 22/22/17 21/21/16 10/10/14 9/9/13
f 24/24/10 23/23/9 7/7/12 8/8/11
f 62/62/29 63/63/30 17/17/28 18/18/27
f 117/117/31 118/118/3 2/2/2 27/27/32
f 5/6/8 153/529/7 154/528/33 29/29/34
f 24/24/10 8/8/11 30/30/35 31/31/36
f 8/8/11 10/10/14 32/32/37 30/30/35
f 21/21/16 12/11/15 33/33/38 34/34/39
f 20/20/20 14/14/24 35/35/40 36/36/41
f 14/14/24 16/16/23 37/37/42 35/35/40
f 61/61/43 62/62/29 18/18/27 38/38/44
f 18/18/27 5/6/8 29/29/34 38/38/44
f 12/11/15 20/20/20 36/36/41 33/33/38
f 10/10/14 21/21/16 34/34/39 32/32/37
f 2/2/2 24/24/10 31/31/36 27/27/32
f 16/16/23 26/26/26 39/39/45 37/37/42
f 1/1/1 119/119/4 120/120/46 41/41/47
f 151/151/48 152/530/6 6/5/5 42/42/49
f 23/23/9 1/1/1 41/41/47 43/43/50
f 9/9/13 7/7/12 44/44/51 45/45/52
f 22/22/17 9/9/13 45/45/52 46/46/53
f 19/19/19 11/12/18 47/47/54 48/48/55
f 15/15/22 13/13/21 49/49/56 50/50/57
f 25/25/25 15/15/22 50/50/57 51/51/58
f 6/5/5 17/17/28 52/52/59 42/42/49
f 13/13/21 19/19/19 48/48/55 49/49/56
f 11/12/18 22/22/17 46/46/53 47/47/54
f 7/7/12 23/23/9 43/43/50 44/44/51
f 17/17/28 63/63/30 64/64/60 52/52/59
f 56/53/61 53/54/62 54/55/63 55/56/64
f 58/57/65 57/58/66 53/54/62 56/53/61
f 60/59/67 59/60/68 55/56/64 54/55/63
f 26/26/26 62/62/29 61/61/43 39/39/45
f 26/26/26 25/25/25 63/63/30 62/62/29
f 64/64/60 63/63/30 25/25/25 51/51/58
f 56/53/61 55/56/64 65/65/69 66/66/70
f 58/57/65 56/53/61 66/66/70 67/67/71
f 55/56/64 59/60/68 68/68/72 65/65/69
f 66/66/70 65/65/69 69/69/73 70/70/74
f 67/67/71 66/66/70 70/70/74 71/71/75
f 65/65/69 68/68/72 72/72/76 69/69/73
f 70/70/74 69/69/73 73/73/77 74/74/78
f 71/71/75 70/70/74 74/74/78 75/75/79
f 72/72/76 76/76/80 73/73/77 69/69/73
f 73/73/77 77/77/81 78/78/82 74/74/78
f 79/79/83 75/75/79 74/74/78 78/78/82
f 76/76/80 80/80/84 77/77/81 73/73/77
f 82/81/85 78/78/82 77/77/81 81/82/86
f 83/83/87 79/79/83 78/78/82 82/81/85
f 80/80/84 84/84/88 81/82/86 77/77/81
f 82/81/85 81/82/86 85/85/89 86/86/90
f 83/83/87 82/81/85 86/86/90 87/87/91
f 81/82/86 84/84/88 88/88/92 85/85/89
f 86/86/90 85/85/89 89/89/93 90/90/94
f 87/87/91 86/86/90 90/90/94 91/91/95
f 85/85/89 88/88/92 92/92/96 89/89/93
f 94/93/97 91/91/95 90/90/94 93/94/98
f 89/89/93 95/95/99 93/94/98 90/90/94
f 92/92/96 96/96/100 95/95/99 89/89/93
f 95/95/99 97/97/101 98/98/102 93/94/98
f 96/96/100 99/99/103 97/97/101 95/95/99
f 100/100/104 94/93/97 93/94/98 98/98/102
f 102/101/105 98/98/102 97/97/101 101/102/106
f 103/103/107 100/100/104 98/98/102 102/101/105
f 99/99/103 104/104/108 101/102/106 97/97/101
f 101/102/106 105/105/109 106/106/110 102/101/105
f 104/104/108 107/107/111 105/105/109 101/102/106
f 108/108/112 103/103/107 102/101/105 106/106/110
f 107/107/111 109/109/113 110/110/114 105/105/109
f 111/111/115 106/106/110 105/105/109 110/110/114
f 112/112/116 108/108/112 106/106/110 111/111/115
f 114/113/117 111/111/115 110/110/114 113/114/118
f 115/115/119 112/112/116 111/111/115 114/113/117
f 109/109/113 116/116/120 113/114/118 110/110/114
f 158/524/121 159/523/122 54/55/63 53/54/62
f 54/55/63 159/523/122 160/516/123 60/59/67
f 57/58/66 157/525/124 158/524/121 53/54/62
f 154/528/33 155/527/125 136/136/126 29/29/34
f 3/3/127 118/118/3 117/117/31 28/28/128
f 119/119/4 118/118/3 3/3/127 4/4/129
f 120/120/46 119/119/4 4/4/129 40/40/130
f 149/149/131 135/135/132 28/28/128 117/117/31
f 148/148/133 149/149/131 117/117/31 27/27/32
f 31/31/36 147/147/134 148/148/133 27/27/32
f 146/146/135 147/147/134 31/31/36 30/30/35
f 145/145/136 146/146/135 30/30/35 32/32/37
f 34/34/39 144/144/137 145/145/136 32/32/37
f 33/33/38 143/143/138 144/144/137 34/34/39
f 142/142/139 143/143/138 33/33/38 36/36/41
f 141/141/140 142/142/139 36/36/41 35/35/40
f 140/140/141 141/141/140 35/35/40 37/37/42
f 39/39/45 139/139/142 140/140/141 37/37/42
f 29/29/34 136/136/126 137/137/143 38/38/44
f 39/39/45 61/61/43 138/138/144 139/139/142
f 61/61/43 38/38/44 137/137/143 138/138/144
f 122/122/145 156/526/146 157/525/124 57/58/66
f 123/123/147 122/122/145 57/58/66 58/57/65
f 125/125/148 124/124/149 71/71/75 75/75/79
f 79/79/83 126/126/150 125/125/148 75/75/79
f 83/83/87 127/127/151 126/126/150 79/79/83
f 87/87/91 128/128/152 127/127/151 83/83/87
f 129/129/153 128/128/152 87/87/91 91/91/95
f 130/130/154 129/129/153 91/91/95 94/93/97
f 100/100/104 131/131/155 130/130/154 94/93/97
f 103/103/107 132/132/156 131/131/155 100/100/104
f 133/133/157 132/132/156 103/103/107 108/108/112
f 112/112/116 134/134/158 133/133/157 108/108/112
f 115/115/119 121/121/159 134/134/158 112/112/116
f 136/136/126 155/527/125 156/526/146 122/122/145
f 137/137/143 136/136/126 122/122/145 123/123/147
f 140/140/141 139/139/142 124/124/149 125/125/148
f 125/125/148 126/126/150 141/141/140 140/140/141
f 126/126/150 127/127/151 142/142/139 141/141/140
f 127/127/151 128/128/152 143/143/138 142/142/139
f 144/144/137 143/143/138 128/128/152 129/129/153
f 145/145/136 144/144/137 129/129/153 130/130/154
f 130/130/154 131/131/155 146/146/135 145/145/136
f 131/131/155 132/132/156 147/147/134 146/146/135
f 148/148/133 147/147/134 132/132/156 133/133/157
f 133/133/157 134/134/158 149/149/131 148/148/133
f 134/134/158 121/121/159 135/135/132 149/149/131
f 150/150/160 123/123/147 58/57/65 67/67/71
f 124/124/149 150/150/160 67/67/71 71/71/75
f 124/124/149 139/139/142 138/138/144 150/150/160
f 137/137/143 123/123/147 150/150/160 138/138/144
f 4/4/129 152/152/6 151/519/48 40/40/130
f 153/153/7 152/152/6 4/4/129 3/3/127
f 154/154/33 153/153/7 3/3/127 28/28/128
f 28/28/128 135/135/132 155/155/125 154/154/33
f 156/156/146 155/155/125 135/135/132 121/121/159
f 157/157/124 156/156/146 121/121/159 115/115/119
f 158/158/121 157/157/124 115/115/119 114/113/117
f 113/114/118 159/159/122 158/158/121 114/113/117
f 160/160/123 159/159/122 113/114/118 116/116/120
f 164/161/161 161/162/162 162/522/163 163/164/164
f 166/165/165 164/161/161 163/164/164 165/166/166
f 165/166/166 167/167/167 168/168/168 166/165/165
f 170/169/169 168/168/168 167/167/167 169/170/170
f 172/171/171 170/169/169 169/170/170 171/172/172
f 174/173/173 172/171/171 171/172/172 173/174/174
f 173/174/174 175/175/175 176/176/176 174/173/173
f 175/175/175 177/177/177 178/178/178 176/176/176
f 177/177/177 179/179/179 180/180/180 178/178/178
f 179/179/179 181/181/181 182/182/182 180/180/180
f 184/183/183 182/182/182 181/181/181 183/184/184
f 186/185/185 184/183/183 183/184/184 185/186/186
f 188/187/187 186/185/185 185/186/186 187/188/188
f 187/188/188 189/189/189 190/190/190 188/187/187
f 192/191/191 191/192/192 190/190/190 189/189/189
f 192/191/191 162/163/163 161/521/162 191/192/192
f 192/191/191 189/189/189 193/193/193 194/194/194
f 195/195/195 193/193/193 189/189/189 187/188/188
f 187/188/188 185/186/186 196/196/196 195/195/195
f 194/194/194 197/197/197 162/163/163 192/191/191
f 163/164/164 162/522/163 197/520/197 198/198/198
f 198/198/198 199/199/199 165/166/166 163/164/164
f 199/199/199 200/200/200 167/167/167 165/166/166
f 200/200/200 201/201/201 169/170/170 167/167/167
f 201/201/201 202/202/202 171/172/172 169/170/170
f 173/174/174 171/172/172 202/202/202 203/203/203
f 203/203/203 204/204/204 175/175/175 173/174/174
f 204/204/204 205/205/205 177/177/177 175/175/175
f 205/205/205 206/206/206 179/179/179 177/177/177
f 206/206/206 207/207/207 181/181/181 179/179/179
f 207/207/207 208/208/208 183/184/184 181/181/181
f 185/186/186 183/184/184 208/208/208 196/196/196
f 210/209/209 209/210/210 182/182/182 184/183/183
f 184/183/183 186/185/185 211/211/211 210/209/209
f 186/185/185 188/187/187 212/212/212 211/211/211
f 213/213/213 212/212/212 188/187/187 190/190/190
f 214/214/214 213/213/213 190/190/190 191/192/192
f 191/192/192 161/521/162 215/510/215 214/214/214
f 161/162/162 164/161/161 216/216/216 215/215/215
f 217/217/217 216/216/216 164/161/161 166/165/165
f 218/218/218 217/217/217 166/165/165 168/168/168
f 168/168/168 170/169/169 219/219/219 218/218/218
f 220/220/220 219/219/219 170/169/169 172/171/171
f 221/221/221 220/220/220 172/171/171 174/173/173
f 174/173/173 176/176/176 222/222/222 221/221/221
f 176/176/176 178/178/178 223/223/223 222/222/222
f 209/210/210 224/224/224 180/180/180 182/182/182
f 224/224/224 223/223/223 178/178/178 180/180/180
f 205/205/205 241/241/225 242/242/226 206/206/206
f 256/256/227 241/241/225 205/205/205 204/204/204
f 255/255/228 256/256/227 204/204/204 203/203/203
f 254/254/229 255/255/228 203/203/203 202/202/202
f 201/201/201 253/253/230 254/254/229 202/202/202
f 252/252/231 253/253/230 201/201/201 200/200/200
f 199/199/199 251/251/232 252/252/231 200/200/200
f 198/198/198 250/250/233 251/251/232 199/199/199
f 197/520/197 249/249/234 250/250/233 198/198/198
f 248/248/235 249/517/234 197/197/197 194/194/194
f 247/247/236 248/248/235 194/194/194 193/193/193
f 242/242/226 243/243/237 207/207/207 206/206/206
f 244/244/238 245/245/239 196/196/196 208/208/208
f 243/243/237 244/244/238 208/208/208 207/207/207
f 245/245/239 246/246/240 195/195/195 196/196/196
f 246/246/240 247/247/236 193/193/193 195/195/195
f 226/226/241 225/225/242 47/47/54 46/46/53
f 46/46/53 45/45/52 227/227/243 226/226/241
f 44/44/51 228/228/244 227/227/243 45/45/52
f 44/44/51 43/43/50 229/229/245 228/228/244
f 43/43/50 41/41/47 230/230/246 229/229/245
f 120/120/46 231/231/247 230/230/246 41/41/47
f 40/40/130 232/232/248 231/231/247 120/120/46
f 151/519/48 233/518/249 232/232/248 40/40/130
f 234/234/250 233/233/249 151/151/48 42/42/49
f 235/235/251 234/234/250 42/42/49 52/52/59
f 236/236/252 235/235/251 52/52/59 64/64/60
f 51/51/58 237/237/253 236/236/252 64/64/60
f 238/238/254 237/237/253 51/51/58 50/50/57
f 49/49/56 239/239/255 238/238/254 50/50/57
f 48/48/55 240/240/256 239/239/255 49/49/56
f 47/47/54 225/225/242 240/240/256 48/48/55
f 242/242/226 241/241/225 225/225/242 226/226/241
f 226/226/241 227/227/243 243/243/237 242/242/226
f 227/227/243 228/228/244 244/244/238 243/243/237
f 228/228/244 229/229/245 245/245/239 244/244/238
f 229/229/245 230/230/246 246/246/240 245/245/239
f 230/230/246 231/231/247 247/247/236 246/246/240
f 231/231/247 232/232/248 248/248/235 247/247/236
f 232/232/248 233/518/249 249/517/234 248/248/235
f 250/250/233 249/249/234 233/233/249 234/234/250
f 251/251/232 250/250/233 234/234/250 235/235/251
f 252/252/231 251/251/232 235/235/251 236/236/252
f 236/236/252 237/237/253 253/253/230 252/252/231
f 254/254/229 253/253/230 237/237/253 238/238/254
f 238/238/254 239/239/255 255/255/228 254/254/229
f 239/239/255 240/240/256 256/256/227 255/255/228
f 240/240/256 225/225/242 241/241/225 256/256/227
f 84/84/88 80/80/84 291/291/257 292/292/258
f 306/306/259 291/291/257 80/80/84 76/76/80
f 72/72/76 305/305/260 306/306/259 76/76/80
f 304/304/261 305/305/260 72/72/76 68/68/72
f 59/60/68 60/59/67 302/302/262 303/303/263
f 303/303/263 304/304/261 68/68/72 59/60/68
f 301/301/264 302/302/262 60/59/67 160/516/123
f 300/300/265 301/515/264 160/160/123 116/116/120
f 107/107/111 298/298/266 299/299/267 109/109/113
f 109/109/113 299/299/267 300/300/265 116/116/120
f 104/104/108 297/297/268 298/298/266 107/107/111
f 296/296/269 297/297/268 104/104/108 99/99/103
f 96/96/100 295/295/270 296/296/269 99/99/103
f 294/294/271 295/295/270 96/96/100 92/92/96
f 88/88/92 293/293/272 294/294/271 92/92/96
f 292/292/258 293/293/272 88/88/92 84/84/88
f 274/273/273 273/274/274 272/272/275 258/258/276
f 257/257/277 275/275/278 274/273/273 258/258/276
f 259/259/279 276/276/280 275/275/278 257/257/277
f 277/277/281 276/276/280 259/259/279 260/260/282
f 277/277/281 260/260/282 261/261/283 278/278/284
f 262/262/285 279/279/286 261/261/283 263/263/287
f 280/280/288 279/279/286 264/264/289
f 264/264/289 279/279/286 262/262/285
f 264/264/289 265/265/290 281/281/291 280/280/288
f 267/267/292 282/282/293 281/281/291 265/265/290
f 282/282/293 267/267/292 266/266/294 283/283/295
f 268/268/296 284/284/297 283/283/295 266/266/294
f 273/274/274 285/285/298 271/271/299 272/272/275
f 271/271/299 285/285/298 286/286/300 270/270/301
f 269/269/302 287/287/303 284/284/297 268/268/296
f 287/287/303 269/269/302 270/270/301 286/286/300
f 279/279/286 280/280/288 278/278/284 261/261/283
f 274/273/273 275/275/278 276/276/280 277/277/281
f 285/285/298 273/274/274 274/273/273 288/288/304
f 278/278/284 288/288/304 274/273/273 277/277/281
f 289/289/305 286/286/300 285/285/298 288/288/304
f 282/282/293 289/289/305 288/288/304 281/281/291
f 280/280/288 281/281/291 288/288/304 278/278/284
f 283/283/295 284/284/297 287/287/303 290/290/306
f 290/290/306 287/287/303 286/286/300 289/289/305
f 283/283/295 290/290/306 289/289/305 282/282/293
f 314/499/307 315/498/308 257/257/277 258/258/276
f 258/258/276 272/272/275 313/500/309 314/499/307
f 312/501/310 313/500/309 272/272/275 271/271/299
f 270/270/301 311/537/311 312/501/310 271/271/299
f 310/538/312 311/502/311 270/270/301 269/269/302
f 268/268/296 309/504/313 310/503/312 269/269/302
f 308/505/314 309/504/313 268/268/296 266/266/294
f 307/307/315 308/505/314 266/266/294 267/267/292
f 322/490/316 307/307/315 267/267/292 265/265/290
f 264/264/289 321/492/317 322/490/316 265/265/290
f 262/262/285 320/535/318 321/492/317 264/264/289
f 319/536/319 320/493/318 262/262/285 263/263/287
f 261/261/283 318/495/320 319/494/319 263/263/287
f 260/260/282 317/496/321 318/495/320 261/261/283
f 316/497/322 317/496/321 260/260/282 259/259/279
f 257/257/277 315/498/308 316/497/322 259/259/279
f 299/299/267 298/298/266 308/308/314 307/491/315
f 298/298/266 297/297/268 309/309/313 308/308/314
f 310/310/312 309/309/313 297/297/268 296/296/269
f 296/296/269 295/295/270 311/311/311 310/310/312
f 312/312/310 311/311/311 295/295/270 294/294/271
f 294/294/271 293/293/272 313/313/309 312/312/310
f 314/314/307 313/313/309 293/293/272 292/292/258
f 292/292/258 291/291/257 315/315/308 314/314/307
f 316/316/322 315/315/308 291/291/257 306/306/259
f 306/306/259 305/305/260 317/317/321 316/316/322
f 318/318/320 317/317/321 305/305/260 304/304/261
f 319/319/319 318/318/320 304/304/261 303/303/263
f 303/303/263 302/302/262 320/320/318 319/319/319
f 321/514/317 320/320/318 302/302/262 301/301/264
f 322/322/316 321/321/317 301/515/264 300/300/265
f 300/300/265 299/299/267 307/491/315 322/322/316
f 326/323/323 323/324/324 324/325/325 325/326/326
f 328/513/327 324/325/325 323/324/324 327/328/328
f 330/329/329 328/327/327 327/512/328 329/330/330
f 332/331/331 330/329/329 329/330/330 331/332/332
f 331/332/332 333/333/333 334/334/334 332/331/331
f 333/333/333 335/335/335 336/336/336 334/334/334
f 338/337/337 336/336/336 335/335/335 337/338/338
f 340/339/339 338/337/337 337/338/338 339/340/340
f 339/340/340 341/341/341 342/342/342 340/339/339
f 344/343/343 342/342/342 341/341/341 343/344/344
f 343/344/344 345/345/345 346/346/346 344/343/343
f 345/345/345 347/347/347 348/348/348 346/346/346
f 347/347/347 349/349/349 350/350/350 348/348/348
f 352/351/351 350/350/350 349/349/349 351/352/352
f 354/353/353 352/351/351 351/352/352 353/354/354
f 325/326/326 354/353/353 353/354/354 326/323/323
f 356/355/355 355/356/356 330/329/329 332/331/331
f 357/357/357 356/355/355 332/331/331 334/334/334
f 334/334/334 336/336/336 358/358/358 357/357/357
f 359/359/359 358/358/358 336/336/336 338/337/337
f 360/360/360 359/359/359 338/337/337 340/339/339
f 361/361/361 360/360/360 340/339/339 342/342/342
f 342/342/342 344/343/343 362/362/362 361/361/361
f 344/343/343 346/346/346 363/363/363 362/362/362
f 364/364/364 363/363/363 346/346/346 348/348/348
f 365/365/365 364/364/364 348/348/348 350/350/350
f 350/350/350 352/351/351 366/366/366 365/365/365
f 367/367/367 366/366/366 352/351/351 354/353/353
f 369/368/368 368/369/369 325/326/326 324/325/325
f 368/369/369 367/367/367 354/353/353 325/326/326
f 324/325/325 328/513/327 370/511/370 369/368/368
f 328/327/327 330/329/329 355/356/356 370/370/370
f 327/328/328 323/324/324 371/371/371 372/372/372
f 373/373/373 371/371/371 323/324/324 326/323/323
f 372/506/372 374/374/374 329/330/330 327/512/328
f 374/374/374 375/375/375 331/332/332 329/330/330
f 375/375/375 376/376/376 333/333/333 331/332/332
f 335/335/335 333/333/333 376/376/376 377/377/377
f 377/377/377 378/378/378 337/338/338 335/335/335
f 378/378/378 379/379/379 339/340/340 337/338/338
f 341/341/341 339/340/340 379/379/379 380/380/380
f 380/380/380 381/381/381 343/344/344 341/341/341
f 381/381/381 382/382/382 345/345/345 343/344/344
f 382/382/382 383/383/383 347/347/347 345/345/345
f 383/383/383 384/384/384 349/349/349 347/347/347
f 384/384/384 385/385/385 351/352/352 349/349/349
f 353/354/354 351/352/352 385/385/385 386/386/386
f 326/323/323 353/354/354 386/386/386 373/373/373
f 367/367/367 403/403/387 404/404/388 366/366/366
f 370/511/370 416/416/389 417/417/390 369/368/368
f 369/368/368 417/417/390 418/418/391 368/369/369
f 418/418/391 403/403/387 367/367/367 368/369/369
f 415/415/392 416/508/389 370/370/370 355/356/356
f 358/358/358 412/412/393 413/413/394 357/357/357
f 357/357/357 413/413/394 414/414/395 356/355/355
f 414/414/395 415/415/392 355/356/356 356/355/355
f 411/411/396 412/412/393 358/358/358 359/359/359
f 410/410/397 411/411/396 359/359/359 360/360/360
f 361/361/361 409/409/398 410/410/397 360/360/360
f 408/408/399 409/409/398 361/361/361 362/362/362
f 407/407/400 408/408/399 362/362/362 363/363/363
f 404/404/388 405/405/401 365/365/365 366/366/366
f 365/365/365 405/405/401 406/406/402 364/364/364
f 406/406/402 407/407/400 363/363/363 364/364/364
f 388/388/403 387/387/404 218/218/218 219/219/219
f 220/220/220 389/389/405 388/388/403 219/219/219
f 390/390/406 389/389/405 220/220/220 221/221/221
f 222/222/222 391/391/407 390/390/406 221/221/221
f 223/223/223 392/392/408 391/391/407 222/222/222
f 224/224/224 393/393/409 392/392/408 223/223/223
f 394/394/410 393/393/409 224/224/224 209/210/210
f 210/209/209 395/395/411 394/394/410 209/210/210
f 211/211/211 396/396/412 395/395/411 210/209/209
f 397/397/413 396/396/412 211/211/211 212/212/212
f 398/398/414 397/397/413 212/212/212 213/213/213
f 214/214/214 399/399/415 398/398/414 213/213/213
f 215/510/215 400/509/416 399/399/415 214/214/214
f 401/401/417 400/400/416 215/215/215 216/216/216
f 402/402/418 401/401/417 216/216/216 217/217/217
f 218/218/218 387/387/404 402/402/418 217/217/217
f 404/404/388 403/403/387 387/387/404 388/388/403
f 388/388/403 389/389/405 405/405/401 404/404/388
f 406/406/402 405/405/401 389/389/405 390/390/406
f 390/390/406 391/391/407 407/407/400 406/406/402
f 391/391/407 392/392/408 408/408/399 407/407/400
f 392/392/408 393/393/409 409/409/398 408/408/399
f 410/410/397 409/409/398 393/393/409 394/394/410
f 394/394/410 395/395/411 411/411/396 410/410/397
f 395/395/411 396/396/412 412/412/393 411/411/396
f 413/413/394 412/412/393 396/396/412 397/397/413
f 414/414/395 413/413/394 397/397/413 398/398/414
f 398/398/414 399/399/415 415/415/392 414/414/395
f 399/399/415 400/509/416 416/508/389 415/415/392
f 417/417/390 416/416/389 400/400/416 401/401/417
f 418/418/391 417/417/390 401/401/417 402/402/418
f 402/402/418 387/387/404 403/403/387 418/418/391
f 377/377/377 426/426/419 427/489/420 378/378/378
f 427/489/420 428/488/421 379/379/379 378/378/378
f 379/379/379 428/488/421 429/487/422 380/380/380
f 429/487/422 430/486/423 381/381/381 380/380/380
f 381/381/381 430/486/423 431/485/424 382/382/382
f 431/485/424 432/475/425 383/383/383 382/382/382
f 427/427/420 426/484/419 419/419/426 420/420/427
f 421/421/428 428/428/421 427/427/420 420/420/427
f 429/429/422 428/428/421 421/421/428 422/422/429
f 423/423/430 430/430/423 429/429/422 422/422/429
f 431/431/424 430/430/423 423/423/430 424/424/431
f 425/425/432 432/534/425 431/431/424 424/424/431
f 426/484/419 433/483/433 434/434/434 419/419/426
f 376/376/376 433/433/433 426/426/419 377/377/377
f 436/482/435 435/436/436 434/434/434 433/532/433
f 375/375/375 436/435/435 433/433/433 376/376/376
f 374/374/374 437/437/437 436/435/435 375/375/375
f 437/481/437 438/438/438 435/436/436 436/531/435
f 440/439/439 438/438/438 437/481/437 439/480/440
f 372/506/372 439/507/440 437/437/437 374/374/374
f 439/480/440 441/479/441 442/442/442 440/439/439
f 371/371/371 441/441/441 439/440/440 372/372/372
f 441/441/441 371/371/371 373/373/373 443/443/443
f 443/478/443 444/444/444 442/442/442 441/479/441
f 446/477/445 445/446/446 444/444/444 443/478/443
f 443/443/443 373/373/373 386/386/386 446/445/445
f 385/385/385 447/447/447 446/445/445 386/386/386
f 448/448/448 445/446/446 446/477/445 447/476/447
f 447/447/447 385/385/385 384/384/384 449/449/449
f 450/450/450 448/448/448 447/476/447 449/474/449
f 450/450/450 449/533/449 432/432/425 425/425/432
f 383/383/383 432/475/425 449/449/449 384/384/384
f 452/451/451 450/450/450 425/425/432 451/452/452
f 448/448/448 450/450/450 452/451/451 453/453/453
f 453/453/453 454/454/454 445/446/446 448/448/448
f 444/444/444 455/455/455 456/456/456 442/442/442
f 444/444/444 445/446/446 454/454/454 455/455/455
f 456/456/456 457/457/457 440/439/439 442/442/442
f 457/457/457 458/458/458 438/438/438 440/439/439
f 459/459/459 435/436/436 438/438/438 458/458/458
f 435/436/436 459/459/459 460/460/460 434/434/434
f 460/460/460 461/461/461 419/419/426 434/434/434
f 462/462/462 420/420/427 419/419/426 461/461/461
f 420/420/427 463/463/463 422/422/429 421/421/428
f 420/420/427 462/462/462 464/464/464 463/463/463
f 465/465/465 422/422/429 463/463/463 464/464/464
f 422/422/429 465/465/465 466/466/466 423/423/430
f 423/423/430 466/466/466 467/467/467 424/424/431
f 425/425/432 424/424/431 467/467/467 451/452/452
f 453/453/453 452/451/451 451/452/452 467/467/467
f 454/454/454 453/453/453 468/468/468 455/455/455
f 455/455/455 468/468/468 469/469/469 456/456/456
f 470/470/470 457/457/457 456/456/456 469/469/469
f 457/457/457 470/470/470 471/471/471 458/458/458
f 470/470/470 469/469/469 468/468/468 472/472/472
f 453/453/453 467/467/467 472/472/472 468/468/468
f 472/472/472 467/467/467 466/466/466 473/473/473
f 470/470/470 472/472/472 473/473/473 471/471/471
f 461/461/461 460/460/460 459/459/459 458/458/458
f 458/458/458 471/471/471 473/473/473 461/461/461
f 473/473/473 464/464/464 462/462/462 461/461/461
f 466/466/466 465/465/465 464/464/464 473/473/473
