# This file uses meters as units for non-parametric coordinates.

mtllib log2.mtl
g default
v 83.283218 23.457014 -5.077316
v 83.283218 20.580938 -9.381683
v 83.283218 16.276586 -12.257751
v 83.283218 11.199256 -13.267700
v 83.283218 6.121924 -12.257767
v 83.283218 1.817568 -9.381683
v 83.283218 -1.058510 -5.077332
v 83.283218 -2.068456 0.000000
v 83.283218 -1.058513 5.077332
v 83.283218 1.817563 9.381683
v 83.283218 6.121916 12.257767
v 83.283218 11.199247 13.267700
v 83.283218 16.276579 12.257767
v 83.283218 20.580932 9.381683
v 83.283218 23.457010 5.077332
v 83.283218 24.466955 0.000000
v -83.283218 23.457014 -5.077316
v -83.283218 20.580938 -9.381683
v -83.283218 16.276586 -12.257751
v -83.283218 11.199256 -13.267700
v -83.283218 6.121924 -12.257767
v -83.283218 1.817568 -9.381683
v -83.283218 -1.058510 -5.077332
v -83.283218 -2.068456 0.000000
v -83.283218 -1.058513 5.077332
v -83.283218 1.817563 9.381683
v -83.283218 6.121916 12.257767
v -83.283218 11.199247 13.267700
v -83.283218 16.276579 12.257767
v -83.283218 20.580932 9.381683
v -83.283218 23.457010 5.077332
v -83.283218 24.466955 0.000000
v 83.283218 11.199249 0.000000
v -83.283218 11.199249 0.000000
vt 0.008494 0.004479
vt 0.031694 0.004477
vt 0.031755 0.750928
vt 0.008556 0.750930
vt 0.054893 0.004475
vt 0.054955 0.750926
vt 0.078092 0.004473
vt 0.078154 0.750924
vt 0.101292 0.004472
vt 0.101353 0.750922
vt 0.124491 0.004469
vt 0.124552 0.750920
vt 0.147690 0.004468
vt 0.147752 0.750918
vt 0.170890 0.004466
vt 0.170951 0.750916
vt 0.194089 0.004464
vt 0.194150 0.750915
vt 0.217288 0.004462
vt 0.217350 0.750913
vt 0.240488 0.004460
vt 0.240549 0.750911
vt 0.263687 0.004458
vt 0.263748 0.750909
vt 0.286886 0.004456
vt 0.286948 0.750907
vt 0.310085 0.004454
vt 0.310147 0.750905
vt 0.333285 0.004452
vt 0.333346 0.750903
vt 0.356484 0.004450
vt 0.356546 0.750901
vt 0.379683 0.004449
vt 0.379745 0.750899
vt 0.913308 0.922616
vt 0.913308 0.945815
vt 0.854993 0.934215
vt 0.904430 0.901182
vt 0.888026 0.884778
vt 0.866592 0.875900
vt 0.843393 0.875900
vt 0.821960 0.884778
vt 0.805555 0.901182
vt 0.796677 0.922615
vt 0.796677 0.945815
vt 0.805555 0.967248
vt 0.821959 0.983653
vt 0.843393 0.992531
vt 0.866592 0.992531
vt 0.888026 0.983653
vt 0.904430 0.967248
vt 0.904430 0.967248
vt 0.888026 0.983652
vt 0.854993 0.934215
vt 0.866592 0.992531
vt 0.843393 0.992531
vt 0.821960 0.983653
vt 0.805555 0.967248
vt 0.796677 0.945815
vt 0.796677 0.922615
vt 0.805555 0.901182
vt 0.821959 0.884778
vt 0.843393 0.875900
vt 0.866592 0.875900
vt 0.888026 0.884777
vt 0.904430 0.901182
vt 0.913308 0.922615
vt 0.913308 0.945814
vn 0.000000 0.923880 -0.382683
vn 0.000000 0.707107 -0.707106
vn 0.000000 0.707107 -0.707106
vn 0.000000 0.923880 -0.382683
vn 0.000000 0.382683 -0.923880
vn 0.000000 0.382683 -0.923880
vn 0.000000 0.000002 -1.000000
vn 0.000000 0.000002 -1.000000
vn 0.000000 -0.382683 -0.923880
vn 0.000000 -0.382683 -0.923880
vn 0.000000 -0.707107 -0.707107
vn 0.000000 -0.707107 -0.707107
vn 0.000000 -0.923879 -0.382684
vn 0.000000 -0.923879 -0.382684
vn 0.000000 -1.000000 -0.000000
vn 0.000000 -1.000000 -0.000000
vn 0.000000 -0.923880 0.382683
vn 0.000000 -0.923880 0.382683
vn 0.000000 -0.707107 0.707107
vn 0.000000 -0.707107 0.707107
vn 0.000000 -0.382683 0.923880
vn 0.000000 -0.382683 0.923880
vn 0.000000 -0.000000 1.000000
vn 0.000000 -0.000000 1.000000
vn 0.000000 0.382683 0.923880
vn 0.000000 0.382683 0.923880
vn 0.000000 0.707107 0.707107
vn 0.000000 0.707107 0.707107
vn 0.000000 0.923879 0.382684
vn 0.000000 0.923879 0.382684
vn 0.000000 1.000000 0.000000
vn 0.000000 1.000000 0.000000
vn 1.000000 0.000000 0.000000
vn 1.000000 0.000000 0.000000
vn 1.000000 0.000000 0.000000
vn 1.000000 0.000000 0.000000
vn 1.000000 0.000000 0.000000
vn 1.000000 0.000000 0.000000
vn 1.000000 0.000000 0.000000
vn 1.000000 0.000000 0.000000
vn 1.000000 0.000000 0.000000
vn 1.000000 0.000000 0.000000
vn 1.000000 0.000000 0.000000
vn 1.000000 0.000000 0.000000
vn 1.000000 0.000000 0.000000
vn 1.000000 0.000000 0.000000
vn 1.000000 0.000000 0.000000
vn 1.000000 0.000000 0.000000
vn 1.000000 0.000000 0.000000
vn -1.000000 0.000001 0.000000
vn -1.000000 0.000001 0.000000
vn -1.000000 -0.000000 0.000000
vn -1.000000 0.000000 0.000000
vn -1.000000 0.000000 0.000000
vn -1.000000 0.000000 0.000000
vn -1.000000 -0.000002 0.000000
vn -1.000000 -0.000002 0.000000
vn -1.000000 0.000000 0.000000
vn -1.000000 -0.000001 0.000000
vn -1.000000 -0.000001 0.000000
vn -1.000000 0.000000 0.000000
vn -1.000000 0.000000 0.000000
vn -1.000000 0.000000 0.000000
vn -1.000000 0.000002 0.000000
vn -1.000000 0.000002 0.000000
vn -1.000000 0.000000 0.000000
s 1
g polySurface150 group11_pCylinder5
usemtl lambert4SG
f 1/1/1 2/2/2 18/3/3 17/4/4
f 2/2/2 3/5/5 19/6/6 18/3/3
f 3/5/5 4/7/7 20/8/8 19/6/6
f 4/7/7 5/9/9 21/10/10 20/8/8
f 5/9/9 6/11/11 22/12/12 21/10/10
f 6/11/11 7/13/13 23/14/14 22/12/12
f 7/13/13 8/15/15 24/16/16 23/14/14
f 8/15/15 9/17/17 25/18/18 24/16/16
f 9/17/17 10/19/19 26/20/20 25/18/18
f 10/19/19 11/21/21 27/22/22 26/20/20
f 11/21/21 12/23/23 28/24/24 27/22/22
f 12/23/23 13/25/25 29/26/26 28/24/24
f 13/25/25 14/27/27 30/28/28 29/26/26
f 14/27/27 15/29/29 31/30/30 30/28/28
f 15/29/29 16/31/31 32/32/32 31/30/30
f 16/31/31 1/33/1 17/34/4 32/32/32
s 2
f 2/35/33 1/36/34 33/37/35
f 3/38/36 2/35/33 33/37/35
f 4/39/37 3/38/36 33/37/35
f 5/40/38 4/39/37 33/37/35
f 6/41/39 5/40/38 33/37/35
f 7/42/40 6/41/39 33/37/35
f 8/43/41 7/42/40 33/37/35
f 9/44/42 8/43/41 33/37/35
f 10/45/43 9/44/42 33/37/35
f 11/46/44 10/45/43 33/37/35
f 12/47/45 11/46/44 33/37/35
f 13/48/46 12/47/45 33/37/35
f 14/49/47 13/48/46 33/37/35
f 15/50/48 14/49/47 33/37/35
f 16/51/49 15/50/48 33/37/35
f 1/36/34 16/51/49 33/37/35
s 3
f 17/52/50 18/53/51 34/54/52
f 18/53/51 19/55/53 34/54/52
f 19/55/53 20/56/54 34/54/52
f 20/56/54 21/57/55 34/54/52
f 21/57/55 22/58/56 34/54/52
f 22/58/56 23/59/57 34/54/52
f 23/59/57 24/60/58 34/54/52
f 24/60/58 25/61/59 34/54/52
f 25/61/59 26/62/60 34/54/52
f 26/62/60 27/63/61 34/54/52
f 27/63/61 28/64/62 34/54/52
f 28/64/62 29/65/63 34/54/52
f 29/65/63 30/66/64 34/54/52
f 30/66/64 31/67/65 34/54/52
f 31/67/65 32/68/66 34/54/52
f 32/68/66 17/52/50 34/54/52
