# This file uses meters as units for non-parametric coordinates.

mtllib stick2.mtl
g default
v 52.192963 -3.440332 9.185028
v 50.734222 -3.104729 8.955460
v 50.694214 -3.443967 9.170403
v 50.891022 -3.202132 8.073013
v 50.832520 -2.983787 8.406693
v 52.291382 -3.319374 8.636276
v -52.605469 0.618661 -11.360115
v -52.561615 0.990648 -11.595779
v -53.544586 0.723867 -11.858849
v -53.436707 0.856481 -12.460556
v -52.453644 1.123261 -12.197479
v -52.389709 0.883864 -12.563393
v -52.585388 0.007147 -11.490372
v -53.524475 0.112360 -11.989113
v -52.521362 -0.232257 -11.856270
v -52.413513 -0.099646 -12.457977
v -53.416565 0.244982 -12.590813
v -52.369629 0.272342 -12.693665
v 50.712494 -4.001667 9.051598
v 50.770844 -4.220023 8.717888
v 52.211304 -3.998032 9.066238
v 52.309570 -3.877083 8.517456
v 50.869263 -4.099063 8.169128
v 50.909302 -3.759848 7.954208
v -0.815948 -0.940982 -1.202103
v -0.867615 -1.378842 -0.924698
v -0.844055 -2.098645 -1.078049
v -0.768646 -2.380444 -1.508728
v -0.641663 -2.224350 -2.216995
v -0.589966 -1.786490 -2.494385
v -0.613556 -1.066688 -2.341049
v -0.688965 -0.784889 -1.910362
v -26.756317 -0.921188 -6.332199
v -26.713104 -0.554259 -6.564697
v -26.606659 -0.423453 -7.158195
v -26.543549 -0.659602 -7.519119
v -26.523712 -1.262786 -7.647598
v -26.567078 -1.629712 -7.415161
v -26.673523 -1.760521 -6.821655
v -26.736633 -1.524372 -6.460724
v 25.111633 -1.189132 4.370575
v 25.060028 -1.626996 4.647980
v 25.083710 -2.346806 4.494659
v 25.158997 -2.628591 4.063950
v 25.286011 -2.472504 3.355698
v 25.337555 -2.034642 3.078278
v 25.313995 -1.314843 3.231621
v 25.238586 -1.033050 3.662315
v -41.583282 -4.271072 0.756523
v -40.410828 -4.328849 0.731705
v -40.478577 -4.523376 1.064659
v -40.429688 -3.454759 0.778046
v -40.386261 -3.794525 0.588409
v -41.558777 -3.736726 0.613220
v 39.112213 -3.524061 17.904251
v 39.186646 -3.310815 17.539200
v 39.890991 -3.220985 17.987740
v 39.917725 -2.635070 17.830582
v 39.213470 -2.724876 17.382065
v 39.165894 -2.352352 17.590012
v 38.990326 -3.364774 18.477386
v 39.769073 -3.061664 18.560883
v 38.942841 -2.992221 18.685349
v 38.969696 -2.406305 18.528214
v 39.795868 -2.475765 18.403732
v 39.044128 -2.193019 18.163162
v -40.589691 -4.378074 1.587372
v -40.633118 -4.038339 1.777008
v -41.694458 -4.125825 1.279236
v -41.669922 -3.591455 1.135925
v -40.608582 -3.503963 1.633713
v -40.540771 -3.309478 1.300766
v -0.676117 -3.920993 9.007492
v -0.763489 -4.172018 9.437241
v -0.907013 -3.984506 10.111855
v -0.962921 -3.545993 10.356644
v -0.931274 -2.856313 10.171692
v -0.843811 -2.605285 9.741959
v -0.700317 -2.792799 9.067337
v -0.644440 -3.231311 8.822540
v 19.104065 -3.642686 14.184357
v 19.177338 -3.432334 13.824249
v 19.203949 -2.854387 13.669281
v 19.157013 -2.486919 13.874390
v 19.036865 -2.329788 14.439743
v 18.963409 -2.540155 14.799805
v 18.937042 -3.118083 14.954842
v 18.983765 -3.485565 14.749664
v -20.551392 -4.611669 4.056641
v -20.638916 -4.862686 4.486359
v -20.782349 -4.675172 5.160995
v -20.838287 -4.236663 5.405777
v -20.806824 -3.546991 5.220787
v -20.719147 -3.295951 4.791107
v -20.575806 -3.483474 4.116455
v -20.519684 -3.921979 3.871704
v -58.926208 -2.926931 -9.626694
v -57.488892 -2.623411 -9.234604
v -57.405426 -2.837448 -9.562378
v -57.663513 -3.085689 -8.488113
v -57.618011 -2.747528 -8.697426
v -59.055298 -3.050989 -9.089516
v 46.375000 -0.845901 14.109787
v 46.283478 -0.611227 14.469177
v 47.302155 -0.895170 14.632317
v 47.160492 -1.031211 15.221298
v 46.141907 -0.747266 15.058182
v 46.092285 -1.118034 15.287766
v 46.417023 -1.451465 13.979965
v 47.344055 -1.500730 14.502464
v 46.366913 -1.822231 14.209435
v 46.225739 -1.958324 14.798515
v 47.202515 -1.636791 15.091476
v 46.133850 -1.723608 15.157829
v -57.367188 -3.389724 -9.680794
v -57.412689 -3.727880 -9.471481
v -58.888092 -3.479166 -9.745132
v -59.016998 -3.603302 -9.207916
v -57.541840 -3.851999 -8.934311
v -57.625366 -3.637907 -8.606544
v -5.711060 -1.470567 2.554672
v -5.603058 -1.746824 2.131683
v -5.553741 -2.459629 1.978828
v -5.612579 -2.896036 2.248978
v -5.779083 -3.056201 2.942307
v -5.887054 -2.779943 3.365295
v -5.936340 -2.067138 3.518150
v -5.877533 -1.630729 3.248001
v 20.458832 -1.860492 8.073967
v 20.368622 -1.628986 8.428482
v 20.228912 -1.763221 9.009445
v 20.179779 -2.128919 9.235855
v 20.221191 -2.726232 9.107788
v 20.311584 -2.957750 8.753311
v 20.451172 -2.823535 8.172318
v 20.500397 -2.457828 7.945930
v -31.830048 -1.102678 -3.452774
v -31.722198 -1.378973 -3.875793
v -31.673065 -2.091754 -4.028679
v -31.731628 -2.528173 -3.758484
v -31.898315 -2.688331 -3.065186
v -32.006226 -2.412059 -2.642181
v -32.055420 -1.699266 -2.489311
v -31.996704 -1.262855 -2.759476
v 60.054962 -0.383642 2.883499
v 58.565369 -0.772224 2.847794
v 58.642365 -0.551977 2.294052
v 58.428528 0.125729 3.838081
v 58.458435 -0.433338 3.619881
v 59.948029 -0.044755 3.655586
v -45.813629 -0.546033 -12.262848
v -45.898041 -0.787523 -11.655685
v -46.876587 -0.359550 -11.979034
v -46.993774 0.012047 -11.132439
v -46.015259 -0.415943 -10.809090
v -46.048035 0.197068 -10.569832
v -45.761963 0.308634 -12.630829
v -46.824921 0.495120 -12.347015
v -45.794678 0.921637 -12.391563
v -45.911865 1.293227 -11.544960
v -46.942078 0.866717 -11.500412
v -45.996338 1.051735 -10.937805
v 58.689484 0.227484 1.958458
v 58.659668 0.786549 2.176666
v 60.102081 0.395829 2.547897
v 59.995209 0.734715 3.320000
v 58.552704 1.125439 2.948761
v 58.475677 0.905190 3.502487
v 6.450592 -1.009965 -4.400169
v 6.549988 -0.725709 -5.114845
v 6.610840 0.280304 -5.547989
v 6.572235 1.001862 -5.266357
v 6.434326 1.439253 -4.269844
v 6.334930 1.154997 -3.555168
v 6.274078 0.148982 -3.122040
v 6.312622 -0.572576 -3.403664
v -19.646454 0.179999 -8.944183
v -19.729797 -0.058206 -8.345299
v -19.845367 0.308321 -7.510223
v -19.877686 0.912982 -7.274223
v -19.826721 1.756011 -7.637192
v -19.743408 1.994214 -8.236076
v -19.627808 1.627686 -9.071152
v -19.595459 1.023024 -9.307152
v 32.712646 -2.306728 -0.564453
v 32.812073 -2.022466 -1.279121
v 32.872925 -1.016456 -1.712265
v 32.834351 -0.294899 -1.430641
v 32.696411 0.142495 -0.434120
v 32.596985 -0.141761 0.280548
v 32.536163 -1.147777 0.713692
v 32.574707 -1.869337 0.432060
v -47.763428 -3.192604 -16.403229
v -46.363892 -2.784107 -15.907593
v -46.237366 -2.993852 -16.456284
v -46.566040 -3.700479 -14.945755
v -46.528259 -3.137462 -15.152252
v -47.927795 -3.545953 -15.647888
v 56.660950 -1.346693 6.612762
v 56.522186 -1.116725 7.214386
v 57.560059 -1.525230 7.249130
v 57.379852 -1.912672 8.077339
v 56.341949 -1.504159 8.042603
v 56.300507 -2.121509 8.269028
v 56.758301 -2.194173 6.237488
v 57.657379 -2.372711 6.873848
v 56.716827 -2.811525 6.463905
v 56.536591 -3.198959 7.292122
v 57.477142 -2.760154 7.702065
v 56.397858 -2.968992 7.893745
v -46.148621 -3.766759 -16.798538
v -46.186401 -4.329776 -16.592041
v -47.674683 -3.965513 -16.745491
v -47.839050 -4.318868 -15.990150
v -46.350769 -4.683133 -15.836700
v -46.477295 -4.473394 -15.288010
v 4.963867 -1.721986 -4.380745
v 5.127228 -1.992681 -5.088905
v 5.241791 -2.990242 -5.530647
v 5.192993 -3.716901 -5.264122
v 4.980865 -4.172956 -4.289246
v 4.817505 -3.902263 -3.581085
v 4.702972 -2.904703 -3.139343
v 4.751740 -2.178041 -3.405869
v 31.013214 -2.479854 0.515976
v 30.876434 -2.253011 1.109421
v 30.698608 -2.635179 1.926353
v 30.657745 -3.244117 2.149689
v 30.753754 -4.080059 1.779518
v 30.890594 -4.306898 1.186081
v 31.068420 -3.924730 0.369148
v 31.109222 -3.315794 0.145798
v -20.993408 -0.844862 -9.996918
v -20.830078 -1.115558 -10.705093
v -20.715515 -2.113117 -11.146828
v -20.764282 -2.839775 -10.880310
v -20.976440 -3.295837 -9.905441
v -21.139771 -3.025136 -9.197266
v -21.254333 -2.027576 -8.755524
v -21.205566 -1.300918 -9.022049
v -53.738922 -4.152782 -7.151558
v -52.204163 -4.156497 -7.276863
v -52.286743 -4.556224 -6.835892
v -52.290833 -2.859476 -6.936340
v -52.206207 -3.308038 -7.327087
v -53.740967 -3.304325 -7.201790
v 51.124176 -3.165262 13.833061
v 51.214722 -2.726970 13.349541
v 52.117188 -2.686012 14.004585
v 52.114929 -1.755693 13.949509
v 51.212494 -1.796649 13.294464
v 51.119659 -1.304807 13.722916
v 50.940735 -3.111705 14.745209
v 51.933777 -2.632453 14.916740
v 50.847900 -2.619863 15.173660
v 50.845703 -1.689540 15.118584
v 51.931549 -1.702131 14.861664
v 50.936249 -1.251249 14.635063
v -52.454041 -4.507377 -6.003998
v -52.538666 -4.058813 -5.613243
v -53.906189 -4.103937 -6.319672
v -53.908264 -3.255476 -6.369896
v -52.540710 -3.210357 -5.663475
v -52.458130 -2.810630 -6.104446
v -0.568176 -3.558042 2.817917
v -0.674774 -4.073949 3.387054
v -0.890625 -4.010902 4.460747
v -0.999878 -3.431964 4.965065
v -1.002533 -2.336900 4.900238
v -0.895935 -1.820993 4.331093
v -0.680023 -1.884037 3.257416
v -0.570801 -2.462976 2.753082
v 25.106750 -3.475124 9.444489
v 25.196075 -3.042802 8.967545
v 25.193878 -2.125148 8.913223
v 25.102386 -1.640003 9.335846
v 24.921448 -1.587173 10.235580
v 24.832092 -2.019498 10.712517
v 24.834320 -2.937149 10.766846
v 24.925873 -3.422296 10.344223
v -26.343872 -4.336435 -3.593063
v -26.450470 -4.852342 -3.023911
v -26.666382 -4.789299 -1.950241
v -26.775574 -4.210359 -1.445908
v -26.778198 -3.115293 -1.510742
v -26.671631 -2.599390 -2.079880
v -26.455750 -2.662433 -3.153564
v -26.346497 -3.241371 -3.657890
v -33.898621 4.379992 -8.204819
v -32.839539 4.042958 -7.861488
v -32.826538 4.459764 -7.759071
v -32.701721 3.823349 -8.786255
v -32.777039 3.724686 -8.375107
v -33.836121 4.061735 -8.718430
v 45.775116 -1.186670 5.770149
v 45.760864 -1.643716 5.657852
v 46.565125 -1.415427 5.618050
v 46.633636 -1.764428 5.054886
v 45.829224 -1.992650 5.094635
v 45.912140 -1.884521 4.643906
v 45.872040 -0.621363 5.431564
v 46.662109 -0.850119 5.279495
v 45.954834 -0.513228 4.980812
v 46.023071 -0.862171 4.417564
v 46.730408 -1.199115 4.716278
v 46.008881 -1.319193 4.305283
v -32.738159 4.975322 -8.067856
v -32.662720 5.073963 -8.478966
v -33.810242 4.895602 -8.513596
v -33.747742 4.577345 -9.027214
v -32.600281 4.755705 -8.992599
v -32.613220 4.338883 -9.095001
v 6.344757 1.119480 -0.979607
v 6.361481 1.657457 -0.847443
v 6.475616 2.322871 -1.245949
v 6.572998 2.450170 -1.776550
v 6.653564 2.039416 -2.439484
v 6.636841 1.501437 -2.571640
v 6.522736 0.836024 -2.173134
v 6.425262 0.708724 -1.642563
v 26.200989 0.711576 2.102081
v 26.186951 0.260753 1.991341
v 26.254456 -0.083454 1.435814
v 26.336243 0.023227 0.991226
v 26.431549 0.580843 0.657181
v 26.445618 1.031648 0.767960
v 26.378174 1.375866 1.323502
v 26.296478 1.269198 1.768105
v -13.592712 1.911375 -3.711960
v -13.576202 2.449327 -3.579857
v -13.461945 3.114751 -3.978340
v -13.364502 3.242029 -4.508919
v -13.284210 2.831293 -5.171921
v -13.300751 2.293314 -5.304031
v -13.414764 1.627907 -4.905495
v -13.512177 1.500595 -4.374908
v 47.428680 -1.978370 -7.627609
v 45.933289 -1.613813 -7.580940
v 45.922913 -2.177970 -7.374344
v 46.049255 -1.462934 -8.911163
v 45.996460 -1.256259 -8.349426
v 47.491791 -1.620815 -8.396103
v -59.126831 -3.661609 -16.610756
v -59.115417 -3.043012 -16.837280
v -60.102081 -3.479909 -17.121666
v -60.032806 -3.087863 -17.964302
v -59.046143 -2.650972 -17.679916
v -58.988281 -2.877586 -18.295853
v -59.080261 -4.506984 -17.000252
v -60.055542 -4.325292 -17.511169
v -59.022339 -4.733596 -17.616196
v -58.953064 -4.341556 -18.458832
v -59.986267 -3.933237 -18.353806
v -58.941711 -3.722959 -18.685349
v 45.965332 -2.948957 -7.729576
v 46.018158 -3.155639 -8.291321
v 47.471130 -2.749357 -7.982834
v 47.534241 -2.391811 -8.751328
v 46.081360 -2.798086 -9.059807
v 46.091736 -2.233928 -9.266388
v -6.492981 -2.183235 -12.019554
v -6.506348 -2.911365 -11.752922
v -6.451569 -3.906444 -12.211395
v -6.383392 -4.173191 -12.936409
v -6.301880 -3.711713 -13.928261
v -6.288513 -2.983583 -14.194901
v -6.343262 -1.988504 -13.736420
v -6.411499 -1.721759 -13.011414
v -32.817108 -4.016565 -14.626854
v -32.805939 -3.406400 -14.850296
v -32.737640 -3.019687 -15.681458
v -32.680511 -3.243219 -16.289009
v -32.634583 -4.077083 -16.673203
v -32.645813 -4.687253 -16.449768
v -32.714081 -5.073963 -15.618607
v -32.771240 -4.850432 -15.011055
v 19.854095 -0.819433 -8.847153
v 19.840729 -1.547565 -8.580521
v 19.895569 -2.542644 -9.038986
v 19.963684 -2.809389 -9.764008
v 20.045227 -2.347915 -10.755859
v 20.058594 -1.619783 -11.022491
v 20.003845 -0.624706 -10.564018
v 19.935699 -0.357959 -9.839005
vt 0.503807 0.840693
vt 0.504025 0.847407
vt 0.501468 0.847419
vt 0.501251 0.840705
vt 0.494200 0.846714
vt 0.503799 0.838136
vt 0.494169 0.849274
vt 0.494299 0.844906
vt 0.377391 0.847066
vt 0.377483 0.844736
vt 0.503955 0.831353
vt 0.501242 0.838148
vt 0.501398 0.831365
vt 0.494244 0.851079
vt 0.377323 0.852690
vt 0.377309 0.850361
vt 0.014702 0.844120
vt 0.014461 0.839337
vt 0.017263 0.839272
vt 0.017505 0.844055
vt 0.021768 0.846038
vt 0.012472 0.832228
vt 0.014392 0.836535
vt 0.014410 0.831818
vt 0.017212 0.831754
vt 0.017195 0.836470
vt 0.377588 0.841442
vt 0.377604 0.839112
vt 0.494536 0.840548
vt 0.494465 0.842353
vt 0.022054 0.839280
vt 0.021985 0.836477
vt 0.377544 0.835813
vt 0.377478 0.833480
vt 0.494465 0.836183
vt 0.499609 0.831634
vt 0.494441 0.853629
vt 0.377442 0.855985
vt 0.021717 0.850818
vt 0.140128 0.844274
vt 0.140045 0.846230
vt 0.140208 0.841510
vt 0.022020 0.841260
vt 0.140208 0.839556
vt 0.140126 0.836792
vt 0.021885 0.834496
vt 0.140041 0.834838
vt 0.139948 0.850949
vt 0.140004 0.853714
vt 0.021851 0.853618
vt 0.139958 0.848995
vt 0.258729 0.844517
vt 0.258666 0.846852
vt 0.258548 0.850151
vt 0.258486 0.852481
vt 0.258465 0.855781
vt 0.258511 0.833254
vt 0.258577 0.835588
vt 0.258690 0.838885
vt 0.258739 0.841216
vt 0.397876 0.894414
vt 0.397737 0.899675
vt 0.395256 0.899616
vt 0.395395 0.894354
vt 0.389930 0.900209
vt 0.397935 0.891932
vt 0.389980 0.902694
vt 0.389957 0.898452
vt 0.299861 0.900898
vt 0.299854 0.898637
vt 0.398048 0.886665
vt 0.395454 0.891873
vt 0.395567 0.886606
vt 0.390070 0.904448
vt 0.299892 0.906356
vt 0.299875 0.904096
vt 0.018852 0.898167
vt 0.018849 0.894403
vt 0.021571 0.894395
vt 0.021573 0.898159
vt 0.025213 0.900957
vt 0.016963 0.888420
vt 0.018841 0.891682
vt 0.018822 0.887923
vt 0.021543 0.887916
vt 0.021563 0.891674
vt 0.299846 0.895440
vt 0.299847 0.893177
vt 0.390128 0.894216
vt 0.390055 0.895970
vt 0.025329 0.894392
vt 0.025321 0.891670
vt 0.299864 0.889974
vt 0.299887 0.887709
vt 0.390189 0.889980
vt 0.393831 0.886860
vt 0.390226 0.906926
vt 0.299926 0.909555
vt 0.025246 0.905599
vt 0.116502 0.898894
vt 0.116503 0.900794
vt 0.116488 0.896209
vt 0.025303 0.896315
vt 0.116472 0.894311
vt 0.116447 0.891627
vt 0.025285 0.889746
vt 0.116429 0.889729
vt 0.116479 0.905379
vt 0.116454 0.908063
vt 0.025315 0.908318
vt 0.116492 0.903480
vt 0.208141 0.898779
vt 0.208187 0.901044
vt 0.208156 0.904248
vt 0.208078 0.906512
vt 0.207944 0.909712
vt 0.207916 0.887847
vt 0.207893 0.890111
vt 0.207941 0.893314
vt 0.208021 0.895577
vt 0.018682 0.872344
vt 0.018911 0.879173
vt 0.016375 0.879262
vt 0.016147 0.872431
vt 0.025496 0.872210
vt 0.018595 0.869807
vt 0.025408 0.869671
vt 0.025497 0.874005
vt 0.143415 0.871266
vt 0.143452 0.873579
vt 0.018350 0.863015
vt 0.016059 0.869895
vt 0.015815 0.863103
vt 0.025310 0.867879
vt 0.143297 0.865683
vt 0.143343 0.867995
vt 0.507571 0.875240
vt 0.507489 0.870466
vt 0.510270 0.870415
vt 0.510353 0.875188
vt 0.502693 0.870486
vt 0.505427 0.863330
vt 0.507437 0.867684
vt 0.507341 0.862872
vt 0.510122 0.862819
vt 0.510218 0.867632
vt 0.143461 0.876850
vt 0.143437 0.879164
vt 0.025345 0.878335
vt 0.025422 0.876542
vt 0.515061 0.870257
vt 0.502576 0.879981
vt 0.143376 0.882438
vt 0.143336 0.884753
vt 0.025242 0.882665
vt 0.014043 0.863384
vt 0.025178 0.865345
vt 0.143259 0.862411
vt 0.502588 0.865739
vt 0.383316 0.872834
vt 0.383290 0.870893
vt 0.383332 0.875578
vt 0.502651 0.875232
vt 0.383324 0.877518
vt 0.383304 0.880263
vt 0.502585 0.881948
vt 0.383300 0.882203
vt 0.383231 0.866206
vt 0.383243 0.863462
vt 0.502523 0.862959
vt 0.383247 0.868147
vt 0.263468 0.873191
vt 0.263401 0.870877
vt 0.263365 0.867600
vt 0.263394 0.865285
vt 0.263492 0.862013
vt 0.263560 0.884370
vt 0.263599 0.882055
vt 0.263608 0.878780
vt 0.263569 0.876465
vt 0.508883 0.768911
vt 0.508671 0.775810
vt 0.504863 0.775693
vt 0.505075 0.768795
vt 0.497799 0.777781
vt 0.509000 0.765103
vt 0.497901 0.781597
vt 0.497848 0.775082
vt 0.381060 0.778869
vt 0.381046 0.775401
vt 0.509213 0.758204
vt 0.505192 0.764986
vt 0.505405 0.758087
vt 0.498075 0.784288
vt 0.381143 0.787241
vt 0.381100 0.783775
vt 0.016016 0.774008
vt 0.016010 0.769006
vt 0.020188 0.769001
vt 0.020193 0.774003
vt 0.024958 0.779068
vt 0.013179 0.760703
vt 0.016005 0.764829
vt 0.015999 0.759827
vt 0.020176 0.759822
vt 0.020182 0.764824
vt 0.381047 0.770498
vt 0.381061 0.767027
vt 0.498177 0.768582
vt 0.498036 0.771273
vt 0.025190 0.768995
vt 0.025184 0.764818
vt 0.381101 0.762110
vt 0.381142 0.758634
vt 0.498296 0.762082
vt 0.502748 0.758531
vt 0.498370 0.788086
vt 0.381224 0.792148
vt 0.025041 0.786190
vt 0.143361 0.775868
vt 0.143363 0.778784
vt 0.143347 0.771745
vt 0.025132 0.771947
vt 0.143329 0.768832
vt 0.143293 0.764712
vt 0.025118 0.761865
vt 0.143259 0.761799
vt 0.143343 0.785823
vt 0.143314 0.789943
vt 0.025182 0.790362
vt 0.143356 0.782908
vt 0.262199 0.775653
vt 0.262281 0.779130
vt 0.262240 0.784049
vt 0.262114 0.787523
vt 0.261888 0.792434
vt 0.261826 0.758876
vt 0.261788 0.762352
vt 0.261863 0.767267
vt 0.261994 0.770740
vt 0.508883 0.768917
vt 0.508671 0.775816
vt 0.504863 0.775699
vt 0.505075 0.768800
vt 0.497798 0.777786
vt 0.509000 0.765109
vt 0.497900 0.781602
vt 0.497848 0.775087
vt 0.381060 0.778869
vt 0.381046 0.775401
vt 0.509212 0.758210
vt 0.505192 0.764992
vt 0.505404 0.758093
vt 0.498074 0.784293
vt 0.381142 0.787241
vt 0.381099 0.783775
vt 0.016017 0.773991
vt 0.016011 0.768990
vt 0.020188 0.768984
vt 0.020194 0.773986
vt 0.024958 0.779052
vt 0.013179 0.760685
vt 0.016006 0.764812
vt 0.016000 0.759810
vt 0.020177 0.759805
vt 0.020183 0.764807
vt 0.381047 0.770497
vt 0.381062 0.767027
vt 0.498176 0.768587
vt 0.498035 0.771278
vt 0.025190 0.768978
vt 0.025185 0.764801
vt 0.381101 0.762110
vt 0.381143 0.758634
vt 0.498296 0.762087
vt 0.502748 0.758537
vt 0.498369 0.788092
vt 0.381223 0.792148
vt 0.025041 0.786173
vt 0.143361 0.775856
vt 0.143363 0.778772
vt 0.143347 0.771735
vt 0.025132 0.771930
vt 0.143329 0.768821
vt 0.143293 0.764701
vt 0.025119 0.761849
vt 0.143260 0.761788
vt 0.143343 0.785812
vt 0.143313 0.789932
vt 0.025181 0.790346
vt 0.143356 0.782897
vt 0.262199 0.775647
vt 0.262280 0.779124
vt 0.262239 0.784044
vt 0.262113 0.787518
vt 0.261886 0.792428
vt 0.261827 0.758871
vt 0.261788 0.762346
vt 0.261863 0.767262
vt 0.261994 0.770734
vt 0.508883 0.768910
vt 0.508671 0.775809
vt 0.504863 0.775692
vt 0.505075 0.768793
vt 0.497799 0.777779
vt 0.509000 0.765102
vt 0.497901 0.781596
vt 0.497848 0.775081
vt 0.381060 0.778869
vt 0.381046 0.775401
vt 0.509212 0.758203
vt 0.505192 0.764985
vt 0.505404 0.758086
vt 0.498075 0.784287
vt 0.381143 0.787241
vt 0.381100 0.783775
vt 0.016017 0.774011
vt 0.016011 0.769009
vt 0.020188 0.769004
vt 0.020195 0.774006
vt 0.024959 0.779070
vt 0.013178 0.760706
vt 0.016005 0.764832
vt 0.015999 0.759830
vt 0.020176 0.759825
vt 0.020183 0.764827
vt 0.381047 0.770497
vt 0.381061 0.767027
vt 0.498176 0.768581
vt 0.498035 0.771271
vt 0.025190 0.768997
vt 0.025185 0.764820
vt 0.381101 0.762110
vt 0.381142 0.758634
vt 0.498296 0.762080
vt 0.502748 0.758530
vt 0.498370 0.788085
vt 0.381224 0.792147
vt 0.025042 0.786192
vt 0.143361 0.775869
vt 0.143364 0.778785
vt 0.143347 0.771747
vt 0.025132 0.771949
vt 0.143329 0.768834
vt 0.143293 0.764714
vt 0.025119 0.761868
vt 0.143260 0.761801
vt 0.143343 0.785825
vt 0.143314 0.789945
vt 0.025182 0.790365
vt 0.143356 0.782910
vt 0.262199 0.775654
vt 0.262281 0.779131
vt 0.262240 0.784050
vt 0.262113 0.787524
vt 0.261888 0.792434
vt 0.261826 0.758877
vt 0.261788 0.762352
vt 0.261863 0.767268
vt 0.261994 0.770741
vt 0.888938 0.848269
vt 0.888777 0.853483
vt 0.886056 0.853392
vt 0.886217 0.848178
vt 0.880743 0.854598
vt 0.889029 0.845548
vt 0.880822 0.857324
vt 0.880773 0.852670
vt 0.792213 0.855360
vt 0.792203 0.852882
vt 0.889216 0.840346
vt 0.886308 0.845457
vt 0.886495 0.840255
vt 0.880949 0.859248
vt 0.792295 0.861345
vt 0.792255 0.858867
vt 0.515706 0.851993
vt 0.515711 0.848244
vt 0.518697 0.848255
vt 0.518691 0.852004
vt 0.522283 0.855452
vt 0.513718 0.842087
vt 0.515722 0.845259
vt 0.515745 0.841498
vt 0.518730 0.841509
vt 0.518707 0.845269
vt 0.792212 0.849375
vt 0.792234 0.846895
vt 0.881012 0.848025
vt 0.880907 0.849948
vt 0.522455 0.848252
vt 0.522465 0.845267
vt 0.792277 0.843381
vt 0.792308 0.840897
vt 0.881108 0.843380
vt 0.884591 0.840541
vt 0.881154 0.861962
vt 0.792358 0.864852
vt 0.522360 0.860542
vt 0.612034 0.853181
vt 0.612037 0.855264
vt 0.612033 0.850235
vt 0.522406 0.850362
vt 0.612030 0.848154
vt 0.612019 0.845208
vt 0.522424 0.843157
vt 0.612000 0.843127
vt 0.612044 0.860295
vt 0.612033 0.863240
vt 0.522463 0.863523
vt 0.612045 0.858212
vt 0.702104 0.853045
vt 0.702162 0.855529
vt 0.702149 0.859045
vt 0.702075 0.861529
vt 0.701930 0.865039
vt 0.701893 0.841053
vt 0.701864 0.843537
vt 0.701899 0.847050
vt 0.701975 0.849533
vt 0.508883 0.768921
vt 0.508671 0.775820
vt 0.504863 0.775703
vt 0.505075 0.768804
vt 0.497798 0.777790
vt 0.509000 0.765113
vt 0.497899 0.781606
vt 0.497847 0.775091
vt 0.381059 0.778868
vt 0.381045 0.775401
vt 0.509212 0.758214
vt 0.505192 0.764996
vt 0.505404 0.758097
vt 0.498073 0.784297
vt 0.381142 0.787240
vt 0.381099 0.783774
vt 0.016017 0.773978
vt 0.016011 0.768976
vt 0.020188 0.768971
vt 0.020194 0.773973
vt 0.024958 0.779038
vt 0.013179 0.760672
vt 0.016006 0.764799
vt 0.016000 0.759797
vt 0.020177 0.759792
vt 0.020183 0.764794
vt 0.381047 0.770497
vt 0.381062 0.767026
vt 0.498176 0.768591
vt 0.498035 0.771282
vt 0.025190 0.768965
vt 0.025185 0.764788
vt 0.381101 0.762109
vt 0.381143 0.758633
vt 0.498296 0.762091
vt 0.502747 0.758541
vt 0.498368 0.788095
vt 0.381221 0.792147
vt 0.025040 0.786160
vt 0.143361 0.775848
vt 0.143363 0.778763
vt 0.143347 0.771725
vt 0.025132 0.771917
vt 0.143329 0.768812
vt 0.143293 0.764692
vt 0.025119 0.761835
vt 0.143260 0.761779
vt 0.143342 0.785803
vt 0.143312 0.789923
vt 0.025180 0.790332
vt 0.143355 0.782888
vt 0.262199 0.775643
vt 0.262279 0.779120
vt 0.262238 0.784039
vt 0.262112 0.787513
vt 0.261885 0.792423
vt 0.261826 0.758866
vt 0.261788 0.762341
vt 0.261863 0.767257
vt 0.261994 0.770730
vt 0.511837 0.758811
vt 0.515782 0.769123
vt 0.013193 0.773140
vt 0.024969 0.783241
vt 0.025014 0.776119
vt 0.022999 0.760690
vt 0.023014 0.773128
vt 0.011003 0.764835
vt 0.011008 0.769012
vt 0.498293 0.764775
vt 0.502239 0.775087
vt 0.515899 0.765316
vt 0.511328 0.775366
vt 0.502239 0.775097
vt 0.511836 0.758820
vt 0.515782 0.769132
vt 0.515899 0.765324
vt 0.511328 0.775376
vt 0.498293 0.764784
vt 0.013194 0.773110
vt 0.024969 0.783211
vt 0.025014 0.776089
vt 0.023000 0.760660
vt 0.023015 0.773098
vt 0.011004 0.764805
vt 0.011009 0.768982
vt 0.024970 0.783243
vt 0.011004 0.764838
vt 0.013194 0.773143
vt 0.011009 0.769015
vt 0.025015 0.776121
vt 0.022999 0.760693
vt 0.023015 0.773130
vt 0.498293 0.764774
vt 0.502239 0.775086
vt 0.511837 0.758810
vt 0.515899 0.765314
vt 0.515782 0.769122
vt 0.511328 0.775365
vt 0.502239 0.775092
vt 0.498293 0.764780
vt 0.511837 0.758817
vt 0.515782 0.769129
vt 0.515899 0.765321
vt 0.511328 0.775372
vt 0.023000 0.760674
vt 0.013194 0.773123
vt 0.024969 0.783225
vt 0.025015 0.776102
vt 0.023015 0.773111
vt 0.011004 0.764818
vt 0.011009 0.768995
vt 0.494528 0.837991
vt 0.499672 0.847233
vt 0.505740 0.831632
vt 0.510583 0.837933
vt 0.510591 0.840490
vt 0.505819 0.847175
vt 0.019165 0.832103
vt 0.012757 0.843733
vt 0.021689 0.848839
vt 0.021878 0.844059
vt 0.019420 0.843550
vt 0.009683 0.836771
vt 0.009752 0.839574
vt 0.512051 0.863205
vt 0.515008 0.867475
vt 0.502609 0.877199
vt 0.502641 0.867705
vt 0.505636 0.874889
vt 0.502693 0.872452
vt 0.512275 0.874769
vt 0.025260 0.880871
vt 0.009251 0.870228
vt 0.014592 0.879068
vt 0.009338 0.872764
vt 0.020138 0.863170
vt 0.020678 0.878859
vt 0.520751 0.842115
vt 0.513681 0.851399
vt 0.522303 0.858434
vt 0.522318 0.853343
vt 0.520720 0.851421
vt 0.511970 0.845231
vt 0.511960 0.848217
vt 0.023406 0.888399
vt 0.016991 0.897677
vt 0.025213 0.903676
vt 0.025244 0.899035
vt 0.023431 0.897660
vt 0.015078 0.891700
vt 0.015085 0.894421
vt 0.881103 0.845304
vt 0.884178 0.852970
vt 0.891096 0.840761
vt 0.894239 0.845743
vt 0.894149 0.848464
vt 0.890678 0.853184
vt 0.390187 0.891735
vt 0.393533 0.899283
vt 0.399771 0.887000
vt 0.403197 0.892047
vt 0.403137 0.894528
vt 0.399474 0.899428
vn -0.009042 -0.208614 0.977956
vn -0.009042 -0.208614 0.977956
vn -0.009042 -0.208614 0.977956
vn -0.009042 -0.208614 0.977956
vn 0.181090 0.953093 0.242527
vn 0.181090 0.953093 0.242527
vn 0.181090 0.953093 0.242527
vn 0.181090 0.953093 0.242527
vn -0.108756 0.541138 0.833872
vn -0.108756 0.541138 0.833872
vn -0.143259 0.541665 0.828297
vn -0.141688 0.541655 0.828573
vn 0.379979 0.204600 -0.902083
vn 0.379979 0.204600 -0.902083
vn 0.379979 0.204600 -0.902083
vn 0.379979 0.204600 -0.902083
vn 0.160421 0.838595 -0.520599
vn 0.160421 0.838595 -0.520599
vn 0.139739 0.839621 -0.524889
vn 0.139706 0.839623 -0.524896
vn -0.476961 -0.198079 0.856313
vn -0.476961 -0.198079 0.856313
vn -0.476961 -0.198079 0.856313
vn -0.476961 -0.198079 0.856313
vn -0.297049 0.942297 0.154398
vn -0.297049 0.942297 0.154398
vn -0.297049 0.942297 0.154398
vn -0.297049 0.942297 0.154398
vn -0.100985 0.204102 -0.973727
vn -0.100985 0.204102 -0.973727
vn -0.100985 0.204102 -0.973727
vn -0.100985 0.204102 -0.973727
vn -0.133559 -0.839848 0.526134
vn -0.133577 -0.839848 0.526130
vn -0.147253 -0.839281 0.523377
vn -0.147253 -0.839281 0.523377
vn -0.283879 -0.924429 -0.254644
vn -0.283879 -0.924429 -0.254644
vn -0.283879 -0.924429 -0.254644
vn -0.283879 -0.924429 -0.254644
vn 0.148036 -0.541686 -0.827443
vn 0.149278 -0.541689 -0.827218
vn 0.122085 -0.541424 -0.831839
vn 0.122085 -0.541424 -0.831839
vn 0.191861 -0.965084 -0.178330
vn 0.191861 -0.965084 -0.178330
vn 0.191861 -0.965084 -0.178330
vn 0.191861 -0.965084 -0.178330
vn 0.033365 0.974749 0.220795
vn 0.033365 0.974749 0.220795
vn -0.004046 0.976711 0.214522
vn -0.002865 0.976670 0.214725
vn -0.984478 0.004963 -0.175437
vn -0.984478 0.004963 -0.175437
vn -0.984478 0.004963 -0.175437
vn -0.984478 0.004963 -0.175437
vn 0.008809 -0.976857 -0.213713
vn 0.009773 -0.976884 -0.213546
vn -0.020867 -0.975557 -0.218756
vn -0.020867 -0.975557 -0.218756
vn 0.984501 -0.005106 0.175305
vn 0.984501 -0.005106 0.175305
vn 0.984501 -0.005106 0.175305
vn 0.984501 -0.005106 0.175305
vn 0.196788 0.210441 -0.957595
vn 0.196788 0.210441 -0.957595
vn 0.202350 0.210380 -0.956449
vn 0.202541 0.210377 -0.956409
vn -0.184298 -0.210556 0.960052
vn -0.184298 -0.210556 0.960052
vn -0.196859 -0.210445 0.957580
vn -0.196440 -0.210449 0.957665
vn -0.009538 0.535995 0.844167
vn -0.009538 0.535995 0.844167
vn -0.009538 0.535995 0.844167
vn 0.268011 0.827018 -0.494177
vn 0.268011 0.827018 -0.494177
vn 0.268011 0.827018 -0.494177
vn -0.350526 0.530353 0.771918
vn -0.350526 0.530353 0.771918
vn -0.350526 0.530353 0.771918
vn -0.076192 0.828233 -0.555180
vn -0.076192 0.828233 -0.555180
vn -0.076192 0.828233 -0.555180
vn -0.341703 -0.812711 0.471953
vn -0.341703 -0.812711 0.471953
vn -0.341703 -0.812711 0.471953
vn -0.069349 -0.528066 -0.846367
vn -0.069349 -0.528066 -0.846367
vn -0.069349 -0.528066 -0.846367
vn -0.003314 -0.837047 0.547120
vn -0.003314 -0.837047 0.547121
vn -0.003314 -0.837047 0.547120
vn 0.275580 -0.537478 -0.796978
vn 0.275580 -0.537478 -0.796978
vn 0.275580 -0.537478 -0.796978
vn -0.147190 0.541695 0.827588
vn -0.146357 0.541691 0.827738
vn -0.129314 0.541534 0.830674
vn -0.129314 0.541534 0.830673
vn -0.201235 -0.210404 0.956679
vn -0.201150 -0.210405 0.956697
vn -0.198720 -0.210429 0.957199
vn -0.198720 -0.210429 0.957199
vn -0.151386 -0.839081 0.522518
vn -0.151386 -0.839081 0.522518
vn -0.139292 -0.839630 0.524994
vn -0.139306 -0.839630 0.524991
vn -0.015272 -0.975870 -0.217817
vn -0.015272 -0.975870 -0.217817
vn 0.002874 -0.976668 -0.214737
vn 0.003479 -0.976689 -0.214634
vn 0.129991 -0.541539 -0.830565
vn 0.129991 -0.541539 -0.830565
vn 0.141889 -0.541650 -0.828543
vn 0.142465 -0.541653 -0.828442
vn 0.196921 0.210443 -0.957568
vn 0.196836 0.210444 -0.957585
vn 0.199353 0.210421 -0.957069
vn 0.199353 0.210421 -0.957069
vn 0.134734 0.839804 -0.525906
vn 0.134713 0.839804 -0.525910
vn 0.152056 0.839045 -0.522382
vn 0.152056 0.839045 -0.522381
vn -0.007898 0.976830 0.213873
vn -0.007130 0.976806 0.214005
vn 0.015907 0.975836 0.217925
vn 0.015907 0.975836 0.217925
vn -0.167452 0.541648 0.823758
vn -0.167316 0.541649 0.823785
vn -0.032461 0.977258 0.209555
vn -0.032329 0.977257 0.209579
vn 0.120304 0.840238 -0.528703
vn 0.120269 0.840239 -0.528710
vn 0.201265 0.210392 -0.956675
vn 0.201284 0.210392 -0.956671
vn 0.162764 -0.541662 -0.824688
vn 0.163041 -0.541661 -0.824634
vn 0.027995 -0.977225 -0.210351
vn 0.028304 -0.977228 -0.210296
vn -0.124822 -0.840122 0.527840
vn -0.124737 -0.840124 0.527856
vn -0.205492 -0.210352 0.955785
vn -0.205487 -0.210352 0.955786
vn -0.271604 -0.940612 0.203666
vn -0.271604 -0.940612 0.203666
vn -0.271604 -0.940612 0.203666
vn -0.271604 -0.940612 0.203666
vn -0.033128 -0.257467 -0.965719
vn -0.033128 -0.257467 -0.965719
vn -0.033128 -0.257467 -0.965719
vn -0.033128 -0.257467 -0.965719
vn 0.070103 -0.867484 -0.492500
vn 0.070103 -0.867484 -0.492500
vn 0.112215 -0.867793 -0.484089
vn 0.112216 -0.867793 -0.484089
vn -0.189644 0.934855 -0.300135
vn -0.189644 0.934855 -0.300135
vn -0.189644 0.934855 -0.300135
vn -0.189644 0.934855 -0.300135
vn 0.144657 0.496287 -0.856022
vn 0.144657 0.496287 -0.856022
vn 0.170839 0.496778 -0.850897
vn 0.170759 0.496777 -0.850914
vn 0.314559 -0.895194 0.315723
vn 0.314559 -0.895194 0.315723
vn 0.314559 -0.895194 0.315723
vn 0.314559 -0.895194 0.315723
vn 0.543028 -0.240589 -0.804511
vn 0.543028 -0.240589 -0.804510
vn 0.543028 -0.240589 -0.804511
vn 0.543028 -0.240589 -0.804510
vn 0.393568 0.903887 -0.167609
vn 0.393568 0.903887 -0.167609
vn 0.393568 0.903887 -0.167609
vn 0.393568 0.903887 -0.167609
vn -0.178497 -0.496853 0.849280
vn -0.178557 -0.496853 0.849267
vn -0.161316 -0.496648 0.852829
vn -0.161316 -0.496648 0.852829
vn 0.164695 0.248469 0.954536
vn 0.164695 0.248469 0.954536
vn 0.164695 0.248469 0.954536
vn 0.164695 0.248469 0.954536
vn -0.119936 0.867675 0.482448
vn -0.119947 0.867674 0.482446
vn -0.086748 0.867801 0.489281
vn -0.086748 0.867801 0.489281
vn -0.427856 0.252391 0.867893
vn -0.427856 0.252391 0.867893
vn -0.427856 0.252391 0.867893
vn -0.427856 0.252391 0.867893
vn 0.155696 -0.262522 -0.952282
vn 0.155696 -0.262522 -0.952282
vn 0.202025 -0.262319 -0.943597
vn 0.201902 -0.262320 -0.943623
vn 0.978655 0.010351 0.205247
vn 0.978655 0.010351 0.205247
vn 0.978655 0.010351 0.205247
vn 0.978655 0.010351 0.205247
vn -0.209197 0.262229 0.942058
vn -0.209282 0.262228 0.942039
vn -0.171445 0.262516 0.949575
vn -0.171445 0.262515 0.949575
vn -0.978647 -0.010150 -0.205300
vn -0.978647 -0.010150 -0.205300
vn -0.978647 -0.010150 -0.205300
vn -0.978646 -0.010150 -0.205300
vn 0.044888 0.964925 -0.258659
vn 0.044888 0.964925 -0.258659
vn 0.037770 0.964830 -0.260148
vn 0.037790 0.964830 -0.260143
vn -0.060543 -0.964952 0.255347
vn -0.060543 -0.964952 0.255347
vn -0.045086 -0.964926 0.258620
vn -0.045045 -0.964926 0.258628
vn -0.053089 -0.857475 -0.511779
vn -0.053089 -0.857475 -0.511779
vn -0.053089 -0.857475 -0.511779
vn 0.005580 0.487900 -0.872882
vn 0.005580 0.487900 -0.872882
vn 0.005580 0.487900 -0.872882
vn 0.368501 -0.833475 -0.411737
vn 0.368501 -0.833475 -0.411737
vn 0.368501 -0.833475 -0.411737
vn 0.426179 0.481817 -0.765653
vn 0.426179 0.481817 -0.765653
vn 0.426179 0.481817 -0.765653
vn 0.091684 -0.476423 0.874423
vn 0.091684 -0.476423 0.874423
vn 0.091684 -0.476423 0.874423
vn 0.149189 0.840216 0.521325
vn 0.149189 0.840216 0.521325
vn 0.149189 0.840216 0.521325
vn -0.336280 -0.491426 0.803378
vn -0.336280 -0.491426 0.803378
vn -0.336280 -0.491426 0.803378
vn -0.277539 0.853102 0.441802
vn -0.277539 0.853102 0.441802
vn -0.277539 0.853102 0.441802
vn 0.117583 -0.867723 -0.482940
vn 0.117592 -0.867723 -0.482938
vn 0.095773 -0.867878 -0.487459
vn 0.095773 -0.867878 -0.487459
vn -0.039356 -0.964860 0.259800
vn -0.039347 -0.964860 0.259801
vn -0.042459 -0.964905 0.259144
vn -0.042459 -0.964905 0.259144
vn -0.156096 -0.496554 0.853855
vn -0.156096 -0.496554 0.853855
vn -0.171297 -0.496788 0.850799
vn -0.171365 -0.496788 0.850785
vn -0.178479 0.262514 0.948278
vn -0.178479 0.262513 0.948278
vn -0.201570 0.262337 0.943689
vn -0.201626 0.262336 0.943677
vn -0.096628 0.867849 0.487340
vn -0.096628 0.867849 0.487340
vn -0.111847 0.867787 0.484185
vn -0.111849 0.867787 0.484185
vn 0.044781 0.964923 -0.258685
vn 0.044771 0.964923 -0.258688
vn 0.041671 0.964884 -0.259349
vn 0.041671 0.964884 -0.259349
vn 0.177121 0.496839 -0.849576
vn 0.177038 0.496838 -0.849594
vn 0.155251 0.496534 -0.854021
vn 0.155251 0.496534 -0.854021
vn 0.207058 -0.262257 -0.942522
vn 0.206972 -0.262258 -0.942541
vn 0.177682 -0.262487 -0.948436
vn 0.177682 -0.262487 -0.948436
vn 0.143261 -0.866990 -0.477289
vn 0.143402 -0.866984 -0.477256
vn 0.237941 -0.261755 -0.935344
vn 0.237901 -0.261756 -0.935354
vn 0.195090 0.496910 -0.845589
vn 0.195157 0.496910 -0.845573
vn 0.039072 0.964852 -0.259874
vn 0.039430 0.964858 -0.259799
vn -0.137878 0.867188 0.478513
vn -0.137592 0.867198 0.478577
vn -0.232620 0.261860 0.936652
vn -0.232713 0.261858 0.936630
vn -0.189441 -0.496906 0.846874
vn -0.189600 -0.496907 0.846839
vn -0.034001 -0.964761 0.260922
vn -0.033891 -0.964759 0.260944
vn 0.028881 0.211497 -0.976952
vn 0.028881 0.211497 -0.976952
vn 0.028881 0.211497 -0.976952
vn 0.028881 0.211497 -0.976952
vn -0.245906 0.955716 0.161669
vn -0.245906 0.955716 0.161669
vn -0.245906 0.955716 0.161669
vn -0.245906 0.955716 0.161669
vn 0.070097 0.843285 -0.532876
vn 0.070097 0.843285 -0.532876
vn 0.102552 0.844611 -0.525467
vn 0.102981 0.844622 -0.525365
vn -0.391648 -0.218742 0.893736
vn -0.391648 -0.218742 0.893736
vn -0.391648 -0.218742 0.893736
vn -0.391648 -0.218742 0.893736
vn -0.220075 0.534671 0.815901
vn -0.220075 0.534671 0.815901
vn -0.199973 0.535033 0.820823
vn -0.199732 0.535036 0.820880
vn 0.488143 0.215177 -0.845822
vn 0.488143 0.215177 -0.845822
vn 0.488143 0.215177 -0.845822
vn 0.488143 0.215178 -0.845822
vn 0.218368 0.938014 0.269158
vn 0.218368 0.938014 0.269158
vn 0.218368 0.938014 0.269158
vn 0.218368 0.938014 0.269158
vn 0.077235 -0.203977 0.975924
vn 0.077235 -0.203977 0.975924
vn 0.077235 -0.203977 0.975924
vn 0.077235 -0.203977 0.975924
vn 0.193765 -0.535091 -0.822273
vn 0.193920 -0.535089 -0.822238
vn 0.207206 -0.534913 -0.819105
vn 0.207206 -0.534913 -0.819105
vn 0.345318 -0.929187 -0.131785
vn 0.345318 -0.929187 -0.131785
vn 0.345318 -0.929187 -0.131785
vn 0.345318 -0.929187 -0.131785
vn -0.108940 -0.844757 0.523944
vn -0.108598 -0.844750 0.524027
vn -0.083015 -0.843907 0.530029
vn -0.083015 -0.843907 0.530029
vn -0.115708 -0.961327 -0.249923
vn -0.115708 -0.961327 -0.249923
vn -0.115708 -0.961327 -0.249923
vn -0.115708 -0.961327 -0.249923
vn -0.102896 0.974301 0.200373
vn -0.102896 0.974301 0.200373
vn -0.067538 0.975549 0.209150
vn -0.066901 0.975559 0.209306
vn 0.971296 0.016426 0.237305
vn 0.971296 0.016426 0.237305
vn 0.971296 0.016426 0.237305
vn 0.971296 0.016426 0.237305
vn 0.061304 -0.975636 -0.210655
vn 0.061827 -0.975631 -0.210528
vn 0.090791 -0.974877 -0.203399
vn 0.090791 -0.974877 -0.203399
vn -0.971363 -0.016378 -0.237037
vn -0.971363 -0.016378 -0.237037
vn -0.971363 -0.016378 -0.237037
vn -0.971363 -0.016378 -0.237037
vn -0.211299 -0.218890 0.952596
vn -0.211299 -0.218890 0.952596
vn -0.216831 -0.218997 0.951328
vn -0.216826 -0.218997 0.951329
vn 0.199097 0.218619 -0.955283
vn 0.199097 0.218619 -0.955283
vn 0.211155 0.218886 -0.952629
vn 0.211165 0.218886 -0.952627
vn -0.025764 0.834001 -0.551162
vn -0.025764 0.834001 -0.551162
vn -0.025764 0.834001 -0.551162
vn -0.325485 0.528934 0.783766
vn -0.325485 0.528934 0.783766
vn -0.325485 0.528934 0.783766
vn 0.306026 0.830931 -0.464652
vn 0.306026 0.830931 -0.464652
vn 0.306026 0.830931 -0.464652
vn 0.010231 0.525438 0.850770
vn 0.010231 0.525438 0.850770
vn 0.010231 0.525438 0.850770
vn 0.397888 -0.521100 -0.755077
vn 0.397888 -0.521100 -0.755077
vn 0.397888 -0.521100 -0.755077
vn 0.101580 -0.820782 0.562137
vn 0.101580 -0.820782 0.562137
vn 0.101580 -0.820782 0.562137
vn 0.066982 -0.531634 -0.844321
vn 0.066982 -0.531634 -0.844321
vn 0.066982 -0.531634 -0.844321
vn -0.232495 -0.840346 0.489659
vn -0.232495 -0.840346 0.489659
vn -0.232495 -0.840346 0.489659
vn 0.106828 0.844731 -0.524421
vn 0.107051 0.844736 -0.524368
vn 0.090006 0.844230 -0.528371
vn 0.090006 0.844230 -0.528371
vn 0.215602 0.218976 -0.951612
vn 0.215607 0.218977 -0.951611
vn 0.213187 0.218925 -0.952168
vn 0.213187 0.218925 -0.952168
vn 0.211243 -0.534874 -0.818099
vn 0.211243 -0.534874 -0.818099
vn 0.199366 -0.535052 -0.820958
vn 0.199507 -0.535051 -0.820925
vn 0.085376 -0.975079 -0.204774
vn 0.085376 -0.975079 -0.204774
vn 0.067336 -0.975552 -0.209201
vn 0.067659 -0.975546 -0.209123
vn -0.090675 -0.844220 0.528272
vn -0.090675 -0.844220 0.528272
vn -0.102567 -0.844606 0.525473
vn -0.102405 -0.844601 0.525511
vn -0.211386 -0.218893 0.952577
vn -0.211390 -0.218893 0.952576
vn -0.213805 -0.218945 0.952024
vn -0.213805 -0.218945 0.952024
vn -0.195068 0.535092 0.821964
vn -0.194870 0.535094 0.822010
vn -0.211897 0.534855 0.817942
vn -0.211897 0.534855 0.817942
vn -0.063499 0.975611 0.210122
vn -0.063084 0.975616 0.210223
vn -0.085982 0.975066 0.204579
vn -0.085982 0.975066 0.204579
vn 0.126886 0.844995 -0.519503
vn 0.127034 0.844995 -0.519466
vn -0.039199 0.975612 0.215972
vn -0.039156 0.975612 0.215982
vn -0.180890 0.535165 0.825153
vn -0.180871 0.535165 0.825157
vn -0.215790 -0.218976 0.951569
vn -0.215579 -0.218972 0.951618
vn -0.122754 -0.844968 0.520539
vn -0.122453 -0.844965 0.520615
vn 0.043240 -0.975657 -0.214998
vn 0.043341 -0.975658 -0.214974
vn 0.185287 -0.535156 -0.824182
vn 0.185242 -0.535156 -0.824192
vn 0.219775 0.219058 -0.950638
vn 0.219840 0.219059 -0.950623
vn 0.394208 -0.383433 -0.835213
vn 0.394208 -0.383433 -0.835213
vn 0.394208 -0.383432 -0.835212
vn 0.394208 -0.383433 -0.835213
vn 0.219989 -0.881668 0.417452
vn 0.219989 -0.881668 0.417452
vn 0.219989 -0.881668 0.417452
vn 0.219989 -0.881668 0.417452
vn 0.102054 -0.929138 -0.355369
vn 0.102054 -0.929138 -0.355370
vn 0.051787 -0.930402 -0.362863
vn 0.051803 -0.930402 -0.362861
vn 0.152393 0.383032 0.911078
vn 0.152393 0.383032 0.911078
vn 0.152393 0.383032 0.911078
vn 0.152393 0.383032 0.911078
vn -0.093692 -0.366332 0.925755
vn -0.093692 -0.366332 0.925755
vn -0.125001 -0.366528 0.921972
vn -0.125017 -0.366528 0.921970
vn -0.299233 -0.362019 -0.882837
vn -0.299233 -0.362019 -0.882837
vn -0.299233 -0.362019 -0.882837
vn -0.299233 -0.362019 -0.882837
vn -0.463934 -0.833020 0.301401
vn -0.463934 -0.833020 0.301401
vn -0.463934 -0.833020 0.301401
vn -0.463934 -0.833020 0.301401
vn -0.527841 0.362608 0.768049
vn -0.527841 0.362608 0.768049
vn -0.527841 0.362608 0.768049
vn -0.527841 0.362608 0.768049
vn 0.134273 0.366519 -0.920671
vn 0.134263 0.366519 -0.920672
vn 0.113642 0.366497 -0.923453
vn 0.113642 0.366497 -0.923453
vn -0.363120 0.833640 -0.416159
vn -0.363120 0.833640 -0.416159
vn -0.363120 0.833640 -0.416159
vn -0.363120 0.833640 -0.416159
vn -0.042540 0.930374 0.364136
vn -0.042526 0.930374 0.364137
vn -0.082247 0.929924 0.358436
vn -0.082247 0.929924 0.358436
vn 0.326622 0.881274 -0.341577
vn 0.326622 0.881274 -0.341577
vn 0.326622 0.881274 -0.341577
vn 0.326622 0.881274 -0.341577
vn 0.001280 -0.915613 0.402060
vn 0.001280 -0.915613 0.402060
vn -0.053971 -0.917072 0.395052
vn -0.053982 -0.917072 0.395050
vn -0.990514 0.000733 -0.137412
vn -0.990514 0.000733 -0.137412
vn -0.990514 0.000733 -0.137412
vn -0.990514 0.000733 -0.137412
vn 0.062706 0.917042 -0.393830
vn 0.062697 0.917042 -0.393831
vn 0.017471 0.916427 -0.399820
vn 0.017471 0.916427 -0.399820
vn 0.990506 -0.000723 0.137465
vn 0.990506 -0.000723 0.137465
vn 0.990506 -0.000723 0.137465
vn 0.990506 -0.000723 0.137465
vn -0.129169 0.398721 0.907930
vn -0.129169 0.398721 0.907930
vn -0.120651 0.398710 0.909106
vn -0.120646 0.398710 0.909107
vn 0.147900 -0.398638 -0.905104
vn 0.147900 -0.398638 -0.905104
vn 0.129370 -0.398724 -0.907900
vn 0.129381 -0.398724 -0.907899
vn 0.245771 -0.911950 -0.328549
vn 0.245771 -0.911950 -0.328549
vn 0.245771 -0.911950 -0.328549
vn 0.071435 -0.359335 0.930471
vn 0.071435 -0.359335 0.930470
vn 0.071435 -0.359335 0.930470
vn -0.258757 -0.884663 -0.387835
vn -0.258757 -0.884663 -0.387835
vn -0.258757 -0.884663 -0.387835
vn -0.427956 -0.348372 0.833961
vn -0.427956 -0.348372 0.833961
vn -0.427956 -0.348372 0.833961
vn -0.184153 0.348840 -0.918912
vn -0.184153 0.348840 -0.918912
vn -0.184153 0.348840 -0.918912
vn -0.353339 0.885106 0.302885
vn -0.353339 0.885106 0.302885
vn -0.353339 0.885106 0.302885
vn 0.322652 0.359038 -0.875778
vn 0.322652 0.359038 -0.875778
vn 0.322652 0.359038 -0.875778
vn 0.148305 0.911661 0.383250
vn 0.148305 0.911661 0.383250
vn 0.148305 0.911661 0.383250
vn 0.045355 -0.930393 -0.363748
vn 0.045359 -0.930393 -0.363747
vn 0.071471 -0.930197 -0.360036
vn 0.071471 -0.930197 -0.360036
vn 0.122537 -0.398720 -0.908849
vn 0.122538 -0.398720 -0.908849
vn 0.126263 -0.398724 -0.908337
vn 0.126263 -0.398724 -0.908337
vn 0.107389 0.366467 -0.924213
vn 0.107389 0.366467 -0.924213
vn 0.125643 0.366536 -0.921881
vn 0.125643 0.366536 -0.921881
vn 0.025867 0.916687 -0.398769
vn 0.025867 0.916687 -0.398769
vn 0.053532 0.917073 -0.395110
vn 0.053531 0.917073 -0.395110
vn -0.070462 0.930216 0.360184
vn -0.070462 0.930216 0.360185
vn -0.052247 0.930404 0.362793
vn -0.052245 0.930404 0.362794
vn -0.129034 0.398718 0.907950
vn -0.129035 0.398718 0.907950
vn -0.125310 0.398719 0.908471
vn -0.125310 0.398719 0.908472
vn -0.132530 -0.366520 0.920923
vn -0.132532 -0.366520 0.920923
vn -0.106376 -0.366455 0.924335
vn -0.106376 -0.366455 0.924335
vn -0.060026 -0.917061 0.394204
vn -0.060029 -0.917061 0.394204
vn -0.024913 -0.916662 0.398887
vn -0.024913 -0.916662 0.398887
vn 0.014508 -0.929791 -0.367802
vn 0.014312 -0.929784 -0.367827
vn -0.097194 -0.916225 0.388696
vn -0.097154 -0.916227 0.388702
vn -0.154115 -0.366381 0.917613
vn -0.154199 -0.366380 0.917599
vn -0.122178 0.398712 0.908901
vn -0.122649 0.398713 0.908837
vn -0.020950 0.929991 0.366984
vn -0.021351 0.930003 0.366932
vn 0.090804 0.916461 -0.389685
vn 0.090896 0.916458 -0.389671
vn 0.147341 0.366453 -0.918696
vn 0.147541 0.366452 -0.918665
vn 0.116127 -0.398700 -0.909699
vn 0.115982 -0.398699 -0.909718
vn -0.083304 0.395477 -0.914690
vn -0.083304 0.395477 -0.914690
vn -0.083304 0.395477 -0.914690
vn -0.083304 0.395477 -0.914690
vn -0.369560 0.869940 0.326544
vn -0.369560 0.869940 0.326544
vn -0.369560 0.869940 0.326544
vn -0.369560 0.869940 0.326544
vn 0.011195 0.934883 -0.354781
vn 0.011195 0.934883 -0.354781
vn 0.060857 0.936953 -0.344114
vn 0.060844 0.936953 -0.344117
vn -0.455050 -0.403706 0.793694
vn -0.455050 -0.403706 0.793694
vn -0.455050 -0.403706 0.793694
vn -0.455050 -0.403706 0.793694
vn -0.244341 0.348319 0.904970
vn -0.244341 0.348319 0.904970
vn -0.213704 0.349002 0.912430
vn -0.213690 0.349002 0.912433
vn 0.583015 0.384009 -0.715982
vn 0.583015 0.384009 -0.715982
vn 0.583015 0.384009 -0.715982
vn 0.583015 0.384009 -0.715982
vn 0.312380 0.832563 0.457446
vn 0.312380 0.832563 0.457446
vn 0.312380 0.832563 0.457446
vn 0.312380 0.832563 0.457446
vn 0.231563 -0.371534 0.899078
vn 0.231563 -0.371534 0.899078
vn 0.231563 -0.371534 0.899078
vn 0.231563 -0.371534 0.899078
vn 0.204568 -0.349135 -0.914471
vn 0.204578 -0.349135 -0.914469
vn 0.224859 -0.348789 -0.909827
vn 0.224859 -0.348788 -0.909827
vn 0.502184 -0.820087 -0.274350
vn 0.502184 -0.820087 -0.274350
vn 0.502184 -0.820087 -0.274350
vn 0.502184 -0.820087 -0.274350
vn -0.069964 -0.937071 0.342058
vn -0.069975 -0.937071 0.342056
vn -0.030798 -0.935989 0.350681
vn -0.030798 -0.935989 0.350680
vn -0.168794 -0.878183 -0.447553
vn -0.168794 -0.878183 -0.447553
vn -0.168794 -0.878183 -0.447553
vn -0.168794 -0.878183 -0.447553
vn -0.160069 0.907019 0.389480
vn -0.160069 0.907019 0.389480
vn -0.105912 0.909339 0.402350
vn -0.105903 0.909339 0.402353
vn 0.975552 0.014918 0.219262
vn 0.975552 0.014918 0.219262
vn 0.975552 0.014918 0.219262
vn 0.975552 0.014918 0.219262
vn 0.097307 -0.909446 -0.404277
vn 0.097315 -0.909446 -0.404275
vn 0.141745 -0.908121 -0.393987
vn 0.141745 -0.908121 -0.393987
vn -0.975551 -0.014917 -0.219265
vn -0.975551 -0.014917 -0.219265
vn -0.975551 -0.014917 -0.219265
vn -0.975551 -0.014917 -0.219265
vn -0.190047 -0.415680 0.889434
vn -0.190047 -0.415680 0.889434
vn -0.198434 -0.415807 0.887541
vn -0.198439 -0.415807 0.887540
vn 0.171521 0.415295 -0.893371
vn 0.171521 0.415295 -0.893371
vn 0.189848 0.415678 -0.889477
vn 0.189838 0.415678 -0.889480
vn -0.132431 0.915283 -0.380419
vn -0.132431 0.915283 -0.380419
vn -0.132431 0.915283 -0.380419
vn -0.400443 0.339097 0.851269
vn -0.400443 0.339097 0.851269
vn -0.400443 0.339097 0.851269
vn 0.361243 0.895757 -0.259080
vn 0.361243 0.895757 -0.259080
vn 0.361243 0.895757 -0.259080
vn 0.101143 0.336582 0.936207
vn 0.101143 0.336582 0.936207
vn 0.101143 0.336582 0.936207
vn 0.501719 -0.327358 -0.800696
vn 0.501719 -0.327358 -0.800697
vn 0.501719 -0.327358 -0.800697
vn 0.241616 -0.886525 0.394583
vn 0.241616 -0.886525 0.394583
vn 0.241616 -0.886525 0.394583
vn 0.012315 -0.345042 -0.938507
vn 0.012315 -0.345042 -0.938507
vn 0.012315 -0.345042 -0.938507
vn -0.255702 -0.921230 0.293175
vn -0.255702 -0.921230 0.293175
vn -0.255702 -0.921230 0.293176
vn 0.067193 0.937043 -0.342689
vn 0.067188 0.937043 -0.342690
vn 0.041444 0.936432 -0.348392
vn 0.041444 0.936432 -0.348392
vn 0.196577 0.415788 -0.887963
vn 0.196577 0.415788 -0.887963
vn 0.192909 0.415733 -0.888793
vn 0.192909 0.415733 -0.888793
vn 0.230980 -0.348652 -0.908345
vn 0.230980 -0.348652 -0.908345
vn 0.213074 -0.349008 -0.912575
vn 0.213072 -0.349008 -0.912575
vn 0.133519 -0.908516 -0.395944
vn 0.133519 -0.908516 -0.395944
vn 0.106343 -0.909334 -0.402246
vn 0.106345 -0.909335 -0.402246
vn -0.042440 -0.936469 0.348174
vn -0.042440 -0.936469 0.348174
vn -0.060404 -0.936946 0.344213
vn -0.060406 -0.936947 0.344213
vn -0.190179 -0.415686 0.889403
vn -0.190179 -0.415686 0.889403
vn -0.193848 -0.415747 0.888582
vn -0.193848 -0.415747 0.888582
vn -0.206288 0.349106 0.914095
vn -0.206287 0.349106 0.914096
vn -0.231970 0.348629 0.908101
vn -0.231970 0.348629 0.908101
vn -0.099946 0.909424 0.403680
vn -0.099943 0.909425 0.403681
vn -0.134453 0.908475 0.395722
vn -0.134453 0.908475 0.395722
vn 0.097503 0.936926 -0.335652
vn 0.097697 0.936923 -0.335606
vn -0.063201 0.909184 0.411571
vn -0.063240 0.909185 0.411563
vn -0.184916 0.349322 0.918575
vn -0.184832 0.349322 0.918592
vn -0.196932 -0.415788 0.887884
vn -0.196469 -0.415781 0.887990
vn -0.091182 -0.937027 0.337145
vn -0.090788 -0.937032 0.337238
vn 0.069535 -0.909316 -0.410255
vn 0.069443 -0.909314 -0.410275
vn 0.191640 -0.349277 -0.917213
vn 0.191442 -0.349278 -0.917254
vn 0.202878 0.415865 -0.886508
vn 0.203020 0.415866 -0.886475
vn -0.268213 -0.963356 0.002632
vn -0.268213 -0.963356 0.002632
vn -0.268213 -0.963356 0.002632
vn -0.268213 -0.963356 0.002632
vn -0.081371 -0.059095 -0.994930
vn -0.081371 -0.059095 -0.994930
vn -0.081371 -0.059095 -0.994930
vn -0.081371 -0.059095 -0.994930
vn 0.088792 -0.746202 -0.659771
vn 0.088792 -0.746202 -0.659771
vn 0.138813 -0.746535 -0.650704
vn 0.138800 -0.746535 -0.650707
vn -0.272838 0.955637 -0.110982
vn -0.272838 0.955637 -0.110982
vn -0.272838 0.955637 -0.110982
vn -0.272838 0.955637 -0.110982
vn 0.103321 0.664342 -0.740253
vn 0.103321 0.664342 -0.740253
vn 0.134318 0.665184 -0.734500
vn 0.134334 0.665184 -0.734496
vn 0.411523 -0.901245 0.135671
vn 0.411523 -0.901245 0.135671
vn 0.411523 -0.901245 0.135671
vn 0.411523 -0.901245 0.135671
vn 0.588165 -0.046383 -0.807410
vn 0.588165 -0.046383 -0.807410
vn 0.588165 -0.046383 -0.807410
vn 0.588165 -0.046383 -0.807410
vn 0.407143 0.912927 0.028253
vn 0.407143 0.912928 0.028253
vn 0.407143 0.912927 0.028253
vn 0.407143 0.912927 0.028253
vn -0.143495 -0.665303 0.732654
vn -0.143486 -0.665303 0.732656
vn -0.123073 -0.664954 0.736675
vn -0.123073 -0.664954 0.736675
vn 0.230497 0.058054 0.971340
vn 0.230497 0.058054 0.971340
vn 0.230497 0.058054 0.971340
vn 0.230497 0.058054 0.971340
vn -0.147966 0.746382 0.648860
vn -0.147975 0.746382 0.648858
vn -0.108562 0.746559 0.656402
vn -0.108562 0.746559 0.656402
vn -0.459681 0.051369 0.886597
vn -0.459681 0.051369 0.886597
vn -0.459681 0.051369 0.886597
vn -0.459681 0.051369 0.886597
vn 0.140391 -0.058172 -0.988386
vn 0.140391 -0.058172 -0.988386
vn 0.195314 -0.057491 -0.979054
vn 0.195321 -0.057491 -0.979053
vn 0.980443 0.013985 0.196304
vn 0.980443 0.013984 0.196304
vn 0.980443 0.013985 0.196304
vn 0.980443 0.013984 0.196304
vn -0.203954 0.057369 0.977298
vn -0.203947 0.057369 0.977300
vn -0.159080 0.057969 0.985562
vn -0.159080 0.057969 0.985563
vn -0.980438 -0.014004 -0.196331
vn -0.980438 -0.014004 -0.196331
vn -0.980438 -0.014004 -0.196331
vn -0.980438 -0.014004 -0.196331
vn 0.000941 0.998291 -0.058427
vn 0.000941 0.998291 -0.058427
vn -0.007490 0.998163 -0.060115
vn -0.007495 0.998163 -0.060116
vn -0.019512 -0.998312 0.054695
vn -0.019512 -0.998313 0.054695
vn -0.001140 -0.998293 0.058389
vn -0.001151 -0.998293 0.058387
vn -0.056999 -0.734366 -0.676356
vn -0.056999 -0.734366 -0.676356
vn -0.056999 -0.734366 -0.676356
vn -0.060334 0.649150 -0.758264
vn -0.060334 0.649150 -0.758264
vn -0.060334 0.649150 -0.758264
vn 0.436914 -0.705648 -0.557823
vn 0.436914 -0.705648 -0.557823
vn 0.436914 -0.705648 -0.557823
vn 0.433677 0.637012 -0.637291
vn 0.433677 0.637012 -0.637291
vn 0.433677 0.637012 -0.637291
vn 0.172207 -0.628354 0.758627
vn 0.172207 -0.628354 0.758627
vn 0.172207 -0.628354 0.758627
vn 0.168970 0.714305 0.679130
vn 0.168970 0.714305 0.679130
vn 0.168970 0.714305 0.679130
vn -0.329752 -0.654709 0.680162
vn -0.329752 -0.654709 0.680162
vn -0.329752 -0.654709 0.680162
vn -0.333081 0.728796 0.598259
vn -0.333081 0.728796 0.598259
vn -0.333081 0.728796 0.598259
vn 0.145178 -0.746440 -0.649424
vn 0.145176 -0.746440 -0.649424
vn 0.119284 -0.746637 -0.654450
vn 0.119284 -0.746637 -0.654450
vn 0.005624 -0.998198 0.059741
vn 0.005623 -0.998198 0.059741
vn 0.001937 -0.998256 0.059002
vn 0.001937 -0.998256 0.059002
vn -0.116883 -0.664794 0.737826
vn -0.116883 -0.664794 0.737826
vn -0.134955 -0.665194 0.734373
vn -0.134953 -0.665194 0.734374
vn -0.167431 0.057866 0.984184
vn -0.167431 0.057866 0.984184
vn -0.194877 0.057497 0.979141
vn -0.194877 0.057497 0.979141
vn -0.120287 0.746636 0.654267
vn -0.120287 0.746636 0.654267
vn -0.138358 0.746541 0.650794
vn -0.138360 0.746541 0.650794
vn 0.000807 0.998290 -0.058454
vn 0.000808 0.998290 -0.058454
vn -0.002880 0.998242 -0.059193
vn -0.002880 0.998242 -0.059193
vn 0.141773 0.665284 -0.733006
vn 0.141772 0.665284 -0.733006
vn 0.115880 0.664762 -0.738013
vn 0.115880 0.664762 -0.738013
vn 0.201306 -0.057407 -0.977845
vn 0.201306 -0.057407 -0.977845
vn 0.166483 -0.057874 -0.984344
vn 0.166483 -0.057874 -0.984344
vn 0.175595 -0.745539 -0.642913
vn 0.175788 -0.745531 -0.642870
vn 0.237970 -0.056833 -0.969608
vn 0.237931 -0.056833 -0.969618
vn 0.163133 0.665369 -0.728472
vn 0.163216 0.665369 -0.728454
vn -0.005979 0.998192 -0.059813
vn -0.005514 0.998200 -0.059720
vn -0.169258 0.745786 0.644326
vn -0.168863 0.745800 0.644413
vn -0.231680 0.056933 0.971125
vn -0.231772 0.056931 0.971103
vn -0.156430 -0.665376 0.729935
vn -0.156628 -0.665376 0.729892
vn 0.011963 -0.998065 0.061010
vn 0.012106 -0.998062 0.061039
vn -0.359926 0.524002 0.771930
vn -0.359926 0.524002 0.771930
vn -0.359926 0.524002 0.771930
vn -0.359926 0.524002 0.771930
vn -0.399625 -0.800189 0.447212
vn -0.399625 -0.800189 0.447212
vn -0.399625 -0.800189 0.447212
vn -0.399625 -0.800189 0.447212
vn -0.229125 -0.225511 0.946914
vn -0.229125 -0.225511 0.946914
vn -0.182279 -0.229222 0.956155
vn -0.182246 -0.229225 0.956160
vn -0.153929 -0.488098 -0.859108
vn -0.153929 -0.488098 -0.859108
vn -0.153929 -0.488098 -0.859108
vn -0.153929 -0.488098 -0.859108
vn -0.061191 -0.967970 -0.243494
vn -0.061191 -0.967970 -0.243494
vn -0.032036 -0.970551 -0.238757
vn -0.031862 -0.970564 -0.238728
vn 0.293352 0.453674 0.841501
vn 0.293352 0.453674 0.841501
vn 0.293352 0.453674 0.841501
vn 0.293352 0.453674 0.841501
vn 0.255473 -0.807631 0.531475
vn 0.255473 -0.807631 0.531475
vn 0.255473 -0.807631 0.531475
vn 0.255473 -0.807631 0.531475
vn 0.488549 -0.508377 -0.709135
vn 0.488549 -0.508377 -0.709135
vn 0.488549 -0.508377 -0.709135
vn 0.488549 -0.508377 -0.709135
vn 0.023225 0.971171 0.237252
vn 0.023339 0.971163 0.237271
vn 0.042585 0.969724 0.240464
vn 0.042585 0.969724 0.240464
vn 0.526426 0.749835 -0.400778
vn 0.526426 0.749835 -0.400778
vn 0.526426 0.749835 -0.400778
vn 0.526426 0.749835 -0.400778
vn 0.173579 0.229841 -0.957624
vn 0.173607 0.229839 -0.957619
vn 0.210690 0.227030 -0.950825
vn 0.210690 0.227030 -0.950825
vn -0.114196 0.838205 -0.533265
vn -0.114196 0.838205 -0.533265
vn -0.114196 0.838205 -0.533265
vn -0.114196 0.838205 -0.533265
vn -0.200830 -0.843464 0.498232
vn -0.200830 -0.843464 0.498232
vn -0.149541 -0.848522 0.507590
vn -0.149266 -0.848543 0.507636
vn 0.984021 -0.070777 0.163380
vn 0.984021 -0.070777 0.163380
vn 0.984021 -0.070777 0.163380
vn 0.984021 -0.070777 0.163380
vn 0.141107 0.849139 -0.508971
vn 0.141349 0.849122 -0.508932
vn 0.183437 0.845454 -0.501556
vn 0.183437 0.845454 -0.501556
vn -0.983996 0.070719 -0.163557
vn -0.983996 0.070719 -0.163557
vn -0.983996 0.070719 -0.163557
vn -0.983996 0.070719 -0.163557
vn 0.110165 -0.524520 -0.844241
vn 0.110165 -0.524520 -0.844241
vn 0.102203 -0.523958 -0.845590
vn 0.102174 -0.523956 -0.845595
vn -0.127704 0.525620 0.841080
vn -0.127704 0.525620 0.841080
vn -0.110333 0.524514 0.844223
vn -0.110390 0.524518 0.844213
vn -0.361726 -0.211806 0.907906
vn -0.361726 -0.211806 0.907906
vn -0.361726 -0.211806 0.907906
vn -0.213447 -0.940393 -0.264766
vn -0.213447 -0.940393 -0.264766
vn -0.213447 -0.940393 -0.264766
vn 0.115934 -0.240404 0.963725
vn 0.115934 -0.240404 0.963725
vn 0.115934 -0.240404 0.963725
vn 0.260268 -0.948666 -0.179704
vn 0.260268 -0.948666 -0.179704
vn 0.260268 -0.948666 -0.179704
vn 0.315932 0.907808 0.275812
vn 0.315932 0.907808 0.275812
vn 0.315932 0.907808 0.275812
vn 0.459988 0.198351 -0.865487
vn 0.459988 0.198351 -0.865487
vn 0.459988 0.198351 -0.865487
vn -0.156367 0.966567 0.203220
vn -0.156367 0.966567 0.203220
vn -0.156367 0.966567 0.203220
vn -0.007826 0.238800 -0.971037
vn -0.007826 0.238800 -0.971037
vn -0.007826 0.238800 -0.971037
vn -0.176254 -0.229656 0.957180
vn -0.176219 -0.229658 0.957186
vn -0.200643 -0.227825 0.952805
vn -0.200643 -0.227825 0.952805
vn -0.103952 0.524082 0.845300
vn -0.103963 0.524083 0.845298
vn -0.107444 0.524336 0.844706
vn -0.107444 0.524336 0.844706
vn 0.048424 0.969212 0.241418
vn 0.048424 0.969212 0.241418
vn 0.031312 0.970610 0.238613
vn 0.031407 0.970603 0.238629
vn 0.175632 0.846250 -0.503005
vn 0.175632 0.846250 -0.503005
vn 0.149748 0.848510 -0.507550
vn 0.149887 0.848499 -0.507526
vn 0.199702 0.227937 -0.952976
vn 0.199702 0.227937 -0.952976
vn 0.182670 0.229220 -0.956080
vn 0.182697 0.229218 -0.956076
vn 0.110028 -0.524530 -0.844252
vn 0.110041 -0.524531 -0.844250
vn 0.106545 -0.524301 -0.844841
vn 0.106545 -0.524301 -0.844841
vn -0.024968 -0.971047 -0.237580
vn -0.024839 -0.971056 -0.237559
vn -0.049364 -0.969120 -0.241598
vn -0.049364 -0.969120 -0.241598
vn -0.143820 -0.848950 0.508527
vn -0.143647 -0.848962 0.508555
vn -0.176517 -0.846172 0.502827
vn -0.176517 -0.846172 0.502827
vn -0.147291 -0.231634 0.961588
vn -0.147108 -0.231646 0.961613
vn -0.108786 -0.850873 0.513986
vn -0.108795 -0.850872 0.513984
vn -0.004635 -0.972197 -0.234120
vn -0.004572 -0.972199 -0.234109
vn 0.103647 -0.524066 -0.845347
vn 0.104034 -0.524094 -0.845282
vn 0.153348 0.231244 -0.960734
vn 0.153723 0.231220 -0.960680
vn 0.114770 0.850624 -0.513095
vn 0.114747 0.850625 -0.513098
vn 0.010995 0.971889 0.235182
vn 0.010846 0.971897 0.235157
vn -0.097951 0.523632 0.846295
vn -0.097832 0.523623 0.846314
vn 0.203357 -0.400466 0.893461
vn 0.203357 -0.400466 0.893461
vn 0.203357 -0.400466 0.893461
vn 0.203357 -0.400466 0.893461
vn 0.226808 0.875780 0.426109
vn 0.226808 0.875780 0.426109
vn 0.226808 0.875780 0.426109
vn 0.226808 0.875780 0.426109
vn -0.035069 0.344220 0.938234
vn -0.035069 0.344220 0.938234
vn -0.085806 0.343981 0.935048
vn -0.085791 0.343981 0.935049
vn 0.346270 0.408234 -0.844655
vn 0.346270 0.408234 -0.844655
vn 0.346270 0.408234 -0.844655
vn 0.346270 0.408234 -0.844655
vn 0.051824 0.938803 -0.340533
vn 0.051824 0.938803 -0.340533
vn 0.020429 0.938920 -0.343528
vn 0.020414 0.938920 -0.343529
vn -0.483375 -0.388142 0.784662
vn -0.483375 -0.388142 0.784662
vn -0.483375 -0.388142 0.784662
vn -0.483375 -0.388142 0.784662
vn -0.461199 0.818384 0.342845
vn -0.461199 0.818384 0.342845
vn -0.461199 0.818384 0.342845
vn -0.461199 0.818384 0.342845
vn -0.348270 0.376374 -0.858517
vn -0.348270 0.376374 -0.858517
vn -0.348270 0.376374 -0.858517
vn -0.348270 0.376374 -0.858517
vn -0.011104 -0.938776 0.344349
vn -0.011114 -0.938776 0.344348
vn -0.031837 -0.938986 0.342479
vn -0.031837 -0.938986 0.342479
vn -0.370424 -0.830153 -0.416692
vn -0.370424 -0.830153 -0.416692
vn -0.370424 -0.830153 -0.416692
vn -0.370424 -0.830153 -0.416692
vn 0.095102 -0.343839 -0.934201
vn 0.095114 -0.343838 -0.934199
vn 0.055104 -0.344223 -0.937269
vn 0.055104 -0.344223 -0.937269
vn 0.322826 -0.867996 -0.377315
vn 0.322826 -0.867996 -0.377315
vn 0.322826 -0.867996 -0.377315
vn 0.322826 -0.867996 -0.377315
vn 0.007105 0.906422 0.422313
vn 0.007105 0.906422 0.422313
vn -0.048441 0.907122 0.418070
vn -0.048452 0.907122 0.418069
vn -0.995982 -0.014085 -0.088435
vn -0.995982 -0.014085 -0.088435
vn -0.995982 -0.014085 -0.088435
vn -0.995982 -0.014085 -0.088435
vn 0.057224 -0.906974 -0.417281
vn 0.057216 -0.906974 -0.417282
vn 0.011744 -0.906975 -0.421020
vn 0.011744 -0.906976 -0.421020
vn 0.995988 0.014125 0.088364
vn 0.995988 0.014125 0.088364
vn 0.995988 0.014125 0.088364
vn 0.995988 0.014125 0.088364
vn 0.070934 0.420624 -0.904458
vn 0.070934 0.420624 -0.904458
vn 0.079499 0.420743 -0.903690
vn 0.079503 0.420743 -0.903689
vn -0.052051 -0.420256 0.905911
vn -0.052051 -0.420257 0.905911
vn -0.070733 -0.420622 0.904474
vn -0.070721 -0.420622 0.904476
vn 0.112002 0.339890 0.933772
vn 0.112002 0.339890 0.933772
vn 0.112002 0.339890 0.933772
vn 0.215035 0.922917 -0.319350
vn 0.215035 0.922917 -0.319350
vn 0.215035 0.922917 -0.319350
vn -0.391326 0.322796 0.861781
vn -0.391326 0.322796 0.861781
vn -0.391326 0.322796 0.861781
vn -0.291345 0.888590 -0.354296
vn -0.291345 0.888590 -0.354296
vn -0.291345 0.888590 -0.354296
vn -0.324136 -0.897302 0.299642
vn -0.324136 -0.897302 0.299642
vn -0.324136 -0.897302 0.299642
vn -0.224154 -0.331466 -0.916453
vn -0.224154 -0.331466 -0.916453
vn -0.224154 -0.331466 -0.916453
vn 0.181224 -0.917308 0.354547
vn 0.181224 -0.917308 0.354547
vn 0.181224 -0.917308 0.354547
vn 0.284263 -0.334268 -0.898587
vn 0.284263 -0.334268 -0.898587
vn 0.284263 -0.334268 -0.898587
vn -0.092272 0.343889 0.934466
vn -0.092269 0.343889 0.934466
vn -0.065980 0.344184 0.936581
vn -0.065980 0.344184 0.936581
vn -0.077603 -0.420720 0.903865
vn -0.077602 -0.420720 0.903865
vn -0.073857 -0.420669 0.904203
vn -0.073857 -0.420669 0.904203
vn -0.038107 -0.938971 0.341879
vn -0.038107 -0.938971 0.341879
vn -0.019782 -0.938914 0.343583
vn -0.019784 -0.938914 0.343583
vn 0.020184 -0.907120 -0.420388
vn 0.020184 -0.907120 -0.420388
vn 0.047998 -0.907128 -0.418109
vn 0.048001 -0.907128 -0.418109
vn 0.066998 -0.344165 -0.936516
vn 0.066998 -0.344165 -0.936516
vn 0.085344 -0.343985 -0.935089
vn 0.085345 -0.343985 -0.935088
vn 0.071070 0.420628 -0.904445
vn 0.071070 0.420628 -0.904445
vn 0.074816 0.420683 -0.904118
vn 0.074816 0.420683 -0.904118
vn 0.012858 0.938809 -0.344199
vn 0.012855 0.938809 -0.344199
vn 0.039123 0.938963 -0.341786
vn 0.039123 0.938963 -0.341786
vn -0.054532 0.907027 0.417526
vn -0.054531 0.907027 0.417526
vn -0.019226 0.907107 0.420461
vn -0.019226 0.907107 0.420461
vn -0.123205 0.343233 0.931135
vn -0.123401 0.343227 0.931111
vn -0.091908 0.905700 0.413836
vn -0.091868 0.905702 0.413841
vn -0.008896 0.938187 -0.346015
vn -0.008980 0.938184 -0.346022
vn 0.077965 0.420726 -0.903832
vn 0.077491 0.420720 -0.903875
vn 0.116756 -0.343400 -0.931904
vn 0.116354 -0.343410 -0.931950
vn 0.085481 -0.906019 -0.414515
vn 0.085575 -0.906015 -0.414505
vn 0.002062 -0.938431 0.345460
vn 0.002263 -0.938425 0.345476
vn -0.084040 -0.420793 0.903256
vn -0.084186 -0.420794 0.903241
s off
g polySurface130 group11_pCylinder5
usemtl lambert4SG
f 1/1/1 3/2/2 19/3/3 21/4/4
f 2/537/5 1/1/6 6/6/7 5/536/8
s 1
f 3/8/9 2/5/10 41/9/11 42/10/12
s off
f 4/11/13 6/6/14 22/12/15 24/13/16
s 2
f 5/7/17 4/14/18 47/15/19 48/16/20
s off
f 7/17/21 9/18/22 14/19/23 13/20/24
f 9/18/25 8/545/26 11/544/27 10/23/28
f 10/23/29 12/24/30 18/25/31 17/26/32
s 3
f 43/27/33 44/28/34 20/29/35 19/30/36
s off
f 15/31/37 14/19/38 17/26/39 16/32/40
s 4
f 45/33/41 46/34/42 24/35/43 23/533/44
s off
f 21/4/45 20/29/46 23/533/47 22/12/48
s 5
f 2/5/49 5/7/50 48/16/51 41/9/52
s off
f 9/18/53 10/23/54 17/26/55 14/19/56
s 6
f 44/28/57 45/33/58 23/533/59 20/29/60
s off
f 21/4/61 22/12/62 6/6/63 1/1/64
s 7
f 4/14/65 24/37/66 46/38/67 47/15/68
s 8
f 19/30/69 3/8/70 42/10/71 43/27/72
s off
f 1/1/73 2/538/74 3/2/75
f 4/11/76 5/535/77 6/6/78
f 7/17/79 8/540/80 9/18/81
f 10/23/82 11/22/83 12/24/84
f 13/20/85 14/19/86 15/543/87
f 16/539/88 17/26/89 18/25/90
f 19/3/91 20/534/92 21/4/93
f 22/12/94 23/36/95 24/13/96
s 1
f 33/40/97 34/41/98 8/21/99 7/542/100
s 8
f 40/42/101 33/40/102 7/542/103 13/43/104
s 3
f 13/43/105 15/31/106 39/44/107 40/42/108
s 6
f 15/31/109 16/32/110 38/45/111 39/44/112
s 4
f 16/32/113 18/46/114 37/47/115 38/45/116
s 7
f 36/48/117 37/49/118 18/50/119 12/39/120
s 2
f 35/51/121 36/48/122 12/39/123 11/541/124
s 5
f 34/41/125 35/51/126 11/541/127 8/21/128
s 1
f 26/52/129 25/53/130 34/41/98 33/40/97
s 5
f 25/53/131 32/54/132 35/51/126 34/41/125
s 2
f 32/54/133 31/55/134 36/48/122 35/51/121
s 7
f 31/55/135 30/56/136 37/49/118 36/48/117
s 4
f 38/45/116 37/47/115 30/57/137 29/58/138
s 6
f 39/44/112 38/45/111 29/58/139 28/59/140
s 3
f 40/42/108 39/44/107 28/59/141 27/60/142
s 8
f 27/60/143 26/52/144 33/40/102 40/42/101
s 1
f 42/10/12 41/9/11 25/53/130 26/52/129
s 8
f 43/27/72 42/10/71 26/52/144 27/60/143
s 3
f 27/60/142 28/59/141 44/28/34 43/27/33
s 6
f 28/59/140 29/58/139 45/33/58 44/28/57
s 4
f 29/58/138 30/57/137 46/34/42 45/33/41
s 7
f 47/15/68 46/38/67 30/56/136 31/55/135
s 2
f 48/16/20 47/15/19 31/55/134 32/54/133
s 5
f 41/9/52 48/16/51 32/54/132 25/53/131
s off
f 49/61/145 51/62/146 67/63/147 69/64/148
f 50/583/149 49/61/150 54/66/151 53/582/152
s 17
f 51/68/153 50/65/154 89/69/155 90/70/156
s off
f 52/71/157 54/66/158 70/72/159 72/73/160
s 18
f 53/67/161 52/74/162 95/75/163 96/76/164
s off
f 55/77/165 57/78/166 62/79/167 61/80/168
f 57/78/169 56/572/170 59/571/171 58/83/172
f 58/83/173 60/84/174 66/85/175 65/86/176
s 19
f 91/87/177 92/88/178 68/89/179 67/90/180
s off
f 63/91/181 62/79/182 65/86/183 64/92/184
s 20
f 93/93/185 94/94/186 72/95/187 71/579/188
s off
f 69/64/189 68/89/190 71/579/191 70/72/192
s 21
f 50/65/193 53/67/194 96/76/195 89/69/196
s off
f 57/78/197 58/83/198 65/86/199 62/79/200
s 22
f 92/88/201 93/93/202 71/579/203 68/89/204
s off
f 69/64/205 70/72/206 54/66/207 49/61/208
s 23
f 52/74/209 72/97/210 94/98/211 95/75/212
s 24
f 67/90/213 51/68/214 90/70/215 91/87/216
s off
f 49/61/217 50/584/218 51/62/219
f 52/71/220 53/581/221 54/66/222
f 55/77/223 56/567/224 57/78/225
f 58/83/226 59/82/227 60/84/228
f 61/80/229 62/79/230 63/570/231
f 64/566/232 65/86/233 66/85/234
f 67/63/235 68/580/236 69/64/237
f 70/72/238 71/96/239 72/73/240
s 17
f 81/100/241 82/101/242 56/81/243 55/569/244
s 24
f 88/102/245 81/100/246 55/569/247 61/103/248
s 19
f 61/103/249 63/91/250 87/104/251 88/102/252
s 22
f 63/91/253 64/92/254 86/105/255 87/104/256
s 20
f 64/92/257 66/106/258 85/107/259 86/105/260
s 23
f 84/108/261 85/109/262 66/110/263 60/99/264
s 18
f 83/111/265 84/108/266 60/99/267 59/568/268
s 21
f 82/101/269 83/111/270 59/568/271 56/81/272
s 17
f 74/112/273 73/113/274 82/101/242 81/100/241
s 21
f 73/113/275 80/114/276 83/111/270 82/101/269
s 18
f 80/114/277 79/115/278 84/108/266 83/111/265
s 23
f 79/115/279 78/116/280 85/109/262 84/108/261
s 20
f 86/105/260 85/107/259 78/117/281 77/118/282
s 22
f 87/104/256 86/105/255 77/118/283 76/119/284
s 19
f 88/102/252 87/104/251 76/119/285 75/120/286
s 24
f 75/120/287 74/112/288 81/100/246 88/102/245
s 17
f 90/70/156 89/69/155 73/113/274 74/112/273
s 24
f 91/87/216 90/70/215 74/112/288 75/120/287
s 19
f 75/120/286 76/119/285 92/88/178 91/87/177
s 22
f 76/119/284 77/118/283 93/93/202 92/88/201
s 20
f 77/118/282 78/117/281 94/94/186 93/93/185
s 23
f 95/75/212 94/98/211 78/116/280 79/115/279
s 18
f 96/76/164 95/75/163 79/115/278 80/114/277
s 21
f 89/69/196 96/76/195 80/114/276 73/113/275
s off
f 97/121/289 99/122/290 115/123/291 117/124/292
f 98/125/293 97/121/294 102/126/295 101/127/296
s 33
f 99/128/297 98/125/298 137/129/299 138/130/300
s off
f 100/131/301 102/126/302 118/132/303 120/133/304
s 34
f 101/127/305 100/134/306 143/135/307 144/136/308
s off
f 103/137/309 105/138/310 110/139/311 109/140/312
f 105/138/313 104/141/314 107/549/315 106/143/316
f 106/143/317 108/144/318 114/145/319 113/146/320
s 35
f 139/147/321 140/148/322 116/149/323 115/150/324
s off
f 111/151/325 110/139/326 113/146/327 112/547/328
s 36
f 141/153/329 142/154/330 120/155/331 119/553/332
s off
f 117/124/333 116/556/334 119/554/335 118/132/336
s 37
f 98/125/337 101/127/338 144/136/339 137/129/340
s off
f 105/138/341 106/143/342 113/146/343 110/139/344
s 38
f 140/148/345 141/153/346 119/553/347 116/149/348
s off
f 117/124/349 118/132/350 102/126/351 97/121/352
s 39
f 100/134/353 120/157/354 142/158/355 143/135/356
s 40
f 115/150/357 99/128/358 138/130/359 139/147/360
s off
f 97/121/361 98/558/362 99/122/363
f 100/131/364 101/557/365 102/126/366
f 103/137/367 104/550/368 105/138/369
f 106/143/370 107/142/371 108/144/372
f 109/140/373 110/139/374 111/552/375
f 112/546/376 113/146/377 114/145/378
f 115/123/379 116/555/380 117/124/381
f 118/132/382 119/156/383 120/133/384
s 33
f 129/160/385 130/161/386 104/141/387 103/551/388
s 40
f 136/162/389 129/160/390 103/551/391 109/163/392
s 35
f 109/163/393 111/548/394 135/164/395 136/162/396
s 38
f 111/548/397 112/152/398 134/165/399 135/164/400
s 36
f 112/152/401 114/166/402 133/167/403 134/165/404
s 39
f 132/168/405 133/169/406 114/170/407 108/159/408
s 34
f 131/171/409 132/168/410 108/159/411 107/549/412
s 37
f 130/161/413 131/171/414 107/549/415 104/141/416
s 33
f 122/172/417 121/173/418 130/161/386 129/160/385
s 37
f 121/173/419 128/174/420 131/171/414 130/161/413
s 34
f 128/174/421 127/175/422 132/168/410 131/171/409
s 39
f 127/175/423 126/176/424 133/169/406 132/168/405
s 36
f 134/165/404 133/167/403 126/177/425 125/178/426
s 38
f 135/164/400 134/165/399 125/178/427 124/179/428
s 35
f 136/162/396 135/164/395 124/179/429 123/180/430
s 40
f 123/180/431 122/172/432 129/160/390 136/162/389
s 33
f 138/130/300 137/129/299 121/173/418 122/172/417
s 40
f 139/147/360 138/130/359 122/172/432 123/180/431
s 35
f 123/180/430 124/179/429 140/148/322 139/147/321
s 38
f 124/179/428 125/178/427 141/153/346 140/148/345
s 36
f 125/178/426 126/177/425 142/154/330 141/153/329
s 39
f 143/135/356 142/158/355 126/176/424 127/175/423
s 34
f 144/136/308 143/135/307 127/175/422 128/174/421
s 37
f 137/129/340 144/136/339 128/174/420 121/173/419
s off
f 145/181/433 147/182/434 163/183/435 165/184/436
f 146/482/437 145/181/438 150/186/439 149/492/440
s 49
f 147/188/441 146/185/442 185/189/443 186/190/444
s off
f 148/191/445 150/186/446 166/192/447 168/193/448
s 50
f 149/187/449 148/194/450 191/195/451 192/196/452
s off
f 151/197/453 153/198/454 158/199/455 157/200/456
f 153/198/457 152/489/458 155/488/459 154/203/460
f 154/203/461 156/204/462 162/205/463 161/206/464
s 51
f 187/207/465 188/208/466 164/209/467 163/210/468
s off
f 159/211/469 158/199/470 161/206/471 160/212/472
s 52
f 189/213/473 190/214/474 168/215/475 167/490/476
s off
f 165/184/477 164/209/478 167/490/479 166/192/480
s 53
f 146/185/481 149/187/482 192/196/483 185/189/484
s off
f 153/198/485 154/203/486 161/206/487 158/199/488
s 54
f 188/208/489 189/213/490 167/490/491 164/209/492
s off
f 165/184/493 166/192/494 150/186/495 145/181/496
s 55
f 148/194/497 168/217/498 190/218/499 191/195/500
s 56
f 163/210/501 147/188/502 186/190/503 187/207/504
s off
f 145/181/505 146/493/506 147/182/507
f 148/191/508 149/481/509 150/186/510
f 151/197/511 152/483/512 153/198/513
f 154/203/514 155/202/515 156/204/516
f 157/200/517 158/199/518 159/487/519
f 160/486/520 161/206/521 162/205/522
f 163/183/523 164/491/524 165/184/525
f 166/192/526 167/216/527 168/193/528
s 49
f 177/220/529 178/221/530 152/201/531 151/485/532
s 56
f 184/222/533 177/220/534 151/485/535 157/223/536
s 51
f 157/223/537 159/211/538 183/224/539 184/222/540
s 54
f 159/211/541 160/212/542 182/225/543 183/224/544
s 52
f 160/212/545 162/226/546 181/227/547 182/225/548
s 55
f 180/228/549 181/229/550 162/230/551 156/219/552
s 50
f 179/231/553 180/228/554 156/219/555 155/484/556
s 53
f 178/221/557 179/231/558 155/484/559 152/201/560
s 49
f 170/232/561 169/233/562 178/221/530 177/220/529
s 53
f 169/233/563 176/234/564 179/231/558 178/221/557
s 50
f 176/234/565 175/235/566 180/228/554 179/231/553
s 55
f 175/235/567 174/236/568 181/229/550 180/228/549
s 52
f 182/225/548 181/227/547 174/237/569 173/238/570
s 54
f 183/224/544 182/225/543 173/238/571 172/239/572
s 51
f 184/222/540 183/224/539 172/239/573 171/240/574
s 56
f 171/240/575 170/232/576 177/220/534 184/222/533
s 49
f 186/190/444 185/189/443 169/233/562 170/232/561
s 56
f 187/207/504 186/190/503 170/232/576 171/240/575
s 51
f 171/240/574 172/239/573 188/208/466 187/207/465
s 54
f 172/239/572 173/238/571 189/213/490 188/208/489
s 52
f 173/238/570 174/237/569 190/214/474 189/213/473
s 55
f 191/195/500 190/218/499 174/236/568 175/235/567
s 50
f 192/196/452 191/195/451 175/235/566 176/234/565
s 53
f 185/189/484 192/196/483 176/234/564 169/233/563
s off
f 193/241/577 195/242/578 211/243/579 213/244/580
f 194/523/581 193/241/582 198/246/583 197/524/584
s 65
f 195/248/585 194/245/586 233/249/587 234/250/588
s off
f 196/251/589 198/246/590 214/252/591 216/253/592
s 66
f 197/247/593 196/254/594 239/255/595 240/256/596
s off
f 199/257/597 201/258/598 206/259/599 205/260/600
f 201/258/601 200/532/602 203/531/603 202/263/604
f 202/263/605 204/264/606 210/265/607 209/266/608
s 67
f 235/267/609 236/268/610 212/269/611 211/270/612
s off
f 207/271/613 206/259/614 209/266/615 208/272/616
s 68
f 237/273/617 238/274/618 216/275/619 215/521/620
s off
f 213/244/621 212/269/622 215/521/623 214/252/624
s 69
f 194/245/625 197/247/626 240/256/627 233/249/628
s off
f 201/258/629 202/263/630 209/266/631 206/259/632
s 70
f 236/268/633 237/273/634 215/521/635 212/269/636
s off
f 213/244/637 214/252/638 198/246/639 193/241/640
s 71
f 196/254/641 216/277/642 238/278/643 239/255/644
s 72
f 211/270/645 195/248/646 234/250/647 235/267/648
s off
f 193/241/649 194/525/650 195/242/651
f 196/251/652 197/522/653 198/246/654
f 199/257/655 200/527/656 201/258/657
f 202/263/658 203/262/659 204/264/660
f 205/260/661 206/259/662 207/530/663
f 208/526/664 209/266/665 210/265/666
f 211/243/667 212/520/668 213/244/669
f 214/252/670 215/276/671 216/253/672
s 65
f 225/280/673 226/281/674 200/261/675 199/529/676
s 72
f 232/282/677 225/280/678 199/529/679 205/283/680
s 67
f 205/283/681 207/271/682 231/284/683 232/282/684
s 70
f 207/271/685 208/272/686 230/285/687 231/284/688
s 68
f 208/272/689 210/286/690 229/287/691 230/285/692
s 71
f 228/288/693 229/289/694 210/290/695 204/279/696
s 66
f 227/291/697 228/288/698 204/279/699 203/528/700
s 69
f 226/281/701 227/291/702 203/528/703 200/261/704
s 65
f 218/292/705 217/293/706 226/281/674 225/280/673
s 69
f 217/293/707 224/294/708 227/291/702 226/281/701
s 66
f 224/294/709 223/295/710 228/288/698 227/291/697
s 71
f 223/295/711 222/296/712 229/289/694 228/288/693
s 68
f 230/285/692 229/287/691 222/297/713 221/298/714
s 70
f 231/284/688 230/285/687 221/298/715 220/299/716
s 67
f 232/282/684 231/284/683 220/299/717 219/300/718
s 72
f 219/300/719 218/292/720 225/280/678 232/282/677
s 65
f 234/250/588 233/249/587 217/293/706 218/292/705
s 72
f 235/267/648 234/250/647 218/292/720 219/300/719
s 67
f 219/300/718 220/299/717 236/268/610 235/267/609
s 70
f 220/299/716 221/298/715 237/273/634 236/268/633
s 68
f 221/298/714 222/297/713 238/274/618 237/273/617
s 71
f 239/255/644 238/278/643 222/296/712 223/295/711
s 66
f 240/256/596 239/255/595 223/295/710 224/294/709
s 69
f 233/249/628 240/256/627 224/294/708 217/293/707
s off
f 241/301/721 243/302/722 259/303/723 261/304/724
f 242/518/725 241/301/726 246/306/727 245/517/728
s 81
f 243/308/729 242/305/730 281/309/731 282/310/732
s off
f 244/311/733 246/306/734 262/312/735 264/313/736
s 82
f 245/307/737 244/314/738 287/315/739 288/316/740
s off
f 247/317/741 249/318/742 254/319/743 253/320/744
f 249/318/745 248/510/746 251/508/747 250/323/748
f 250/323/749 252/324/750 258/325/751 257/326/752
s 83
f 283/327/753 284/328/754 260/329/755 259/330/756
s off
f 255/331/757 254/319/758 257/326/759 256/332/760
s 84
f 285/333/761 286/334/762 264/335/763 263/514/764
s off
f 261/304/765 260/329/766 263/514/767 262/312/768
s 85
f 242/305/769 245/307/770 288/316/771 281/309/772
s off
f 249/318/773 250/323/774 257/326/775 254/319/776
s 86
f 284/328/777 285/333/778 263/514/779 260/329/780
s off
f 261/304/781 262/312/782 246/306/783 241/301/784
s 87
f 244/314/785 264/337/786 286/338/787 287/315/788
s 88
f 259/330/789 243/308/790 282/310/791 283/327/792
s off
f 241/301/793 242/519/794 243/302/795
f 244/311/796 245/516/797 246/306/798
f 247/317/799 248/509/800 249/318/801
f 250/323/802 251/322/803 252/324/804
f 253/320/805 254/319/806 255/513/807
f 256/512/808 257/326/809 258/325/810
f 259/303/811 260/515/812 261/304/813
f 262/312/814 263/336/815 264/313/816
s 81
f 273/340/817 274/341/818 248/321/819 247/511/820
s 88
f 280/342/821 273/340/822 247/511/823 253/343/824
s 83
f 253/343/825 255/331/826 279/344/827 280/342/828
s 86
f 255/331/829 256/332/830 278/345/831 279/344/832
s 84
f 256/332/833 258/346/834 277/347/835 278/345/836
s 87
f 276/348/837 277/349/838 258/350/839 252/339/840
s 82
f 275/351/841 276/348/842 252/339/843 251/507/844
s 85
f 274/341/845 275/351/846 251/507/847 248/321/848
s 81
f 266/352/849 265/353/850 274/341/818 273/340/817
s 85
f 265/353/851 272/354/852 275/351/846 274/341/845
s 82
f 272/354/853 271/355/854 276/348/842 275/351/841
s 87
f 271/355/855 270/356/856 277/349/838 276/348/837
s 84
f 278/345/836 277/347/835 270/357/857 269/358/858
s 86
f 279/344/832 278/345/831 269/358/859 268/359/860
s 83
f 280/342/828 279/344/827 268/359/861 267/360/862
s 88
f 267/360/863 266/352/864 273/340/822 280/342/821
s 81
f 282/310/732 281/309/731 265/353/850 266/352/849
s 88
f 283/327/792 282/310/791 266/352/864 267/360/863
s 83
f 267/360/862 268/359/861 284/328/754 283/327/753
s 86
f 268/359/860 269/358/859 285/333/778 284/328/777
s 84
f 269/358/858 270/357/857 286/334/762 285/333/761
s 87
f 287/315/788 286/338/787 270/356/856 271/355/855
s 82
f 288/316/740 287/315/739 271/355/854 272/354/853
s 85
f 281/309/772 288/316/771 272/354/852 265/353/851
s off
f 289/361/865 291/362/866 307/363/867 309/364/868
f 290/577/869 289/361/870 294/366/871 293/576/872
s 97
f 291/368/873 290/365/874 329/369/875 330/370/876
s off
f 292/371/877 294/366/878 310/372/879 312/373/880
s 98
f 293/367/881 292/374/882 335/375/883 336/376/884
s off
f 295/377/885 297/378/886 302/379/887 301/380/888
f 297/378/889 296/565/890 299/564/891 298/383/892
f 298/383/893 300/384/894 306/385/895 305/386/896
s 99
f 331/387/897 332/388/898 308/389/899 307/390/900
s off
f 303/391/901 302/379/902 305/386/903 304/392/904
s 100
f 333/393/905 334/394/906 312/395/907 311/573/908
s off
f 309/364/909 308/389/910 311/573/911 310/372/912
s 101
f 290/365/913 293/367/914 336/376/915 329/369/916
s off
f 297/378/917 298/383/918 305/386/919 302/379/920
s 102
f 332/388/921 333/393/922 311/573/923 308/389/924
s off
f 309/364/925 310/372/926 294/366/927 289/361/928
s 103
f 292/374/929 312/397/930 334/398/931 335/375/932
s 104
f 307/390/933 291/368/934 330/370/935 331/387/936
s off
f 289/361/937 290/578/938 291/362/939
f 292/371/940 293/575/941 294/366/942
f 295/377/943 296/560/944 297/378/945
f 298/383/946 299/382/947 300/384/948
f 301/380/949 302/379/950 303/563/951
f 304/559/952 305/386/953 306/385/954
f 307/363/955 308/574/956 309/364/957
f 310/372/958 311/396/959 312/373/960
s 97
f 321/400/961 322/401/962 296/381/963 295/562/964
s 104
f 328/402/965 321/400/966 295/562/967 301/403/968
s 99
f 301/403/969 303/391/970 327/404/971 328/402/972
s 102
f 303/391/973 304/392/974 326/405/975 327/404/976
s 100
f 304/392/977 306/406/978 325/407/979 326/405/980
s 103
f 324/408/981 325/409/982 306/410/983 300/399/984
s 98
f 323/411/985 324/408/986 300/399/987 299/561/988
s 101
f 322/401/989 323/411/990 299/561/991 296/381/992
s 97
f 314/412/993 313/413/994 322/401/962 321/400/961
s 101
f 313/413/995 320/414/996 323/411/990 322/401/989
s 98
f 320/414/997 319/415/998 324/408/986 323/411/985
s 103
f 319/415/999 318/416/1000 325/409/982 324/408/981
s 100
f 326/405/980 325/407/979 318/417/1001 317/418/1002
s 102
f 327/404/976 326/405/975 317/418/1003 316/419/1004
s 99
f 328/402/972 327/404/971 316/419/1005 315/420/1006
s 104
f 315/420/1007 314/412/1008 321/400/966 328/402/965
s 97
f 330/370/876 329/369/875 313/413/994 314/412/993
s 104
f 331/387/936 330/370/935 314/412/1008 315/420/1007
s 99
f 315/420/1006 316/419/1005 332/388/898 331/387/897
s 102
f 316/419/1004 317/418/1003 333/393/922 332/388/921
s 100
f 317/418/1002 318/417/1001 334/394/906 333/393/905
s 103
f 335/375/932 334/398/931 318/416/1000 319/415/999
s 98
f 336/376/884 335/375/883 319/415/998 320/414/997
s 101
f 329/369/916 336/376/915 320/414/996 313/413/995
s off
f 337/421/1009 339/422/1010 355/423/1011 357/424/1012
f 338/496/1013 337/421/1014 342/426/1015 341/497/1016
s 113
f 339/428/1017 338/425/1018 377/429/1019 378/430/1020
s off
f 340/431/1021 342/426/1022 358/432/1023 360/433/1024
s 114
f 341/427/1025 340/434/1026 383/435/1027 384/436/1028
s off
f 343/437/1029 345/438/1030 350/439/1031 349/440/1032
f 345/438/1033 344/506/1034 347/505/1035 346/443/1036
f 346/443/1037 348/444/1038 354/445/1039 353/446/1040
s 115
f 379/447/1041 380/448/1042 356/449/1043 355/450/1044
s off
f 351/451/1045 350/439/1046 353/446/1047 352/452/1048
s 116
f 381/453/1049 382/454/1050 360/455/1051 359/499/1052
s off
f 357/424/1053 356/449/1054 359/499/1055 358/432/1056
s 117
f 338/425/1057 341/427/1058 384/436/1059 377/429/1060
s off
f 345/438/1061 346/443/1062 353/446/1063 350/439/1064
s 118
f 380/448/1065 381/453/1066 359/499/1067 356/449/1068
s off
f 357/424/1069 358/432/1070 342/426/1071 337/421/1072
s 119
f 340/434/1073 360/457/1074 382/458/1075 383/435/1076
s 120
f 355/450/1077 339/428/1078 378/430/1079 379/447/1080
s off
f 337/421/1081 338/498/1082 339/422/1083
f 340/431/1084 341/495/1085 342/426/1086
f 343/437/1087 344/500/1088 345/438/1089
f 346/443/1090 347/442/1091 348/444/1092
f 349/440/1093 350/439/1094 351/504/1095
f 352/503/1096 353/446/1097 354/445/1098
f 355/423/1099 356/494/1100 357/424/1101
f 358/432/1102 359/456/1103 360/433/1104
s 113
f 369/460/1105 370/461/1106 344/441/1107 343/502/1108
s 120
f 376/462/1109 369/460/1110 343/502/1111 349/463/1112
s 115
f 349/463/1113 351/451/1114 375/464/1115 376/462/1116
s 118
f 351/451/1117 352/452/1118 374/465/1119 375/464/1120
s 116
f 352/452/1121 354/466/1122 373/467/1123 374/465/1124
s 119
f 372/468/1125 373/469/1126 354/470/1127 348/459/1128
s 114
f 371/471/1129 372/468/1130 348/459/1131 347/501/1132
s 117
f 370/461/1133 371/471/1134 347/501/1135 344/441/1136
s 113
f 362/472/1137 361/473/1138 370/461/1106 369/460/1105
s 117
f 361/473/1139 368/474/1140 371/471/1134 370/461/1133
s 114
f 368/474/1141 367/475/1142 372/468/1130 371/471/1129
s 119
f 367/475/1143 366/476/1144 373/469/1126 372/468/1125
s 116
f 374/465/1124 373/467/1123 366/477/1145 365/478/1146
s 118
f 375/464/1120 374/465/1119 365/478/1147 364/479/1148
s 115
f 376/462/1116 375/464/1115 364/479/1149 363/480/1150
s 120
f 363/480/1151 362/472/1152 369/460/1110 376/462/1109
s 113
f 378/430/1020 377/429/1019 361/473/1138 362/472/1137
s 120
f 379/447/1080 378/430/1079 362/472/1152 363/480/1151
s 115
f 363/480/1150 364/479/1149 380/448/1042 379/447/1041
s 118
f 364/479/1148 365/478/1147 381/453/1066 380/448/1065
s 116
f 365/478/1146 366/477/1145 382/454/1050 381/453/1049
s 119
f 383/435/1076 382/458/1075 366/476/1144 367/475/1143
s 114
f 384/436/1028 383/435/1027 367/475/1142 368/474/1141
s 117
f 377/429/1060 384/436/1059 368/474/1140 361/473/1139
