# This file uses meters as units for non-parametric coordinates.

mtllib haus.mtl
g default
v -1405.203369 344.539703 1526.463257
v 1403.936646 344.539703 1526.463257
v -1405.203369 1077.539429 1526.463257
v 1403.936646 1077.539429 1526.463257
v -1405.203369 1077.539429 -1519.262451
v 1403.936646 1077.539429 -1519.262573
v -1405.203369 344.539703 -1519.262451
v 1403.936646 344.539703 -1519.262085
v -0.633172 344.539703 1526.463257
v -0.633172 1922.186401 1526.463257
v -0.633172 1922.186401 -1519.262573
v -1405.203369 1005.329773 1526.463257
v -1405.203369 1005.329773 -1519.262451
v 1403.936646 1005.329773 -1519.262085
v 1403.936646 1005.329773 1526.463257
v -0.633172 1851.534790 1526.463257
v -1510.510498 941.959595 1526.463257
v -1510.510498 941.959595 -1519.262451
v -1510.510498 1014.169250 1526.463257
v -1510.510498 1014.169250 -1519.262451
v 1509.243896 941.959595 -1519.262573
v 1509.243896 941.959595 1526.463257
v 1509.243896 1014.169250 -1519.262573
v 1509.243896 1014.169250 1526.463257
v -1405.203369 1077.539429 -1649.692993
v -0.633172 1922.186401 -1649.692871
v -0.633172 1851.534790 -1649.692871
v -1405.203369 1005.329773 -1649.692993
v 1403.936646 1005.329773 -1649.692871
v 1403.936646 1077.539429 -1649.692871
v -1510.510498 941.959595 -1649.692993
v -1510.510498 1014.169250 -1649.692993
v 1509.243896 1014.169250 -1649.692871
v 1509.243896 941.959595 -1649.692871
v -0.633172 1851.534790 1656.893921
v -0.633172 1922.186401 1656.893921
v 1403.936523 1005.329773 1656.893921
v 1403.936523 1077.539429 1656.893921
v -1405.203369 1005.329773 1656.893921
v -1405.203369 1077.539429 1656.893921
v -1510.510498 1014.169250 1656.893921
v -1510.510498 941.959595 1656.893921
v 1509.243896 941.959595 1656.893921
v 1509.243896 1014.169250 1656.893921
v -562.461243 344.539703 1526.463257
v -562.461243 1513.052734 1526.463257
v -562.461243 1513.052734 1656.893921
v -562.461243 1584.327637 1656.893921
v -562.461243 1584.327637 1526.463257
v -562.461243 1584.327637 -1519.262451
v -562.461243 1584.327637 -1649.692505
v -562.461243 1513.052734 -1649.692505
v -562.461243 1513.052734 -1519.261963
v -562.461243 344.539703 -1519.261963
v -0.633172 1851.534790 -2419.830566
v -0.633172 344.539703 -2419.830566
v 1403.936646 1005.329773 -2419.830566
v 1403.936646 344.539703 -2419.830566
v -562.461182 1513.052734 -2419.830566
v -562.461182 344.539703 -2419.830566
v -0.633371 1851.534790 -2550.261963
v 1403.937134 1005.329773 -2550.261963
v -0.633371 1922.186401 -2550.261963
v 1403.937134 1077.539429 -2550.261963
v 1509.244507 1014.169250 -2550.261963
v 1509.244507 941.959595 -2550.261963
v -562.461792 1584.327637 -2550.261963
v -562.461792 1513.052734 -2550.261963
v -1405.203369 344.539703 2097.788086
v -562.461182 344.539703 2097.788086
v -562.461182 1513.052734 2097.788086
v -1405.203369 1005.329773 2097.788086
v -562.460876 1513.052734 2228.218750
v -1405.203369 1005.329773 2228.218750
v -562.460876 1584.327637 2228.218750
v -1405.203369 1077.539429 2228.218750
v -1510.510498 1014.169250 2228.218750
v -1510.510498 941.959595 2228.218750
v -671.405151 1518.594727 -1649.693237
v -671.405151 1447.319824 -1649.693237
v -671.405762 1518.594727 -2550.261963
v -671.405762 1447.319824 -2550.261963
vt 0.438439 0.402075
vt 0.823094 0.402075
vt 0.823094 0.485528
vt 0.438439 0.485528
vt 0.936830 0.402075
vt 0.936830 0.485528
vt 0.476388 0.507199
vt 0.851916 0.507199
vt 0.851916 0.588503
vt 0.476388 0.588503
vt 0.922212 0.507199
vt 0.922212 0.588503
vt 0.970820 0.958903
vt 0.970820 0.610097
vt 0.979090 0.610097
vt 0.017743 0.392594
vt 0.970820 0.595160
vt 0.979090 0.595160
vt 0.030439 0.077978
vt 0.030439 0.392594
vt 0.017743 0.406067
vt 0.970820 0.973840
vt 0.970820 0.529677
vt 0.979090 0.529677
vt 0.030439 0.064505
vt 0.131955 0.077978
vt 0.131955 0.392594
vt 0.030439 0.406067
vt 0.030439 0.005441
vt 0.131955 0.064505
vt 0.199634 0.077978
vt 0.199634 0.392594
vt 0.131955 0.406067
vt 0.131955 0.005441
vt 0.199634 0.064505
vt 0.199634 0.406067
vt 0.199634 0.499165
vt 0.131955 0.499165
vt 0.118530 0.499165
vt 0.118530 0.406067
vt 0.706887 0.691429
vt 0.706887 0.794644
vt 0.943183 0.950930
vt 0.943183 0.663398
vt 0.950000 0.663398
vt 0.222783 0.431308
vt 0.943183 0.651085
vt 0.950000 0.651085
vt 0.235438 0.117716
vt 0.235438 0.431308
vt 0.222783 0.444737
vt 0.943183 0.963244
vt 0.943183 0.566067
vt 0.950000 0.566067
vt 0.235438 0.104287
vt 0.404189 0.117716
vt 0.404189 0.431308
vt 0.235438 0.444737
vt 0.235438 0.011563
vt 0.404189 0.104287
vt 0.404189 0.444737
vt 0.404189 0.011563
vt 0.654017 0.052066
vt 0.653839 0.182874
vt 0.553204 0.051929
vt 0.808708 0.148357
vt 0.808708 0.306353
vt 0.731459 0.306353
vt 0.731459 0.148357
vt 0.507980 0.132149
vt 0.507980 0.139139
vt 0.449368 0.139139
vt 0.449368 0.132149
vt 0.507980 0.022890
vt 0.449368 0.022890
vt 0.521224 0.022890
vt 0.521224 0.132149
vt 0.507980 0.010389
vt 0.449368 0.010389
vt 0.521224 0.202742
vt 0.507980 0.202742
vt 0.521224 0.010389
vt 0.854303 0.022890
vt 0.854303 0.010389
vt 0.867200 0.010389
vt 0.867200 0.022890
vt 0.871434 0.130772
vt 0.854303 0.112979
vt 0.871434 0.197945
vt 0.963490 0.130772
vt 0.963490 0.197945
vt 0.871434 0.117742
vt 0.963490 0.117742
vt 0.368043 0.741218
vt 0.504183 0.741218
vt 0.504183 0.929506
vt 0.368043 0.848102
vt 0.460275 0.629091
vt 0.324074 0.710293
vt 0.324074 0.522106
vt 0.460275 0.522106
vt 0.302452 0.618152
vt 0.092862 0.744405
vt 0.092876 0.519539
vt 0.302459 0.519552
vt 0.009032 0.693893
vt 0.009043 0.519534
vt 0.227841 0.759747
vt 0.227883 0.984614
vt 0.018276 0.858386
vt 0.018258 0.759786
vt 0.311675 0.759731
vt 0.311707 0.934091
vt 0.683807 0.815038
vt 0.607063 0.674769
vt 0.618642 0.675241
vt 0.695538 0.815517
vt 0.705135 0.833045
vt 0.693404 0.832566
vt 0.879600 0.651253
vt 0.735006 0.875253
vt 0.723524 0.874897
vt 0.867865 0.650889
vt 0.787184 0.968262
vt 0.775601 0.967903
vt 0.878694 0.634094
vt 0.890429 0.634458
vt 0.797318 0.986298
vt 0.785735 0.985940
vt 0.705899 0.873480
vt 0.694415 0.873796
vt 0.550587 0.649294
vt 0.562324 0.648971
vt 0.653501 0.966309
vt 0.641916 0.966628
vt 0.539816 0.632462
vt 0.551553 0.632139
vt 0.733154 0.811736
vt 0.817680 0.675916
vt 0.829267 0.676084
vt 0.744894 0.811906
vt 0.734344 0.828878
vt 0.722604 0.828708
vt 0.521224 0.365598
vt 0.837204 0.365598
vt 0.837204 0.378266
vt 0.521224 0.378266
vt 0.871434 0.365598
vt 0.871434 0.378266
vt 0.507980 0.378266
vt 0.507980 0.365598
vt 0.963490 0.365598
vt 0.963490 0.378266
vt 0.867200 0.112979
vt 0.715050 0.691429
vt 0.715050 0.794644
vt 0.017743 0.064505
vt 0.017743 0.005441
vt 0.017743 0.077978
vt 0.979090 0.958903
vt 0.979090 0.973840
vt 0.553026 0.182736
vt 0.222783 0.104287
vt 0.222783 0.011563
vt 0.950000 0.950930
vt 0.950000 0.963244
vt 0.222783 0.117716
vn -0.000000 0.000000 1.000000
vn -0.000000 0.000000 1.000000
vn -0.000000 0.000000 1.000000
vn -0.000000 0.000000 1.000000
vn -0.515379 0.856963 0.000000
vn -0.515350 0.856980 0.000000
vn -0.515350 0.856980 0.000000
vn -0.515379 0.856963 0.000000
vn 0.000000 0.000000 -1.000000
vn 0.000000 0.000000 -1.000000
vn 0.000000 0.000000 -1.000000
vn 0.000000 0.000000 -1.000000
vn 1.000000 0.000000 0.000000
vn 1.000000 0.000000 0.000000
vn 1.000000 0.000000 0.000000
vn 1.000000 0.000000 0.000000
vn -1.000000 0.000000 0.000000
vn -1.000000 0.000000 0.000000
vn -1.000000 0.000000 0.000000
vn -1.000000 0.000000 0.000000
vn 0.000000 0.000000 1.000000
vn 0.000000 0.000000 1.000000
vn 0.000000 0.000000 1.000000
vn 0.000000 0.000000 1.000000
vn 0.249569 0.968357 0.000000
vn 0.249569 0.968357 0.000000
vn 0.515368 0.856969 0.000000
vn 0.515368 0.856969 0.000000
vn 0.000000 0.000000 -1.000000
vn 0.000000 0.000000 -1.000000
vn 0.000000 0.000000 -1.000000
vn 0.000000 0.000000 -1.000000
vn -1.000000 0.000000 0.000000
vn -1.000000 0.000000 0.000000
vn -1.000000 0.000000 0.000000
vn -1.000000 0.000000 0.000000
vn 0.000000 0.000000 -1.000000
vn 0.000000 0.000000 -1.000000
vn 0.000000 0.000000 -1.000000
vn 0.000000 0.000000 -1.000000
vn -0.000000 0.000000 -1.000000
vn -0.000000 0.000000 -1.000000
vn -0.000000 0.000000 -1.000000
vn -0.000000 0.000000 -1.000000
vn 1.000000 0.000000 0.000000
vn 1.000000 0.000000 0.000000
vn 1.000000 0.000000 0.000000
vn 1.000000 0.000000 0.000000
vn 0.000000 0.000000 1.000000
vn 0.000000 0.000000 1.000000
vn 0.000001 0.000000 1.000000
vn 0.000001 0.000000 1.000000
vn -0.000001 0.000000 1.000000
vn -0.000002 0.000000 1.000000
vn -0.000002 0.000000 1.000000
vn -0.000001 0.000000 1.000000
vn 0.515717 -0.856759 0.000000
vn 0.515716 -0.856759 0.000000
vn 0.515608 -0.856825 0.000000
vn 0.515608 -0.856825 0.000000
vn 0.000000 0.000000 1.000000
vn 0.000000 0.000000 1.000000
vn -0.515608 0.856825 0.000000
vn -0.515608 0.856825 0.000000
vn 0.000001 0.000000 -1.000000
vn 0.000001 0.000000 -1.000000
vn -0.515763 -0.856731 -0.000000
vn -0.515607 -0.856825 0.000000
vn -0.515607 -0.856825 0.000000
vn -0.515607 -0.856825 -0.000000
vn 0.000000 0.000000 -1.000000
vn 0.000000 0.000000 -1.000000
vn 0.515607 0.856825 0.000000
vn 0.515607 0.856825 0.000000
vn 0.000000 0.000000 1.000000
vn 0.000000 0.000000 1.000000
vn -0.515508 0.856885 0.000000
vn -0.515379 0.856963 0.000000
vn 0.516048 -0.856560 0.000000
vn 0.516048 -0.856560 0.000000
vn 0.515999 -0.856589 0.000000
vn 0.515368 0.856969 0.000000
vn 0.515350 0.856980 0.000000
vn 0.515607 -0.856825 0.000000
vn -1.000000 0.000000 0.000000
vn -1.000000 0.000000 0.000000
vn -0.515607 0.856825 0.000000
vn 0.515607 0.856825 0.000000
vn 1.000000 0.000000 0.000001
vn 1.000000 0.000000 0.000001
vn -0.516013 -0.856581 -0.000000
vn -0.515607 -0.856825 -0.000000
vn -0.516048 -0.856560 -0.000001
vn -0.516017 -0.856578 -0.000001
vn -0.516048 -0.856560 -0.000001
vn 0.515350 0.856980 0.000001
vn 0.515368 0.856969 0.000001
vn 0.516048 -0.856560 0.000000
vn 0.516048 -0.856560 0.000000
vn 0.515999 -0.856589 0.000000
vn -0.515350 0.856980 0.000000
vn -0.515379 0.856963 0.000000
vn -0.515608 0.856825 0.000000
vn -1.000000 0.000000 0.000000
vn -1.000000 0.000000 0.000000
vn 0.515608 -0.856825 0.000000
vn -0.515607 -0.856826 -0.000000
vn 1.000000 0.000000 0.000000
vn 1.000000 0.000000 0.000000
vn 0.515607 0.856826 0.000000
vn -0.000000 0.000000 1.000000
vn -0.000000 0.000000 1.000000
vn 0.516048 -0.856560 0.000000
vn 0.516048 -0.856560 0.000000
vn -0.000002 0.000000 1.000000
vn -0.000002 0.000000 1.000000
vn -0.515350 0.856980 0.000000
vn -0.515350 0.856980 0.000000
vn 0.000000 0.000000 -1.000000
vn 0.000000 0.000000 -1.000000
vn 0.000000 0.000000 -1.000000
vn 0.000000 0.000000 -1.000000
vn 1.000000 0.000000 0.000000
vn 1.000000 0.000000 0.000000
vn -1.000000 0.000000 -0.000000
vn -1.000000 0.000000 -0.000000
vn -1.000000 0.000000 -0.000000
vn -1.000000 0.000000 -0.000000
vn -0.516048 -0.856560 -0.000000
vn -0.516048 -0.856560 -0.000000
vn -0.516017 -0.856578 -0.000000
vn 0.515368 0.856969 0.000000
vn 0.515350 0.856980 0.000000
vn 0.515607 0.856825 0.000000
vn 1.000000 0.000000 0.000001
vn 1.000000 0.000000 0.000001
vn -0.515607 -0.856825 -0.000000
vn -1.000000 0.000000 0.000001
vn -1.000000 0.000000 0.000001
vn -1.000000 0.000000 0.000001
vn -1.000000 0.000000 0.000001
vn -0.515350 0.856980 0.000000
vn -0.515555 0.856856 0.000000
vn 0.516048 -0.856560 -0.000000
vn 0.516139 -0.856505 -0.000000
vn 0.516139 -0.856505 -0.000000
vn 0.516048 -0.856560 -0.000000
vn 1.000000 0.000000 -0.000000
vn 1.000000 0.000000 -0.000000
vn 1.000000 0.000000 -0.000000
vn 1.000000 0.000000 -0.000000
vn -1.000000 0.000000 0.000000
vn -1.000000 0.000000 0.000000
vn 0.516048 -0.856560 0.000000
vn 0.515999 -0.856589 0.000000
vn 1.000000 0.000000 -0.000001
vn 1.000000 0.000000 -0.000001
vn 1.000000 0.000000 -0.000001
vn 1.000000 0.000000 -0.000001
vn -0.515379 0.856963 0.000000
vn -0.515350 0.856980 0.000000
vn -0.515608 0.856825 0.000000
vn -1.000000 0.000000 0.000000
vn -1.000000 0.000000 0.000000
vn 0.515608 -0.856825 0.000000
vn -0.516613 0.856219 0.000000
vn -0.516613 0.856219 0.000000
vn 0.000000 0.000000 -1.000000
vn 0.000000 0.000000 -1.000000
vn 0.516613 -0.856219 -0.000000
vn 0.516613 -0.856219 -0.000000
s off
g haus_final
usemtl initialShadingGroup
f 69/94/1 70/95/2 71/96/3 72/97/4
s 1
f 3/19/5 49/26/6 50/27/7 5/20/8
s off
f 13/98/9 53/99/10 54/100/11 7/101/12
s 2
f 2/1/13 8/2/14 14/3/15 15/4/16
s 3
f 7/7/17 1/8/18 12/9/19 13/10/20
s 4
f 15/102/21 16/103/22 9/104/23 2/105/24
s 1
f 11/56/25 10/57/26 4/50/27 6/49/28
s 5
f 56/108/29 55/109/30 57/110/31 58/111/32
s 6
f 18/13/33 17/14/34 19/15/35 20/160/36
s 7
f 25/114/37 51/115/38 52/116/39 28/117/40
s 8
f 62/120/41 61/121/42 63/122/43 64/123/44
s 9
f 22/43/45 21/44/46 23/45/47 24/165/48
s 10
f 36/130/49 35/131/50 37/132/51 38/133/52
s 11
f 74/138/53 73/139/54 75/140/55 76/141/56
s 12
f 13/83/57 12/76/58 17/82/59 18/84/60
s 11
f 74/138/53 76/141/56 77/142/61 78/143/62
s 1
f 3/19/5 5/20/8 20/16/63 19/159/64
s 7
f 25/114/37 28/117/40 31/118/65 32/119/66
s 14
f 15/144/67 14/145/68 21/146/69 22/147/70
s 8
f 62/120/41 64/123/44 65/126/71 66/127/72
s 1
f 6/49/28 4/50/27 24/46/73 23/167/74
s 10
f 38/133/52 37/132/51 43/136/75 44/137/76
s 1
f 5/20/8 50/27/7 51/33/77 25/28/78
s 12
f 52/154/79 53/88/80 13/83/57 28/86/81
s 1
f 11/56/25 6/49/28 30/55/82 26/60/83
s 12
f 13/83/57 18/84/60 31/85/84 28/86/81
s 6
f 18/13/33 20/160/36 32/161/85 31/22/86
s 1
f 20/16/63 5/20/8 25/28/78 32/21/87
f 6/49/28 23/167/74 33/163/88 30/55/82
s 9
f 23/45/47 21/44/46 34/47/89 33/48/90
s 14
f 21/146/69 14/145/68 29/148/91 34/149/92
f 16/80/93 15/144/67 37/151/94 35/81/95
s 1
f 4/50/27 10/57/26 36/61/96 38/58/97
s 12
f 12/76/58 46/77/98 47/70/99 39/74/100
s 1
f 48/30/101 49/26/6 3/19/5 40/25/102
f 3/19/5 19/159/64 41/157/103 40/25/102
s 6
f 19/15/35 17/14/34 42/17/104 41/18/105
s 12
f 17/82/59 12/76/58 39/74/100 42/78/106
s 14
f 15/144/67 22/147/70 43/150/107 37/151/94
s 9
f 22/43/45 24/165/48 44/166/108 43/52/109
s 1
f 24/46/73 4/50/27 38/58/97 44/51/110
s 4
f 46/106/111 45/107/112 9/104/23 16/103/22
s 12
f 47/70/99 46/77/98 16/80/113 35/81/114
s 10
f 48/134/115 47/135/116 35/131/50 36/130/49
s 1
f 10/31/26 49/26/6 48/30/101 36/35/117
f 50/27/7 49/26/6 10/31/26 11/32/25
f 51/33/77 50/27/7 11/32/25 26/36/118
s 8
f 68/124/119 67/125/120 63/122/43 61/121/42
s 5
f 60/112/121 59/113/122 55/109/30 56/108/29
s 2
f 14/3/15 8/2/14 58/5/123 57/6/124
s off
f 54/63/125 53/64/126 59/162/127 60/65/128
s 14
f 29/148/91 27/89/129 61/91/130 62/152/131
s 1
f 26/60/83 30/55/82 64/59/132 63/62/133
f 30/55/82 33/163/88 65/164/134 64/59/132
s 9
f 33/48/90 34/47/89 66/53/135 65/54/136
s 14
f 34/149/92 29/148/91 62/152/131 66/153/137
s off
f 80/41/138 79/155/139 81/156/140 82/42/141
s 1
f 51/33/77 26/36/118 63/37/142 67/38/143
s 17
f 27/89/144 52/87/145 68/90/146 61/91/147
s off
f 45/66/148 46/67/149 71/68/150 70/69/151
s 3
f 12/9/19 1/8/18 69/11/152 72/12/153
s 12
f 39/74/100 47/70/99 73/73/154 74/75/155
s off
f 47/70/156 48/71/157 75/72/158 73/73/159
s 1
f 48/30/101 40/25/102 76/29/160 75/34/161
f 40/25/102 41/157/103 77/158/162 76/29/160
s 6
f 41/18/105 42/17/104 78/23/163 77/24/164
s 12
f 42/78/106 39/74/100 74/75/155 78/79/165
s 1
f 51/33/77 67/38/143 81/39/166 79/40/167
s 8
f 67/125/120 68/124/119 82/128/168 81/129/169
s 17
f 68/90/146 52/87/145 80/92/170 82/93/171
